M48
; DRILL file {KiCad 8.0.1} date 2025-01-16T17:50:04-0700
; FORMAT={-:-/ absolute / inch / decimal}
; #@! TF.CreationDate,2025-01-16T17:50:04-07:00
; #@! TF.GenerationSoftware,Kicad,Pcbnew,8.0.1
; #@! TF.FileFunction,Plated,1,4,PTH
FMAT,2
INCH
; #@! TA.AperFunction,Plated,PTH,ViaDrill
T1C0.0157
; #@! TA.AperFunction,Plated,PTH,ComponentDrill
T2C0.0157
; #@! TA.AperFunction,Plated,PTH,ViaDrill
T3C0.0177
; #@! TA.AperFunction,Plated,PTH,ComponentDrill
T4C0.0236
; #@! TA.AperFunction,Plated,PTH,ComponentDrill
T5C0.0276
; #@! TA.AperFunction,Plated,PTH,ViaDrill
T6C0.0394
; #@! TA.AperFunction,Plated,PTH,ComponentDrill
T7C0.0400
; #@! TA.AperFunction,Plated,PTH,ComponentDrill
T8C0.0433
; #@! TA.AperFunction,Plated,PTH,ViaDrill
T9C0.0787
; #@! TA.AperFunction,Plated,PTH,ComponentDrill
T10C0.0787
%
G90
G05
T1
X3.44Y-2.925
X3.4457Y-3.2745
X3.5507Y-1.8455
X3.597Y-2.311
X3.5995Y-4.4206
X3.64Y-2.145
X3.64Y-2.47
X3.645Y-4.14
X3.6456Y-3.8044
X3.6657Y-4.4025
X3.686Y-2.282
X3.75Y-3.105
X3.775Y-3.055
X3.7837Y-1.8455
X3.785Y-3.76
X3.785Y-4.19
X3.79Y-2.095
X3.79Y-2.52
X3.835Y-3.31
X3.845Y-3.02
X3.932Y-4.448
X3.984Y-2.366
X4.03Y-3.775
X4.032Y-2.618
X4.0537Y-3.6425
X4.065Y-3.27
X4.073Y-2.705
X4.0737Y-4.3505
X4.0737Y-4.4005
X4.078Y-4.453
X4.0797Y-4.2245
X4.1037Y-2.3405
X4.1137Y-2.1725
X4.133Y-2.718
X4.16Y-3.22
X4.227Y-4.449
X4.2277Y-4.3325
X4.2317Y-3.8365
X4.2417Y-2.2285
X4.243Y-2.6345
X4.2437Y-2.4385
X4.2997Y-3.973
X4.3117Y-4.0525
X4.325Y-3.025
X4.3277Y-2.0285
X4.3277Y-2.2465
X4.3277Y-2.4665
X4.374Y-4.341
X4.375Y-4.388
X4.376Y-4.45
X4.3797Y-4.2885
X4.385Y-3.22
X4.4017Y-3.975
X4.4077Y-2.1985
X4.4257Y-2.4285
X4.4377Y-2.6465
X4.4737Y-3.8385
X4.485Y-3.2946
X4.526Y-4.449
X4.5537Y-2.6525
X4.5557Y-2.4365
X4.5637Y-2.2245
X4.5747Y-3.2896
X4.6177Y-3.6445
X4.6217Y-4.2165
X4.64Y-2.98
X4.645Y-3.13
X4.6457Y-2.0305
X4.6457Y-2.4625
X4.6477Y-2.2505
X4.677Y-3.524
X4.6797Y-3.06
X4.68Y-4.34
X4.682Y-4.391
X4.682Y-4.451
X4.7197Y-3.0596
X4.72Y-2.945
X4.735Y-2.895
X4.7478Y-3.1669
X4.75Y-3.76
X4.7593Y-3.3557
X4.7597Y-3.0746
X4.7697Y-3.2246
X4.7747Y-2.8846
X4.7947Y-3.2496
X4.7962Y-4.25
X4.8199Y-3.785
X4.83Y-3.9
X4.8447Y-3.2918
X4.855Y-4.085
X4.8777Y-2.6545
X4.8797Y-2.4425
X4.8817Y-2.2205
X4.9447Y-3.3546
X4.959Y-4.36
X4.959Y-4.462
X4.9637Y-2.4625
X4.9657Y-2.0305
X4.9657Y-2.2505
X4.9947Y-3.3546
X4.995Y-4.325
X5.0222Y-3.3246
X5.025Y-3.7
X5.0274Y-3.95
X5.03Y-2.411
X5.03Y-3.785
X5.0347Y-3.0874
X5.035Y-4.11
X5.045Y-4.17
X5.0457Y-2.1725
X5.0547Y-3.3146
X5.08Y-4.29
X5.085Y-3.965
X5.1Y-3.38
X5.101Y-2.911
X5.11Y-4.445
X5.13Y-2.72
X5.13Y-4.0
X5.1447Y-3.13
X5.145Y-3.51
X5.1497Y-3.2796
X5.16Y-4.2
X5.167Y-2.914
X5.175Y-3.205
X5.1826Y-2.6924
X5.215Y-3.895
X5.22Y-3.13
X5.22Y-3.83
X5.225Y-4.21
X5.23Y-2.705
X5.23Y-3.175
X5.25Y-4.045
X5.27Y-2.95
X5.29Y-3.36
X5.319Y-3.947
X5.325Y-3.655
X5.345Y-2.706
X5.4Y-3.745
X5.405Y-4.26
X5.42Y-3.635
X5.4417Y-2.6535
X5.445Y-2.745
X5.445Y-3.825
X5.4556Y-2.4
X5.4556Y-2.495
X5.57Y-3.53
X5.6035Y-3.9635
X5.6205Y-4.4445
X5.6369Y-2.3742
X5.705Y-4.42
X5.73Y-3.91
T2
X5.5519Y-3.803
X5.5519Y-3.8738
X5.5873Y-3.8384
X5.6228Y-3.803
X5.6228Y-3.8738
T3
X4.4697Y-3.0346
X5.0897Y-3.1196
T6
X4.95Y-3.875
X5.57Y-2.83
T7
X4.893Y-4.41
X5.025Y-4.41
X5.1669Y-2.353
X5.2618Y-2.353
T8
X3.4486Y-2.8336
X3.4486Y-3.4336
X3.5486Y-2.8336
X3.5486Y-3.4336
X3.6486Y-2.8336
X3.6486Y-3.4336
X3.7486Y-2.8336
X3.7486Y-3.4336
X3.8486Y-2.8336
X3.8486Y-3.4336
X3.9486Y-2.8336
X3.9486Y-3.4336
X4.0486Y-2.8336
X4.0486Y-3.4336
X4.1486Y-2.8336
X4.1486Y-3.4336
X4.2486Y-2.8336
X4.2486Y-3.4336
X4.2531Y-3.6594
X4.2531Y-4.2303
X4.3486Y-2.8336
X4.3486Y-3.4336
X4.3516Y-3.6594
X4.4486Y-2.8336
X4.4486Y-3.4336
X4.45Y-3.6594
X4.45Y-4.2303
X4.5486Y-2.8336
X4.5486Y-3.4336
X4.6486Y-2.8336
X4.6486Y-3.4336
X4.7486Y-2.8336
X4.7486Y-3.4336
X4.8486Y-2.8336
X4.8486Y-3.4336
X4.9486Y-2.8336
X4.9486Y-3.4336
X5.0486Y-2.8336
X5.0486Y-3.4336
X5.1486Y-2.8336
X5.1486Y-3.4336
X5.2486Y-2.8336
X5.2486Y-3.4336
X5.3486Y-2.8336
X5.4486Y-2.8336
X5.4486Y-3.4336
X5.5486Y-3.4336
X5.6486Y-3.3336
X5.6486Y-3.4336
X5.7486Y-2.8336
X5.7486Y-3.4336
T9
X4.8947Y-3.1296
T4
G00X3.4787Y-2.0042
M15
G01X3.5102Y-2.0042
M16
G05
G00X3.4787Y-2.1617
M15
G01X3.5102Y-2.1617
M16
G05
G00X3.4793Y-2.43
M15
G01X3.5107Y-2.43
M16
G05
G00X3.4793Y-2.5875
M15
G01X3.5107Y-2.5875
M16
G05
G00X3.4793Y-3.67
M15
G01X3.5107Y-3.67
M16
G05
G00X3.4793Y-3.8275
M15
G01X3.5107Y-3.8275
M16
G05
G00X3.4793Y-4.0992
M15
G01X3.5107Y-4.0992
M16
G05
G00X3.4793Y-4.2567
M15
G01X3.5107Y-4.2567
M16
G05
G00X3.8763Y-1.9531
M15
G01X3.9078Y-1.9531
M16
G05
G00X3.8763Y-2.0003
M15
G01X3.9078Y-2.0003
M16
G05
G00X3.8763Y-2.0475
M15
G01X3.9078Y-2.0475
M16
G05
G00X3.8763Y-2.1381
M15
G01X3.9078Y-2.1381
M16
G05
G00X3.8763Y-2.2129
M15
G01X3.9078Y-2.2129
M16
G05
G00X3.8769Y-2.3788
M15
G01X3.9084Y-2.3788
M16
G05
G00X3.8769Y-2.4261
M15
G01X3.9084Y-2.4261
M16
G05
G00X3.8769Y-2.4733
M15
G01X3.9084Y-2.4733
M16
G05
G00X3.8769Y-2.5639
M15
G01X3.9084Y-2.5639
M16
G05
G00X3.8769Y-2.6387
M15
G01X3.9084Y-2.6387
M16
G05
G00X3.8769Y-3.6188
M15
G01X3.9084Y-3.6188
M16
G05
G00X3.8769Y-3.6661
M15
G01X3.9084Y-3.6661
M16
G05
G00X3.8769Y-3.7133
M15
G01X3.9084Y-3.7133
M16
G05
G00X3.8769Y-3.8039
M15
G01X3.9084Y-3.8039
M16
G05
G00X3.8769Y-3.8787
M15
G01X3.9084Y-3.8787
M16
G05
G00X3.8769Y-4.0481
M15
G01X3.9084Y-4.0481
M16
G05
G00X3.8769Y-4.0953
M15
G01X3.9084Y-4.0953
M16
G05
G00X3.8769Y-4.1425
M15
G01X3.9084Y-4.1425
M16
G05
G00X3.8769Y-4.2331
M15
G01X3.9084Y-4.2331
M16
G05
G00X3.8769Y-4.3079
M15
G01X3.9084Y-4.3079
M16
G05
T5
G00X5.7381Y-2.9874
M15
G01X5.7066Y-2.9874
M16
G05
T10
G00X4.1272Y-3.939
M15
G01X4.1272Y-3.9705
M16
G05
G00X4.576Y-3.939
M15
G01X4.576Y-3.9705
M16
G05
M30
