%TF.GenerationSoftware,KiCad,Pcbnew,8.0.1*%
%TF.CreationDate,2025-01-16T17:49:12-07:00*%
%TF.ProjectId,WDM_RevB_v3,57444d5f-5265-4764-925f-76332e6b6963,rev?*%
%TF.SameCoordinates,Original*%
%TF.FileFunction,Legend,Top*%
%TF.FilePolarity,Positive*%
%FSLAX46Y46*%
G04 Gerber Fmt 4.6, Leading zero omitted, Abs format (unit mm)*
G04 Created by KiCad (PCBNEW 8.0.1) date 2025-01-16 17:49:12*
%MOMM*%
%LPD*%
G01*
G04 APERTURE LIST*
G04 Aperture macros list*
%AMRoundRect*
0 Rectangle with rounded corners*
0 $1 Rounding radius*
0 $2 $3 $4 $5 $6 $7 $8 $9 X,Y pos of 4 corners*
0 Add a 4 corners polygon primitive as box body*
4,1,4,$2,$3,$4,$5,$6,$7,$8,$9,$2,$3,0*
0 Add four circle primitives for the rounded corners*
1,1,$1+$1,$2,$3*
1,1,$1+$1,$4,$5*
1,1,$1+$1,$6,$7*
1,1,$1+$1,$8,$9*
0 Add four rect primitives between the rounded corners*
20,1,$1+$1,$2,$3,$4,$5,0*
20,1,$1+$1,$4,$5,$6,$7,0*
20,1,$1+$1,$6,$7,$8,$9,0*
20,1,$1+$1,$8,$9,$2,$3,0*%
G04 Aperture macros list end*
%ADD10C,0.101600*%
%ADD11C,0.054864*%
%ADD12C,0.000000*%
%ADD13C,0.150000*%
%ADD14C,0.100000*%
%ADD15C,0.200000*%
%ADD16C,0.152400*%
%ADD17C,0.120000*%
%ADD18C,0.304800*%
%ADD19RoundRect,0.101600X-0.700000X0.550000X-0.700000X-0.550000X0.700000X-0.550000X0.700000X0.550000X0*%
%ADD20C,2.100000*%
%ADD21C,1.600000*%
%ADD22C,1.803200*%
%ADD23C,1.650000*%
%ADD24RoundRect,0.101600X-0.800000X0.650000X-0.800000X-0.650000X0.800000X-0.650000X0.800000X0.650000X0*%
%ADD25RoundRect,0.101600X0.265000X0.504998X-0.265000X0.504998X-0.265000X-0.504998X0.265000X-0.504998X0*%
%ADD26RoundRect,0.101600X0.800000X-0.650000X0.800000X0.650000X-0.800000X0.650000X-0.800000X-0.650000X0*%
%ADD27RoundRect,0.101600X-0.550000X-0.700000X0.550000X-0.700000X0.550000X0.700000X-0.550000X0.700000X0*%
%ADD28RoundRect,0.101600X-0.750000X0.650000X-0.750000X-0.650000X0.750000X-0.650000X0.750000X0.650000X0*%
%ADD29RoundRect,0.736600X0.000010X0.000010X-0.000010X0.000010X-0.000010X-0.000010X0.000010X-0.000010X0*%
%ADD30RoundRect,0.050800X0.600000X0.600000X-0.600000X0.600000X-0.600000X-0.600000X0.600000X-0.600000X0*%
%ADD31R,1.500000X1.000000*%
%ADD32R,1.399200X0.752400*%
%ADD33RoundRect,0.050800X-0.750000X0.600000X-0.750000X-0.600000X0.750000X-0.600000X0.750000X0.600000X0*%
%ADD34RoundRect,0.050800X-0.750000X0.650000X-0.750000X-0.650000X0.750000X-0.650000X0.750000X0.650000X0*%
%ADD35RoundRect,0.050800X-0.600000X-0.600000X0.600000X-0.600000X0.600000X0.600000X-0.600000X0.600000X0*%
%ADD36RoundRect,0.050800X-0.650000X-0.750000X0.650000X-0.750000X0.650000X0.750000X-0.650000X0.750000X0*%
%ADD37RoundRect,0.102000X-0.825000X-0.825000X0.825000X-0.825000X0.825000X0.825000X-0.825000X0.825000X0*%
%ADD38C,1.854000*%
%ADD39O,3.204000X6.204000*%
%ADD40C,2.082800*%
%ADD41C,1.100000*%
%ADD42O,2.620000X1.412000*%
%ADD43O,2.000000X1.000000*%
%ADD44O,2.204000X1.204000*%
%ADD45C,1.009600*%
%ADD46C,0.900000*%
%TA.AperFunction,Profile*%
%ADD47C,0.100000*%
%TD*%
G04 APERTURE END LIST*
D10*
X139873872Y-68612484D02*
X141042272Y-68334294D01*
X141042272Y-68334294D02*
X140207700Y-68111741D01*
X140207700Y-68111741D02*
X141042272Y-67889189D01*
X141042272Y-67889189D02*
X139873872Y-67610999D01*
X141042272Y-67165894D02*
X139873872Y-67165894D01*
X139873872Y-67165894D02*
X139873872Y-66887704D01*
X139873872Y-66887704D02*
X139929510Y-66720789D01*
X139929510Y-66720789D02*
X140040786Y-66609513D01*
X140040786Y-66609513D02*
X140152062Y-66553875D01*
X140152062Y-66553875D02*
X140374614Y-66498237D01*
X140374614Y-66498237D02*
X140541529Y-66498237D01*
X140541529Y-66498237D02*
X140764081Y-66553875D01*
X140764081Y-66553875D02*
X140875357Y-66609513D01*
X140875357Y-66609513D02*
X140986634Y-66720789D01*
X140986634Y-66720789D02*
X141042272Y-66887704D01*
X141042272Y-66887704D02*
X141042272Y-67165894D01*
X141042272Y-65997494D02*
X139873872Y-65997494D01*
X139873872Y-65997494D02*
X140708443Y-65608027D01*
X140708443Y-65608027D02*
X139873872Y-65218561D01*
X139873872Y-65218561D02*
X141042272Y-65218561D01*
X141042272Y-63104313D02*
X140485891Y-63493780D01*
X141042272Y-63771970D02*
X139873872Y-63771970D01*
X139873872Y-63771970D02*
X139873872Y-63326865D01*
X139873872Y-63326865D02*
X139929510Y-63215589D01*
X139929510Y-63215589D02*
X139985148Y-63159951D01*
X139985148Y-63159951D02*
X140096424Y-63104313D01*
X140096424Y-63104313D02*
X140263338Y-63104313D01*
X140263338Y-63104313D02*
X140374614Y-63159951D01*
X140374614Y-63159951D02*
X140430253Y-63215589D01*
X140430253Y-63215589D02*
X140485891Y-63326865D01*
X140485891Y-63326865D02*
X140485891Y-63771970D01*
X140986634Y-62158465D02*
X141042272Y-62269741D01*
X141042272Y-62269741D02*
X141042272Y-62492294D01*
X141042272Y-62492294D02*
X140986634Y-62603570D01*
X140986634Y-62603570D02*
X140875357Y-62659208D01*
X140875357Y-62659208D02*
X140430253Y-62659208D01*
X140430253Y-62659208D02*
X140318976Y-62603570D01*
X140318976Y-62603570D02*
X140263338Y-62492294D01*
X140263338Y-62492294D02*
X140263338Y-62269741D01*
X140263338Y-62269741D02*
X140318976Y-62158465D01*
X140318976Y-62158465D02*
X140430253Y-62102827D01*
X140430253Y-62102827D02*
X140541529Y-62102827D01*
X140541529Y-62102827D02*
X140652805Y-62659208D01*
X140263338Y-61713360D02*
X141042272Y-61435170D01*
X141042272Y-61435170D02*
X140263338Y-61156979D01*
X140430253Y-60322407D02*
X140485891Y-60155493D01*
X140485891Y-60155493D02*
X140541529Y-60099855D01*
X140541529Y-60099855D02*
X140652805Y-60044217D01*
X140652805Y-60044217D02*
X140819719Y-60044217D01*
X140819719Y-60044217D02*
X140930995Y-60099855D01*
X140930995Y-60099855D02*
X140986634Y-60155493D01*
X140986634Y-60155493D02*
X141042272Y-60266769D01*
X141042272Y-60266769D02*
X141042272Y-60711874D01*
X141042272Y-60711874D02*
X139873872Y-60711874D01*
X139873872Y-60711874D02*
X139873872Y-60322407D01*
X139873872Y-60322407D02*
X139929510Y-60211131D01*
X139929510Y-60211131D02*
X139985148Y-60155493D01*
X139985148Y-60155493D02*
X140096424Y-60099855D01*
X140096424Y-60099855D02*
X140207700Y-60099855D01*
X140207700Y-60099855D02*
X140318976Y-60155493D01*
X140318976Y-60155493D02*
X140374614Y-60211131D01*
X140374614Y-60211131D02*
X140430253Y-60322407D01*
X140430253Y-60322407D02*
X140430253Y-60711874D01*
X139873872Y-58820178D02*
X141042272Y-58430712D01*
X141042272Y-58430712D02*
X139873872Y-58041245D01*
X139985148Y-57707416D02*
X139929510Y-57651778D01*
X139929510Y-57651778D02*
X139873872Y-57540502D01*
X139873872Y-57540502D02*
X139873872Y-57262311D01*
X139873872Y-57262311D02*
X139929510Y-57151035D01*
X139929510Y-57151035D02*
X139985148Y-57095397D01*
X139985148Y-57095397D02*
X140096424Y-57039759D01*
X140096424Y-57039759D02*
X140207700Y-57039759D01*
X140207700Y-57039759D02*
X140374614Y-57095397D01*
X140374614Y-57095397D02*
X141042272Y-57763054D01*
X141042272Y-57763054D02*
X141042272Y-57039759D01*
D11*
X124142340Y-109441970D02*
X124300836Y-109864626D01*
X124300836Y-109864626D02*
X124459332Y-109441970D01*
X124300836Y-109177810D02*
X124300836Y-108755154D01*
X124512164Y-108226834D02*
X124512164Y-108490994D01*
X124512164Y-108490994D02*
X123957428Y-108490994D01*
X124512164Y-108041922D02*
X124142340Y-108041922D01*
X123957428Y-108041922D02*
X123983844Y-108068338D01*
X123983844Y-108068338D02*
X124010260Y-108041922D01*
X124010260Y-108041922D02*
X123983844Y-108015506D01*
X123983844Y-108015506D02*
X123957428Y-108041922D01*
X123957428Y-108041922D02*
X124010260Y-108041922D01*
X124142340Y-107777762D02*
X124697076Y-107777762D01*
X124168756Y-107777762D02*
X124142340Y-107724930D01*
X124142340Y-107724930D02*
X124142340Y-107619266D01*
X124142340Y-107619266D02*
X124168756Y-107566434D01*
X124168756Y-107566434D02*
X124195172Y-107540018D01*
X124195172Y-107540018D02*
X124248004Y-107513602D01*
X124248004Y-107513602D02*
X124406500Y-107513602D01*
X124406500Y-107513602D02*
X124459332Y-107540018D01*
X124459332Y-107540018D02*
X124485748Y-107566434D01*
X124485748Y-107566434D02*
X124512164Y-107619266D01*
X124512164Y-107619266D02*
X124512164Y-107724930D01*
X124512164Y-107724930D02*
X124485748Y-107777762D01*
X124512164Y-107196610D02*
X124485748Y-107249442D01*
X124485748Y-107249442D02*
X124459332Y-107275858D01*
X124459332Y-107275858D02*
X124406500Y-107302274D01*
X124406500Y-107302274D02*
X124248004Y-107302274D01*
X124248004Y-107302274D02*
X124195172Y-107275858D01*
X124195172Y-107275858D02*
X124168756Y-107249442D01*
X124168756Y-107249442D02*
X124142340Y-107196610D01*
X124142340Y-107196610D02*
X124142340Y-107117362D01*
X124142340Y-107117362D02*
X124168756Y-107064530D01*
X124168756Y-107064530D02*
X124195172Y-107038114D01*
X124195172Y-107038114D02*
X124248004Y-107011698D01*
X124248004Y-107011698D02*
X124406500Y-107011698D01*
X124406500Y-107011698D02*
X124459332Y-107038114D01*
X124459332Y-107038114D02*
X124485748Y-107064530D01*
X124485748Y-107064530D02*
X124512164Y-107117362D01*
X124512164Y-107117362D02*
X124512164Y-107196610D01*
X124221588Y-106166386D02*
X124248004Y-106087138D01*
X124248004Y-106087138D02*
X124274420Y-106060722D01*
X124274420Y-106060722D02*
X124327252Y-106034306D01*
X124327252Y-106034306D02*
X124406500Y-106034306D01*
X124406500Y-106034306D02*
X124459332Y-106060722D01*
X124459332Y-106060722D02*
X124485748Y-106087138D01*
X124485748Y-106087138D02*
X124512164Y-106139970D01*
X124512164Y-106139970D02*
X124512164Y-106351298D01*
X124512164Y-106351298D02*
X123957428Y-106351298D01*
X123957428Y-106351298D02*
X123957428Y-106166386D01*
X123957428Y-106166386D02*
X123983844Y-106113554D01*
X123983844Y-106113554D02*
X124010260Y-106087138D01*
X124010260Y-106087138D02*
X124063092Y-106060722D01*
X124063092Y-106060722D02*
X124115924Y-106060722D01*
X124115924Y-106060722D02*
X124168756Y-106087138D01*
X124168756Y-106087138D02*
X124195172Y-106113554D01*
X124195172Y-106113554D02*
X124221588Y-106166386D01*
X124221588Y-106166386D02*
X124221588Y-106351298D01*
X124512164Y-105558818D02*
X124221588Y-105558818D01*
X124221588Y-105558818D02*
X124168756Y-105585234D01*
X124168756Y-105585234D02*
X124142340Y-105638066D01*
X124142340Y-105638066D02*
X124142340Y-105743730D01*
X124142340Y-105743730D02*
X124168756Y-105796562D01*
X124485748Y-105558818D02*
X124512164Y-105611650D01*
X124512164Y-105611650D02*
X124512164Y-105743730D01*
X124512164Y-105743730D02*
X124485748Y-105796562D01*
X124485748Y-105796562D02*
X124432916Y-105822978D01*
X124432916Y-105822978D02*
X124380084Y-105822978D01*
X124380084Y-105822978D02*
X124327252Y-105796562D01*
X124327252Y-105796562D02*
X124300836Y-105743730D01*
X124300836Y-105743730D02*
X124300836Y-105611650D01*
X124300836Y-105611650D02*
X124274420Y-105558818D01*
X124142340Y-105373906D02*
X124142340Y-105162578D01*
X123957428Y-105294658D02*
X124432916Y-105294658D01*
X124432916Y-105294658D02*
X124485748Y-105268242D01*
X124485748Y-105268242D02*
X124512164Y-105215410D01*
X124512164Y-105215410D02*
X124512164Y-105162578D01*
X124142340Y-105056914D02*
X124142340Y-104845586D01*
X123957428Y-104977666D02*
X124432916Y-104977666D01*
X124432916Y-104977666D02*
X124485748Y-104951250D01*
X124485748Y-104951250D02*
X124512164Y-104898418D01*
X124512164Y-104898418D02*
X124512164Y-104845586D01*
X129478476Y-112239067D02*
X129478476Y-111816411D01*
X129689804Y-112027739D02*
X129267148Y-112027739D01*
D10*
X145766672Y-66037408D02*
X144598272Y-66037408D01*
X144598272Y-66037408D02*
X145432843Y-65647941D01*
X145432843Y-65647941D02*
X144598272Y-65258475D01*
X144598272Y-65258475D02*
X145766672Y-65258475D01*
X145766672Y-64201351D02*
X145154653Y-64201351D01*
X145154653Y-64201351D02*
X145043376Y-64256989D01*
X145043376Y-64256989D02*
X144987738Y-64368265D01*
X144987738Y-64368265D02*
X144987738Y-64590818D01*
X144987738Y-64590818D02*
X145043376Y-64702094D01*
X145711034Y-64201351D02*
X145766672Y-64312627D01*
X145766672Y-64312627D02*
X145766672Y-64590818D01*
X145766672Y-64590818D02*
X145711034Y-64702094D01*
X145711034Y-64702094D02*
X145599757Y-64757732D01*
X145599757Y-64757732D02*
X145488481Y-64757732D01*
X145488481Y-64757732D02*
X145377205Y-64702094D01*
X145377205Y-64702094D02*
X145321567Y-64590818D01*
X145321567Y-64590818D02*
X145321567Y-64312627D01*
X145321567Y-64312627D02*
X145265929Y-64201351D01*
X144987738Y-63756246D02*
X145766672Y-63478056D01*
X144987738Y-63199865D02*
X145766672Y-63478056D01*
X145766672Y-63478056D02*
X146044862Y-63589332D01*
X146044862Y-63589332D02*
X146100500Y-63644970D01*
X146100500Y-63644970D02*
X146156138Y-63756246D01*
X143342536Y-66563551D02*
X143398175Y-66619189D01*
X143398175Y-66619189D02*
X143453813Y-66786103D01*
X143453813Y-66786103D02*
X143453813Y-66897379D01*
X143453813Y-66897379D02*
X143398175Y-67064294D01*
X143398175Y-67064294D02*
X143286898Y-67175570D01*
X143286898Y-67175570D02*
X143175622Y-67231208D01*
X143175622Y-67231208D02*
X142953070Y-67286846D01*
X142953070Y-67286846D02*
X142786155Y-67286846D01*
X142786155Y-67286846D02*
X142563603Y-67231208D01*
X142563603Y-67231208D02*
X142452327Y-67175570D01*
X142452327Y-67175570D02*
X142341051Y-67064294D01*
X142341051Y-67064294D02*
X142285413Y-66897379D01*
X142285413Y-66897379D02*
X142285413Y-66786103D01*
X142285413Y-66786103D02*
X142341051Y-66619189D01*
X142341051Y-66619189D02*
X142396689Y-66563551D01*
X143453813Y-65895894D02*
X143398175Y-66007170D01*
X143398175Y-66007170D02*
X143342536Y-66062808D01*
X143342536Y-66062808D02*
X143231260Y-66118446D01*
X143231260Y-66118446D02*
X142897432Y-66118446D01*
X142897432Y-66118446D02*
X142786155Y-66062808D01*
X142786155Y-66062808D02*
X142730517Y-66007170D01*
X142730517Y-66007170D02*
X142674879Y-65895894D01*
X142674879Y-65895894D02*
X142674879Y-65728979D01*
X142674879Y-65728979D02*
X142730517Y-65617703D01*
X142730517Y-65617703D02*
X142786155Y-65562065D01*
X142786155Y-65562065D02*
X142897432Y-65506427D01*
X142897432Y-65506427D02*
X143231260Y-65506427D01*
X143231260Y-65506427D02*
X143342536Y-65562065D01*
X143342536Y-65562065D02*
X143398175Y-65617703D01*
X143398175Y-65617703D02*
X143453813Y-65728979D01*
X143453813Y-65728979D02*
X143453813Y-65895894D01*
X143453813Y-64838770D02*
X143398175Y-64950046D01*
X143398175Y-64950046D02*
X143286898Y-65005684D01*
X143286898Y-65005684D02*
X142285413Y-65005684D01*
X143453813Y-64393665D02*
X142285413Y-64393665D01*
X142730517Y-64393665D02*
X142674879Y-64282389D01*
X142674879Y-64282389D02*
X142674879Y-64059836D01*
X142674879Y-64059836D02*
X142730517Y-63948560D01*
X142730517Y-63948560D02*
X142786155Y-63892922D01*
X142786155Y-63892922D02*
X142897432Y-63837284D01*
X142897432Y-63837284D02*
X143231260Y-63837284D01*
X143231260Y-63837284D02*
X143342536Y-63892922D01*
X143342536Y-63892922D02*
X143398175Y-63948560D01*
X143398175Y-63948560D02*
X143453813Y-64059836D01*
X143453813Y-64059836D02*
X143453813Y-64282389D01*
X143453813Y-64282389D02*
X143398175Y-64393665D01*
X142674879Y-63447817D02*
X143453813Y-63169627D01*
X142674879Y-62891436D02*
X143453813Y-63169627D01*
X143453813Y-63169627D02*
X143732003Y-63280903D01*
X143732003Y-63280903D02*
X143787641Y-63336541D01*
X143787641Y-63336541D02*
X143843279Y-63447817D01*
X143453813Y-61556121D02*
X142285413Y-61556121D01*
X142285413Y-61556121D02*
X142285413Y-61277931D01*
X142285413Y-61277931D02*
X142341051Y-61111016D01*
X142341051Y-61111016D02*
X142452327Y-60999740D01*
X142452327Y-60999740D02*
X142563603Y-60944102D01*
X142563603Y-60944102D02*
X142786155Y-60888464D01*
X142786155Y-60888464D02*
X142953070Y-60888464D01*
X142953070Y-60888464D02*
X143175622Y-60944102D01*
X143175622Y-60944102D02*
X143286898Y-60999740D01*
X143286898Y-60999740D02*
X143398175Y-61111016D01*
X143398175Y-61111016D02*
X143453813Y-61277931D01*
X143453813Y-61277931D02*
X143453813Y-61556121D01*
X143119984Y-59553149D02*
X143119984Y-58996768D01*
X143453813Y-59664425D02*
X142285413Y-59274959D01*
X142285413Y-59274959D02*
X143453813Y-58885492D01*
X143453813Y-58329111D02*
X143398175Y-58440387D01*
X143398175Y-58440387D02*
X143286898Y-58496025D01*
X143286898Y-58496025D02*
X142285413Y-58496025D01*
X143453813Y-57717092D02*
X143398175Y-57828368D01*
X143398175Y-57828368D02*
X143286898Y-57884006D01*
X143286898Y-57884006D02*
X142285413Y-57884006D01*
X143398175Y-56826882D02*
X143453813Y-56938158D01*
X143453813Y-56938158D02*
X143453813Y-57160711D01*
X143453813Y-57160711D02*
X143398175Y-57271987D01*
X143398175Y-57271987D02*
X143286898Y-57327625D01*
X143286898Y-57327625D02*
X142841794Y-57327625D01*
X142841794Y-57327625D02*
X142730517Y-57271987D01*
X142730517Y-57271987D02*
X142674879Y-57160711D01*
X142674879Y-57160711D02*
X142674879Y-56938158D01*
X142674879Y-56938158D02*
X142730517Y-56826882D01*
X142730517Y-56826882D02*
X142841794Y-56771244D01*
X142841794Y-56771244D02*
X142953070Y-56771244D01*
X142953070Y-56771244D02*
X143064346Y-57327625D01*
X142674879Y-56270501D02*
X143453813Y-56270501D01*
X142786155Y-56270501D02*
X142730517Y-56214863D01*
X142730517Y-56214863D02*
X142674879Y-56103587D01*
X142674879Y-56103587D02*
X142674879Y-55936672D01*
X142674879Y-55936672D02*
X142730517Y-55825396D01*
X142730517Y-55825396D02*
X142841794Y-55769758D01*
X142841794Y-55769758D02*
X143453813Y-55769758D01*
X144633348Y-62308446D02*
X144577710Y-62252808D01*
X144577710Y-62252808D02*
X144522072Y-62141532D01*
X144522072Y-62141532D02*
X144522072Y-61863341D01*
X144522072Y-61863341D02*
X144577710Y-61752065D01*
X144577710Y-61752065D02*
X144633348Y-61696427D01*
X144633348Y-61696427D02*
X144744624Y-61640789D01*
X144744624Y-61640789D02*
X144855900Y-61640789D01*
X144855900Y-61640789D02*
X145022814Y-61696427D01*
X145022814Y-61696427D02*
X145690472Y-62364084D01*
X145690472Y-62364084D02*
X145690472Y-61640789D01*
X144522072Y-60917494D02*
X144522072Y-60806217D01*
X144522072Y-60806217D02*
X144577710Y-60694941D01*
X144577710Y-60694941D02*
X144633348Y-60639303D01*
X144633348Y-60639303D02*
X144744624Y-60583665D01*
X144744624Y-60583665D02*
X144967176Y-60528027D01*
X144967176Y-60528027D02*
X145245367Y-60528027D01*
X145245367Y-60528027D02*
X145467919Y-60583665D01*
X145467919Y-60583665D02*
X145579195Y-60639303D01*
X145579195Y-60639303D02*
X145634834Y-60694941D01*
X145634834Y-60694941D02*
X145690472Y-60806217D01*
X145690472Y-60806217D02*
X145690472Y-60917494D01*
X145690472Y-60917494D02*
X145634834Y-61028770D01*
X145634834Y-61028770D02*
X145579195Y-61084408D01*
X145579195Y-61084408D02*
X145467919Y-61140046D01*
X145467919Y-61140046D02*
X145245367Y-61195684D01*
X145245367Y-61195684D02*
X144967176Y-61195684D01*
X144967176Y-61195684D02*
X144744624Y-61140046D01*
X144744624Y-61140046D02*
X144633348Y-61084408D01*
X144633348Y-61084408D02*
X144577710Y-61028770D01*
X144577710Y-61028770D02*
X144522072Y-60917494D01*
X144633348Y-60082922D02*
X144577710Y-60027284D01*
X144577710Y-60027284D02*
X144522072Y-59916008D01*
X144522072Y-59916008D02*
X144522072Y-59637817D01*
X144522072Y-59637817D02*
X144577710Y-59526541D01*
X144577710Y-59526541D02*
X144633348Y-59470903D01*
X144633348Y-59470903D02*
X144744624Y-59415265D01*
X144744624Y-59415265D02*
X144855900Y-59415265D01*
X144855900Y-59415265D02*
X145022814Y-59470903D01*
X145022814Y-59470903D02*
X145690472Y-60138560D01*
X145690472Y-60138560D02*
X145690472Y-59415265D01*
X144911538Y-58413779D02*
X145690472Y-58413779D01*
X144466434Y-58691970D02*
X145301005Y-58970160D01*
X145301005Y-58970160D02*
X145301005Y-58246865D01*
D11*
X122493476Y-112112067D02*
X122493476Y-111689411D01*
X126006804Y-65066239D02*
X125742644Y-65251151D01*
X126006804Y-65383231D02*
X125452068Y-65383231D01*
X125452068Y-65383231D02*
X125452068Y-65171903D01*
X125452068Y-65171903D02*
X125478484Y-65119071D01*
X125478484Y-65119071D02*
X125504900Y-65092655D01*
X125504900Y-65092655D02*
X125557732Y-65066239D01*
X125557732Y-65066239D02*
X125636980Y-65066239D01*
X125636980Y-65066239D02*
X125689812Y-65092655D01*
X125689812Y-65092655D02*
X125716228Y-65119071D01*
X125716228Y-65119071D02*
X125742644Y-65171903D01*
X125742644Y-65171903D02*
X125742644Y-65383231D01*
X125504900Y-64854911D02*
X125478484Y-64828495D01*
X125478484Y-64828495D02*
X125452068Y-64775663D01*
X125452068Y-64775663D02*
X125452068Y-64643583D01*
X125452068Y-64643583D02*
X125478484Y-64590751D01*
X125478484Y-64590751D02*
X125504900Y-64564335D01*
X125504900Y-64564335D02*
X125557732Y-64537919D01*
X125557732Y-64537919D02*
X125610564Y-64537919D01*
X125610564Y-64537919D02*
X125689812Y-64564335D01*
X125689812Y-64564335D02*
X126006804Y-64881327D01*
X126006804Y-64881327D02*
X126006804Y-64537919D01*
X125452068Y-64194511D02*
X125452068Y-64141679D01*
X125452068Y-64141679D02*
X125478484Y-64088847D01*
X125478484Y-64088847D02*
X125504900Y-64062431D01*
X125504900Y-64062431D02*
X125557732Y-64036015D01*
X125557732Y-64036015D02*
X125663396Y-64009599D01*
X125663396Y-64009599D02*
X125795476Y-64009599D01*
X125795476Y-64009599D02*
X125901140Y-64036015D01*
X125901140Y-64036015D02*
X125953972Y-64062431D01*
X125953972Y-64062431D02*
X125980388Y-64088847D01*
X125980388Y-64088847D02*
X126006804Y-64141679D01*
X126006804Y-64141679D02*
X126006804Y-64194511D01*
X126006804Y-64194511D02*
X125980388Y-64247343D01*
X125980388Y-64247343D02*
X125953972Y-64273759D01*
X125953972Y-64273759D02*
X125901140Y-64300175D01*
X125901140Y-64300175D02*
X125795476Y-64326591D01*
X125795476Y-64326591D02*
X125663396Y-64326591D01*
X125663396Y-64326591D02*
X125557732Y-64300175D01*
X125557732Y-64300175D02*
X125504900Y-64273759D01*
X125504900Y-64273759D02*
X125478484Y-64247343D01*
X125478484Y-64247343D02*
X125452068Y-64194511D01*
X134925890Y-51574020D02*
X134925890Y-51019284D01*
X134925890Y-51283444D02*
X135242882Y-51283444D01*
X135242882Y-51574020D02*
X135242882Y-51019284D01*
X135797618Y-51574020D02*
X135480626Y-51574020D01*
X135639122Y-51574020D02*
X135639122Y-51019284D01*
X135639122Y-51019284D02*
X135586290Y-51098532D01*
X135586290Y-51098532D02*
X135533458Y-51151364D01*
X135533458Y-51151364D02*
X135480626Y-51177780D01*
X117726404Y-64913839D02*
X117462244Y-65098751D01*
X117726404Y-65230831D02*
X117171668Y-65230831D01*
X117171668Y-65230831D02*
X117171668Y-65019503D01*
X117171668Y-65019503D02*
X117198084Y-64966671D01*
X117198084Y-64966671D02*
X117224500Y-64940255D01*
X117224500Y-64940255D02*
X117277332Y-64913839D01*
X117277332Y-64913839D02*
X117356580Y-64913839D01*
X117356580Y-64913839D02*
X117409412Y-64940255D01*
X117409412Y-64940255D02*
X117435828Y-64966671D01*
X117435828Y-64966671D02*
X117462244Y-65019503D01*
X117462244Y-65019503D02*
X117462244Y-65230831D01*
X117224500Y-64702511D02*
X117198084Y-64676095D01*
X117198084Y-64676095D02*
X117171668Y-64623263D01*
X117171668Y-64623263D02*
X117171668Y-64491183D01*
X117171668Y-64491183D02*
X117198084Y-64438351D01*
X117198084Y-64438351D02*
X117224500Y-64411935D01*
X117224500Y-64411935D02*
X117277332Y-64385519D01*
X117277332Y-64385519D02*
X117330164Y-64385519D01*
X117330164Y-64385519D02*
X117409412Y-64411935D01*
X117409412Y-64411935D02*
X117726404Y-64728927D01*
X117726404Y-64728927D02*
X117726404Y-64385519D01*
X117356580Y-63910031D02*
X117726404Y-63910031D01*
X117145252Y-64042111D02*
X117541492Y-64174191D01*
X117541492Y-64174191D02*
X117541492Y-63830783D01*
X109649204Y-53737839D02*
X109385044Y-53922751D01*
X109649204Y-54054831D02*
X109094468Y-54054831D01*
X109094468Y-54054831D02*
X109094468Y-53843503D01*
X109094468Y-53843503D02*
X109120884Y-53790671D01*
X109120884Y-53790671D02*
X109147300Y-53764255D01*
X109147300Y-53764255D02*
X109200132Y-53737839D01*
X109200132Y-53737839D02*
X109279380Y-53737839D01*
X109279380Y-53737839D02*
X109332212Y-53764255D01*
X109332212Y-53764255D02*
X109358628Y-53790671D01*
X109358628Y-53790671D02*
X109385044Y-53843503D01*
X109385044Y-53843503D02*
X109385044Y-54054831D01*
X109649204Y-53209519D02*
X109649204Y-53526511D01*
X109649204Y-53368015D02*
X109094468Y-53368015D01*
X109094468Y-53368015D02*
X109173716Y-53420847D01*
X109173716Y-53420847D02*
X109226548Y-53473679D01*
X109226548Y-53473679D02*
X109252964Y-53526511D01*
X109094468Y-52707615D02*
X109094468Y-52971775D01*
X109094468Y-52971775D02*
X109358628Y-52998191D01*
X109358628Y-52998191D02*
X109332212Y-52971775D01*
X109332212Y-52971775D02*
X109305796Y-52918943D01*
X109305796Y-52918943D02*
X109305796Y-52786863D01*
X109305796Y-52786863D02*
X109332212Y-52734031D01*
X109332212Y-52734031D02*
X109358628Y-52707615D01*
X109358628Y-52707615D02*
X109411460Y-52681199D01*
X109411460Y-52681199D02*
X109543540Y-52681199D01*
X109543540Y-52681199D02*
X109596372Y-52707615D01*
X109596372Y-52707615D02*
X109622788Y-52734031D01*
X109622788Y-52734031D02*
X109649204Y-52786863D01*
X109649204Y-52786863D02*
X109649204Y-52918943D01*
X109649204Y-52918943D02*
X109622788Y-52971775D01*
X109622788Y-52971775D02*
X109596372Y-52998191D01*
X87301268Y-79390771D02*
X87697508Y-79390771D01*
X87697508Y-79390771D02*
X87776756Y-79417187D01*
X87776756Y-79417187D02*
X87829588Y-79470019D01*
X87829588Y-79470019D02*
X87856004Y-79549267D01*
X87856004Y-79549267D02*
X87856004Y-79602099D01*
X87354100Y-79153027D02*
X87327684Y-79126611D01*
X87327684Y-79126611D02*
X87301268Y-79073779D01*
X87301268Y-79073779D02*
X87301268Y-78941699D01*
X87301268Y-78941699D02*
X87327684Y-78888867D01*
X87327684Y-78888867D02*
X87354100Y-78862451D01*
X87354100Y-78862451D02*
X87406932Y-78836035D01*
X87406932Y-78836035D02*
X87459764Y-78836035D01*
X87459764Y-78836035D02*
X87539012Y-78862451D01*
X87539012Y-78862451D02*
X87856004Y-79179443D01*
X87856004Y-79179443D02*
X87856004Y-78836035D01*
X107806891Y-111870323D02*
X107542731Y-112055235D01*
X107806891Y-112187315D02*
X107252155Y-112187315D01*
X107252155Y-112187315D02*
X107252155Y-111975987D01*
X107252155Y-111975987D02*
X107278571Y-111923155D01*
X107278571Y-111923155D02*
X107304987Y-111896739D01*
X107304987Y-111896739D02*
X107357819Y-111870323D01*
X107357819Y-111870323D02*
X107437067Y-111870323D01*
X107437067Y-111870323D02*
X107489899Y-111896739D01*
X107489899Y-111896739D02*
X107516315Y-111923155D01*
X107516315Y-111923155D02*
X107542731Y-111975987D01*
X107542731Y-111975987D02*
X107542731Y-112187315D01*
X107252155Y-111685411D02*
X107252155Y-111342003D01*
X107252155Y-111342003D02*
X107463483Y-111526915D01*
X107463483Y-111526915D02*
X107463483Y-111447667D01*
X107463483Y-111447667D02*
X107489899Y-111394835D01*
X107489899Y-111394835D02*
X107516315Y-111368419D01*
X107516315Y-111368419D02*
X107569147Y-111342003D01*
X107569147Y-111342003D02*
X107701227Y-111342003D01*
X107701227Y-111342003D02*
X107754059Y-111368419D01*
X107754059Y-111368419D02*
X107780475Y-111394835D01*
X107780475Y-111394835D02*
X107806891Y-111447667D01*
X107806891Y-111447667D02*
X107806891Y-111606163D01*
X107806891Y-111606163D02*
X107780475Y-111658995D01*
X107780475Y-111658995D02*
X107754059Y-111685411D01*
X107252155Y-111157091D02*
X107252155Y-110813683D01*
X107252155Y-110813683D02*
X107463483Y-110998595D01*
X107463483Y-110998595D02*
X107463483Y-110919347D01*
X107463483Y-110919347D02*
X107489899Y-110866515D01*
X107489899Y-110866515D02*
X107516315Y-110840099D01*
X107516315Y-110840099D02*
X107569147Y-110813683D01*
X107569147Y-110813683D02*
X107701227Y-110813683D01*
X107701227Y-110813683D02*
X107754059Y-110840099D01*
X107754059Y-110840099D02*
X107780475Y-110866515D01*
X107780475Y-110866515D02*
X107806891Y-110919347D01*
X107806891Y-110919347D02*
X107806891Y-111077843D01*
X107806891Y-111077843D02*
X107780475Y-111130675D01*
X107780475Y-111130675D02*
X107754059Y-111157091D01*
X120154748Y-109542499D02*
X119969836Y-109278339D01*
X119837756Y-109542499D02*
X119837756Y-108987763D01*
X119837756Y-108987763D02*
X120049084Y-108987763D01*
X120049084Y-108987763D02*
X120101916Y-109014179D01*
X120101916Y-109014179D02*
X120128332Y-109040595D01*
X120128332Y-109040595D02*
X120154748Y-109093427D01*
X120154748Y-109093427D02*
X120154748Y-109172675D01*
X120154748Y-109172675D02*
X120128332Y-109225507D01*
X120128332Y-109225507D02*
X120101916Y-109251923D01*
X120101916Y-109251923D02*
X120049084Y-109278339D01*
X120049084Y-109278339D02*
X119837756Y-109278339D01*
X120339660Y-108987763D02*
X120683068Y-108987763D01*
X120683068Y-108987763D02*
X120498156Y-109199091D01*
X120498156Y-109199091D02*
X120577404Y-109199091D01*
X120577404Y-109199091D02*
X120630236Y-109225507D01*
X120630236Y-109225507D02*
X120656652Y-109251923D01*
X120656652Y-109251923D02*
X120683068Y-109304755D01*
X120683068Y-109304755D02*
X120683068Y-109436835D01*
X120683068Y-109436835D02*
X120656652Y-109489667D01*
X120656652Y-109489667D02*
X120630236Y-109516083D01*
X120630236Y-109516083D02*
X120577404Y-109542499D01*
X120577404Y-109542499D02*
X120418908Y-109542499D01*
X120418908Y-109542499D02*
X120366076Y-109516083D01*
X120366076Y-109516083D02*
X120339660Y-109489667D01*
X121158556Y-108987763D02*
X121052892Y-108987763D01*
X121052892Y-108987763D02*
X121000060Y-109014179D01*
X121000060Y-109014179D02*
X120973644Y-109040595D01*
X120973644Y-109040595D02*
X120920812Y-109119843D01*
X120920812Y-109119843D02*
X120894396Y-109225507D01*
X120894396Y-109225507D02*
X120894396Y-109436835D01*
X120894396Y-109436835D02*
X120920812Y-109489667D01*
X120920812Y-109489667D02*
X120947228Y-109516083D01*
X120947228Y-109516083D02*
X121000060Y-109542499D01*
X121000060Y-109542499D02*
X121105724Y-109542499D01*
X121105724Y-109542499D02*
X121158556Y-109516083D01*
X121158556Y-109516083D02*
X121184972Y-109489667D01*
X121184972Y-109489667D02*
X121211388Y-109436835D01*
X121211388Y-109436835D02*
X121211388Y-109304755D01*
X121211388Y-109304755D02*
X121184972Y-109251923D01*
X121184972Y-109251923D02*
X121158556Y-109225507D01*
X121158556Y-109225507D02*
X121105724Y-109199091D01*
X121105724Y-109199091D02*
X121000060Y-109199091D01*
X121000060Y-109199091D02*
X120947228Y-109225507D01*
X120947228Y-109225507D02*
X120920812Y-109251923D01*
X120920812Y-109251923D02*
X120894396Y-109304755D01*
X125561722Y-81175886D02*
X126010794Y-81175886D01*
X126010794Y-81175886D02*
X126063626Y-81149470D01*
X126063626Y-81149470D02*
X126090042Y-81123054D01*
X126090042Y-81123054D02*
X126116458Y-81070222D01*
X126116458Y-81070222D02*
X126116458Y-80964558D01*
X126116458Y-80964558D02*
X126090042Y-80911726D01*
X126090042Y-80911726D02*
X126063626Y-80885310D01*
X126063626Y-80885310D02*
X126010794Y-80858894D01*
X126010794Y-80858894D02*
X125561722Y-80858894D01*
X125561722Y-80330574D02*
X125561722Y-80594734D01*
X125561722Y-80594734D02*
X125825882Y-80621150D01*
X125825882Y-80621150D02*
X125799466Y-80594734D01*
X125799466Y-80594734D02*
X125773050Y-80541902D01*
X125773050Y-80541902D02*
X125773050Y-80409822D01*
X125773050Y-80409822D02*
X125799466Y-80356990D01*
X125799466Y-80356990D02*
X125825882Y-80330574D01*
X125825882Y-80330574D02*
X125878714Y-80304158D01*
X125878714Y-80304158D02*
X126010794Y-80304158D01*
X126010794Y-80304158D02*
X126063626Y-80330574D01*
X126063626Y-80330574D02*
X126090042Y-80356990D01*
X126090042Y-80356990D02*
X126116458Y-80409822D01*
X126116458Y-80409822D02*
X126116458Y-80541902D01*
X126116458Y-80541902D02*
X126090042Y-80594734D01*
X126090042Y-80594734D02*
X126063626Y-80621150D01*
X126006804Y-53890239D02*
X125742644Y-54075151D01*
X126006804Y-54207231D02*
X125452068Y-54207231D01*
X125452068Y-54207231D02*
X125452068Y-53995903D01*
X125452068Y-53995903D02*
X125478484Y-53943071D01*
X125478484Y-53943071D02*
X125504900Y-53916655D01*
X125504900Y-53916655D02*
X125557732Y-53890239D01*
X125557732Y-53890239D02*
X125636980Y-53890239D01*
X125636980Y-53890239D02*
X125689812Y-53916655D01*
X125689812Y-53916655D02*
X125716228Y-53943071D01*
X125716228Y-53943071D02*
X125742644Y-53995903D01*
X125742644Y-53995903D02*
X125742644Y-54207231D01*
X125504900Y-53678911D02*
X125478484Y-53652495D01*
X125478484Y-53652495D02*
X125452068Y-53599663D01*
X125452068Y-53599663D02*
X125452068Y-53467583D01*
X125452068Y-53467583D02*
X125478484Y-53414751D01*
X125478484Y-53414751D02*
X125504900Y-53388335D01*
X125504900Y-53388335D02*
X125557732Y-53361919D01*
X125557732Y-53361919D02*
X125610564Y-53361919D01*
X125610564Y-53361919D02*
X125689812Y-53388335D01*
X125689812Y-53388335D02*
X126006804Y-53705327D01*
X126006804Y-53705327D02*
X126006804Y-53361919D01*
X125452068Y-52860015D02*
X125452068Y-53124175D01*
X125452068Y-53124175D02*
X125716228Y-53150591D01*
X125716228Y-53150591D02*
X125689812Y-53124175D01*
X125689812Y-53124175D02*
X125663396Y-53071343D01*
X125663396Y-53071343D02*
X125663396Y-52939263D01*
X125663396Y-52939263D02*
X125689812Y-52886431D01*
X125689812Y-52886431D02*
X125716228Y-52860015D01*
X125716228Y-52860015D02*
X125769060Y-52833599D01*
X125769060Y-52833599D02*
X125901140Y-52833599D01*
X125901140Y-52833599D02*
X125953972Y-52860015D01*
X125953972Y-52860015D02*
X125980388Y-52886431D01*
X125980388Y-52886431D02*
X126006804Y-52939263D01*
X126006804Y-52939263D02*
X126006804Y-53071343D01*
X126006804Y-53071343D02*
X125980388Y-53124175D01*
X125980388Y-53124175D02*
X125953972Y-53150591D01*
X126006804Y-59783039D02*
X125742644Y-59967951D01*
X126006804Y-60100031D02*
X125452068Y-60100031D01*
X125452068Y-60100031D02*
X125452068Y-59888703D01*
X125452068Y-59888703D02*
X125478484Y-59835871D01*
X125478484Y-59835871D02*
X125504900Y-59809455D01*
X125504900Y-59809455D02*
X125557732Y-59783039D01*
X125557732Y-59783039D02*
X125636980Y-59783039D01*
X125636980Y-59783039D02*
X125689812Y-59809455D01*
X125689812Y-59809455D02*
X125716228Y-59835871D01*
X125716228Y-59835871D02*
X125742644Y-59888703D01*
X125742644Y-59888703D02*
X125742644Y-60100031D01*
X125504900Y-59571711D02*
X125478484Y-59545295D01*
X125478484Y-59545295D02*
X125452068Y-59492463D01*
X125452068Y-59492463D02*
X125452068Y-59360383D01*
X125452068Y-59360383D02*
X125478484Y-59307551D01*
X125478484Y-59307551D02*
X125504900Y-59281135D01*
X125504900Y-59281135D02*
X125557732Y-59254719D01*
X125557732Y-59254719D02*
X125610564Y-59254719D01*
X125610564Y-59254719D02*
X125689812Y-59281135D01*
X125689812Y-59281135D02*
X126006804Y-59598127D01*
X126006804Y-59598127D02*
X126006804Y-59254719D01*
X125452068Y-58779231D02*
X125452068Y-58884895D01*
X125452068Y-58884895D02*
X125478484Y-58937727D01*
X125478484Y-58937727D02*
X125504900Y-58964143D01*
X125504900Y-58964143D02*
X125584148Y-59016975D01*
X125584148Y-59016975D02*
X125689812Y-59043391D01*
X125689812Y-59043391D02*
X125901140Y-59043391D01*
X125901140Y-59043391D02*
X125953972Y-59016975D01*
X125953972Y-59016975D02*
X125980388Y-58990559D01*
X125980388Y-58990559D02*
X126006804Y-58937727D01*
X126006804Y-58937727D02*
X126006804Y-58832063D01*
X126006804Y-58832063D02*
X125980388Y-58779231D01*
X125980388Y-58779231D02*
X125953972Y-58752815D01*
X125953972Y-58752815D02*
X125901140Y-58726399D01*
X125901140Y-58726399D02*
X125769060Y-58726399D01*
X125769060Y-58726399D02*
X125716228Y-58752815D01*
X125716228Y-58752815D02*
X125689812Y-58779231D01*
X125689812Y-58779231D02*
X125663396Y-58832063D01*
X125663396Y-58832063D02*
X125663396Y-58937727D01*
X125663396Y-58937727D02*
X125689812Y-58990559D01*
X125689812Y-58990559D02*
X125716228Y-59016975D01*
X125716228Y-59016975D02*
X125769060Y-59043391D01*
X124236858Y-90345234D02*
X123972698Y-90530146D01*
X124236858Y-90662226D02*
X123682122Y-90662226D01*
X123682122Y-90662226D02*
X123682122Y-90450898D01*
X123682122Y-90450898D02*
X123708538Y-90398066D01*
X123708538Y-90398066D02*
X123734954Y-90371650D01*
X123734954Y-90371650D02*
X123787786Y-90345234D01*
X123787786Y-90345234D02*
X123867034Y-90345234D01*
X123867034Y-90345234D02*
X123919866Y-90371650D01*
X123919866Y-90371650D02*
X123946282Y-90398066D01*
X123946282Y-90398066D02*
X123972698Y-90450898D01*
X123972698Y-90450898D02*
X123972698Y-90662226D01*
X123682122Y-90160322D02*
X123682122Y-89816914D01*
X123682122Y-89816914D02*
X123893450Y-90001826D01*
X123893450Y-90001826D02*
X123893450Y-89922578D01*
X123893450Y-89922578D02*
X123919866Y-89869746D01*
X123919866Y-89869746D02*
X123946282Y-89843330D01*
X123946282Y-89843330D02*
X123999114Y-89816914D01*
X123999114Y-89816914D02*
X124131194Y-89816914D01*
X124131194Y-89816914D02*
X124184026Y-89843330D01*
X124184026Y-89843330D02*
X124210442Y-89869746D01*
X124210442Y-89869746D02*
X124236858Y-89922578D01*
X124236858Y-89922578D02*
X124236858Y-90081074D01*
X124236858Y-90081074D02*
X124210442Y-90133906D01*
X124210442Y-90133906D02*
X124184026Y-90160322D01*
X124236858Y-89552754D02*
X124236858Y-89447090D01*
X124236858Y-89447090D02*
X124210442Y-89394258D01*
X124210442Y-89394258D02*
X124184026Y-89367842D01*
X124184026Y-89367842D02*
X124104778Y-89315010D01*
X124104778Y-89315010D02*
X123999114Y-89288594D01*
X123999114Y-89288594D02*
X123787786Y-89288594D01*
X123787786Y-89288594D02*
X123734954Y-89315010D01*
X123734954Y-89315010D02*
X123708538Y-89341426D01*
X123708538Y-89341426D02*
X123682122Y-89394258D01*
X123682122Y-89394258D02*
X123682122Y-89499922D01*
X123682122Y-89499922D02*
X123708538Y-89552754D01*
X123708538Y-89552754D02*
X123734954Y-89579170D01*
X123734954Y-89579170D02*
X123787786Y-89605586D01*
X123787786Y-89605586D02*
X123919866Y-89605586D01*
X123919866Y-89605586D02*
X123972698Y-89579170D01*
X123972698Y-89579170D02*
X123999114Y-89552754D01*
X123999114Y-89552754D02*
X124025530Y-89499922D01*
X124025530Y-89499922D02*
X124025530Y-89394258D01*
X124025530Y-89394258D02*
X123999114Y-89341426D01*
X123999114Y-89341426D02*
X123972698Y-89315010D01*
X123972698Y-89315010D02*
X123919866Y-89288594D01*
X92976748Y-51503499D02*
X92791836Y-51239339D01*
X92659756Y-51503499D02*
X92659756Y-50948763D01*
X92659756Y-50948763D02*
X92871084Y-50948763D01*
X92871084Y-50948763D02*
X92923916Y-50975179D01*
X92923916Y-50975179D02*
X92950332Y-51001595D01*
X92950332Y-51001595D02*
X92976748Y-51054427D01*
X92976748Y-51054427D02*
X92976748Y-51133675D01*
X92976748Y-51133675D02*
X92950332Y-51186507D01*
X92950332Y-51186507D02*
X92923916Y-51212923D01*
X92923916Y-51212923D02*
X92871084Y-51239339D01*
X92871084Y-51239339D02*
X92659756Y-51239339D01*
X93505068Y-51503499D02*
X93188076Y-51503499D01*
X93346572Y-51503499D02*
X93346572Y-50948763D01*
X93346572Y-50948763D02*
X93293740Y-51028011D01*
X93293740Y-51028011D02*
X93240908Y-51080843D01*
X93240908Y-51080843D02*
X93188076Y-51107259D01*
X93980556Y-51133675D02*
X93980556Y-51503499D01*
X93848476Y-50922347D02*
X93716396Y-51318587D01*
X93716396Y-51318587D02*
X94059804Y-51318587D01*
X109024468Y-95011667D02*
X108998052Y-95038083D01*
X108998052Y-95038083D02*
X108918804Y-95064499D01*
X108918804Y-95064499D02*
X108865972Y-95064499D01*
X108865972Y-95064499D02*
X108786724Y-95038083D01*
X108786724Y-95038083D02*
X108733892Y-94985251D01*
X108733892Y-94985251D02*
X108707476Y-94932419D01*
X108707476Y-94932419D02*
X108681060Y-94826755D01*
X108681060Y-94826755D02*
X108681060Y-94747507D01*
X108681060Y-94747507D02*
X108707476Y-94641843D01*
X108707476Y-94641843D02*
X108733892Y-94589011D01*
X108733892Y-94589011D02*
X108786724Y-94536179D01*
X108786724Y-94536179D02*
X108865972Y-94509763D01*
X108865972Y-94509763D02*
X108918804Y-94509763D01*
X108918804Y-94509763D02*
X108998052Y-94536179D01*
X108998052Y-94536179D02*
X109024468Y-94562595D01*
X109209380Y-94509763D02*
X109579204Y-94509763D01*
X109579204Y-94509763D02*
X109341460Y-95064499D01*
X130152166Y-90632658D02*
X129967254Y-90368498D01*
X129835174Y-90632658D02*
X129835174Y-90077922D01*
X129835174Y-90077922D02*
X130046502Y-90077922D01*
X130046502Y-90077922D02*
X130099334Y-90104338D01*
X130099334Y-90104338D02*
X130125750Y-90130754D01*
X130125750Y-90130754D02*
X130152166Y-90183586D01*
X130152166Y-90183586D02*
X130152166Y-90262834D01*
X130152166Y-90262834D02*
X130125750Y-90315666D01*
X130125750Y-90315666D02*
X130099334Y-90342082D01*
X130099334Y-90342082D02*
X130046502Y-90368498D01*
X130046502Y-90368498D02*
X129835174Y-90368498D01*
X130627654Y-90262834D02*
X130627654Y-90632658D01*
X130495574Y-90051506D02*
X130363494Y-90447746D01*
X130363494Y-90447746D02*
X130706902Y-90447746D01*
X131023894Y-90077922D02*
X131076726Y-90077922D01*
X131076726Y-90077922D02*
X131129558Y-90104338D01*
X131129558Y-90104338D02*
X131155974Y-90130754D01*
X131155974Y-90130754D02*
X131182390Y-90183586D01*
X131182390Y-90183586D02*
X131208806Y-90289250D01*
X131208806Y-90289250D02*
X131208806Y-90421330D01*
X131208806Y-90421330D02*
X131182390Y-90526994D01*
X131182390Y-90526994D02*
X131155974Y-90579826D01*
X131155974Y-90579826D02*
X131129558Y-90606242D01*
X131129558Y-90606242D02*
X131076726Y-90632658D01*
X131076726Y-90632658D02*
X131023894Y-90632658D01*
X131023894Y-90632658D02*
X130971062Y-90606242D01*
X130971062Y-90606242D02*
X130944646Y-90579826D01*
X130944646Y-90579826D02*
X130918230Y-90526994D01*
X130918230Y-90526994D02*
X130891814Y-90421330D01*
X130891814Y-90421330D02*
X130891814Y-90289250D01*
X130891814Y-90289250D02*
X130918230Y-90183586D01*
X130918230Y-90183586D02*
X130944646Y-90130754D01*
X130944646Y-90130754D02*
X130971062Y-90104338D01*
X130971062Y-90104338D02*
X131023894Y-90077922D01*
X119352763Y-101768174D02*
X119352763Y-101451182D01*
X119907499Y-101609678D02*
X119352763Y-101609678D01*
X119907499Y-101266270D02*
X119352763Y-101266270D01*
X119352763Y-101266270D02*
X119352763Y-101054942D01*
X119352763Y-101054942D02*
X119379179Y-101002110D01*
X119379179Y-101002110D02*
X119405595Y-100975694D01*
X119405595Y-100975694D02*
X119458427Y-100949278D01*
X119458427Y-100949278D02*
X119537675Y-100949278D01*
X119537675Y-100949278D02*
X119590507Y-100975694D01*
X119590507Y-100975694D02*
X119616923Y-101002110D01*
X119616923Y-101002110D02*
X119643339Y-101054942D01*
X119643339Y-101054942D02*
X119643339Y-101266270D01*
X119405595Y-100737950D02*
X119379179Y-100711534D01*
X119379179Y-100711534D02*
X119352763Y-100658702D01*
X119352763Y-100658702D02*
X119352763Y-100526622D01*
X119352763Y-100526622D02*
X119379179Y-100473790D01*
X119379179Y-100473790D02*
X119405595Y-100447374D01*
X119405595Y-100447374D02*
X119458427Y-100420958D01*
X119458427Y-100420958D02*
X119511259Y-100420958D01*
X119511259Y-100420958D02*
X119590507Y-100447374D01*
X119590507Y-100447374D02*
X119907499Y-100764366D01*
X119907499Y-100764366D02*
X119907499Y-100420958D01*
X112846712Y-109542499D02*
X112661800Y-109278339D01*
X112529720Y-109542499D02*
X112529720Y-108987763D01*
X112529720Y-108987763D02*
X112741048Y-108987763D01*
X112741048Y-108987763D02*
X112793880Y-109014179D01*
X112793880Y-109014179D02*
X112820296Y-109040595D01*
X112820296Y-109040595D02*
X112846712Y-109093427D01*
X112846712Y-109093427D02*
X112846712Y-109172675D01*
X112846712Y-109172675D02*
X112820296Y-109225507D01*
X112820296Y-109225507D02*
X112793880Y-109251923D01*
X112793880Y-109251923D02*
X112741048Y-109278339D01*
X112741048Y-109278339D02*
X112529720Y-109278339D01*
X113031624Y-108987763D02*
X113375032Y-108987763D01*
X113375032Y-108987763D02*
X113190120Y-109199091D01*
X113190120Y-109199091D02*
X113269368Y-109199091D01*
X113269368Y-109199091D02*
X113322200Y-109225507D01*
X113322200Y-109225507D02*
X113348616Y-109251923D01*
X113348616Y-109251923D02*
X113375032Y-109304755D01*
X113375032Y-109304755D02*
X113375032Y-109436835D01*
X113375032Y-109436835D02*
X113348616Y-109489667D01*
X113348616Y-109489667D02*
X113322200Y-109516083D01*
X113322200Y-109516083D02*
X113269368Y-109542499D01*
X113269368Y-109542499D02*
X113110872Y-109542499D01*
X113110872Y-109542499D02*
X113058040Y-109516083D01*
X113058040Y-109516083D02*
X113031624Y-109489667D01*
X113850520Y-109172675D02*
X113850520Y-109542499D01*
X113718440Y-108961347D02*
X113586360Y-109357587D01*
X113586360Y-109357587D02*
X113929768Y-109357587D01*
X111703712Y-95011667D02*
X111677296Y-95038083D01*
X111677296Y-95038083D02*
X111598048Y-95064499D01*
X111598048Y-95064499D02*
X111545216Y-95064499D01*
X111545216Y-95064499D02*
X111465968Y-95038083D01*
X111465968Y-95038083D02*
X111413136Y-94985251D01*
X111413136Y-94985251D02*
X111386720Y-94932419D01*
X111386720Y-94932419D02*
X111360304Y-94826755D01*
X111360304Y-94826755D02*
X111360304Y-94747507D01*
X111360304Y-94747507D02*
X111386720Y-94641843D01*
X111386720Y-94641843D02*
X111413136Y-94589011D01*
X111413136Y-94589011D02*
X111465968Y-94536179D01*
X111465968Y-94536179D02*
X111545216Y-94509763D01*
X111545216Y-94509763D02*
X111598048Y-94509763D01*
X111598048Y-94509763D02*
X111677296Y-94536179D01*
X111677296Y-94536179D02*
X111703712Y-94562595D01*
X112020704Y-94747507D02*
X111967872Y-94721091D01*
X111967872Y-94721091D02*
X111941456Y-94694675D01*
X111941456Y-94694675D02*
X111915040Y-94641843D01*
X111915040Y-94641843D02*
X111915040Y-94615427D01*
X111915040Y-94615427D02*
X111941456Y-94562595D01*
X111941456Y-94562595D02*
X111967872Y-94536179D01*
X111967872Y-94536179D02*
X112020704Y-94509763D01*
X112020704Y-94509763D02*
X112126368Y-94509763D01*
X112126368Y-94509763D02*
X112179200Y-94536179D01*
X112179200Y-94536179D02*
X112205616Y-94562595D01*
X112205616Y-94562595D02*
X112232032Y-94615427D01*
X112232032Y-94615427D02*
X112232032Y-94641843D01*
X112232032Y-94641843D02*
X112205616Y-94694675D01*
X112205616Y-94694675D02*
X112179200Y-94721091D01*
X112179200Y-94721091D02*
X112126368Y-94747507D01*
X112126368Y-94747507D02*
X112020704Y-94747507D01*
X112020704Y-94747507D02*
X111967872Y-94773923D01*
X111967872Y-94773923D02*
X111941456Y-94800339D01*
X111941456Y-94800339D02*
X111915040Y-94853171D01*
X111915040Y-94853171D02*
X111915040Y-94958835D01*
X111915040Y-94958835D02*
X111941456Y-95011667D01*
X111941456Y-95011667D02*
X111967872Y-95038083D01*
X111967872Y-95038083D02*
X112020704Y-95064499D01*
X112020704Y-95064499D02*
X112126368Y-95064499D01*
X112126368Y-95064499D02*
X112179200Y-95038083D01*
X112179200Y-95038083D02*
X112205616Y-95011667D01*
X112205616Y-95011667D02*
X112232032Y-94958835D01*
X112232032Y-94958835D02*
X112232032Y-94853171D01*
X112232032Y-94853171D02*
X112205616Y-94800339D01*
X112205616Y-94800339D02*
X112179200Y-94773923D01*
X112179200Y-94773923D02*
X112126368Y-94747507D01*
X118815712Y-92143499D02*
X118630800Y-91879339D01*
X118498720Y-92143499D02*
X118498720Y-91588763D01*
X118498720Y-91588763D02*
X118710048Y-91588763D01*
X118710048Y-91588763D02*
X118762880Y-91615179D01*
X118762880Y-91615179D02*
X118789296Y-91641595D01*
X118789296Y-91641595D02*
X118815712Y-91694427D01*
X118815712Y-91694427D02*
X118815712Y-91773675D01*
X118815712Y-91773675D02*
X118789296Y-91826507D01*
X118789296Y-91826507D02*
X118762880Y-91852923D01*
X118762880Y-91852923D02*
X118710048Y-91879339D01*
X118710048Y-91879339D02*
X118498720Y-91879339D01*
X119027040Y-91641595D02*
X119053456Y-91615179D01*
X119053456Y-91615179D02*
X119106288Y-91588763D01*
X119106288Y-91588763D02*
X119238368Y-91588763D01*
X119238368Y-91588763D02*
X119291200Y-91615179D01*
X119291200Y-91615179D02*
X119317616Y-91641595D01*
X119317616Y-91641595D02*
X119344032Y-91694427D01*
X119344032Y-91694427D02*
X119344032Y-91747259D01*
X119344032Y-91747259D02*
X119317616Y-91826507D01*
X119317616Y-91826507D02*
X119000624Y-92143499D01*
X119000624Y-92143499D02*
X119344032Y-92143499D01*
X119528944Y-91588763D02*
X119898768Y-91588763D01*
X119898768Y-91588763D02*
X119661024Y-92143499D01*
X103136748Y-109771099D02*
X102951836Y-109506939D01*
X102819756Y-109771099D02*
X102819756Y-109216363D01*
X102819756Y-109216363D02*
X103031084Y-109216363D01*
X103031084Y-109216363D02*
X103083916Y-109242779D01*
X103083916Y-109242779D02*
X103110332Y-109269195D01*
X103110332Y-109269195D02*
X103136748Y-109322027D01*
X103136748Y-109322027D02*
X103136748Y-109401275D01*
X103136748Y-109401275D02*
X103110332Y-109454107D01*
X103110332Y-109454107D02*
X103083916Y-109480523D01*
X103083916Y-109480523D02*
X103031084Y-109506939D01*
X103031084Y-109506939D02*
X102819756Y-109506939D01*
X103321660Y-109216363D02*
X103665068Y-109216363D01*
X103665068Y-109216363D02*
X103480156Y-109427691D01*
X103480156Y-109427691D02*
X103559404Y-109427691D01*
X103559404Y-109427691D02*
X103612236Y-109454107D01*
X103612236Y-109454107D02*
X103638652Y-109480523D01*
X103638652Y-109480523D02*
X103665068Y-109533355D01*
X103665068Y-109533355D02*
X103665068Y-109665435D01*
X103665068Y-109665435D02*
X103638652Y-109718267D01*
X103638652Y-109718267D02*
X103612236Y-109744683D01*
X103612236Y-109744683D02*
X103559404Y-109771099D01*
X103559404Y-109771099D02*
X103400908Y-109771099D01*
X103400908Y-109771099D02*
X103348076Y-109744683D01*
X103348076Y-109744683D02*
X103321660Y-109718267D01*
X103876396Y-109269195D02*
X103902812Y-109242779D01*
X103902812Y-109242779D02*
X103955644Y-109216363D01*
X103955644Y-109216363D02*
X104087724Y-109216363D01*
X104087724Y-109216363D02*
X104140556Y-109242779D01*
X104140556Y-109242779D02*
X104166972Y-109269195D01*
X104166972Y-109269195D02*
X104193388Y-109322027D01*
X104193388Y-109322027D02*
X104193388Y-109374859D01*
X104193388Y-109374859D02*
X104166972Y-109454107D01*
X104166972Y-109454107D02*
X103849980Y-109771099D01*
X103849980Y-109771099D02*
X104193388Y-109771099D01*
X109700004Y-59275039D02*
X109435844Y-59459951D01*
X109700004Y-59592031D02*
X109145268Y-59592031D01*
X109145268Y-59592031D02*
X109145268Y-59380703D01*
X109145268Y-59380703D02*
X109171684Y-59327871D01*
X109171684Y-59327871D02*
X109198100Y-59301455D01*
X109198100Y-59301455D02*
X109250932Y-59275039D01*
X109250932Y-59275039D02*
X109330180Y-59275039D01*
X109330180Y-59275039D02*
X109383012Y-59301455D01*
X109383012Y-59301455D02*
X109409428Y-59327871D01*
X109409428Y-59327871D02*
X109435844Y-59380703D01*
X109435844Y-59380703D02*
X109435844Y-59592031D01*
X109700004Y-58746719D02*
X109700004Y-59063711D01*
X109700004Y-58905215D02*
X109145268Y-58905215D01*
X109145268Y-58905215D02*
X109224516Y-58958047D01*
X109224516Y-58958047D02*
X109277348Y-59010879D01*
X109277348Y-59010879D02*
X109303764Y-59063711D01*
X109145268Y-58271231D02*
X109145268Y-58376895D01*
X109145268Y-58376895D02*
X109171684Y-58429727D01*
X109171684Y-58429727D02*
X109198100Y-58456143D01*
X109198100Y-58456143D02*
X109277348Y-58508975D01*
X109277348Y-58508975D02*
X109383012Y-58535391D01*
X109383012Y-58535391D02*
X109594340Y-58535391D01*
X109594340Y-58535391D02*
X109647172Y-58508975D01*
X109647172Y-58508975D02*
X109673588Y-58482559D01*
X109673588Y-58482559D02*
X109700004Y-58429727D01*
X109700004Y-58429727D02*
X109700004Y-58324063D01*
X109700004Y-58324063D02*
X109673588Y-58271231D01*
X109673588Y-58271231D02*
X109647172Y-58244815D01*
X109647172Y-58244815D02*
X109594340Y-58218399D01*
X109594340Y-58218399D02*
X109462260Y-58218399D01*
X109462260Y-58218399D02*
X109409428Y-58244815D01*
X109409428Y-58244815D02*
X109383012Y-58271231D01*
X109383012Y-58271231D02*
X109356596Y-58324063D01*
X109356596Y-58324063D02*
X109356596Y-58429727D01*
X109356596Y-58429727D02*
X109383012Y-58482559D01*
X109383012Y-58482559D02*
X109409428Y-58508975D01*
X109409428Y-58508975D02*
X109462260Y-58535391D01*
X109750804Y-64863039D02*
X109486644Y-65047951D01*
X109750804Y-65180031D02*
X109196068Y-65180031D01*
X109196068Y-65180031D02*
X109196068Y-64968703D01*
X109196068Y-64968703D02*
X109222484Y-64915871D01*
X109222484Y-64915871D02*
X109248900Y-64889455D01*
X109248900Y-64889455D02*
X109301732Y-64863039D01*
X109301732Y-64863039D02*
X109380980Y-64863039D01*
X109380980Y-64863039D02*
X109433812Y-64889455D01*
X109433812Y-64889455D02*
X109460228Y-64915871D01*
X109460228Y-64915871D02*
X109486644Y-64968703D01*
X109486644Y-64968703D02*
X109486644Y-65180031D01*
X109248900Y-64651711D02*
X109222484Y-64625295D01*
X109222484Y-64625295D02*
X109196068Y-64572463D01*
X109196068Y-64572463D02*
X109196068Y-64440383D01*
X109196068Y-64440383D02*
X109222484Y-64387551D01*
X109222484Y-64387551D02*
X109248900Y-64361135D01*
X109248900Y-64361135D02*
X109301732Y-64334719D01*
X109301732Y-64334719D02*
X109354564Y-64334719D01*
X109354564Y-64334719D02*
X109433812Y-64361135D01*
X109433812Y-64361135D02*
X109750804Y-64678127D01*
X109750804Y-64678127D02*
X109750804Y-64334719D01*
X109248900Y-64123391D02*
X109222484Y-64096975D01*
X109222484Y-64096975D02*
X109196068Y-64044143D01*
X109196068Y-64044143D02*
X109196068Y-63912063D01*
X109196068Y-63912063D02*
X109222484Y-63859231D01*
X109222484Y-63859231D02*
X109248900Y-63832815D01*
X109248900Y-63832815D02*
X109301732Y-63806399D01*
X109301732Y-63806399D02*
X109354564Y-63806399D01*
X109354564Y-63806399D02*
X109433812Y-63832815D01*
X109433812Y-63832815D02*
X109750804Y-64149807D01*
X109750804Y-64149807D02*
X109750804Y-63806399D01*
X102638804Y-94396075D02*
X102374644Y-94580987D01*
X102638804Y-94713067D02*
X102084068Y-94713067D01*
X102084068Y-94713067D02*
X102084068Y-94501739D01*
X102084068Y-94501739D02*
X102110484Y-94448907D01*
X102110484Y-94448907D02*
X102136900Y-94422491D01*
X102136900Y-94422491D02*
X102189732Y-94396075D01*
X102189732Y-94396075D02*
X102268980Y-94396075D01*
X102268980Y-94396075D02*
X102321812Y-94422491D01*
X102321812Y-94422491D02*
X102348228Y-94448907D01*
X102348228Y-94448907D02*
X102374644Y-94501739D01*
X102374644Y-94501739D02*
X102374644Y-94713067D01*
X102136900Y-94184747D02*
X102110484Y-94158331D01*
X102110484Y-94158331D02*
X102084068Y-94105499D01*
X102084068Y-94105499D02*
X102084068Y-93973419D01*
X102084068Y-93973419D02*
X102110484Y-93920587D01*
X102110484Y-93920587D02*
X102136900Y-93894171D01*
X102136900Y-93894171D02*
X102189732Y-93867755D01*
X102189732Y-93867755D02*
X102242564Y-93867755D01*
X102242564Y-93867755D02*
X102321812Y-93894171D01*
X102321812Y-93894171D02*
X102638804Y-94211163D01*
X102638804Y-94211163D02*
X102638804Y-93867755D01*
X102321812Y-93550763D02*
X102295396Y-93603595D01*
X102295396Y-93603595D02*
X102268980Y-93630011D01*
X102268980Y-93630011D02*
X102216148Y-93656427D01*
X102216148Y-93656427D02*
X102189732Y-93656427D01*
X102189732Y-93656427D02*
X102136900Y-93630011D01*
X102136900Y-93630011D02*
X102110484Y-93603595D01*
X102110484Y-93603595D02*
X102084068Y-93550763D01*
X102084068Y-93550763D02*
X102084068Y-93445099D01*
X102084068Y-93445099D02*
X102110484Y-93392267D01*
X102110484Y-93392267D02*
X102136900Y-93365851D01*
X102136900Y-93365851D02*
X102189732Y-93339435D01*
X102189732Y-93339435D02*
X102216148Y-93339435D01*
X102216148Y-93339435D02*
X102268980Y-93365851D01*
X102268980Y-93365851D02*
X102295396Y-93392267D01*
X102295396Y-93392267D02*
X102321812Y-93445099D01*
X102321812Y-93445099D02*
X102321812Y-93550763D01*
X102321812Y-93550763D02*
X102348228Y-93603595D01*
X102348228Y-93603595D02*
X102374644Y-93630011D01*
X102374644Y-93630011D02*
X102427476Y-93656427D01*
X102427476Y-93656427D02*
X102533140Y-93656427D01*
X102533140Y-93656427D02*
X102585972Y-93630011D01*
X102585972Y-93630011D02*
X102612388Y-93603595D01*
X102612388Y-93603595D02*
X102638804Y-93550763D01*
X102638804Y-93550763D02*
X102638804Y-93445099D01*
X102638804Y-93445099D02*
X102612388Y-93392267D01*
X102612388Y-93392267D02*
X102585972Y-93365851D01*
X102585972Y-93365851D02*
X102533140Y-93339435D01*
X102533140Y-93339435D02*
X102427476Y-93339435D01*
X102427476Y-93339435D02*
X102374644Y-93365851D01*
X102374644Y-93365851D02*
X102348228Y-93392267D01*
X102348228Y-93392267D02*
X102321812Y-93445099D01*
X117878804Y-53839439D02*
X117614644Y-54024351D01*
X117878804Y-54156431D02*
X117324068Y-54156431D01*
X117324068Y-54156431D02*
X117324068Y-53945103D01*
X117324068Y-53945103D02*
X117350484Y-53892271D01*
X117350484Y-53892271D02*
X117376900Y-53865855D01*
X117376900Y-53865855D02*
X117429732Y-53839439D01*
X117429732Y-53839439D02*
X117508980Y-53839439D01*
X117508980Y-53839439D02*
X117561812Y-53865855D01*
X117561812Y-53865855D02*
X117588228Y-53892271D01*
X117588228Y-53892271D02*
X117614644Y-53945103D01*
X117614644Y-53945103D02*
X117614644Y-54156431D01*
X117878804Y-53311119D02*
X117878804Y-53628111D01*
X117878804Y-53469615D02*
X117324068Y-53469615D01*
X117324068Y-53469615D02*
X117403316Y-53522447D01*
X117403316Y-53522447D02*
X117456148Y-53575279D01*
X117456148Y-53575279D02*
X117482564Y-53628111D01*
X117324068Y-53126207D02*
X117324068Y-52756383D01*
X117324068Y-52756383D02*
X117878804Y-52994127D01*
X106109204Y-105098875D02*
X105845044Y-105283787D01*
X106109204Y-105415867D02*
X105554468Y-105415867D01*
X105554468Y-105415867D02*
X105554468Y-105204539D01*
X105554468Y-105204539D02*
X105580884Y-105151707D01*
X105580884Y-105151707D02*
X105607300Y-105125291D01*
X105607300Y-105125291D02*
X105660132Y-105098875D01*
X105660132Y-105098875D02*
X105739380Y-105098875D01*
X105739380Y-105098875D02*
X105792212Y-105125291D01*
X105792212Y-105125291D02*
X105818628Y-105151707D01*
X105818628Y-105151707D02*
X105845044Y-105204539D01*
X105845044Y-105204539D02*
X105845044Y-105415867D01*
X105607300Y-104887547D02*
X105580884Y-104861131D01*
X105580884Y-104861131D02*
X105554468Y-104808299D01*
X105554468Y-104808299D02*
X105554468Y-104676219D01*
X105554468Y-104676219D02*
X105580884Y-104623387D01*
X105580884Y-104623387D02*
X105607300Y-104596971D01*
X105607300Y-104596971D02*
X105660132Y-104570555D01*
X105660132Y-104570555D02*
X105712964Y-104570555D01*
X105712964Y-104570555D02*
X105792212Y-104596971D01*
X105792212Y-104596971D02*
X106109204Y-104913963D01*
X106109204Y-104913963D02*
X106109204Y-104570555D01*
X106109204Y-104042235D02*
X106109204Y-104359227D01*
X106109204Y-104200731D02*
X105554468Y-104200731D01*
X105554468Y-104200731D02*
X105633716Y-104253563D01*
X105633716Y-104253563D02*
X105686548Y-104306395D01*
X105686548Y-104306395D02*
X105712964Y-104359227D01*
X146741258Y-100605870D02*
X146186522Y-100605870D01*
X146186522Y-100605870D02*
X146186522Y-100473790D01*
X146186522Y-100473790D02*
X146212938Y-100394542D01*
X146212938Y-100394542D02*
X146265770Y-100341710D01*
X146265770Y-100341710D02*
X146318602Y-100315294D01*
X146318602Y-100315294D02*
X146424266Y-100288878D01*
X146424266Y-100288878D02*
X146503514Y-100288878D01*
X146503514Y-100288878D02*
X146609178Y-100315294D01*
X146609178Y-100315294D02*
X146662010Y-100341710D01*
X146662010Y-100341710D02*
X146714842Y-100394542D01*
X146714842Y-100394542D02*
X146741258Y-100473790D01*
X146741258Y-100473790D02*
X146741258Y-100605870D01*
X146239354Y-100077550D02*
X146212938Y-100051134D01*
X146212938Y-100051134D02*
X146186522Y-99998302D01*
X146186522Y-99998302D02*
X146186522Y-99866222D01*
X146186522Y-99866222D02*
X146212938Y-99813390D01*
X146212938Y-99813390D02*
X146239354Y-99786974D01*
X146239354Y-99786974D02*
X146292186Y-99760558D01*
X146292186Y-99760558D02*
X146345018Y-99760558D01*
X146345018Y-99760558D02*
X146424266Y-99786974D01*
X146424266Y-99786974D02*
X146741258Y-100103966D01*
X146741258Y-100103966D02*
X146741258Y-99760558D01*
X115338804Y-111446639D02*
X115074644Y-111631551D01*
X115338804Y-111763631D02*
X114784068Y-111763631D01*
X114784068Y-111763631D02*
X114784068Y-111552303D01*
X114784068Y-111552303D02*
X114810484Y-111499471D01*
X114810484Y-111499471D02*
X114836900Y-111473055D01*
X114836900Y-111473055D02*
X114889732Y-111446639D01*
X114889732Y-111446639D02*
X114968980Y-111446639D01*
X114968980Y-111446639D02*
X115021812Y-111473055D01*
X115021812Y-111473055D02*
X115048228Y-111499471D01*
X115048228Y-111499471D02*
X115074644Y-111552303D01*
X115074644Y-111552303D02*
X115074644Y-111763631D01*
X114784068Y-111261727D02*
X114784068Y-110918319D01*
X114784068Y-110918319D02*
X114995396Y-111103231D01*
X114995396Y-111103231D02*
X114995396Y-111023983D01*
X114995396Y-111023983D02*
X115021812Y-110971151D01*
X115021812Y-110971151D02*
X115048228Y-110944735D01*
X115048228Y-110944735D02*
X115101060Y-110918319D01*
X115101060Y-110918319D02*
X115233140Y-110918319D01*
X115233140Y-110918319D02*
X115285972Y-110944735D01*
X115285972Y-110944735D02*
X115312388Y-110971151D01*
X115312388Y-110971151D02*
X115338804Y-111023983D01*
X115338804Y-111023983D02*
X115338804Y-111182479D01*
X115338804Y-111182479D02*
X115312388Y-111235311D01*
X115312388Y-111235311D02*
X115285972Y-111261727D01*
X114784068Y-110416415D02*
X114784068Y-110680575D01*
X114784068Y-110680575D02*
X115048228Y-110706991D01*
X115048228Y-110706991D02*
X115021812Y-110680575D01*
X115021812Y-110680575D02*
X114995396Y-110627743D01*
X114995396Y-110627743D02*
X114995396Y-110495663D01*
X114995396Y-110495663D02*
X115021812Y-110442831D01*
X115021812Y-110442831D02*
X115048228Y-110416415D01*
X115048228Y-110416415D02*
X115101060Y-110389999D01*
X115101060Y-110389999D02*
X115233140Y-110389999D01*
X115233140Y-110389999D02*
X115285972Y-110416415D01*
X115285972Y-110416415D02*
X115312388Y-110442831D01*
X115312388Y-110442831D02*
X115338804Y-110495663D01*
X115338804Y-110495663D02*
X115338804Y-110627743D01*
X115338804Y-110627743D02*
X115312388Y-110680575D01*
X115312388Y-110680575D02*
X115285972Y-110706991D01*
X98869548Y-112057099D02*
X98684636Y-111792939D01*
X98552556Y-112057099D02*
X98552556Y-111502363D01*
X98552556Y-111502363D02*
X98763884Y-111502363D01*
X98763884Y-111502363D02*
X98816716Y-111528779D01*
X98816716Y-111528779D02*
X98843132Y-111555195D01*
X98843132Y-111555195D02*
X98869548Y-111608027D01*
X98869548Y-111608027D02*
X98869548Y-111687275D01*
X98869548Y-111687275D02*
X98843132Y-111740107D01*
X98843132Y-111740107D02*
X98816716Y-111766523D01*
X98816716Y-111766523D02*
X98763884Y-111792939D01*
X98763884Y-111792939D02*
X98552556Y-111792939D01*
X99054460Y-111502363D02*
X99397868Y-111502363D01*
X99397868Y-111502363D02*
X99212956Y-111713691D01*
X99212956Y-111713691D02*
X99292204Y-111713691D01*
X99292204Y-111713691D02*
X99345036Y-111740107D01*
X99345036Y-111740107D02*
X99371452Y-111766523D01*
X99371452Y-111766523D02*
X99397868Y-111819355D01*
X99397868Y-111819355D02*
X99397868Y-111951435D01*
X99397868Y-111951435D02*
X99371452Y-112004267D01*
X99371452Y-112004267D02*
X99345036Y-112030683D01*
X99345036Y-112030683D02*
X99292204Y-112057099D01*
X99292204Y-112057099D02*
X99133708Y-112057099D01*
X99133708Y-112057099D02*
X99080876Y-112030683D01*
X99080876Y-112030683D02*
X99054460Y-112004267D01*
X99926188Y-112057099D02*
X99609196Y-112057099D01*
X99767692Y-112057099D02*
X99767692Y-111502363D01*
X99767692Y-111502363D02*
X99714860Y-111581611D01*
X99714860Y-111581611D02*
X99662028Y-111634443D01*
X99662028Y-111634443D02*
X99609196Y-111660859D01*
X117614266Y-73752284D02*
X117614266Y-74148524D01*
X117614266Y-74148524D02*
X117587850Y-74227772D01*
X117587850Y-74227772D02*
X117535018Y-74280604D01*
X117535018Y-74280604D02*
X117455770Y-74307020D01*
X117455770Y-74307020D02*
X117402938Y-74307020D01*
X117878426Y-74307020D02*
X117878426Y-73752284D01*
X117878426Y-73752284D02*
X118089754Y-73752284D01*
X118089754Y-73752284D02*
X118142586Y-73778700D01*
X118142586Y-73778700D02*
X118169002Y-73805116D01*
X118169002Y-73805116D02*
X118195418Y-73857948D01*
X118195418Y-73857948D02*
X118195418Y-73937196D01*
X118195418Y-73937196D02*
X118169002Y-73990028D01*
X118169002Y-73990028D02*
X118142586Y-74016444D01*
X118142586Y-74016444D02*
X118089754Y-74042860D01*
X118089754Y-74042860D02*
X117878426Y-74042860D01*
X118723738Y-74307020D02*
X118406746Y-74307020D01*
X118565242Y-74307020D02*
X118565242Y-73752284D01*
X118565242Y-73752284D02*
X118512410Y-73831532D01*
X118512410Y-73831532D02*
X118459578Y-73884364D01*
X118459578Y-73884364D02*
X118406746Y-73910780D01*
X114402690Y-78802820D02*
X114138530Y-78802820D01*
X114138530Y-78802820D02*
X114138530Y-78248084D01*
X114561186Y-78300916D02*
X114587602Y-78274500D01*
X114587602Y-78274500D02*
X114640434Y-78248084D01*
X114640434Y-78248084D02*
X114772514Y-78248084D01*
X114772514Y-78248084D02*
X114825346Y-78274500D01*
X114825346Y-78274500D02*
X114851762Y-78300916D01*
X114851762Y-78300916D02*
X114878178Y-78353748D01*
X114878178Y-78353748D02*
X114878178Y-78406580D01*
X114878178Y-78406580D02*
X114851762Y-78485828D01*
X114851762Y-78485828D02*
X114534770Y-78802820D01*
X114534770Y-78802820D02*
X114878178Y-78802820D01*
X136952172Y-75607239D02*
X136978588Y-75633655D01*
X136978588Y-75633655D02*
X137005004Y-75712903D01*
X137005004Y-75712903D02*
X137005004Y-75765735D01*
X137005004Y-75765735D02*
X136978588Y-75844983D01*
X136978588Y-75844983D02*
X136925756Y-75897815D01*
X136925756Y-75897815D02*
X136872924Y-75924231D01*
X136872924Y-75924231D02*
X136767260Y-75950647D01*
X136767260Y-75950647D02*
X136688012Y-75950647D01*
X136688012Y-75950647D02*
X136582348Y-75924231D01*
X136582348Y-75924231D02*
X136529516Y-75897815D01*
X136529516Y-75897815D02*
X136476684Y-75844983D01*
X136476684Y-75844983D02*
X136450268Y-75765735D01*
X136450268Y-75765735D02*
X136450268Y-75712903D01*
X136450268Y-75712903D02*
X136476684Y-75633655D01*
X136476684Y-75633655D02*
X136503100Y-75607239D01*
X137005004Y-75078919D02*
X137005004Y-75395911D01*
X137005004Y-75237415D02*
X136450268Y-75237415D01*
X136450268Y-75237415D02*
X136529516Y-75290247D01*
X136529516Y-75290247D02*
X136582348Y-75343079D01*
X136582348Y-75343079D02*
X136608764Y-75395911D01*
X137005004Y-74550599D02*
X137005004Y-74867591D01*
X137005004Y-74709095D02*
X136450268Y-74709095D01*
X136450268Y-74709095D02*
X136529516Y-74761927D01*
X136529516Y-74761927D02*
X136582348Y-74814759D01*
X136582348Y-74814759D02*
X136608764Y-74867591D01*
X106731890Y-47764020D02*
X106731890Y-47209284D01*
X106731890Y-47473444D02*
X107048882Y-47473444D01*
X107048882Y-47764020D02*
X107048882Y-47209284D01*
X107286626Y-47262116D02*
X107313042Y-47235700D01*
X107313042Y-47235700D02*
X107365874Y-47209284D01*
X107365874Y-47209284D02*
X107497954Y-47209284D01*
X107497954Y-47209284D02*
X107550786Y-47235700D01*
X107550786Y-47235700D02*
X107577202Y-47262116D01*
X107577202Y-47262116D02*
X107603618Y-47314948D01*
X107603618Y-47314948D02*
X107603618Y-47367780D01*
X107603618Y-47367780D02*
X107577202Y-47447028D01*
X107577202Y-47447028D02*
X107260210Y-47764020D01*
X107260210Y-47764020D02*
X107603618Y-47764020D01*
X117952972Y-82102475D02*
X117979388Y-82128891D01*
X117979388Y-82128891D02*
X118005804Y-82208139D01*
X118005804Y-82208139D02*
X118005804Y-82260971D01*
X118005804Y-82260971D02*
X117979388Y-82340219D01*
X117979388Y-82340219D02*
X117926556Y-82393051D01*
X117926556Y-82393051D02*
X117873724Y-82419467D01*
X117873724Y-82419467D02*
X117768060Y-82445883D01*
X117768060Y-82445883D02*
X117688812Y-82445883D01*
X117688812Y-82445883D02*
X117583148Y-82419467D01*
X117583148Y-82419467D02*
X117530316Y-82393051D01*
X117530316Y-82393051D02*
X117477484Y-82340219D01*
X117477484Y-82340219D02*
X117451068Y-82260971D01*
X117451068Y-82260971D02*
X117451068Y-82208139D01*
X117451068Y-82208139D02*
X117477484Y-82128891D01*
X117477484Y-82128891D02*
X117503900Y-82102475D01*
X118005804Y-81574155D02*
X118005804Y-81891147D01*
X118005804Y-81732651D02*
X117451068Y-81732651D01*
X117451068Y-81732651D02*
X117530316Y-81785483D01*
X117530316Y-81785483D02*
X117583148Y-81838315D01*
X117583148Y-81838315D02*
X117609564Y-81891147D01*
X117451068Y-81389243D02*
X117451068Y-81019419D01*
X117451068Y-81019419D02*
X118005804Y-81257163D01*
X127529189Y-74591721D02*
X127925429Y-74591721D01*
X127925429Y-74591721D02*
X128004677Y-74618137D01*
X128004677Y-74618137D02*
X128057509Y-74670969D01*
X128057509Y-74670969D02*
X128083925Y-74750217D01*
X128083925Y-74750217D02*
X128083925Y-74803049D01*
X128083925Y-74327561D02*
X127529189Y-74327561D01*
X127529189Y-74327561D02*
X127529189Y-74116233D01*
X127529189Y-74116233D02*
X127555605Y-74063401D01*
X127555605Y-74063401D02*
X127582021Y-74036985D01*
X127582021Y-74036985D02*
X127634853Y-74010569D01*
X127634853Y-74010569D02*
X127714101Y-74010569D01*
X127714101Y-74010569D02*
X127766933Y-74036985D01*
X127766933Y-74036985D02*
X127793349Y-74063401D01*
X127793349Y-74063401D02*
X127819765Y-74116233D01*
X127819765Y-74116233D02*
X127819765Y-74327561D01*
X127582021Y-73799241D02*
X127555605Y-73772825D01*
X127555605Y-73772825D02*
X127529189Y-73719993D01*
X127529189Y-73719993D02*
X127529189Y-73587913D01*
X127529189Y-73587913D02*
X127555605Y-73535081D01*
X127555605Y-73535081D02*
X127582021Y-73508665D01*
X127582021Y-73508665D02*
X127634853Y-73482249D01*
X127634853Y-73482249D02*
X127687685Y-73482249D01*
X127687685Y-73482249D02*
X127766933Y-73508665D01*
X127766933Y-73508665D02*
X128083925Y-73825657D01*
X128083925Y-73825657D02*
X128083925Y-73482249D01*
X145875730Y-91166058D02*
X145875730Y-90611322D01*
X145875730Y-90611322D02*
X146007810Y-90611322D01*
X146007810Y-90611322D02*
X146087058Y-90637738D01*
X146087058Y-90637738D02*
X146139890Y-90690570D01*
X146139890Y-90690570D02*
X146166306Y-90743402D01*
X146166306Y-90743402D02*
X146192722Y-90849066D01*
X146192722Y-90849066D02*
X146192722Y-90928314D01*
X146192722Y-90928314D02*
X146166306Y-91033978D01*
X146166306Y-91033978D02*
X146139890Y-91086810D01*
X146139890Y-91086810D02*
X146087058Y-91139642D01*
X146087058Y-91139642D02*
X146007810Y-91166058D01*
X146007810Y-91166058D02*
X145875730Y-91166058D01*
X146377634Y-90611322D02*
X146721042Y-90611322D01*
X146721042Y-90611322D02*
X146536130Y-90822650D01*
X146536130Y-90822650D02*
X146615378Y-90822650D01*
X146615378Y-90822650D02*
X146668210Y-90849066D01*
X146668210Y-90849066D02*
X146694626Y-90875482D01*
X146694626Y-90875482D02*
X146721042Y-90928314D01*
X146721042Y-90928314D02*
X146721042Y-91060394D01*
X146721042Y-91060394D02*
X146694626Y-91113226D01*
X146694626Y-91113226D02*
X146668210Y-91139642D01*
X146668210Y-91139642D02*
X146615378Y-91166058D01*
X146615378Y-91166058D02*
X146456882Y-91166058D01*
X146456882Y-91166058D02*
X146404050Y-91139642D01*
X146404050Y-91139642D02*
X146377634Y-91113226D01*
X112542772Y-83760639D02*
X112569188Y-83787055D01*
X112569188Y-83787055D02*
X112595604Y-83866303D01*
X112595604Y-83866303D02*
X112595604Y-83919135D01*
X112595604Y-83919135D02*
X112569188Y-83998383D01*
X112569188Y-83998383D02*
X112516356Y-84051215D01*
X112516356Y-84051215D02*
X112463524Y-84077631D01*
X112463524Y-84077631D02*
X112357860Y-84104047D01*
X112357860Y-84104047D02*
X112278612Y-84104047D01*
X112278612Y-84104047D02*
X112172948Y-84077631D01*
X112172948Y-84077631D02*
X112120116Y-84051215D01*
X112120116Y-84051215D02*
X112067284Y-83998383D01*
X112067284Y-83998383D02*
X112040868Y-83919135D01*
X112040868Y-83919135D02*
X112040868Y-83866303D01*
X112040868Y-83866303D02*
X112067284Y-83787055D01*
X112067284Y-83787055D02*
X112093700Y-83760639D01*
X112595604Y-83232319D02*
X112595604Y-83549311D01*
X112595604Y-83390815D02*
X112040868Y-83390815D01*
X112040868Y-83390815D02*
X112120116Y-83443647D01*
X112120116Y-83443647D02*
X112172948Y-83496479D01*
X112172948Y-83496479D02*
X112199364Y-83549311D01*
X112278612Y-82915327D02*
X112252196Y-82968159D01*
X112252196Y-82968159D02*
X112225780Y-82994575D01*
X112225780Y-82994575D02*
X112172948Y-83020991D01*
X112172948Y-83020991D02*
X112146532Y-83020991D01*
X112146532Y-83020991D02*
X112093700Y-82994575D01*
X112093700Y-82994575D02*
X112067284Y-82968159D01*
X112067284Y-82968159D02*
X112040868Y-82915327D01*
X112040868Y-82915327D02*
X112040868Y-82809663D01*
X112040868Y-82809663D02*
X112067284Y-82756831D01*
X112067284Y-82756831D02*
X112093700Y-82730415D01*
X112093700Y-82730415D02*
X112146532Y-82703999D01*
X112146532Y-82703999D02*
X112172948Y-82703999D01*
X112172948Y-82703999D02*
X112225780Y-82730415D01*
X112225780Y-82730415D02*
X112252196Y-82756831D01*
X112252196Y-82756831D02*
X112278612Y-82809663D01*
X112278612Y-82809663D02*
X112278612Y-82915327D01*
X112278612Y-82915327D02*
X112305028Y-82968159D01*
X112305028Y-82968159D02*
X112331444Y-82994575D01*
X112331444Y-82994575D02*
X112384276Y-83020991D01*
X112384276Y-83020991D02*
X112489940Y-83020991D01*
X112489940Y-83020991D02*
X112542772Y-82994575D01*
X112542772Y-82994575D02*
X112569188Y-82968159D01*
X112569188Y-82968159D02*
X112595604Y-82915327D01*
X112595604Y-82915327D02*
X112595604Y-82809663D01*
X112595604Y-82809663D02*
X112569188Y-82756831D01*
X112569188Y-82756831D02*
X112542772Y-82730415D01*
X112542772Y-82730415D02*
X112489940Y-82703999D01*
X112489940Y-82703999D02*
X112384276Y-82703999D01*
X112384276Y-82703999D02*
X112331444Y-82730415D01*
X112331444Y-82730415D02*
X112305028Y-82756831D01*
X112305028Y-82756831D02*
X112278612Y-82809663D01*
X112715909Y-49527001D02*
X112742325Y-49447753D01*
X112742325Y-49447753D02*
X112742325Y-49315673D01*
X112742325Y-49315673D02*
X112715909Y-49262841D01*
X112715909Y-49262841D02*
X112689493Y-49236425D01*
X112689493Y-49236425D02*
X112636661Y-49210009D01*
X112636661Y-49210009D02*
X112583829Y-49210009D01*
X112583829Y-49210009D02*
X112530997Y-49236425D01*
X112530997Y-49236425D02*
X112504581Y-49262841D01*
X112504581Y-49262841D02*
X112478165Y-49315673D01*
X112478165Y-49315673D02*
X112451749Y-49421337D01*
X112451749Y-49421337D02*
X112425333Y-49474169D01*
X112425333Y-49474169D02*
X112398917Y-49500585D01*
X112398917Y-49500585D02*
X112346085Y-49527001D01*
X112346085Y-49527001D02*
X112293253Y-49527001D01*
X112293253Y-49527001D02*
X112240421Y-49500585D01*
X112240421Y-49500585D02*
X112214005Y-49474169D01*
X112214005Y-49474169D02*
X112187589Y-49421337D01*
X112187589Y-49421337D02*
X112187589Y-49289257D01*
X112187589Y-49289257D02*
X112214005Y-49210009D01*
X112742325Y-48972265D02*
X112187589Y-48972265D01*
X112187589Y-48972265D02*
X112187589Y-48760937D01*
X112187589Y-48760937D02*
X112214005Y-48708105D01*
X112214005Y-48708105D02*
X112240421Y-48681689D01*
X112240421Y-48681689D02*
X112293253Y-48655273D01*
X112293253Y-48655273D02*
X112372501Y-48655273D01*
X112372501Y-48655273D02*
X112425333Y-48681689D01*
X112425333Y-48681689D02*
X112451749Y-48708105D01*
X112451749Y-48708105D02*
X112478165Y-48760937D01*
X112478165Y-48760937D02*
X112478165Y-48972265D01*
X112742325Y-48417529D02*
X112187589Y-48417529D01*
X112742325Y-48100537D02*
X112425333Y-48338281D01*
X112187589Y-48100537D02*
X112504581Y-48417529D01*
X112742325Y-47545801D02*
X112478165Y-47730713D01*
X112742325Y-47862793D02*
X112187589Y-47862793D01*
X112187589Y-47862793D02*
X112187589Y-47651465D01*
X112187589Y-47651465D02*
X112214005Y-47598633D01*
X112214005Y-47598633D02*
X112240421Y-47572217D01*
X112240421Y-47572217D02*
X112293253Y-47545801D01*
X112293253Y-47545801D02*
X112372501Y-47545801D01*
X112372501Y-47545801D02*
X112425333Y-47572217D01*
X112425333Y-47572217D02*
X112451749Y-47598633D01*
X112451749Y-47598633D02*
X112478165Y-47651465D01*
X112478165Y-47651465D02*
X112478165Y-47862793D01*
X112742325Y-47017481D02*
X112742325Y-47334473D01*
X112742325Y-47175977D02*
X112187589Y-47175977D01*
X112187589Y-47175977D02*
X112266837Y-47228809D01*
X112266837Y-47228809D02*
X112319669Y-47281641D01*
X112319669Y-47281641D02*
X112346085Y-47334473D01*
X93696002Y-93667499D02*
X93511090Y-93403339D01*
X93379010Y-93667499D02*
X93379010Y-93112763D01*
X93379010Y-93112763D02*
X93590338Y-93112763D01*
X93590338Y-93112763D02*
X93643170Y-93139179D01*
X93643170Y-93139179D02*
X93669586Y-93165595D01*
X93669586Y-93165595D02*
X93696002Y-93218427D01*
X93696002Y-93218427D02*
X93696002Y-93297675D01*
X93696002Y-93297675D02*
X93669586Y-93350507D01*
X93669586Y-93350507D02*
X93643170Y-93376923D01*
X93643170Y-93376923D02*
X93590338Y-93403339D01*
X93590338Y-93403339D02*
X93379010Y-93403339D01*
X93880914Y-93112763D02*
X94224322Y-93112763D01*
X94224322Y-93112763D02*
X94039410Y-93324091D01*
X94039410Y-93324091D02*
X94118658Y-93324091D01*
X94118658Y-93324091D02*
X94171490Y-93350507D01*
X94171490Y-93350507D02*
X94197906Y-93376923D01*
X94197906Y-93376923D02*
X94224322Y-93429755D01*
X94224322Y-93429755D02*
X94224322Y-93561835D01*
X94224322Y-93561835D02*
X94197906Y-93614667D01*
X94197906Y-93614667D02*
X94171490Y-93641083D01*
X94171490Y-93641083D02*
X94118658Y-93667499D01*
X94118658Y-93667499D02*
X93960162Y-93667499D01*
X93960162Y-93667499D02*
X93907330Y-93641083D01*
X93907330Y-93641083D02*
X93880914Y-93614667D01*
X94409234Y-93112763D02*
X94779058Y-93112763D01*
X94779058Y-93112763D02*
X94541314Y-93667499D01*
X93789548Y-104691099D02*
X93604636Y-104426939D01*
X93472556Y-104691099D02*
X93472556Y-104136363D01*
X93472556Y-104136363D02*
X93683884Y-104136363D01*
X93683884Y-104136363D02*
X93736716Y-104162779D01*
X93736716Y-104162779D02*
X93763132Y-104189195D01*
X93763132Y-104189195D02*
X93789548Y-104242027D01*
X93789548Y-104242027D02*
X93789548Y-104321275D01*
X93789548Y-104321275D02*
X93763132Y-104374107D01*
X93763132Y-104374107D02*
X93736716Y-104400523D01*
X93736716Y-104400523D02*
X93683884Y-104426939D01*
X93683884Y-104426939D02*
X93472556Y-104426939D01*
X94000876Y-104189195D02*
X94027292Y-104162779D01*
X94027292Y-104162779D02*
X94080124Y-104136363D01*
X94080124Y-104136363D02*
X94212204Y-104136363D01*
X94212204Y-104136363D02*
X94265036Y-104162779D01*
X94265036Y-104162779D02*
X94291452Y-104189195D01*
X94291452Y-104189195D02*
X94317868Y-104242027D01*
X94317868Y-104242027D02*
X94317868Y-104294859D01*
X94317868Y-104294859D02*
X94291452Y-104374107D01*
X94291452Y-104374107D02*
X93974460Y-104691099D01*
X93974460Y-104691099D02*
X94317868Y-104691099D01*
X94582028Y-104691099D02*
X94687692Y-104691099D01*
X94687692Y-104691099D02*
X94740524Y-104664683D01*
X94740524Y-104664683D02*
X94766940Y-104638267D01*
X94766940Y-104638267D02*
X94819772Y-104559019D01*
X94819772Y-104559019D02*
X94846188Y-104453355D01*
X94846188Y-104453355D02*
X94846188Y-104242027D01*
X94846188Y-104242027D02*
X94819772Y-104189195D01*
X94819772Y-104189195D02*
X94793356Y-104162779D01*
X94793356Y-104162779D02*
X94740524Y-104136363D01*
X94740524Y-104136363D02*
X94634860Y-104136363D01*
X94634860Y-104136363D02*
X94582028Y-104162779D01*
X94582028Y-104162779D02*
X94555612Y-104189195D01*
X94555612Y-104189195D02*
X94529196Y-104242027D01*
X94529196Y-104242027D02*
X94529196Y-104374107D01*
X94529196Y-104374107D02*
X94555612Y-104426939D01*
X94555612Y-104426939D02*
X94582028Y-104453355D01*
X94582028Y-104453355D02*
X94634860Y-104479771D01*
X94634860Y-104479771D02*
X94740524Y-104479771D01*
X94740524Y-104479771D02*
X94793356Y-104453355D01*
X94793356Y-104453355D02*
X94819772Y-104426939D01*
X94819772Y-104426939D02*
X94846188Y-104374107D01*
X117675604Y-59325839D02*
X117411444Y-59510751D01*
X117675604Y-59642831D02*
X117120868Y-59642831D01*
X117120868Y-59642831D02*
X117120868Y-59431503D01*
X117120868Y-59431503D02*
X117147284Y-59378671D01*
X117147284Y-59378671D02*
X117173700Y-59352255D01*
X117173700Y-59352255D02*
X117226532Y-59325839D01*
X117226532Y-59325839D02*
X117305780Y-59325839D01*
X117305780Y-59325839D02*
X117358612Y-59352255D01*
X117358612Y-59352255D02*
X117385028Y-59378671D01*
X117385028Y-59378671D02*
X117411444Y-59431503D01*
X117411444Y-59431503D02*
X117411444Y-59642831D01*
X117675604Y-58797519D02*
X117675604Y-59114511D01*
X117675604Y-58956015D02*
X117120868Y-58956015D01*
X117120868Y-58956015D02*
X117200116Y-59008847D01*
X117200116Y-59008847D02*
X117252948Y-59061679D01*
X117252948Y-59061679D02*
X117279364Y-59114511D01*
X117675604Y-58533359D02*
X117675604Y-58427695D01*
X117675604Y-58427695D02*
X117649188Y-58374863D01*
X117649188Y-58374863D02*
X117622772Y-58348447D01*
X117622772Y-58348447D02*
X117543524Y-58295615D01*
X117543524Y-58295615D02*
X117437860Y-58269199D01*
X117437860Y-58269199D02*
X117226532Y-58269199D01*
X117226532Y-58269199D02*
X117173700Y-58295615D01*
X117173700Y-58295615D02*
X117147284Y-58322031D01*
X117147284Y-58322031D02*
X117120868Y-58374863D01*
X117120868Y-58374863D02*
X117120868Y-58480527D01*
X117120868Y-58480527D02*
X117147284Y-58533359D01*
X117147284Y-58533359D02*
X117173700Y-58559775D01*
X117173700Y-58559775D02*
X117226532Y-58586191D01*
X117226532Y-58586191D02*
X117358612Y-58586191D01*
X117358612Y-58586191D02*
X117411444Y-58559775D01*
X117411444Y-58559775D02*
X117437860Y-58533359D01*
X117437860Y-58533359D02*
X117464276Y-58480527D01*
X117464276Y-58480527D02*
X117464276Y-58374863D01*
X117464276Y-58374863D02*
X117437860Y-58322031D01*
X117437860Y-58322031D02*
X117411444Y-58295615D01*
X117411444Y-58295615D02*
X117358612Y-58269199D01*
X127886972Y-85588682D02*
X127860556Y-85615098D01*
X127860556Y-85615098D02*
X127781308Y-85641514D01*
X127781308Y-85641514D02*
X127728476Y-85641514D01*
X127728476Y-85641514D02*
X127649228Y-85615098D01*
X127649228Y-85615098D02*
X127596396Y-85562266D01*
X127596396Y-85562266D02*
X127569980Y-85509434D01*
X127569980Y-85509434D02*
X127543564Y-85403770D01*
X127543564Y-85403770D02*
X127543564Y-85324522D01*
X127543564Y-85324522D02*
X127569980Y-85218858D01*
X127569980Y-85218858D02*
X127596396Y-85166026D01*
X127596396Y-85166026D02*
X127649228Y-85113194D01*
X127649228Y-85113194D02*
X127728476Y-85086778D01*
X127728476Y-85086778D02*
X127781308Y-85086778D01*
X127781308Y-85086778D02*
X127860556Y-85113194D01*
X127860556Y-85113194D02*
X127886972Y-85139610D01*
X128415292Y-85641514D02*
X128098300Y-85641514D01*
X128256796Y-85641514D02*
X128256796Y-85086778D01*
X128256796Y-85086778D02*
X128203964Y-85166026D01*
X128203964Y-85166026D02*
X128151132Y-85218858D01*
X128151132Y-85218858D02*
X128098300Y-85245274D01*
X128626620Y-85139610D02*
X128653036Y-85113194D01*
X128653036Y-85113194D02*
X128705868Y-85086778D01*
X128705868Y-85086778D02*
X128837948Y-85086778D01*
X128837948Y-85086778D02*
X128890780Y-85113194D01*
X128890780Y-85113194D02*
X128917196Y-85139610D01*
X128917196Y-85139610D02*
X128943612Y-85192442D01*
X128943612Y-85192442D02*
X128943612Y-85245274D01*
X128943612Y-85245274D02*
X128917196Y-85324522D01*
X128917196Y-85324522D02*
X128600204Y-85641514D01*
X128600204Y-85641514D02*
X128943612Y-85641514D01*
X93789548Y-62273099D02*
X93604636Y-62008939D01*
X93472556Y-62273099D02*
X93472556Y-61718363D01*
X93472556Y-61718363D02*
X93683884Y-61718363D01*
X93683884Y-61718363D02*
X93736716Y-61744779D01*
X93736716Y-61744779D02*
X93763132Y-61771195D01*
X93763132Y-61771195D02*
X93789548Y-61824027D01*
X93789548Y-61824027D02*
X93789548Y-61903275D01*
X93789548Y-61903275D02*
X93763132Y-61956107D01*
X93763132Y-61956107D02*
X93736716Y-61982523D01*
X93736716Y-61982523D02*
X93683884Y-62008939D01*
X93683884Y-62008939D02*
X93472556Y-62008939D01*
X94000876Y-61771195D02*
X94027292Y-61744779D01*
X94027292Y-61744779D02*
X94080124Y-61718363D01*
X94080124Y-61718363D02*
X94212204Y-61718363D01*
X94212204Y-61718363D02*
X94265036Y-61744779D01*
X94265036Y-61744779D02*
X94291452Y-61771195D01*
X94291452Y-61771195D02*
X94317868Y-61824027D01*
X94317868Y-61824027D02*
X94317868Y-61876859D01*
X94317868Y-61876859D02*
X94291452Y-61956107D01*
X94291452Y-61956107D02*
X93974460Y-62273099D01*
X93974460Y-62273099D02*
X94317868Y-62273099D01*
X94502780Y-61718363D02*
X94846188Y-61718363D01*
X94846188Y-61718363D02*
X94661276Y-61929691D01*
X94661276Y-61929691D02*
X94740524Y-61929691D01*
X94740524Y-61929691D02*
X94793356Y-61956107D01*
X94793356Y-61956107D02*
X94819772Y-61982523D01*
X94819772Y-61982523D02*
X94846188Y-62035355D01*
X94846188Y-62035355D02*
X94846188Y-62167435D01*
X94846188Y-62167435D02*
X94819772Y-62220267D01*
X94819772Y-62220267D02*
X94793356Y-62246683D01*
X94793356Y-62246683D02*
X94740524Y-62273099D01*
X94740524Y-62273099D02*
X94582028Y-62273099D01*
X94582028Y-62273099D02*
X94529196Y-62246683D01*
X94529196Y-62246683D02*
X94502780Y-62220267D01*
X136164772Y-74972239D02*
X136191188Y-74998655D01*
X136191188Y-74998655D02*
X136217604Y-75077903D01*
X136217604Y-75077903D02*
X136217604Y-75130735D01*
X136217604Y-75130735D02*
X136191188Y-75209983D01*
X136191188Y-75209983D02*
X136138356Y-75262815D01*
X136138356Y-75262815D02*
X136085524Y-75289231D01*
X136085524Y-75289231D02*
X135979860Y-75315647D01*
X135979860Y-75315647D02*
X135900612Y-75315647D01*
X135900612Y-75315647D02*
X135794948Y-75289231D01*
X135794948Y-75289231D02*
X135742116Y-75262815D01*
X135742116Y-75262815D02*
X135689284Y-75209983D01*
X135689284Y-75209983D02*
X135662868Y-75130735D01*
X135662868Y-75130735D02*
X135662868Y-75077903D01*
X135662868Y-75077903D02*
X135689284Y-74998655D01*
X135689284Y-74998655D02*
X135715700Y-74972239D01*
X136217604Y-74443919D02*
X136217604Y-74760911D01*
X136217604Y-74602415D02*
X135662868Y-74602415D01*
X135662868Y-74602415D02*
X135742116Y-74655247D01*
X135742116Y-74655247D02*
X135794948Y-74708079D01*
X135794948Y-74708079D02*
X135821364Y-74760911D01*
X135662868Y-74100511D02*
X135662868Y-74047679D01*
X135662868Y-74047679D02*
X135689284Y-73994847D01*
X135689284Y-73994847D02*
X135715700Y-73968431D01*
X135715700Y-73968431D02*
X135768532Y-73942015D01*
X135768532Y-73942015D02*
X135874196Y-73915599D01*
X135874196Y-73915599D02*
X136006276Y-73915599D01*
X136006276Y-73915599D02*
X136111940Y-73942015D01*
X136111940Y-73942015D02*
X136164772Y-73968431D01*
X136164772Y-73968431D02*
X136191188Y-73994847D01*
X136191188Y-73994847D02*
X136217604Y-74047679D01*
X136217604Y-74047679D02*
X136217604Y-74100511D01*
X136217604Y-74100511D02*
X136191188Y-74153343D01*
X136191188Y-74153343D02*
X136164772Y-74179759D01*
X136164772Y-74179759D02*
X136111940Y-74206175D01*
X136111940Y-74206175D02*
X136006276Y-74232591D01*
X136006276Y-74232591D02*
X135874196Y-74232591D01*
X135874196Y-74232591D02*
X135768532Y-74206175D01*
X135768532Y-74206175D02*
X135715700Y-74179759D01*
X135715700Y-74179759D02*
X135689284Y-74153343D01*
X135689284Y-74153343D02*
X135662868Y-74100511D01*
X135326572Y-74025275D02*
X135352988Y-74051691D01*
X135352988Y-74051691D02*
X135379404Y-74130939D01*
X135379404Y-74130939D02*
X135379404Y-74183771D01*
X135379404Y-74183771D02*
X135352988Y-74263019D01*
X135352988Y-74263019D02*
X135300156Y-74315851D01*
X135300156Y-74315851D02*
X135247324Y-74342267D01*
X135247324Y-74342267D02*
X135141660Y-74368683D01*
X135141660Y-74368683D02*
X135062412Y-74368683D01*
X135062412Y-74368683D02*
X134956748Y-74342267D01*
X134956748Y-74342267D02*
X134903916Y-74315851D01*
X134903916Y-74315851D02*
X134851084Y-74263019D01*
X134851084Y-74263019D02*
X134824668Y-74183771D01*
X134824668Y-74183771D02*
X134824668Y-74130939D01*
X134824668Y-74130939D02*
X134851084Y-74051691D01*
X134851084Y-74051691D02*
X134877500Y-74025275D01*
X135379404Y-73761115D02*
X135379404Y-73655451D01*
X135379404Y-73655451D02*
X135352988Y-73602619D01*
X135352988Y-73602619D02*
X135326572Y-73576203D01*
X135326572Y-73576203D02*
X135247324Y-73523371D01*
X135247324Y-73523371D02*
X135141660Y-73496955D01*
X135141660Y-73496955D02*
X134930332Y-73496955D01*
X134930332Y-73496955D02*
X134877500Y-73523371D01*
X134877500Y-73523371D02*
X134851084Y-73549787D01*
X134851084Y-73549787D02*
X134824668Y-73602619D01*
X134824668Y-73602619D02*
X134824668Y-73708283D01*
X134824668Y-73708283D02*
X134851084Y-73761115D01*
X134851084Y-73761115D02*
X134877500Y-73787531D01*
X134877500Y-73787531D02*
X134930332Y-73813947D01*
X134930332Y-73813947D02*
X135062412Y-73813947D01*
X135062412Y-73813947D02*
X135115244Y-73787531D01*
X135115244Y-73787531D02*
X135141660Y-73761115D01*
X135141660Y-73761115D02*
X135168076Y-73708283D01*
X135168076Y-73708283D02*
X135168076Y-73602619D01*
X135168076Y-73602619D02*
X135141660Y-73549787D01*
X135141660Y-73549787D02*
X135115244Y-73523371D01*
X135115244Y-73523371D02*
X135062412Y-73496955D01*
D12*
%TO.C,R20*%
G36*
X124591646Y-64680641D02*
G01*
X123191646Y-64680641D01*
X123191646Y-64030641D01*
X124591646Y-64030641D01*
X124591646Y-64680641D01*
G37*
G36*
X124591646Y-66153841D02*
G01*
X123191646Y-66153841D01*
X123191646Y-65503841D01*
X124591646Y-65503841D01*
X124591646Y-66153841D01*
G37*
%TO.C,R24*%
G36*
X116362046Y-64764442D02*
G01*
X114962046Y-64764442D01*
X114962046Y-64114442D01*
X116362046Y-64114442D01*
X116362046Y-64764442D01*
G37*
G36*
X116362046Y-66237642D02*
G01*
X114962046Y-66237642D01*
X114962046Y-65587642D01*
X116362046Y-65587642D01*
X116362046Y-66237642D01*
G37*
%TO.C,R15*%
G36*
X108437246Y-53809441D02*
G01*
X107037246Y-53809441D01*
X107037246Y-53159441D01*
X108437246Y-53159441D01*
X108437246Y-53809441D01*
G37*
G36*
X108437246Y-55282641D02*
G01*
X107037246Y-55282641D01*
X107037246Y-54632641D01*
X108437246Y-54632641D01*
X108437246Y-55282641D01*
G37*
D13*
%TO.C,J2*%
X86324424Y-70704014D02*
X147284424Y-70704014D01*
X86324424Y-88484014D02*
X86324424Y-70704014D01*
X142204424Y-75784014D02*
X142204424Y-83404014D01*
X142204424Y-75784014D02*
X147284424Y-75784014D01*
X142204424Y-83404014D02*
X147284424Y-83404014D01*
D14*
X145280553Y-86341527D02*
X144401436Y-85462410D01*
X145280553Y-86341527D02*
X145080553Y-86341527D01*
D13*
X147284424Y-70704014D02*
X147284424Y-88484014D01*
X147284424Y-75784014D02*
X148554424Y-75784014D01*
X147284424Y-88484014D02*
X86324424Y-88484014D01*
X148554424Y-75784014D02*
X148554424Y-83404014D01*
X148554424Y-83404014D02*
X147284424Y-83404014D01*
D14*
X144591998Y-86016216D02*
G75*
G02*
X143973714Y-85933801I-127874J1401102D01*
G01*
X145129500Y-85823678D02*
G75*
G02*
X145789176Y-85923314I112824J-1486636D01*
G01*
D15*
X146147234Y-70167899D02*
G75*
G02*
X145947234Y-70167899I-100000J0D01*
G01*
X145947234Y-70167899D02*
G75*
G02*
X146147234Y-70167899I100000J0D01*
G01*
D16*
%TO.C,U5*%
X126317885Y-81872229D02*
X126317885Y-82888229D01*
X126317885Y-82888229D02*
X127283085Y-82888229D01*
X128324485Y-81313429D02*
X127460885Y-81313429D01*
X128502285Y-82888229D02*
X129467485Y-82888229D01*
X129467485Y-82888229D02*
X129467485Y-81872229D01*
X129453943Y-81150670D02*
G75*
G02*
X129707943Y-81150670I127000J0D01*
G01*
X129707943Y-81150670D02*
G75*
G02*
X129453943Y-81150670I-127000J0D01*
G01*
D12*
%TO.C,R25*%
G36*
X124666106Y-53741040D02*
G01*
X123266106Y-53741040D01*
X123266106Y-53091040D01*
X124666106Y-53091040D01*
X124666106Y-53741040D01*
G37*
G36*
X124666106Y-55214240D02*
G01*
X123266106Y-55214240D01*
X123266106Y-54564240D01*
X124666106Y-54564240D01*
X124666106Y-55214240D01*
G37*
%TO.C,R26*%
G36*
X124642446Y-59346641D02*
G01*
X123242446Y-59346641D01*
X123242446Y-58696641D01*
X124642446Y-58696641D01*
X124642446Y-59346641D01*
G37*
G36*
X124642446Y-60819841D02*
G01*
X123242446Y-60819841D01*
X123242446Y-60169841D01*
X124642446Y-60169841D01*
X124642446Y-60819841D01*
G37*
%TO.C,R14*%
G36*
X93049600Y-53914500D02*
G01*
X92399600Y-53914500D01*
X92399600Y-52514500D01*
X93049600Y-52514500D01*
X93049600Y-53914500D01*
G37*
G36*
X94522800Y-53914500D02*
G01*
X93872800Y-53914500D01*
X93872800Y-52514500D01*
X94522800Y-52514500D01*
X94522800Y-53914500D01*
G37*
%TO.C,R27*%
G36*
X116246846Y-92722241D02*
G01*
X114846846Y-92722241D01*
X114846846Y-92072241D01*
X116246846Y-92072241D01*
X116246846Y-92722241D01*
G37*
G36*
X116246846Y-94195441D02*
G01*
X114846846Y-94195441D01*
X114846846Y-93545441D01*
X116246846Y-93545441D01*
X116246846Y-94195441D01*
G37*
%TO.C,R16*%
G36*
X108470048Y-59214641D02*
G01*
X107070048Y-59214641D01*
X107070048Y-58564641D01*
X108470048Y-58564641D01*
X108470048Y-59214641D01*
G37*
G36*
X108470048Y-60687841D02*
G01*
X107070048Y-60687841D01*
X107070048Y-60037841D01*
X108470048Y-60037841D01*
X108470048Y-60687841D01*
G37*
%TO.C,R22*%
G36*
X108470048Y-64426641D02*
G01*
X107070048Y-64426641D01*
X107070048Y-63776641D01*
X108470048Y-63776641D01*
X108470048Y-64426641D01*
G37*
G36*
X108470048Y-65899841D02*
G01*
X107070048Y-65899841D01*
X107070048Y-65249841D01*
X108470048Y-65249841D01*
X108470048Y-65899841D01*
G37*
%TO.C,R28*%
G36*
X105440046Y-92722241D02*
G01*
X104040046Y-92722241D01*
X104040046Y-92072241D01*
X105440046Y-92072241D01*
X105440046Y-92722241D01*
G37*
G36*
X105440046Y-94195441D02*
G01*
X104040046Y-94195441D01*
X104040046Y-93545441D01*
X105440046Y-93545441D01*
X105440046Y-94195441D01*
G37*
%TO.C,R17*%
G36*
X116629793Y-53795608D02*
G01*
X115229793Y-53795608D01*
X115229793Y-53145608D01*
X116629793Y-53145608D01*
X116629793Y-53795608D01*
G37*
G36*
X116629793Y-55268808D02*
G01*
X115229793Y-55268808D01*
X115229793Y-54618808D01*
X116629793Y-54618808D01*
X116629793Y-55268808D01*
G37*
%TO.C,R21*%
G36*
X108732646Y-103475841D02*
G01*
X107332646Y-103475841D01*
X107332646Y-102825841D01*
X108732646Y-102825841D01*
X108732646Y-103475841D01*
G37*
G36*
X108732646Y-104949041D02*
G01*
X107332646Y-104949041D01*
X107332646Y-104299041D01*
X108732646Y-104299041D01*
X108732646Y-104949041D01*
G37*
D13*
%TO.C,D2*%
X146177000Y-97375000D02*
X145643600Y-96663800D01*
X146710400Y-96663800D01*
X146177000Y-97375000D01*
G36*
X146177000Y-97375000D02*
G01*
X145643600Y-96663800D01*
X146710400Y-96663800D01*
X146177000Y-97375000D01*
G37*
X146621500Y-97325000D02*
X145732500Y-97325000D01*
X145732500Y-97134500D01*
X146621500Y-97134500D01*
X146621500Y-97325000D01*
G36*
X146621500Y-97325000D02*
G01*
X145732500Y-97325000D01*
X145732500Y-97134500D01*
X146621500Y-97134500D01*
X146621500Y-97325000D01*
G37*
D17*
%TO.C,JP1*%
X122190000Y-72768000D02*
X124190000Y-72768000D01*
X122190000Y-75568000D02*
X122190000Y-72768000D01*
X124190000Y-72768000D02*
X124190000Y-75568000D01*
X124190000Y-75568000D02*
X122190000Y-75568000D01*
D16*
%TO.C,L2*%
X115345212Y-77749995D02*
X115345212Y-78158419D01*
X117049212Y-78158419D02*
X117049212Y-77749995D01*
X117009746Y-79590441D02*
G75*
G02*
X116857346Y-79590441I-76200J0D01*
G01*
X116857346Y-79590441D02*
G75*
G02*
X117009746Y-79590441I76200J0D01*
G01*
D18*
%TO.C,C11*%
X133096000Y-77343000D02*
X132080000Y-77343000D01*
%TO.C,C17*%
X116705212Y-81396007D02*
X115689212Y-81396007D01*
D17*
%TO.C,JP2*%
X124730000Y-72768000D02*
X126730000Y-72768000D01*
X124730000Y-75568000D02*
X124730000Y-72768000D01*
X126730000Y-72768000D02*
X126730000Y-75568000D01*
X126730000Y-75568000D02*
X124730000Y-75568000D01*
D13*
%TO.C,D3*%
X146710400Y-93548200D02*
X145643600Y-93548200D01*
X146177000Y-92837000D01*
X146710400Y-93548200D01*
G36*
X146710400Y-93548200D02*
G01*
X145643600Y-93548200D01*
X146177000Y-92837000D01*
X146710400Y-93548200D01*
G37*
X146621500Y-93077500D02*
X145732500Y-93077500D01*
X145732500Y-92887000D01*
X146621500Y-92887000D01*
X146621500Y-93077500D01*
G36*
X146621500Y-93077500D02*
G01*
X145732500Y-93077500D01*
X145732500Y-92887000D01*
X146621500Y-92887000D01*
X146621500Y-93077500D01*
G37*
D18*
%TO.C,C18*%
X114427000Y-81430007D02*
X113411000Y-81430007D01*
D14*
%TO.C,SPKR1*%
X114046000Y-44450000D02*
X114046000Y-49530000D01*
X114046000Y-49530000D02*
X144526000Y-49530000D01*
X144526000Y-44450000D02*
X114046000Y-44450000D01*
X144526000Y-49530000D02*
X144526000Y-44450000D01*
D12*
%TO.C,R37*%
G36*
X93192600Y-96078500D02*
G01*
X92542600Y-96078500D01*
X92542600Y-94678500D01*
X93192600Y-94678500D01*
X93192600Y-96078500D01*
G37*
G36*
X94665800Y-96078500D02*
G01*
X94015800Y-96078500D01*
X94015800Y-94678500D01*
X94665800Y-94678500D01*
X94665800Y-96078500D01*
G37*
%TO.C,R29*%
G36*
X93192600Y-107127500D02*
G01*
X92542600Y-107127500D01*
X92542600Y-105727500D01*
X93192600Y-105727500D01*
X93192600Y-107127500D01*
G37*
G36*
X94665800Y-107127500D02*
G01*
X94015800Y-107127500D01*
X94015800Y-105727500D01*
X94665800Y-105727500D01*
X94665800Y-107127500D01*
G37*
%TO.C,R19*%
G36*
X116412846Y-59194241D02*
G01*
X115012846Y-59194241D01*
X115012846Y-58544241D01*
X116412846Y-58544241D01*
X116412846Y-59194241D01*
G37*
G36*
X116412846Y-60667441D02*
G01*
X115012846Y-60667441D01*
X115012846Y-60017441D01*
X116412846Y-60017441D01*
X116412846Y-60667441D01*
G37*
D18*
%TO.C,C12*%
X125468212Y-83301007D02*
X125468212Y-84317007D01*
D12*
%TO.C,R23*%
G36*
X93065600Y-64709500D02*
G01*
X92415600Y-64709500D01*
X92415600Y-63309500D01*
X93065600Y-63309500D01*
X93065600Y-64709500D01*
G37*
G36*
X94538800Y-64709500D02*
G01*
X93888800Y-64709500D01*
X93888800Y-63309500D01*
X94538800Y-63309500D01*
X94538800Y-64709500D01*
G37*
D18*
%TO.C,C10*%
X131183212Y-77343000D02*
X130167212Y-77343000D01*
%TO.C,C9*%
X128389212Y-77470000D02*
X127373212Y-77470000D01*
%TD*%
%LPC*%
D19*
%TO.C,R20*%
X123893146Y-66087041D03*
X123893146Y-64087041D03*
%TD*%
D20*
%TO.C,H1*%
X132300546Y-53225241D03*
%TD*%
D19*
%TO.C,R24*%
X115663546Y-66170842D03*
X115663546Y-64170842D03*
%TD*%
%TO.C,R15*%
X107738746Y-55215841D03*
X107738746Y-53215841D03*
%TD*%
D21*
%TO.C,J2*%
X146014424Y-87214014D03*
X138394424Y-71974014D03*
X135854424Y-71974014D03*
X133314424Y-71974014D03*
X130774424Y-71974014D03*
X128234424Y-71974014D03*
X125694424Y-71974014D03*
X123154424Y-71974014D03*
D22*
X120614424Y-71974014D03*
D21*
X118074424Y-71974014D03*
X115534424Y-71974014D03*
X112994424Y-71974014D03*
X112994424Y-87214014D03*
X115534424Y-87214014D03*
X118074424Y-87214014D03*
X120614424Y-87214014D03*
X123154424Y-87214014D03*
X125694424Y-87214014D03*
X128234424Y-87214014D03*
X130774424Y-87214014D03*
X133314424Y-87214014D03*
X138394424Y-87214014D03*
X107914424Y-71974014D03*
X105374424Y-71974014D03*
X102834424Y-71974014D03*
X100294424Y-71974014D03*
X97754424Y-71974014D03*
X95214424Y-71974014D03*
X92674424Y-71974014D03*
X90134424Y-71974014D03*
X87594424Y-71974014D03*
X87594424Y-87214014D03*
X90134424Y-87214014D03*
X92674424Y-87214014D03*
X95214424Y-87214014D03*
X97754424Y-87214014D03*
X100294424Y-87214014D03*
X102834424Y-87214014D03*
X105374424Y-87214014D03*
X107914424Y-87214014D03*
X143474424Y-84674014D03*
X146014424Y-71974014D03*
X143474424Y-87214014D03*
D23*
X110454424Y-87214014D03*
D21*
X110454424Y-71974014D03*
X140934424Y-87214014D03*
%TD*%
D24*
%TO.C,R33*%
X109242765Y-112696284D03*
X109242765Y-110796284D03*
%TD*%
%TO.C,R36*%
X120751600Y-112964000D03*
X120751600Y-111064000D03*
%TD*%
D25*
%TO.C,U5*%
X128917685Y-81205829D03*
X126867685Y-81205829D03*
X127892685Y-82995829D03*
%TD*%
D19*
%TO.C,R25*%
X123967606Y-55147440D03*
X123967606Y-53147440D03*
%TD*%
%TO.C,R26*%
X123943946Y-60753041D03*
X123943946Y-58753041D03*
%TD*%
D26*
%TO.C,R39*%
X125722212Y-89656007D03*
X125722212Y-91556007D03*
%TD*%
D27*
%TO.C,R14*%
X94456000Y-53213000D03*
X92456000Y-53213000D03*
%TD*%
D28*
%TO.C,C7*%
X109211946Y-99580241D03*
X109211946Y-97880241D03*
%TD*%
D26*
%TO.C,R40*%
X128389212Y-89656007D03*
X128389212Y-91556007D03*
%TD*%
D29*
%TO.C,TP2*%
X121259600Y-100990400D03*
%TD*%
D24*
%TO.C,R34*%
X113030000Y-112726800D03*
X113030000Y-110826800D03*
%TD*%
D28*
%TO.C,C8*%
X111853546Y-99580241D03*
X111853546Y-97880241D03*
%TD*%
D19*
%TO.C,R27*%
X115548346Y-94128641D03*
X115548346Y-92128641D03*
%TD*%
D24*
%TO.C,R32*%
X105435400Y-112701400D03*
X105435400Y-110801400D03*
%TD*%
D19*
%TO.C,R16*%
X107771548Y-60621041D03*
X107771548Y-58621041D03*
%TD*%
%TO.C,R22*%
X107771548Y-65833041D03*
X107771548Y-63833041D03*
%TD*%
%TO.C,R28*%
X104741546Y-94128641D03*
X104741546Y-92128641D03*
%TD*%
%TO.C,R17*%
X115931293Y-55202008D03*
X115931293Y-53202008D03*
%TD*%
%TO.C,R21*%
X108034146Y-104882241D03*
X108034146Y-102882241D03*
%TD*%
D30*
%TO.C,D2*%
X146177000Y-95944000D03*
X146177000Y-98044000D03*
%TD*%
D24*
%TO.C,R35*%
X116890800Y-112742000D03*
X116890800Y-110842000D03*
%TD*%
%TO.C,R31*%
X101625400Y-112760800D03*
X101625400Y-110860800D03*
%TD*%
D31*
%TO.C,JP1*%
X123190000Y-73518000D03*
X123190000Y-74818000D03*
%TD*%
D32*
%TO.C,L2*%
X116197212Y-78830407D03*
X116197212Y-77078007D03*
%TD*%
D33*
%TO.C,C11*%
X132588000Y-76293000D03*
X132588000Y-78393000D03*
%TD*%
D20*
%TO.C,H2*%
X103852546Y-49161241D03*
%TD*%
D34*
%TO.C,C17*%
X116197212Y-80446007D03*
X116197212Y-82346007D03*
%TD*%
D31*
%TO.C,JP2*%
X125730000Y-73518000D03*
X125730000Y-74818000D03*
%TD*%
D35*
%TO.C,D3*%
X146177000Y-94268000D03*
X146177000Y-92168000D03*
%TD*%
D33*
%TO.C,C18*%
X113919000Y-80380007D03*
X113919000Y-82480007D03*
%TD*%
D27*
%TO.C,R37*%
X94599000Y-95377000D03*
X92599000Y-95377000D03*
%TD*%
%TO.C,R29*%
X94599000Y-106426000D03*
X92599000Y-106426000D03*
%TD*%
D19*
%TO.C,R19*%
X115714346Y-60600641D03*
X115714346Y-58600641D03*
%TD*%
D36*
%TO.C,C12*%
X124518212Y-83809007D03*
X126418212Y-83809007D03*
%TD*%
D27*
%TO.C,R23*%
X94472000Y-64008000D03*
X92472000Y-64008000D03*
%TD*%
D33*
%TO.C,C10*%
X130675212Y-76293000D03*
X130675212Y-78393000D03*
%TD*%
D34*
%TO.C,C9*%
X127881212Y-76520000D03*
X127881212Y-78420000D03*
%TD*%
D37*
%TO.C,EN_1*%
X108030000Y-107450000D03*
D38*
X113030000Y-107450000D03*
X108030000Y-92950000D03*
X113030000Y-92950000D03*
X110530000Y-92950000D03*
D39*
X104830000Y-100450000D03*
X116230000Y-100450000D03*
%TD*%
D40*
%TO.C,J4*%
X127635000Y-112014000D03*
%TD*%
D41*
%TO.C,J15*%
X145247000Y-79629000D03*
X139247000Y-79629000D03*
D42*
X145347000Y-75879000D03*
%TD*%
D43*
%TO.C,J11*%
X98873000Y-91918000D03*
X98873000Y-94318000D03*
X98873000Y-93118000D03*
X98873000Y-98518000D03*
X98873000Y-96618000D03*
D44*
X88773000Y-97218000D03*
X88773000Y-93218000D03*
%TD*%
D40*
%TO.C,MIC1*%
X131240200Y-59766200D03*
X133650200Y-59766200D03*
%TD*%
D45*
%TO.C,U1*%
X141918000Y-97495000D03*
X142818000Y-96595000D03*
X141018000Y-96595000D03*
X141018000Y-98395000D03*
X142818000Y-98395000D03*
%TD*%
D40*
%TO.C,J5*%
X124282200Y-112014000D03*
%TD*%
D43*
%TO.C,J6*%
X98873000Y-60422000D03*
X98873000Y-62822000D03*
X98873000Y-61622000D03*
X98873000Y-67022000D03*
X98873000Y-65122000D03*
D44*
X88773000Y-65722000D03*
X88773000Y-61722000D03*
%TD*%
D43*
%TO.C,J3*%
X98858500Y-49607750D03*
X98858500Y-52007750D03*
X98858500Y-50807750D03*
X98858500Y-56207750D03*
X98858500Y-54307750D03*
D44*
X88758500Y-54907750D03*
X88758500Y-50907750D03*
%TD*%
D43*
%TO.C,J7*%
X98873000Y-102820750D03*
X98873000Y-105220750D03*
X98873000Y-104020750D03*
X98873000Y-109420750D03*
X98873000Y-107520750D03*
D44*
X88773000Y-108120750D03*
X88773000Y-104120750D03*
%TD*%
D46*
%TO.C,SW1*%
X135371000Y-111482000D03*
X142171000Y-111482000D03*
%TD*%
%LPD*%
D47*
X114012546Y-46621241D02*
X114012546Y-49542241D01*
X114012546Y-49542241D02*
X144492546Y-49542241D01*
X144492546Y-46621241D02*
G75*
G02*
X145762546Y-45351246I1269954J41D01*
G01*
X144492546Y-49542241D02*
X144492546Y-46621241D01*
X146143546Y-45351241D02*
G75*
G02*
X147413459Y-46621241I-46J-1269959D01*
G01*
X146143546Y-113931241D02*
X87723546Y-113931241D01*
X147413546Y-112661241D02*
G75*
G02*
X146143546Y-113931246I-1270046J41D01*
G01*
X86453546Y-46621241D02*
G75*
G02*
X87723546Y-45351246I1269954J41D01*
G01*
X147413546Y-46621241D02*
X147413546Y-112661241D01*
X87723546Y-45351241D02*
X112742546Y-45351241D01*
X86451424Y-46621241D02*
X86451424Y-112661241D01*
X87723546Y-113931241D02*
G75*
G02*
X86453459Y-112661241I-46J1270041D01*
G01*
X145762546Y-45351241D02*
X146143546Y-45351241D01*
X112742546Y-45351241D02*
G75*
G02*
X114012459Y-46621241I-46J-1269959D01*
G01*
M02*
