%TF.GenerationSoftware,KiCad,Pcbnew,8.0.1*%
%TF.CreationDate,2025-01-16T17:49:12-07:00*%
%TF.ProjectId,WDM_RevB_v3,57444d5f-5265-4764-925f-76332e6b6963,rev?*%
%TF.SameCoordinates,Original*%
%TF.FileFunction,Paste,Bot*%
%TF.FilePolarity,Positive*%
%FSLAX46Y46*%
G04 Gerber Fmt 4.6, Leading zero omitted, Abs format (unit mm)*
G04 Created by KiCad (PCBNEW 8.0.1) date 2025-01-16 17:49:12*
%MOMM*%
%LPD*%
G01*
G04 APERTURE LIST*
G04 Aperture macros list*
%AMRoundRect*
0 Rectangle with rounded corners*
0 $1 Rounding radius*
0 $2 $3 $4 $5 $6 $7 $8 $9 X,Y pos of 4 corners*
0 Add a 4 corners polygon primitive as box body*
4,1,4,$2,$3,$4,$5,$6,$7,$8,$9,$2,$3,0*
0 Add four circle primitives for the rounded corners*
1,1,$1+$1,$2,$3*
1,1,$1+$1,$4,$5*
1,1,$1+$1,$6,$7*
1,1,$1+$1,$8,$9*
0 Add four rect primitives between the rounded corners*
20,1,$1+$1,$2,$3,$4,$5,0*
20,1,$1+$1,$4,$5,$6,$7,0*
20,1,$1+$1,$6,$7,$8,$9,0*
20,1,$1+$1,$8,$9,$2,$3,0*%
G04 Aperture macros list end*
%ADD10C,0.000000*%
%ADD11R,1.968500X0.558800*%
%ADD12R,1.000000X1.000000*%
%ADD13R,1.701800X0.558800*%
%ADD14R,1.500000X1.300000*%
%ADD15R,1.650000X1.400000*%
%ADD16R,1.498600X0.533400*%
%ADD17R,1.400000X1.000000*%
%ADD18R,1.300000X1.600000*%
%ADD19R,0.850000X0.300000*%
%ADD20R,0.300000X0.850000*%
%ADD21R,3.600000X3.600000*%
%ADD22R,1.200000X1.200000*%
%ADD23R,1.600000X0.800000*%
%ADD24R,3.000000X2.100000*%
%ADD25R,1.400000X1.650000*%
%ADD26R,1.200000X1.500000*%
%ADD27R,0.400000X1.300000*%
%ADD28R,1.100000X1.400000*%
%ADD29R,1.200000X0.700000*%
%ADD30R,1.208000X0.604000*%
%ADD31R,2.900000X1.400000*%
%ADD32RoundRect,0.252000X0.273000X0.438000X-0.273000X0.438000X-0.273000X-0.438000X0.273000X-0.438000X0*%
%ADD33RoundRect,0.252000X-0.273000X-0.438000X0.273000X-0.438000X0.273000X0.438000X-0.273000X0.438000X0*%
%ADD34R,1.400000X1.100000*%
%ADD35R,1.600000X1.300000*%
%ADD36R,1.300000X1.500000*%
%ADD37RoundRect,0.175000X0.350000X0.000010X-0.350000X0.000010X-0.350000X-0.000010X0.350000X-0.000010X0*%
%ADD38RoundRect,0.175000X0.000010X-0.350000X0.000010X0.350000X-0.000010X0.350000X-0.000010X-0.350000X0*%
%ADD39RoundRect,0.175000X-0.350000X-0.000010X0.350000X-0.000010X0.350000X0.000010X-0.350000X0.000010X0*%
%ADD40RoundRect,0.175000X-0.000010X0.350000X-0.000010X-0.350000X0.000010X-0.350000X0.000010X0.350000X0*%
%ADD41R,1.200000X1.650000*%
%ADD42R,1.000000X1.300000*%
%ADD43R,1.500000X1.200000*%
%ADD44R,1.200000X0.600000*%
%ADD45R,2.000000X4.000000*%
%ADD46R,0.730000X0.280000*%
%ADD47R,0.280000X0.730000*%
%ADD48R,1.000000X1.600000*%
%TA.AperFunction,Profile*%
%ADD49C,0.100000*%
%TD*%
G04 APERTURE END LIST*
D10*
%TO.C,C13*%
G36*
X122100094Y-73211153D02*
G01*
X122139058Y-73220435D01*
X122175991Y-73235739D01*
X122210060Y-73256650D01*
X122240559Y-73282660D01*
X122266569Y-73313159D01*
X122287480Y-73347228D01*
X122302784Y-73384161D01*
X122312066Y-73423125D01*
X122315213Y-73462818D01*
X122312110Y-74382703D01*
X122302784Y-74421853D01*
X122287480Y-74458786D01*
X122266569Y-74492855D01*
X122240559Y-74523354D01*
X122210060Y-74549364D01*
X122175991Y-74570275D01*
X122139058Y-74585579D01*
X122100094Y-74594861D01*
X122060410Y-74598007D01*
X121510014Y-74598007D01*
X121470330Y-74594861D01*
X121431366Y-74585579D01*
X121394433Y-74570275D01*
X121360364Y-74549364D01*
X121329865Y-74523354D01*
X121303855Y-74492855D01*
X121282944Y-74458786D01*
X121267640Y-74421853D01*
X121258358Y-74382889D01*
X121255211Y-74343196D01*
X121258314Y-73423311D01*
X121267640Y-73384161D01*
X121282944Y-73347228D01*
X121303855Y-73313159D01*
X121329865Y-73282660D01*
X121360364Y-73256650D01*
X121394433Y-73235739D01*
X121431366Y-73220435D01*
X121470330Y-73211153D01*
X121510014Y-73208007D01*
X122060410Y-73208007D01*
X122100094Y-73211153D01*
G37*
G36*
X123780094Y-73211153D02*
G01*
X123819058Y-73220435D01*
X123855991Y-73235739D01*
X123890060Y-73256650D01*
X123920559Y-73282660D01*
X123946569Y-73313159D01*
X123967480Y-73347228D01*
X123982784Y-73384161D01*
X123992066Y-73423125D01*
X123995213Y-73462818D01*
X123992110Y-74382703D01*
X123982784Y-74421853D01*
X123967480Y-74458786D01*
X123946569Y-74492855D01*
X123920559Y-74523354D01*
X123890060Y-74549364D01*
X123855991Y-74570275D01*
X123819058Y-74585579D01*
X123780094Y-74594861D01*
X123740410Y-74598007D01*
X123190014Y-74598007D01*
X123150330Y-74594861D01*
X123111366Y-74585579D01*
X123074433Y-74570275D01*
X123040364Y-74549364D01*
X123009865Y-74523354D01*
X122983855Y-74492855D01*
X122962944Y-74458786D01*
X122947640Y-74421853D01*
X122938358Y-74382889D01*
X122935211Y-74343196D01*
X122938314Y-73423311D01*
X122947640Y-73384161D01*
X122962944Y-73347228D01*
X122983855Y-73313159D01*
X123009865Y-73282660D01*
X123040364Y-73256650D01*
X123074433Y-73235739D01*
X123111366Y-73220435D01*
X123150330Y-73211153D01*
X123190014Y-73208007D01*
X123740410Y-73208007D01*
X123780094Y-73211153D01*
G37*
%TO.C,U1*%
G36*
X141318000Y-97795000D02*
G01*
X140618000Y-97795000D01*
X140618000Y-97195000D01*
X141318000Y-97195000D01*
X141318000Y-97795000D01*
G37*
G36*
X142218000Y-96895000D02*
G01*
X141618000Y-96895000D01*
X141618000Y-96195000D01*
X142218000Y-96195000D01*
X142218000Y-96895000D01*
G37*
G36*
X142218000Y-98795000D02*
G01*
X141618000Y-98795000D01*
X141618000Y-98095000D01*
X142218000Y-98095000D01*
X142218000Y-98795000D01*
G37*
G36*
X143218000Y-97795000D02*
G01*
X142518000Y-97795000D01*
X142518000Y-97195000D01*
X143218000Y-97195000D01*
X143218000Y-97795000D01*
G37*
%TO.C,U2*%
G36*
X125480000Y-98175000D02*
G01*
X124730000Y-98175000D01*
X124730000Y-97425000D01*
X125480000Y-97425000D01*
X125480000Y-98175000D01*
G37*
G36*
X125480000Y-99425000D02*
G01*
X124730000Y-99425000D01*
X124730000Y-98675000D01*
X125480000Y-98675000D01*
X125480000Y-99425000D01*
G37*
G36*
X126730000Y-98175000D02*
G01*
X125980000Y-98175000D01*
X125980000Y-97425000D01*
X126730000Y-97425000D01*
X126730000Y-98175000D01*
G37*
G36*
X126730000Y-99425000D02*
G01*
X125980000Y-99425000D01*
X125980000Y-98675000D01*
X126730000Y-98675000D01*
X126730000Y-99425000D01*
G37*
%TD*%
D11*
%TO.C,U4*%
X89877900Y-84328000D03*
X89877900Y-83058000D03*
X89877900Y-81788000D03*
X89877900Y-80518000D03*
X89877900Y-79248000D03*
X89877900Y-77978000D03*
X89877900Y-76708000D03*
X89877900Y-75438000D03*
X99339400Y-75438000D03*
X99339400Y-76708000D03*
X99339400Y-77978000D03*
X99339400Y-79248000D03*
X99339400Y-80518000D03*
X99339400Y-81788000D03*
X99339400Y-83058000D03*
X99339400Y-84328000D03*
%TD*%
D12*
%TO.C,SW_4*%
X113941931Y-59016441D03*
X113941931Y-60616443D03*
X118041927Y-60616443D03*
X118041927Y-59016441D03*
D13*
X115991929Y-58391441D03*
%TD*%
D14*
%TO.C,C4*%
X145923000Y-102423000D03*
X145923000Y-100523000D03*
%TD*%
D15*
%TO.C,C16*%
X144880000Y-62016000D03*
X144880000Y-59416000D03*
%TD*%
D16*
%TO.C,U3*%
X109950250Y-77978000D03*
X109950250Y-79248000D03*
X109950250Y-80518000D03*
X109950250Y-81788000D03*
X102635050Y-81788000D03*
X102635050Y-80518000D03*
X102635050Y-79248000D03*
X102635050Y-77978000D03*
%TD*%
D17*
%TO.C,T1*%
X131883000Y-101920000D03*
X129483000Y-102870000D03*
X131883000Y-103820000D03*
%TD*%
D18*
%TO.C,R43*%
X133665000Y-65024000D03*
X131765000Y-65024000D03*
%TD*%
D19*
%TO.C,U6*%
X121946424Y-81254014D03*
X121946424Y-80754014D03*
X121946424Y-80254014D03*
X121946424Y-79754014D03*
X121946424Y-79254014D03*
X121946424Y-78754014D03*
X121946424Y-78254014D03*
X121946424Y-77754014D03*
D20*
X122646424Y-77054014D03*
X123146424Y-77054014D03*
X123646424Y-77054014D03*
X124146424Y-77054014D03*
X124646424Y-77054014D03*
X125146424Y-77054014D03*
X125646424Y-77054014D03*
X126146424Y-77054014D03*
D19*
X126846424Y-77754014D03*
X126846424Y-78254014D03*
X126846424Y-78754014D03*
X126846424Y-79254014D03*
X126846424Y-79754014D03*
X126846424Y-80254014D03*
X126846424Y-80754014D03*
X126846424Y-81254014D03*
D20*
X126146424Y-81954014D03*
X125646424Y-81954014D03*
X125146424Y-81954014D03*
X124646424Y-81954014D03*
X124146424Y-81954014D03*
X123646424Y-81954014D03*
X123146424Y-81954014D03*
X122646424Y-81954014D03*
D21*
X124396424Y-79504014D03*
%TD*%
D12*
%TO.C,SW_8*%
X122033399Y-53580832D03*
X122033399Y-55180834D03*
X126133395Y-55180834D03*
X126133395Y-53580832D03*
D13*
X124083397Y-52955832D03*
%TD*%
D22*
%TO.C,D4*%
X146177000Y-110236000D03*
X146177000Y-112336000D03*
%TD*%
D23*
%TO.C,J14*%
X141605000Y-54600000D03*
X141605000Y-53350000D03*
D24*
X138855000Y-57160000D03*
X138855000Y-50790000D03*
%TD*%
D25*
%TO.C,C1*%
X136555000Y-105664000D03*
X133955000Y-105664000D03*
%TD*%
D18*
%TO.C,R13*%
X129413000Y-96901000D03*
X131313000Y-96901000D03*
%TD*%
D22*
%TO.C,D9*%
X116629546Y-110823841D03*
X116629546Y-112923841D03*
%TD*%
D26*
%TO.C,C2*%
X129887000Y-105410000D03*
X131987000Y-105410000D03*
%TD*%
D27*
%TO.C,U7*%
X143302000Y-62802000D03*
X142652000Y-62802000D03*
X142002000Y-62802000D03*
X141352000Y-62802000D03*
X141352000Y-58402000D03*
X142002000Y-58402000D03*
X142652000Y-58402000D03*
X143302000Y-58402000D03*
%TD*%
D22*
%TO.C,D6*%
X105427346Y-110823841D03*
X105427346Y-112923841D03*
%TD*%
D28*
%TO.C,R41*%
X143494000Y-64643000D03*
X141494000Y-64643000D03*
%TD*%
%TO.C,R30*%
X109839000Y-75311000D03*
X107839000Y-75311000D03*
%TD*%
D22*
%TO.C,D5*%
X101693546Y-110823841D03*
X101693546Y-112923841D03*
%TD*%
D29*
%TO.C,J15*%
X134647000Y-77179000D03*
X134647000Y-81079000D03*
X134647000Y-79629000D03*
X134647000Y-82079000D03*
X134647000Y-78179000D03*
D30*
X145347000Y-83379000D03*
%TD*%
D18*
%TO.C,R1*%
X135156000Y-103702000D03*
X137056000Y-103702000D03*
%TD*%
D31*
%TO.C,C5*%
X143764000Y-93682000D03*
X143764000Y-90082000D03*
%TD*%
D22*
%TO.C,D7*%
X109161311Y-110823825D03*
X109161311Y-112923825D03*
%TD*%
D32*
%TO.C,C13*%
X123465212Y-73903007D03*
D33*
X121785212Y-73903007D03*
%TD*%
D34*
%TO.C,R38*%
X132715000Y-84566000D03*
X132715000Y-82566000D03*
%TD*%
D25*
%TO.C,C6*%
X125155000Y-108839000D03*
X122555000Y-108839000D03*
%TD*%
D12*
%TO.C,SW_5*%
X122034738Y-64452034D03*
X122034738Y-66052036D03*
X126134734Y-66052036D03*
X126134734Y-64452034D03*
D13*
X124084736Y-63827034D03*
%TD*%
D12*
%TO.C,SW_7*%
X113941539Y-64451986D03*
X113941539Y-66051988D03*
X118041535Y-66051988D03*
X118041535Y-64451986D03*
D13*
X115991537Y-63826986D03*
%TD*%
D18*
%TO.C,R2*%
X137033000Y-101670000D03*
X135133000Y-101670000D03*
%TD*%
%TO.C,R11*%
X124846000Y-104394000D03*
X126746000Y-104394000D03*
%TD*%
D35*
%TO.C,R8*%
X146304000Y-106299000D03*
X146304000Y-108199000D03*
%TD*%
D12*
%TO.C,SW_9*%
X122033737Y-59016432D03*
X122033737Y-60616434D03*
X126133733Y-60616434D03*
X126133733Y-59016432D03*
D13*
X124083735Y-58391432D03*
%TD*%
D18*
%TO.C,R7*%
X135443000Y-95123000D03*
X133543000Y-95123000D03*
%TD*%
%TO.C,R12*%
X129413000Y-98933000D03*
X131313000Y-98933000D03*
%TD*%
%TO.C,R9*%
X133284000Y-92964000D03*
X131384000Y-92964000D03*
%TD*%
D36*
%TO.C,C20*%
X133538000Y-67056000D03*
X131638000Y-67056000D03*
%TD*%
D12*
%TO.C,SW_3*%
X113940883Y-53580860D03*
X113940883Y-55180862D03*
X118040879Y-55180862D03*
X118040879Y-53580860D03*
D13*
X115990881Y-52955860D03*
%TD*%
D37*
%TO.C,U1*%
X144018000Y-96520000D03*
X144018000Y-97170000D03*
X144018000Y-97820000D03*
X144018000Y-98470000D03*
D38*
X142893000Y-99595000D03*
X142243000Y-99595000D03*
X141593000Y-99595000D03*
X140943000Y-99595000D03*
D39*
X139818000Y-98470000D03*
X139818000Y-97820000D03*
X139818000Y-97170000D03*
X139818000Y-96520000D03*
D40*
X140943000Y-95395000D03*
X141593000Y-95395000D03*
X142243000Y-95395000D03*
X142893000Y-95395000D03*
%TD*%
D25*
%TO.C,C3*%
X120493000Y-93980000D03*
X123093000Y-93980000D03*
%TD*%
D41*
%TO.C,C15*%
X137273000Y-62103000D03*
X139873000Y-62103000D03*
%TD*%
D18*
%TO.C,R6*%
X131064000Y-111252000D03*
X132964000Y-111252000D03*
%TD*%
D12*
%TO.C,SW_2*%
X105848339Y-59016432D03*
X105848339Y-60616434D03*
X109948335Y-60616434D03*
X109948335Y-59016432D03*
D13*
X107898337Y-58391432D03*
%TD*%
D12*
%TO.C,SW_6*%
X105848339Y-64452032D03*
X105848339Y-66052034D03*
X109948335Y-66052034D03*
X109948335Y-64452032D03*
D13*
X107898337Y-63827032D03*
%TD*%
D42*
%TO.C,R18*%
X124730000Y-93980000D03*
X126730000Y-93980000D03*
%TD*%
D22*
%TO.C,D8*%
X112895146Y-110823841D03*
X112895146Y-112923841D03*
%TD*%
D43*
%TO.C,C19*%
X129921000Y-67598000D03*
X129921000Y-65498000D03*
%TD*%
D44*
%TO.C,VR1*%
X136992730Y-69142290D03*
D12*
X138992730Y-68492290D03*
D44*
X136992730Y-67842290D03*
%TD*%
D45*
%TO.C,L1*%
X139718000Y-103886000D03*
X143818000Y-103886000D03*
%TD*%
D28*
%TO.C,R42*%
X137573000Y-59690000D03*
X139573000Y-59690000D03*
%TD*%
D12*
%TO.C,SW_1*%
X105848339Y-53580832D03*
X105848339Y-55180834D03*
X109948335Y-55180834D03*
X109948335Y-53580832D03*
D13*
X107898337Y-52955832D03*
%TD*%
D35*
%TO.C,R4*%
X141224000Y-91567000D03*
X141224000Y-93467000D03*
%TD*%
D18*
%TO.C,R3*%
X131130000Y-109093000D03*
X133030000Y-109093000D03*
%TD*%
D46*
%TO.C,U2*%
X123765000Y-99425000D03*
X123765000Y-98925000D03*
X123765000Y-98425000D03*
X123765000Y-97925000D03*
X123765000Y-97425000D03*
D47*
X124730000Y-96460000D03*
X125230000Y-96460000D03*
X125730000Y-96460000D03*
X126230000Y-96460000D03*
X126730000Y-96460000D03*
D46*
X127695000Y-97425000D03*
X127695000Y-97925000D03*
X127695000Y-98425000D03*
X127695000Y-98925000D03*
X127695000Y-99425000D03*
D47*
X126730000Y-100390000D03*
X126230000Y-100390000D03*
X125730000Y-100390000D03*
X125230000Y-100390000D03*
X124730000Y-100390000D03*
%TD*%
D41*
%TO.C,C14*%
X143697000Y-66802000D03*
X141097000Y-66802000D03*
%TD*%
D18*
%TO.C,R10*%
X126746000Y-102362000D03*
X124846000Y-102362000D03*
%TD*%
D22*
%TO.C,D10*%
X120363546Y-110823841D03*
X120363546Y-112923841D03*
%TD*%
D48*
%TO.C,SW1*%
X136271000Y-112682000D03*
X138771000Y-112682000D03*
X141271000Y-112682000D03*
X136271000Y-110282000D03*
X138771000Y-110182000D03*
X141271000Y-110182000D03*
%TD*%
D35*
%TO.C,R5*%
X139192000Y-93467000D03*
X139192000Y-91567000D03*
%TD*%
D22*
%TO.C,D1*%
X133064000Y-112903000D03*
X130964000Y-112903000D03*
%TD*%
D49*
X114012546Y-46621241D02*
X114012546Y-49542241D01*
X114012546Y-49542241D02*
X144492546Y-49542241D01*
X144492546Y-46621241D02*
G75*
G02*
X145762546Y-45351246I1269954J41D01*
G01*
X144492546Y-49542241D02*
X144492546Y-46621241D01*
X146143546Y-45351241D02*
G75*
G02*
X147413459Y-46621241I-46J-1269959D01*
G01*
X146143546Y-113931241D02*
X87723546Y-113931241D01*
X147413546Y-112661241D02*
G75*
G02*
X146143546Y-113931246I-1270046J41D01*
G01*
X86453546Y-46621241D02*
G75*
G02*
X87723546Y-45351246I1269954J41D01*
G01*
X147413546Y-46621241D02*
X147413546Y-112661241D01*
X87723546Y-45351241D02*
X112742546Y-45351241D01*
X86451424Y-46621241D02*
X86451424Y-112661241D01*
X87723546Y-113931241D02*
G75*
G02*
X86453459Y-112661241I-46J1270041D01*
G01*
X145762546Y-45351241D02*
X146143546Y-45351241D01*
X112742546Y-45351241D02*
G75*
G02*
X114012459Y-46621241I-46J-1269959D01*
G01*
M02*
