%TF.GenerationSoftware,KiCad,Pcbnew,8.0.1*%
%TF.CreationDate,2025-01-16T17:49:12-07:00*%
%TF.ProjectId,WDM_RevB_v3,57444d5f-5265-4764-925f-76332e6b6963,rev?*%
%TF.SameCoordinates,Original*%
%TF.FileFunction,Legend,Bot*%
%TF.FilePolarity,Positive*%
%FSLAX46Y46*%
G04 Gerber Fmt 4.6, Leading zero omitted, Abs format (unit mm)*
G04 Created by KiCad (PCBNEW 8.0.1) date 2025-01-16 17:49:12*
%MOMM*%
%LPD*%
G01*
G04 APERTURE LIST*
G04 Aperture macros list*
%AMRoundRect*
0 Rectangle with rounded corners*
0 $1 Rounding radius*
0 $2 $3 $4 $5 $6 $7 $8 $9 X,Y pos of 4 corners*
0 Add a 4 corners polygon primitive as box body*
4,1,4,$2,$3,$4,$5,$6,$7,$8,$9,$2,$3,0*
0 Add four circle primitives for the rounded corners*
1,1,$1+$1,$2,$3*
1,1,$1+$1,$4,$5*
1,1,$1+$1,$6,$7*
1,1,$1+$1,$8,$9*
0 Add four rect primitives between the rounded corners*
20,1,$1+$1,$2,$3,$4,$5,0*
20,1,$1+$1,$4,$5,$6,$7,0*
20,1,$1+$1,$6,$7,$8,$9,0*
20,1,$1+$1,$8,$9,$2,$3,0*%
G04 Aperture macros list end*
%ADD10C,0.054864*%
%ADD11C,0.076200*%
%ADD12C,0.121920*%
%ADD13C,0.152400*%
%ADD14C,0.000000*%
%ADD15C,0.127000*%
%ADD16C,0.200000*%
%ADD17C,0.304800*%
%ADD18C,0.203200*%
%ADD19C,0.250000*%
%ADD20C,0.609600*%
%ADD21C,0.120000*%
%ADD22C,0.150000*%
%ADD23C,0.406400*%
%ADD24C,0.101600*%
%ADD25C,0.100000*%
%ADD26RoundRect,0.101600X0.984250X0.279400X-0.984250X0.279400X-0.984250X-0.279400X0.984250X-0.279400X0*%
%ADD27C,2.100000*%
%ADD28C,1.600000*%
%ADD29C,1.803200*%
%ADD30C,1.650000*%
%ADD31RoundRect,0.102000X-0.825000X-0.825000X0.825000X-0.825000X0.825000X0.825000X-0.825000X0.825000X0*%
%ADD32C,1.854000*%
%ADD33O,3.204000X6.204000*%
%ADD34R,1.000000X1.000000*%
%ADD35R,1.701800X0.558800*%
%ADD36RoundRect,0.050800X0.750000X-0.650000X0.750000X0.650000X-0.750000X0.650000X-0.750000X-0.650000X0*%
%ADD37RoundRect,0.050800X0.825000X-0.700000X0.825000X0.700000X-0.825000X0.700000X-0.825000X-0.700000X0*%
%ADD38RoundRect,0.101600X0.749300X0.266700X-0.749300X0.266700X-0.749300X-0.266700X0.749300X-0.266700X0*%
%ADD39RoundRect,0.050800X-0.700000X0.500000X-0.700000X-0.500000X0.700000X-0.500000X0.700000X0.500000X0*%
%ADD40RoundRect,0.101600X-0.650000X-0.800000X0.650000X-0.800000X0.650000X0.800000X-0.650000X0.800000X0*%
%ADD41C,2.082800*%
%ADD42R,0.850000X0.300000*%
%ADD43R,0.300000X0.850000*%
%ADD44R,3.600000X3.600000*%
%ADD45RoundRect,0.050800X-0.600000X-0.600000X0.600000X-0.600000X0.600000X0.600000X-0.600000X0.600000X0*%
%ADD46RoundRect,0.050800X0.800000X-0.400000X0.800000X0.400000X-0.800000X0.400000X-0.800000X-0.400000X0*%
%ADD47RoundRect,0.050800X-1.500000X-1.050000X1.500000X-1.050000X1.500000X1.050000X-1.500000X1.050000X0*%
%ADD48RoundRect,0.050800X0.700000X0.825000X-0.700000X0.825000X-0.700000X-0.825000X0.700000X-0.825000X0*%
%ADD49RoundRect,0.101600X0.650000X0.800000X-0.650000X0.800000X-0.650000X-0.800000X0.650000X-0.800000X0*%
%ADD50RoundRect,0.050800X-0.600000X-0.750000X0.600000X-0.750000X0.600000X0.750000X-0.600000X0.750000X0*%
%ADD51RoundRect,0.050800X0.200000X-0.650000X0.200000X0.650000X-0.200000X0.650000X-0.200000X-0.650000X0*%
%ADD52RoundRect,0.736600X-0.000010X-0.000010X0.000010X-0.000010X0.000010X0.000010X-0.000010X0.000010X0*%
%ADD53RoundRect,0.101600X-0.550000X-0.700000X0.550000X-0.700000X0.550000X0.700000X-0.550000X0.700000X0*%
%ADD54C,1.100000*%
%ADD55RoundRect,0.102000X0.600000X0.350000X-0.600000X0.350000X-0.600000X-0.350000X0.600000X-0.350000X0*%
%ADD56O,2.620000X1.412000*%
%ADD57RoundRect,0.102000X0.604000X0.302000X-0.604000X0.302000X-0.604000X-0.302000X0.604000X-0.302000X0*%
%ADD58RoundRect,0.050800X1.450000X-0.700000X1.450000X0.700000X-1.450000X0.700000X-1.450000X-0.700000X0*%
%ADD59O,2.000000X1.000000*%
%ADD60O,2.204000X1.204000*%
%ADD61RoundRect,0.300768X0.325832X0.490832X-0.325832X0.490832X-0.325832X-0.490832X0.325832X-0.490832X0*%
%ADD62RoundRect,0.300768X-0.325832X-0.490832X0.325832X-0.490832X0.325832X0.490832X-0.325832X0.490832X0*%
%ADD63RoundRect,0.101600X-0.700000X0.550000X-0.700000X-0.550000X0.700000X-0.550000X0.700000X0.550000X0*%
%ADD64RoundRect,0.101600X0.800000X-0.650000X0.800000X0.650000X-0.800000X0.650000X-0.800000X-0.650000X0*%
%ADD65RoundRect,0.050800X0.650000X0.750000X-0.650000X0.750000X-0.650000X-0.750000X0.650000X-0.750000X0*%
%ADD66RoundRect,0.225800X0.350000X0.000010X-0.350000X0.000010X-0.350000X-0.000010X0.350000X-0.000010X0*%
%ADD67RoundRect,0.225800X0.000010X-0.350000X0.000010X0.350000X-0.000010X0.350000X-0.000010X-0.350000X0*%
%ADD68RoundRect,0.225800X-0.350000X-0.000010X0.350000X-0.000010X0.350000X0.000010X-0.350000X0.000010X0*%
%ADD69RoundRect,0.225800X-0.000010X0.350000X-0.000010X-0.350000X0.000010X-0.350000X0.000010X0.350000X0*%
%ADD70C,1.009600*%
%ADD71RoundRect,0.050800X1.350000X1.350000X-1.350000X1.350000X-1.350000X-1.350000X1.350000X-1.350000X0*%
%ADD72RoundRect,0.050800X-0.700000X-0.825000X0.700000X-0.825000X0.700000X0.825000X-0.700000X0.825000X0*%
%ADD73RoundRect,0.050800X-0.600000X-0.825000X0.600000X-0.825000X0.600000X0.825000X-0.600000X0.825000X0*%
%ADD74RoundRect,0.050800X-0.500000X-0.650000X0.500000X-0.650000X0.500000X0.650000X-0.500000X0.650000X0*%
%ADD75R,1.000000X1.500000*%
%ADD76RoundRect,0.050800X0.750000X-0.600000X0.750000X0.600000X-0.750000X0.600000X-0.750000X-0.600000X0*%
%ADD77RoundRect,0.050800X-0.600000X-0.300000X0.600000X-0.300000X0.600000X0.300000X-0.600000X0.300000X0*%
%ADD78RoundRect,0.050800X0.500000X-0.500000X0.500000X0.500000X-0.500000X0.500000X-0.500000X-0.500000X0*%
%ADD79R,2.000000X4.000000*%
%ADD80RoundRect,0.101600X0.550000X0.700000X-0.550000X0.700000X-0.550000X-0.700000X0.550000X-0.700000X0*%
%ADD81RoundRect,0.050800X-1.250000X-1.250000X1.250000X-1.250000X1.250000X1.250000X-1.250000X1.250000X0*%
%ADD82RoundRect,0.050800X0.600000X0.825000X-0.600000X0.825000X-0.600000X-0.825000X0.600000X-0.825000X0*%
%ADD83C,0.900000*%
%ADD84RoundRect,0.101600X-0.500000X-0.800000X0.500000X-0.800000X0.500000X0.800000X-0.500000X0.800000X0*%
%ADD85RoundRect,0.101600X-0.800000X0.650000X-0.800000X-0.650000X0.800000X-0.650000X0.800000X0.650000X0*%
%ADD86RoundRect,0.050800X-0.600000X0.600000X-0.600000X-0.600000X0.600000X-0.600000X0.600000X0.600000X0*%
%TA.AperFunction,Profile*%
%ADD87C,0.100000*%
%TD*%
G04 APERTURE END LIST*
D10*
X99837796Y-46657179D02*
X99890628Y-46630763D01*
X99890628Y-46630763D02*
X99969876Y-46630763D01*
X99969876Y-46630763D02*
X100049124Y-46657179D01*
X100049124Y-46657179D02*
X100101956Y-46710011D01*
X100101956Y-46710011D02*
X100128372Y-46762843D01*
X100128372Y-46762843D02*
X100154788Y-46868507D01*
X100154788Y-46868507D02*
X100154788Y-46947755D01*
X100154788Y-46947755D02*
X100128372Y-47053419D01*
X100128372Y-47053419D02*
X100101956Y-47106251D01*
X100101956Y-47106251D02*
X100049124Y-47159083D01*
X100049124Y-47159083D02*
X99969876Y-47185499D01*
X99969876Y-47185499D02*
X99917044Y-47185499D01*
X99917044Y-47185499D02*
X99837796Y-47159083D01*
X99837796Y-47159083D02*
X99811380Y-47132667D01*
X99811380Y-47132667D02*
X99811380Y-46947755D01*
X99811380Y-46947755D02*
X99917044Y-46947755D01*
X99573636Y-47185499D02*
X99573636Y-46630763D01*
X99573636Y-46630763D02*
X99256644Y-47185499D01*
X99256644Y-47185499D02*
X99256644Y-46630763D01*
X98992484Y-47185499D02*
X98992484Y-46630763D01*
X98992484Y-46630763D02*
X98860404Y-46630763D01*
X98860404Y-46630763D02*
X98781156Y-46657179D01*
X98781156Y-46657179D02*
X98728324Y-46710011D01*
X98728324Y-46710011D02*
X98701908Y-46762843D01*
X98701908Y-46762843D02*
X98675492Y-46868507D01*
X98675492Y-46868507D02*
X98675492Y-46947755D01*
X98675492Y-46947755D02*
X98701908Y-47053419D01*
X98701908Y-47053419D02*
X98728324Y-47106251D01*
X98728324Y-47106251D02*
X98781156Y-47159083D01*
X98781156Y-47159083D02*
X98860404Y-47185499D01*
X98860404Y-47185499D02*
X98992484Y-47185499D01*
X98279252Y-47396827D02*
X98305668Y-47370411D01*
X98305668Y-47370411D02*
X98358500Y-47291163D01*
X98358500Y-47291163D02*
X98384916Y-47238331D01*
X98384916Y-47238331D02*
X98411332Y-47159083D01*
X98411332Y-47159083D02*
X98437748Y-47027003D01*
X98437748Y-47027003D02*
X98437748Y-46921339D01*
X98437748Y-46921339D02*
X98411332Y-46789259D01*
X98411332Y-46789259D02*
X98384916Y-46710011D01*
X98384916Y-46710011D02*
X98358500Y-46657179D01*
X98358500Y-46657179D02*
X98305668Y-46577931D01*
X98305668Y-46577931D02*
X98279252Y-46551515D01*
X98147172Y-46630763D02*
X97830180Y-46630763D01*
X97988676Y-47185499D02*
X97988676Y-46630763D01*
X97645268Y-47185499D02*
X97645268Y-46630763D01*
X97645268Y-46630763D02*
X97433940Y-46630763D01*
X97433940Y-46630763D02*
X97381108Y-46657179D01*
X97381108Y-46657179D02*
X97354692Y-46683595D01*
X97354692Y-46683595D02*
X97328276Y-46736427D01*
X97328276Y-46736427D02*
X97328276Y-46815675D01*
X97328276Y-46815675D02*
X97354692Y-46868507D01*
X97354692Y-46868507D02*
X97381108Y-46894923D01*
X97381108Y-46894923D02*
X97433940Y-46921339D01*
X97433940Y-46921339D02*
X97645268Y-46921339D01*
X97143364Y-47396827D02*
X97116948Y-47370411D01*
X97116948Y-47370411D02*
X97064116Y-47291163D01*
X97064116Y-47291163D02*
X97037700Y-47238331D01*
X97037700Y-47238331D02*
X97011284Y-47159083D01*
X97011284Y-47159083D02*
X96984868Y-47027003D01*
X96984868Y-47027003D02*
X96984868Y-46921339D01*
X96984868Y-46921339D02*
X97011284Y-46789259D01*
X97011284Y-46789259D02*
X97037700Y-46710011D01*
X97037700Y-46710011D02*
X97064116Y-46657179D01*
X97064116Y-46657179D02*
X97116948Y-46577931D01*
X97116948Y-46577931D02*
X97143364Y-46551515D01*
D11*
X100899036Y-73433227D02*
X100899036Y-74399637D01*
X100899036Y-74399637D02*
X100842189Y-74513332D01*
X100842189Y-74513332D02*
X100785341Y-74570180D01*
X100785341Y-74570180D02*
X100671646Y-74627027D01*
X100671646Y-74627027D02*
X100444255Y-74627027D01*
X100444255Y-74627027D02*
X100330560Y-74570180D01*
X100330560Y-74570180D02*
X100273713Y-74513332D01*
X100273713Y-74513332D02*
X100216865Y-74399637D01*
X100216865Y-74399637D02*
X100216865Y-73433227D01*
X99136760Y-73831160D02*
X99136760Y-74627027D01*
X99420998Y-73376380D02*
X99705236Y-74229094D01*
X99705236Y-74229094D02*
X98966217Y-74229094D01*
X88541138Y-83415938D02*
X88541138Y-83700176D01*
X88825376Y-83586481D02*
X88541138Y-83700176D01*
X88541138Y-83700176D02*
X88256899Y-83586481D01*
X88711680Y-83927567D02*
X88541138Y-83700176D01*
X88541138Y-83700176D02*
X88370595Y-83927567D01*
D10*
X102418749Y-104410305D02*
X102418749Y-104595217D01*
X102709325Y-104674465D02*
X102709325Y-104410305D01*
X102709325Y-104410305D02*
X102154589Y-104410305D01*
X102154589Y-104410305D02*
X102154589Y-104674465D01*
X102709325Y-104912209D02*
X102154589Y-104912209D01*
X102154589Y-104912209D02*
X102709325Y-105229201D01*
X102709325Y-105229201D02*
X102154589Y-105229201D01*
X102762157Y-105361281D02*
X102762157Y-105783937D01*
X102709325Y-106206593D02*
X102709325Y-105889601D01*
X102709325Y-106048097D02*
X102154589Y-106048097D01*
X102154589Y-106048097D02*
X102233837Y-105995265D01*
X102233837Y-105995265D02*
X102286669Y-105942433D01*
X102286669Y-105942433D02*
X102313085Y-105889601D01*
X119700909Y-58598865D02*
X119727325Y-58678113D01*
X119727325Y-58678113D02*
X119727325Y-58810193D01*
X119727325Y-58810193D02*
X119700909Y-58863025D01*
X119700909Y-58863025D02*
X119674493Y-58889441D01*
X119674493Y-58889441D02*
X119621661Y-58915857D01*
X119621661Y-58915857D02*
X119568829Y-58915857D01*
X119568829Y-58915857D02*
X119515997Y-58889441D01*
X119515997Y-58889441D02*
X119489581Y-58863025D01*
X119489581Y-58863025D02*
X119463165Y-58810193D01*
X119463165Y-58810193D02*
X119436749Y-58704529D01*
X119436749Y-58704529D02*
X119410333Y-58651697D01*
X119410333Y-58651697D02*
X119383917Y-58625281D01*
X119383917Y-58625281D02*
X119331085Y-58598865D01*
X119331085Y-58598865D02*
X119278253Y-58598865D01*
X119278253Y-58598865D02*
X119225421Y-58625281D01*
X119225421Y-58625281D02*
X119199005Y-58651697D01*
X119199005Y-58651697D02*
X119172589Y-58704529D01*
X119172589Y-58704529D02*
X119172589Y-58836609D01*
X119172589Y-58836609D02*
X119199005Y-58915857D01*
X119172589Y-59100769D02*
X119727325Y-59232849D01*
X119727325Y-59232849D02*
X119331085Y-59338513D01*
X119331085Y-59338513D02*
X119727325Y-59444177D01*
X119727325Y-59444177D02*
X119172589Y-59576257D01*
X119780157Y-59655505D02*
X119780157Y-60078161D01*
X119357501Y-60447985D02*
X119727325Y-60447985D01*
X119146173Y-60315905D02*
X119542413Y-60183825D01*
X119542413Y-60183825D02*
X119542413Y-60527233D01*
X146934372Y-96674963D02*
X146960788Y-96648547D01*
X146960788Y-96648547D02*
X146987204Y-96569299D01*
X146987204Y-96569299D02*
X146987204Y-96516467D01*
X146987204Y-96516467D02*
X146960788Y-96437219D01*
X146960788Y-96437219D02*
X146907956Y-96384387D01*
X146907956Y-96384387D02*
X146855124Y-96357971D01*
X146855124Y-96357971D02*
X146749460Y-96331555D01*
X146749460Y-96331555D02*
X146670212Y-96331555D01*
X146670212Y-96331555D02*
X146564548Y-96357971D01*
X146564548Y-96357971D02*
X146511716Y-96384387D01*
X146511716Y-96384387D02*
X146458884Y-96437219D01*
X146458884Y-96437219D02*
X146432468Y-96516467D01*
X146432468Y-96516467D02*
X146432468Y-96569299D01*
X146432468Y-96569299D02*
X146458884Y-96648547D01*
X146458884Y-96648547D02*
X146485300Y-96674963D01*
X146617380Y-97150451D02*
X146987204Y-97150451D01*
X146406052Y-97018371D02*
X146802292Y-96886291D01*
X146802292Y-96886291D02*
X146802292Y-97229699D01*
X146604172Y-60612043D02*
X146630588Y-60585627D01*
X146630588Y-60585627D02*
X146657004Y-60506379D01*
X146657004Y-60506379D02*
X146657004Y-60453547D01*
X146657004Y-60453547D02*
X146630588Y-60374299D01*
X146630588Y-60374299D02*
X146577756Y-60321467D01*
X146577756Y-60321467D02*
X146524924Y-60295051D01*
X146524924Y-60295051D02*
X146419260Y-60268635D01*
X146419260Y-60268635D02*
X146340012Y-60268635D01*
X146340012Y-60268635D02*
X146234348Y-60295051D01*
X146234348Y-60295051D02*
X146181516Y-60321467D01*
X146181516Y-60321467D02*
X146128684Y-60374299D01*
X146128684Y-60374299D02*
X146102268Y-60453547D01*
X146102268Y-60453547D02*
X146102268Y-60506379D01*
X146102268Y-60506379D02*
X146128684Y-60585627D01*
X146128684Y-60585627D02*
X146155100Y-60612043D01*
X146657004Y-61140363D02*
X146657004Y-60823371D01*
X146657004Y-60981867D02*
X146102268Y-60981867D01*
X146102268Y-60981867D02*
X146181516Y-60929035D01*
X146181516Y-60929035D02*
X146234348Y-60876203D01*
X146234348Y-60876203D02*
X146260764Y-60823371D01*
X146102268Y-61615851D02*
X146102268Y-61510187D01*
X146102268Y-61510187D02*
X146128684Y-61457355D01*
X146128684Y-61457355D02*
X146155100Y-61430939D01*
X146155100Y-61430939D02*
X146234348Y-61378107D01*
X146234348Y-61378107D02*
X146340012Y-61351691D01*
X146340012Y-61351691D02*
X146551340Y-61351691D01*
X146551340Y-61351691D02*
X146604172Y-61378107D01*
X146604172Y-61378107D02*
X146630588Y-61404523D01*
X146630588Y-61404523D02*
X146657004Y-61457355D01*
X146657004Y-61457355D02*
X146657004Y-61563019D01*
X146657004Y-61563019D02*
X146630588Y-61615851D01*
X146630588Y-61615851D02*
X146604172Y-61642267D01*
X146604172Y-61642267D02*
X146551340Y-61668683D01*
X146551340Y-61668683D02*
X146419260Y-61668683D01*
X146419260Y-61668683D02*
X146366428Y-61642267D01*
X146366428Y-61642267D02*
X146340012Y-61615851D01*
X146340012Y-61615851D02*
X146313596Y-61563019D01*
X146313596Y-61563019D02*
X146313596Y-61457355D01*
X146313596Y-61457355D02*
X146340012Y-61404523D01*
X146340012Y-61404523D02*
X146366428Y-61378107D01*
X146366428Y-61378107D02*
X146419260Y-61351691D01*
X106765826Y-83143722D02*
X106765826Y-83592794D01*
X106765826Y-83592794D02*
X106739410Y-83645626D01*
X106739410Y-83645626D02*
X106712994Y-83672042D01*
X106712994Y-83672042D02*
X106660162Y-83698458D01*
X106660162Y-83698458D02*
X106554498Y-83698458D01*
X106554498Y-83698458D02*
X106501666Y-83672042D01*
X106501666Y-83672042D02*
X106475250Y-83645626D01*
X106475250Y-83645626D02*
X106448834Y-83592794D01*
X106448834Y-83592794D02*
X106448834Y-83143722D01*
X106237506Y-83143722D02*
X105894098Y-83143722D01*
X105894098Y-83143722D02*
X106079010Y-83355050D01*
X106079010Y-83355050D02*
X105999762Y-83355050D01*
X105999762Y-83355050D02*
X105946930Y-83381466D01*
X105946930Y-83381466D02*
X105920514Y-83407882D01*
X105920514Y-83407882D02*
X105894098Y-83460714D01*
X105894098Y-83460714D02*
X105894098Y-83592794D01*
X105894098Y-83592794D02*
X105920514Y-83645626D01*
X105920514Y-83645626D02*
X105946930Y-83672042D01*
X105946930Y-83672042D02*
X105999762Y-83698458D01*
X105999762Y-83698458D02*
X106158258Y-83698458D01*
X106158258Y-83698458D02*
X106211090Y-83672042D01*
X106211090Y-83672042D02*
X106237506Y-83645626D01*
X110541028Y-76946122D02*
X110541028Y-77078202D01*
X110673108Y-77025370D02*
X110541028Y-77078202D01*
X110541028Y-77078202D02*
X110408948Y-77025370D01*
X110620276Y-77183866D02*
X110541028Y-77078202D01*
X110541028Y-77078202D02*
X110461780Y-77183866D01*
X131779820Y-100377163D02*
X131462828Y-100377163D01*
X131621324Y-100931899D02*
X131621324Y-100377163D01*
X130987340Y-100931899D02*
X131304332Y-100931899D01*
X131145836Y-100931899D02*
X131145836Y-100377163D01*
X131145836Y-100377163D02*
X131198668Y-100456411D01*
X131198668Y-100456411D02*
X131251500Y-100509243D01*
X131251500Y-100509243D02*
X131304332Y-100535659D01*
X133288580Y-63492299D02*
X133473492Y-63228139D01*
X133605572Y-63492299D02*
X133605572Y-62937563D01*
X133605572Y-62937563D02*
X133394244Y-62937563D01*
X133394244Y-62937563D02*
X133341412Y-62963979D01*
X133341412Y-62963979D02*
X133314996Y-62990395D01*
X133314996Y-62990395D02*
X133288580Y-63043227D01*
X133288580Y-63043227D02*
X133288580Y-63122475D01*
X133288580Y-63122475D02*
X133314996Y-63175307D01*
X133314996Y-63175307D02*
X133341412Y-63201723D01*
X133341412Y-63201723D02*
X133394244Y-63228139D01*
X133394244Y-63228139D02*
X133605572Y-63228139D01*
X132813092Y-63122475D02*
X132813092Y-63492299D01*
X132945172Y-62911147D02*
X133077252Y-63307387D01*
X133077252Y-63307387D02*
X132733844Y-63307387D01*
X132575348Y-62937563D02*
X132231940Y-62937563D01*
X132231940Y-62937563D02*
X132416852Y-63148891D01*
X132416852Y-63148891D02*
X132337604Y-63148891D01*
X132337604Y-63148891D02*
X132284772Y-63175307D01*
X132284772Y-63175307D02*
X132258356Y-63201723D01*
X132258356Y-63201723D02*
X132231940Y-63254555D01*
X132231940Y-63254555D02*
X132231940Y-63386635D01*
X132231940Y-63386635D02*
X132258356Y-63439467D01*
X132258356Y-63439467D02*
X132284772Y-63465883D01*
X132284772Y-63465883D02*
X132337604Y-63492299D01*
X132337604Y-63492299D02*
X132496100Y-63492299D01*
X132496100Y-63492299D02*
X132548932Y-63465883D01*
X132548932Y-63465883D02*
X132575348Y-63439467D01*
X128331494Y-111515522D02*
X128331494Y-111911762D01*
X128331494Y-111911762D02*
X128357910Y-111991010D01*
X128357910Y-111991010D02*
X128410742Y-112043842D01*
X128410742Y-112043842D02*
X128489990Y-112070258D01*
X128489990Y-112070258D02*
X128542822Y-112070258D01*
X127829590Y-111700434D02*
X127829590Y-112070258D01*
X127961670Y-111489106D02*
X128093750Y-111885346D01*
X128093750Y-111885346D02*
X127750342Y-111885346D01*
X120552243Y-76386944D02*
X121001315Y-76386944D01*
X121001315Y-76386944D02*
X121054147Y-76413360D01*
X121054147Y-76413360D02*
X121080563Y-76439776D01*
X121080563Y-76439776D02*
X121106979Y-76492608D01*
X121106979Y-76492608D02*
X121106979Y-76598272D01*
X121106979Y-76598272D02*
X121080563Y-76651104D01*
X121080563Y-76651104D02*
X121054147Y-76677520D01*
X121054147Y-76677520D02*
X121001315Y-76703936D01*
X121001315Y-76703936D02*
X120552243Y-76703936D01*
X120552243Y-77205840D02*
X120552243Y-77100176D01*
X120552243Y-77100176D02*
X120578659Y-77047344D01*
X120578659Y-77047344D02*
X120605075Y-77020928D01*
X120605075Y-77020928D02*
X120684323Y-76968096D01*
X120684323Y-76968096D02*
X120789987Y-76941680D01*
X120789987Y-76941680D02*
X121001315Y-76941680D01*
X121001315Y-76941680D02*
X121054147Y-76968096D01*
X121054147Y-76968096D02*
X121080563Y-76994512D01*
X121080563Y-76994512D02*
X121106979Y-77047344D01*
X121106979Y-77047344D02*
X121106979Y-77153008D01*
X121106979Y-77153008D02*
X121080563Y-77205840D01*
X121080563Y-77205840D02*
X121054147Y-77232256D01*
X121054147Y-77232256D02*
X121001315Y-77258672D01*
X121001315Y-77258672D02*
X120869235Y-77258672D01*
X120869235Y-77258672D02*
X120816403Y-77232256D01*
X120816403Y-77232256D02*
X120789987Y-77205840D01*
X120789987Y-77205840D02*
X120763571Y-77153008D01*
X120763571Y-77153008D02*
X120763571Y-77047344D01*
X120763571Y-77047344D02*
X120789987Y-76994512D01*
X120789987Y-76994512D02*
X120816403Y-76968096D01*
X120816403Y-76968096D02*
X120869235Y-76941680D01*
X122888322Y-51725404D02*
X122809074Y-51751820D01*
X122809074Y-51751820D02*
X122676994Y-51751820D01*
X122676994Y-51751820D02*
X122624162Y-51725404D01*
X122624162Y-51725404D02*
X122597746Y-51698988D01*
X122597746Y-51698988D02*
X122571330Y-51646156D01*
X122571330Y-51646156D02*
X122571330Y-51593324D01*
X122571330Y-51593324D02*
X122597746Y-51540492D01*
X122597746Y-51540492D02*
X122624162Y-51514076D01*
X122624162Y-51514076D02*
X122676994Y-51487660D01*
X122676994Y-51487660D02*
X122782658Y-51461244D01*
X122782658Y-51461244D02*
X122835490Y-51434828D01*
X122835490Y-51434828D02*
X122861906Y-51408412D01*
X122861906Y-51408412D02*
X122888322Y-51355580D01*
X122888322Y-51355580D02*
X122888322Y-51302748D01*
X122888322Y-51302748D02*
X122861906Y-51249916D01*
X122861906Y-51249916D02*
X122835490Y-51223500D01*
X122835490Y-51223500D02*
X122782658Y-51197084D01*
X122782658Y-51197084D02*
X122650578Y-51197084D01*
X122650578Y-51197084D02*
X122571330Y-51223500D01*
X122386418Y-51197084D02*
X122254338Y-51751820D01*
X122254338Y-51751820D02*
X122148674Y-51355580D01*
X122148674Y-51355580D02*
X122043010Y-51751820D01*
X122043010Y-51751820D02*
X121910930Y-51197084D01*
X121831682Y-51804652D02*
X121409026Y-51804652D01*
X121197698Y-51434828D02*
X121250530Y-51408412D01*
X121250530Y-51408412D02*
X121276946Y-51381996D01*
X121276946Y-51381996D02*
X121303362Y-51329164D01*
X121303362Y-51329164D02*
X121303362Y-51302748D01*
X121303362Y-51302748D02*
X121276946Y-51249916D01*
X121276946Y-51249916D02*
X121250530Y-51223500D01*
X121250530Y-51223500D02*
X121197698Y-51197084D01*
X121197698Y-51197084D02*
X121092034Y-51197084D01*
X121092034Y-51197084D02*
X121039202Y-51223500D01*
X121039202Y-51223500D02*
X121012786Y-51249916D01*
X121012786Y-51249916D02*
X120986370Y-51302748D01*
X120986370Y-51302748D02*
X120986370Y-51329164D01*
X120986370Y-51329164D02*
X121012786Y-51381996D01*
X121012786Y-51381996D02*
X121039202Y-51408412D01*
X121039202Y-51408412D02*
X121092034Y-51434828D01*
X121092034Y-51434828D02*
X121197698Y-51434828D01*
X121197698Y-51434828D02*
X121250530Y-51461244D01*
X121250530Y-51461244D02*
X121276946Y-51487660D01*
X121276946Y-51487660D02*
X121303362Y-51540492D01*
X121303362Y-51540492D02*
X121303362Y-51646156D01*
X121303362Y-51646156D02*
X121276946Y-51698988D01*
X121276946Y-51698988D02*
X121250530Y-51725404D01*
X121250530Y-51725404D02*
X121197698Y-51751820D01*
X121197698Y-51751820D02*
X121092034Y-51751820D01*
X121092034Y-51751820D02*
X121039202Y-51725404D01*
X121039202Y-51725404D02*
X121012786Y-51698988D01*
X121012786Y-51698988D02*
X120986370Y-51646156D01*
X120986370Y-51646156D02*
X120986370Y-51540492D01*
X120986370Y-51540492D02*
X121012786Y-51487660D01*
X121012786Y-51487660D02*
X121039202Y-51461244D01*
X121039202Y-51461244D02*
X121092034Y-51434828D01*
X145014058Y-110251774D02*
X144459322Y-110251774D01*
X144459322Y-110251774D02*
X144459322Y-110383854D01*
X144459322Y-110383854D02*
X144485738Y-110463102D01*
X144485738Y-110463102D02*
X144538570Y-110515934D01*
X144538570Y-110515934D02*
X144591402Y-110542350D01*
X144591402Y-110542350D02*
X144697066Y-110568766D01*
X144697066Y-110568766D02*
X144776314Y-110568766D01*
X144776314Y-110568766D02*
X144881978Y-110542350D01*
X144881978Y-110542350D02*
X144934810Y-110515934D01*
X144934810Y-110515934D02*
X144987642Y-110463102D01*
X144987642Y-110463102D02*
X145014058Y-110383854D01*
X145014058Y-110383854D02*
X145014058Y-110251774D01*
X144644234Y-111044254D02*
X145014058Y-111044254D01*
X144432906Y-110912174D02*
X144829146Y-110780094D01*
X144829146Y-110780094D02*
X144829146Y-111123502D01*
X144572276Y-52345763D02*
X144572276Y-52742003D01*
X144572276Y-52742003D02*
X144598692Y-52821251D01*
X144598692Y-52821251D02*
X144651524Y-52874083D01*
X144651524Y-52874083D02*
X144730772Y-52900499D01*
X144730772Y-52900499D02*
X144783604Y-52900499D01*
X144017540Y-52900499D02*
X144334532Y-52900499D01*
X144176036Y-52900499D02*
X144176036Y-52345763D01*
X144176036Y-52345763D02*
X144228868Y-52425011D01*
X144228868Y-52425011D02*
X144281700Y-52477843D01*
X144281700Y-52477843D02*
X144334532Y-52504259D01*
X143542052Y-52530675D02*
X143542052Y-52900499D01*
X143674132Y-52319347D02*
X143806212Y-52715587D01*
X143806212Y-52715587D02*
X143462804Y-52715587D01*
X135328634Y-107279867D02*
X135355050Y-107306283D01*
X135355050Y-107306283D02*
X135434298Y-107332699D01*
X135434298Y-107332699D02*
X135487130Y-107332699D01*
X135487130Y-107332699D02*
X135566378Y-107306283D01*
X135566378Y-107306283D02*
X135619210Y-107253451D01*
X135619210Y-107253451D02*
X135645626Y-107200619D01*
X135645626Y-107200619D02*
X135672042Y-107094955D01*
X135672042Y-107094955D02*
X135672042Y-107015707D01*
X135672042Y-107015707D02*
X135645626Y-106910043D01*
X135645626Y-106910043D02*
X135619210Y-106857211D01*
X135619210Y-106857211D02*
X135566378Y-106804379D01*
X135566378Y-106804379D02*
X135487130Y-106777963D01*
X135487130Y-106777963D02*
X135434298Y-106777963D01*
X135434298Y-106777963D02*
X135355050Y-106804379D01*
X135355050Y-106804379D02*
X135328634Y-106830795D01*
X134800314Y-107332699D02*
X135117306Y-107332699D01*
X134958810Y-107332699D02*
X134958810Y-106777963D01*
X134958810Y-106777963D02*
X135011642Y-106857211D01*
X135011642Y-106857211D02*
X135064474Y-106910043D01*
X135064474Y-106910043D02*
X135117306Y-106936459D01*
X133838058Y-96801966D02*
X133573898Y-96617054D01*
X133838058Y-96484974D02*
X133283322Y-96484974D01*
X133283322Y-96484974D02*
X133283322Y-96696302D01*
X133283322Y-96696302D02*
X133309738Y-96749134D01*
X133309738Y-96749134D02*
X133336154Y-96775550D01*
X133336154Y-96775550D02*
X133388986Y-96801966D01*
X133388986Y-96801966D02*
X133468234Y-96801966D01*
X133468234Y-96801966D02*
X133521066Y-96775550D01*
X133521066Y-96775550D02*
X133547482Y-96749134D01*
X133547482Y-96749134D02*
X133573898Y-96696302D01*
X133573898Y-96696302D02*
X133573898Y-96484974D01*
X133838058Y-97330286D02*
X133838058Y-97013294D01*
X133838058Y-97171790D02*
X133283322Y-97171790D01*
X133283322Y-97171790D02*
X133362570Y-97118958D01*
X133362570Y-97118958D02*
X133415402Y-97066126D01*
X133415402Y-97066126D02*
X133441818Y-97013294D01*
X133283322Y-97515198D02*
X133283322Y-97858606D01*
X133283322Y-97858606D02*
X133494650Y-97673694D01*
X133494650Y-97673694D02*
X133494650Y-97752942D01*
X133494650Y-97752942D02*
X133521066Y-97805774D01*
X133521066Y-97805774D02*
X133547482Y-97832190D01*
X133547482Y-97832190D02*
X133600314Y-97858606D01*
X133600314Y-97858606D02*
X133732394Y-97858606D01*
X133732394Y-97858606D02*
X133785226Y-97832190D01*
X133785226Y-97832190D02*
X133811642Y-97805774D01*
X133811642Y-97805774D02*
X133838058Y-97752942D01*
X133838058Y-97752942D02*
X133838058Y-97594446D01*
X133838058Y-97594446D02*
X133811642Y-97541614D01*
X133811642Y-97541614D02*
X133785226Y-97515198D01*
X115491204Y-110822815D02*
X114936468Y-110822815D01*
X114936468Y-110822815D02*
X114936468Y-110954895D01*
X114936468Y-110954895D02*
X114962884Y-111034143D01*
X114962884Y-111034143D02*
X115015716Y-111086975D01*
X115015716Y-111086975D02*
X115068548Y-111113391D01*
X115068548Y-111113391D02*
X115174212Y-111139807D01*
X115174212Y-111139807D02*
X115253460Y-111139807D01*
X115253460Y-111139807D02*
X115359124Y-111113391D01*
X115359124Y-111113391D02*
X115411956Y-111086975D01*
X115411956Y-111086975D02*
X115464788Y-111034143D01*
X115464788Y-111034143D02*
X115491204Y-110954895D01*
X115491204Y-110954895D02*
X115491204Y-110822815D01*
X115491204Y-111403967D02*
X115491204Y-111509631D01*
X115491204Y-111509631D02*
X115464788Y-111562463D01*
X115464788Y-111562463D02*
X115438372Y-111588879D01*
X115438372Y-111588879D02*
X115359124Y-111641711D01*
X115359124Y-111641711D02*
X115253460Y-111668127D01*
X115253460Y-111668127D02*
X115042132Y-111668127D01*
X115042132Y-111668127D02*
X114989300Y-111641711D01*
X114989300Y-111641711D02*
X114962884Y-111615295D01*
X114962884Y-111615295D02*
X114936468Y-111562463D01*
X114936468Y-111562463D02*
X114936468Y-111456799D01*
X114936468Y-111456799D02*
X114962884Y-111403967D01*
X114962884Y-111403967D02*
X114989300Y-111377551D01*
X114989300Y-111377551D02*
X115042132Y-111351135D01*
X115042132Y-111351135D02*
X115174212Y-111351135D01*
X115174212Y-111351135D02*
X115227044Y-111377551D01*
X115227044Y-111377551D02*
X115253460Y-111403967D01*
X115253460Y-111403967D02*
X115279876Y-111456799D01*
X115279876Y-111456799D02*
X115279876Y-111562463D01*
X115279876Y-111562463D02*
X115253460Y-111615295D01*
X115253460Y-111615295D02*
X115227044Y-111641711D01*
X115227044Y-111641711D02*
X115174212Y-111668127D01*
X129365626Y-106975122D02*
X129392042Y-106948706D01*
X129392042Y-106948706D02*
X129418458Y-106869458D01*
X129418458Y-106869458D02*
X129418458Y-106816626D01*
X129418458Y-106816626D02*
X129392042Y-106737378D01*
X129392042Y-106737378D02*
X129339210Y-106684546D01*
X129339210Y-106684546D02*
X129286378Y-106658130D01*
X129286378Y-106658130D02*
X129180714Y-106631714D01*
X129180714Y-106631714D02*
X129101466Y-106631714D01*
X129101466Y-106631714D02*
X128995802Y-106658130D01*
X128995802Y-106658130D02*
X128942970Y-106684546D01*
X128942970Y-106684546D02*
X128890138Y-106737378D01*
X128890138Y-106737378D02*
X128863722Y-106816626D01*
X128863722Y-106816626D02*
X128863722Y-106869458D01*
X128863722Y-106869458D02*
X128890138Y-106948706D01*
X128890138Y-106948706D02*
X128916554Y-106975122D01*
X128916554Y-107186450D02*
X128890138Y-107212866D01*
X128890138Y-107212866D02*
X128863722Y-107265698D01*
X128863722Y-107265698D02*
X128863722Y-107397778D01*
X128863722Y-107397778D02*
X128890138Y-107450610D01*
X128890138Y-107450610D02*
X128916554Y-107477026D01*
X128916554Y-107477026D02*
X128969386Y-107503442D01*
X128969386Y-107503442D02*
X129022218Y-107503442D01*
X129022218Y-107503442D02*
X129101466Y-107477026D01*
X129101466Y-107477026D02*
X129418458Y-107160034D01*
X129418458Y-107160034D02*
X129418458Y-107503442D01*
X145074232Y-57476563D02*
X145074232Y-57925635D01*
X145074232Y-57925635D02*
X145047816Y-57978467D01*
X145047816Y-57978467D02*
X145021400Y-58004883D01*
X145021400Y-58004883D02*
X144968568Y-58031299D01*
X144968568Y-58031299D02*
X144862904Y-58031299D01*
X144862904Y-58031299D02*
X144810072Y-58004883D01*
X144810072Y-58004883D02*
X144783656Y-57978467D01*
X144783656Y-57978467D02*
X144757240Y-57925635D01*
X144757240Y-57925635D02*
X144757240Y-57476563D01*
X144545912Y-57476563D02*
X144176088Y-57476563D01*
X144176088Y-57476563D02*
X144413832Y-58031299D01*
X106605372Y-109415499D02*
X106605372Y-108860763D01*
X106605372Y-108860763D02*
X106473292Y-108860763D01*
X106473292Y-108860763D02*
X106394044Y-108887179D01*
X106394044Y-108887179D02*
X106341212Y-108940011D01*
X106341212Y-108940011D02*
X106314796Y-108992843D01*
X106314796Y-108992843D02*
X106288380Y-109098507D01*
X106288380Y-109098507D02*
X106288380Y-109177755D01*
X106288380Y-109177755D02*
X106314796Y-109283419D01*
X106314796Y-109283419D02*
X106341212Y-109336251D01*
X106341212Y-109336251D02*
X106394044Y-109389083D01*
X106394044Y-109389083D02*
X106473292Y-109415499D01*
X106473292Y-109415499D02*
X106605372Y-109415499D01*
X105812892Y-108860763D02*
X105918556Y-108860763D01*
X105918556Y-108860763D02*
X105971388Y-108887179D01*
X105971388Y-108887179D02*
X105997804Y-108913595D01*
X105997804Y-108913595D02*
X106050636Y-108992843D01*
X106050636Y-108992843D02*
X106077052Y-109098507D01*
X106077052Y-109098507D02*
X106077052Y-109309835D01*
X106077052Y-109309835D02*
X106050636Y-109362667D01*
X106050636Y-109362667D02*
X106024220Y-109389083D01*
X106024220Y-109389083D02*
X105971388Y-109415499D01*
X105971388Y-109415499D02*
X105865724Y-109415499D01*
X105865724Y-109415499D02*
X105812892Y-109389083D01*
X105812892Y-109389083D02*
X105786476Y-109362667D01*
X105786476Y-109362667D02*
X105760060Y-109309835D01*
X105760060Y-109309835D02*
X105760060Y-109177755D01*
X105760060Y-109177755D02*
X105786476Y-109124923D01*
X105786476Y-109124923D02*
X105812892Y-109098507D01*
X105812892Y-109098507D02*
X105865724Y-109072091D01*
X105865724Y-109072091D02*
X105971388Y-109072091D01*
X105971388Y-109072091D02*
X106024220Y-109098507D01*
X106024220Y-109098507D02*
X106050636Y-109124923D01*
X106050636Y-109124923D02*
X106077052Y-109177755D01*
X140176699Y-64384402D02*
X139912539Y-64199490D01*
X140176699Y-64067410D02*
X139621963Y-64067410D01*
X139621963Y-64067410D02*
X139621963Y-64278738D01*
X139621963Y-64278738D02*
X139648379Y-64331570D01*
X139648379Y-64331570D02*
X139674795Y-64357986D01*
X139674795Y-64357986D02*
X139727627Y-64384402D01*
X139727627Y-64384402D02*
X139806875Y-64384402D01*
X139806875Y-64384402D02*
X139859707Y-64357986D01*
X139859707Y-64357986D02*
X139886123Y-64331570D01*
X139886123Y-64331570D02*
X139912539Y-64278738D01*
X139912539Y-64278738D02*
X139912539Y-64067410D01*
X139806875Y-64859890D02*
X140176699Y-64859890D01*
X139595547Y-64727810D02*
X139991787Y-64595730D01*
X139991787Y-64595730D02*
X139991787Y-64939138D01*
X140176699Y-65441042D02*
X140176699Y-65124050D01*
X140176699Y-65282546D02*
X139621963Y-65282546D01*
X139621963Y-65282546D02*
X139701211Y-65229714D01*
X139701211Y-65229714D02*
X139754043Y-65176882D01*
X139754043Y-65176882D02*
X139780459Y-65124050D01*
X106296404Y-74259007D02*
X106032244Y-74074095D01*
X106296404Y-73942015D02*
X105741668Y-73942015D01*
X105741668Y-73942015D02*
X105741668Y-74153343D01*
X105741668Y-74153343D02*
X105768084Y-74206175D01*
X105768084Y-74206175D02*
X105794500Y-74232591D01*
X105794500Y-74232591D02*
X105847332Y-74259007D01*
X105847332Y-74259007D02*
X105926580Y-74259007D01*
X105926580Y-74259007D02*
X105979412Y-74232591D01*
X105979412Y-74232591D02*
X106005828Y-74206175D01*
X106005828Y-74206175D02*
X106032244Y-74153343D01*
X106032244Y-74153343D02*
X106032244Y-73942015D01*
X105741668Y-74443919D02*
X105741668Y-74787327D01*
X105741668Y-74787327D02*
X105952996Y-74602415D01*
X105952996Y-74602415D02*
X105952996Y-74681663D01*
X105952996Y-74681663D02*
X105979412Y-74734495D01*
X105979412Y-74734495D02*
X106005828Y-74760911D01*
X106005828Y-74760911D02*
X106058660Y-74787327D01*
X106058660Y-74787327D02*
X106190740Y-74787327D01*
X106190740Y-74787327D02*
X106243572Y-74760911D01*
X106243572Y-74760911D02*
X106269988Y-74734495D01*
X106269988Y-74734495D02*
X106296404Y-74681663D01*
X106296404Y-74681663D02*
X106296404Y-74523167D01*
X106296404Y-74523167D02*
X106269988Y-74470335D01*
X106269988Y-74470335D02*
X106243572Y-74443919D01*
X105741668Y-75130735D02*
X105741668Y-75183567D01*
X105741668Y-75183567D02*
X105768084Y-75236399D01*
X105768084Y-75236399D02*
X105794500Y-75262815D01*
X105794500Y-75262815D02*
X105847332Y-75289231D01*
X105847332Y-75289231D02*
X105952996Y-75315647D01*
X105952996Y-75315647D02*
X106085076Y-75315647D01*
X106085076Y-75315647D02*
X106190740Y-75289231D01*
X106190740Y-75289231D02*
X106243572Y-75262815D01*
X106243572Y-75262815D02*
X106269988Y-75236399D01*
X106269988Y-75236399D02*
X106296404Y-75183567D01*
X106296404Y-75183567D02*
X106296404Y-75130735D01*
X106296404Y-75130735D02*
X106269988Y-75077903D01*
X106269988Y-75077903D02*
X106243572Y-75051487D01*
X106243572Y-75051487D02*
X106190740Y-75025071D01*
X106190740Y-75025071D02*
X106085076Y-74998655D01*
X106085076Y-74998655D02*
X105952996Y-74998655D01*
X105952996Y-74998655D02*
X105847332Y-75025071D01*
X105847332Y-75025071D02*
X105794500Y-75051487D01*
X105794500Y-75051487D02*
X105768084Y-75077903D01*
X105768084Y-75077903D02*
X105741668Y-75130735D01*
X102592172Y-108653499D02*
X102592172Y-108098763D01*
X102592172Y-108098763D02*
X102460092Y-108098763D01*
X102460092Y-108098763D02*
X102380844Y-108125179D01*
X102380844Y-108125179D02*
X102328012Y-108178011D01*
X102328012Y-108178011D02*
X102301596Y-108230843D01*
X102301596Y-108230843D02*
X102275180Y-108336507D01*
X102275180Y-108336507D02*
X102275180Y-108415755D01*
X102275180Y-108415755D02*
X102301596Y-108521419D01*
X102301596Y-108521419D02*
X102328012Y-108574251D01*
X102328012Y-108574251D02*
X102380844Y-108627083D01*
X102380844Y-108627083D02*
X102460092Y-108653499D01*
X102460092Y-108653499D02*
X102592172Y-108653499D01*
X101773276Y-108098763D02*
X102037436Y-108098763D01*
X102037436Y-108098763D02*
X102063852Y-108362923D01*
X102063852Y-108362923D02*
X102037436Y-108336507D01*
X102037436Y-108336507D02*
X101984604Y-108310091D01*
X101984604Y-108310091D02*
X101852524Y-108310091D01*
X101852524Y-108310091D02*
X101799692Y-108336507D01*
X101799692Y-108336507D02*
X101773276Y-108362923D01*
X101773276Y-108362923D02*
X101746860Y-108415755D01*
X101746860Y-108415755D02*
X101746860Y-108547835D01*
X101746860Y-108547835D02*
X101773276Y-108600667D01*
X101773276Y-108600667D02*
X101799692Y-108627083D01*
X101799692Y-108627083D02*
X101852524Y-108653499D01*
X101852524Y-108653499D02*
X101984604Y-108653499D01*
X101984604Y-108653499D02*
X102037436Y-108627083D01*
X102037436Y-108627083D02*
X102063852Y-108600667D01*
X140064818Y-74260284D02*
X140064818Y-74656524D01*
X140064818Y-74656524D02*
X140091234Y-74735772D01*
X140091234Y-74735772D02*
X140144066Y-74788604D01*
X140144066Y-74788604D02*
X140223314Y-74815020D01*
X140223314Y-74815020D02*
X140276146Y-74815020D01*
X139510082Y-74815020D02*
X139827074Y-74815020D01*
X139668578Y-74815020D02*
X139668578Y-74260284D01*
X139668578Y-74260284D02*
X139721410Y-74339532D01*
X139721410Y-74339532D02*
X139774242Y-74392364D01*
X139774242Y-74392364D02*
X139827074Y-74418780D01*
X139008178Y-74260284D02*
X139272338Y-74260284D01*
X139272338Y-74260284D02*
X139298754Y-74524444D01*
X139298754Y-74524444D02*
X139272338Y-74498028D01*
X139272338Y-74498028D02*
X139219506Y-74471612D01*
X139219506Y-74471612D02*
X139087426Y-74471612D01*
X139087426Y-74471612D02*
X139034594Y-74498028D01*
X139034594Y-74498028D02*
X139008178Y-74524444D01*
X139008178Y-74524444D02*
X138981762Y-74577276D01*
X138981762Y-74577276D02*
X138981762Y-74709356D01*
X138981762Y-74709356D02*
X139008178Y-74762188D01*
X139008178Y-74762188D02*
X139034594Y-74788604D01*
X139034594Y-74788604D02*
X139087426Y-74815020D01*
X139087426Y-74815020D02*
X139219506Y-74815020D01*
X139219506Y-74815020D02*
X139272338Y-74788604D01*
X139272338Y-74788604D02*
X139298754Y-74762188D01*
X136412780Y-99611099D02*
X136597692Y-99346939D01*
X136729772Y-99611099D02*
X136729772Y-99056363D01*
X136729772Y-99056363D02*
X136518444Y-99056363D01*
X136518444Y-99056363D02*
X136465612Y-99082779D01*
X136465612Y-99082779D02*
X136439196Y-99109195D01*
X136439196Y-99109195D02*
X136412780Y-99162027D01*
X136412780Y-99162027D02*
X136412780Y-99241275D01*
X136412780Y-99241275D02*
X136439196Y-99294107D01*
X136439196Y-99294107D02*
X136465612Y-99320523D01*
X136465612Y-99320523D02*
X136518444Y-99346939D01*
X136518444Y-99346939D02*
X136729772Y-99346939D01*
X135884460Y-99611099D02*
X136201452Y-99611099D01*
X136042956Y-99611099D02*
X136042956Y-99056363D01*
X136042956Y-99056363D02*
X136095788Y-99135611D01*
X136095788Y-99135611D02*
X136148620Y-99188443D01*
X136148620Y-99188443D02*
X136201452Y-99214859D01*
X142444824Y-88929708D02*
X142471240Y-88956124D01*
X142471240Y-88956124D02*
X142550488Y-88982540D01*
X142550488Y-88982540D02*
X142603320Y-88982540D01*
X142603320Y-88982540D02*
X142682568Y-88956124D01*
X142682568Y-88956124D02*
X142735400Y-88903292D01*
X142735400Y-88903292D02*
X142761816Y-88850460D01*
X142761816Y-88850460D02*
X142788232Y-88744796D01*
X142788232Y-88744796D02*
X142788232Y-88665548D01*
X142788232Y-88665548D02*
X142761816Y-88559884D01*
X142761816Y-88559884D02*
X142735400Y-88507052D01*
X142735400Y-88507052D02*
X142682568Y-88454220D01*
X142682568Y-88454220D02*
X142603320Y-88427804D01*
X142603320Y-88427804D02*
X142550488Y-88427804D01*
X142550488Y-88427804D02*
X142471240Y-88454220D01*
X142471240Y-88454220D02*
X142444824Y-88480636D01*
X141942920Y-88427804D02*
X142207080Y-88427804D01*
X142207080Y-88427804D02*
X142233496Y-88691964D01*
X142233496Y-88691964D02*
X142207080Y-88665548D01*
X142207080Y-88665548D02*
X142154248Y-88639132D01*
X142154248Y-88639132D02*
X142022168Y-88639132D01*
X142022168Y-88639132D02*
X141969336Y-88665548D01*
X141969336Y-88665548D02*
X141942920Y-88691964D01*
X141942920Y-88691964D02*
X141916504Y-88744796D01*
X141916504Y-88744796D02*
X141916504Y-88876876D01*
X141916504Y-88876876D02*
X141942920Y-88929708D01*
X141942920Y-88929708D02*
X141969336Y-88956124D01*
X141969336Y-88956124D02*
X142022168Y-88982540D01*
X142022168Y-88982540D02*
X142154248Y-88982540D01*
X142154248Y-88982540D02*
X142207080Y-88956124D01*
X142207080Y-88956124D02*
X142233496Y-88929708D01*
X109704172Y-109466299D02*
X109704172Y-108911563D01*
X109704172Y-108911563D02*
X109572092Y-108911563D01*
X109572092Y-108911563D02*
X109492844Y-108937979D01*
X109492844Y-108937979D02*
X109440012Y-108990811D01*
X109440012Y-108990811D02*
X109413596Y-109043643D01*
X109413596Y-109043643D02*
X109387180Y-109149307D01*
X109387180Y-109149307D02*
X109387180Y-109228555D01*
X109387180Y-109228555D02*
X109413596Y-109334219D01*
X109413596Y-109334219D02*
X109440012Y-109387051D01*
X109440012Y-109387051D02*
X109492844Y-109439883D01*
X109492844Y-109439883D02*
X109572092Y-109466299D01*
X109572092Y-109466299D02*
X109704172Y-109466299D01*
X109202268Y-108911563D02*
X108832444Y-108911563D01*
X108832444Y-108911563D02*
X109070188Y-109466299D01*
X88129872Y-100181443D02*
X88129872Y-100577683D01*
X88129872Y-100577683D02*
X88156288Y-100656931D01*
X88156288Y-100656931D02*
X88209120Y-100709763D01*
X88209120Y-100709763D02*
X88288368Y-100736179D01*
X88288368Y-100736179D02*
X88341200Y-100736179D01*
X87575136Y-100736179D02*
X87892128Y-100736179D01*
X87733632Y-100736179D02*
X87733632Y-100181443D01*
X87733632Y-100181443D02*
X87786464Y-100260691D01*
X87786464Y-100260691D02*
X87839296Y-100313523D01*
X87839296Y-100313523D02*
X87892128Y-100339939D01*
X87046816Y-100736179D02*
X87363808Y-100736179D01*
X87205312Y-100736179D02*
X87205312Y-100181443D01*
X87205312Y-100181443D02*
X87258144Y-100260691D01*
X87258144Y-100260691D02*
X87310976Y-100313523D01*
X87310976Y-100313523D02*
X87363808Y-100339939D01*
X121739634Y-75823308D02*
X121766050Y-75849724D01*
X121766050Y-75849724D02*
X121845298Y-75876140D01*
X121845298Y-75876140D02*
X121898130Y-75876140D01*
X121898130Y-75876140D02*
X121977378Y-75849724D01*
X121977378Y-75849724D02*
X122030210Y-75796892D01*
X122030210Y-75796892D02*
X122056626Y-75744060D01*
X122056626Y-75744060D02*
X122083042Y-75638396D01*
X122083042Y-75638396D02*
X122083042Y-75559148D01*
X122083042Y-75559148D02*
X122056626Y-75453484D01*
X122056626Y-75453484D02*
X122030210Y-75400652D01*
X122030210Y-75400652D02*
X121977378Y-75347820D01*
X121977378Y-75347820D02*
X121898130Y-75321404D01*
X121898130Y-75321404D02*
X121845298Y-75321404D01*
X121845298Y-75321404D02*
X121766050Y-75347820D01*
X121766050Y-75347820D02*
X121739634Y-75374236D01*
X121211314Y-75876140D02*
X121528306Y-75876140D01*
X121369810Y-75876140D02*
X121369810Y-75321404D01*
X121369810Y-75321404D02*
X121422642Y-75400652D01*
X121422642Y-75400652D02*
X121475474Y-75453484D01*
X121475474Y-75453484D02*
X121528306Y-75479900D01*
X121026402Y-75321404D02*
X120682994Y-75321404D01*
X120682994Y-75321404D02*
X120867906Y-75532732D01*
X120867906Y-75532732D02*
X120788658Y-75532732D01*
X120788658Y-75532732D02*
X120735826Y-75559148D01*
X120735826Y-75559148D02*
X120709410Y-75585564D01*
X120709410Y-75585564D02*
X120682994Y-75638396D01*
X120682994Y-75638396D02*
X120682994Y-75770476D01*
X120682994Y-75770476D02*
X120709410Y-75823308D01*
X120709410Y-75823308D02*
X120735826Y-75849724D01*
X120735826Y-75849724D02*
X120788658Y-75876140D01*
X120788658Y-75876140D02*
X120947154Y-75876140D01*
X120947154Y-75876140D02*
X120999986Y-75849724D01*
X120999986Y-75849724D02*
X121026402Y-75823308D01*
X135161834Y-84057299D02*
X135346746Y-83793139D01*
X135478826Y-84057299D02*
X135478826Y-83502563D01*
X135478826Y-83502563D02*
X135267498Y-83502563D01*
X135267498Y-83502563D02*
X135214666Y-83528979D01*
X135214666Y-83528979D02*
X135188250Y-83555395D01*
X135188250Y-83555395D02*
X135161834Y-83608227D01*
X135161834Y-83608227D02*
X135161834Y-83687475D01*
X135161834Y-83687475D02*
X135188250Y-83740307D01*
X135188250Y-83740307D02*
X135214666Y-83766723D01*
X135214666Y-83766723D02*
X135267498Y-83793139D01*
X135267498Y-83793139D02*
X135478826Y-83793139D01*
X134976922Y-83502563D02*
X134633514Y-83502563D01*
X134633514Y-83502563D02*
X134818426Y-83713891D01*
X134818426Y-83713891D02*
X134739178Y-83713891D01*
X134739178Y-83713891D02*
X134686346Y-83740307D01*
X134686346Y-83740307D02*
X134659930Y-83766723D01*
X134659930Y-83766723D02*
X134633514Y-83819555D01*
X134633514Y-83819555D02*
X134633514Y-83951635D01*
X134633514Y-83951635D02*
X134659930Y-84004467D01*
X134659930Y-84004467D02*
X134686346Y-84030883D01*
X134686346Y-84030883D02*
X134739178Y-84057299D01*
X134739178Y-84057299D02*
X134897674Y-84057299D01*
X134897674Y-84057299D02*
X134950506Y-84030883D01*
X134950506Y-84030883D02*
X134976922Y-84004467D01*
X134316522Y-83740307D02*
X134369354Y-83713891D01*
X134369354Y-83713891D02*
X134395770Y-83687475D01*
X134395770Y-83687475D02*
X134422186Y-83634643D01*
X134422186Y-83634643D02*
X134422186Y-83608227D01*
X134422186Y-83608227D02*
X134395770Y-83555395D01*
X134395770Y-83555395D02*
X134369354Y-83528979D01*
X134369354Y-83528979D02*
X134316522Y-83502563D01*
X134316522Y-83502563D02*
X134210858Y-83502563D01*
X134210858Y-83502563D02*
X134158026Y-83528979D01*
X134158026Y-83528979D02*
X134131610Y-83555395D01*
X134131610Y-83555395D02*
X134105194Y-83608227D01*
X134105194Y-83608227D02*
X134105194Y-83634643D01*
X134105194Y-83634643D02*
X134131610Y-83687475D01*
X134131610Y-83687475D02*
X134158026Y-83713891D01*
X134158026Y-83713891D02*
X134210858Y-83740307D01*
X134210858Y-83740307D02*
X134316522Y-83740307D01*
X134316522Y-83740307D02*
X134369354Y-83766723D01*
X134369354Y-83766723D02*
X134395770Y-83793139D01*
X134395770Y-83793139D02*
X134422186Y-83845971D01*
X134422186Y-83845971D02*
X134422186Y-83951635D01*
X134422186Y-83951635D02*
X134395770Y-84004467D01*
X134395770Y-84004467D02*
X134369354Y-84030883D01*
X134369354Y-84030883D02*
X134316522Y-84057299D01*
X134316522Y-84057299D02*
X134210858Y-84057299D01*
X134210858Y-84057299D02*
X134158026Y-84030883D01*
X134158026Y-84030883D02*
X134131610Y-84004467D01*
X134131610Y-84004467D02*
X134105194Y-83951635D01*
X134105194Y-83951635D02*
X134105194Y-83845971D01*
X134105194Y-83845971D02*
X134131610Y-83793139D01*
X134131610Y-83793139D02*
X134158026Y-83766723D01*
X134158026Y-83766723D02*
X134210858Y-83740307D01*
X123974834Y-107699426D02*
X124001250Y-107725842D01*
X124001250Y-107725842D02*
X124080498Y-107752258D01*
X124080498Y-107752258D02*
X124133330Y-107752258D01*
X124133330Y-107752258D02*
X124212578Y-107725842D01*
X124212578Y-107725842D02*
X124265410Y-107673010D01*
X124265410Y-107673010D02*
X124291826Y-107620178D01*
X124291826Y-107620178D02*
X124318242Y-107514514D01*
X124318242Y-107514514D02*
X124318242Y-107435266D01*
X124318242Y-107435266D02*
X124291826Y-107329602D01*
X124291826Y-107329602D02*
X124265410Y-107276770D01*
X124265410Y-107276770D02*
X124212578Y-107223938D01*
X124212578Y-107223938D02*
X124133330Y-107197522D01*
X124133330Y-107197522D02*
X124080498Y-107197522D01*
X124080498Y-107197522D02*
X124001250Y-107223938D01*
X124001250Y-107223938D02*
X123974834Y-107250354D01*
X123499346Y-107197522D02*
X123605010Y-107197522D01*
X123605010Y-107197522D02*
X123657842Y-107223938D01*
X123657842Y-107223938D02*
X123684258Y-107250354D01*
X123684258Y-107250354D02*
X123737090Y-107329602D01*
X123737090Y-107329602D02*
X123763506Y-107435266D01*
X123763506Y-107435266D02*
X123763506Y-107646594D01*
X123763506Y-107646594D02*
X123737090Y-107699426D01*
X123737090Y-107699426D02*
X123710674Y-107725842D01*
X123710674Y-107725842D02*
X123657842Y-107752258D01*
X123657842Y-107752258D02*
X123552178Y-107752258D01*
X123552178Y-107752258D02*
X123499346Y-107725842D01*
X123499346Y-107725842D02*
X123472930Y-107699426D01*
X123472930Y-107699426D02*
X123446514Y-107646594D01*
X123446514Y-107646594D02*
X123446514Y-107514514D01*
X123446514Y-107514514D02*
X123472930Y-107461682D01*
X123472930Y-107461682D02*
X123499346Y-107435266D01*
X123499346Y-107435266D02*
X123552178Y-107408850D01*
X123552178Y-107408850D02*
X123657842Y-107408850D01*
X123657842Y-107408850D02*
X123710674Y-107435266D01*
X123710674Y-107435266D02*
X123737090Y-107461682D01*
X123737090Y-107461682D02*
X123763506Y-107514514D01*
X122964522Y-62774404D02*
X122885274Y-62800820D01*
X122885274Y-62800820D02*
X122753194Y-62800820D01*
X122753194Y-62800820D02*
X122700362Y-62774404D01*
X122700362Y-62774404D02*
X122673946Y-62747988D01*
X122673946Y-62747988D02*
X122647530Y-62695156D01*
X122647530Y-62695156D02*
X122647530Y-62642324D01*
X122647530Y-62642324D02*
X122673946Y-62589492D01*
X122673946Y-62589492D02*
X122700362Y-62563076D01*
X122700362Y-62563076D02*
X122753194Y-62536660D01*
X122753194Y-62536660D02*
X122858858Y-62510244D01*
X122858858Y-62510244D02*
X122911690Y-62483828D01*
X122911690Y-62483828D02*
X122938106Y-62457412D01*
X122938106Y-62457412D02*
X122964522Y-62404580D01*
X122964522Y-62404580D02*
X122964522Y-62351748D01*
X122964522Y-62351748D02*
X122938106Y-62298916D01*
X122938106Y-62298916D02*
X122911690Y-62272500D01*
X122911690Y-62272500D02*
X122858858Y-62246084D01*
X122858858Y-62246084D02*
X122726778Y-62246084D01*
X122726778Y-62246084D02*
X122647530Y-62272500D01*
X122462618Y-62246084D02*
X122330538Y-62800820D01*
X122330538Y-62800820D02*
X122224874Y-62404580D01*
X122224874Y-62404580D02*
X122119210Y-62800820D01*
X122119210Y-62800820D02*
X121987130Y-62246084D01*
X121907882Y-62853652D02*
X121485226Y-62853652D01*
X121088986Y-62246084D02*
X121353146Y-62246084D01*
X121353146Y-62246084D02*
X121379562Y-62510244D01*
X121379562Y-62510244D02*
X121353146Y-62483828D01*
X121353146Y-62483828D02*
X121300314Y-62457412D01*
X121300314Y-62457412D02*
X121168234Y-62457412D01*
X121168234Y-62457412D02*
X121115402Y-62483828D01*
X121115402Y-62483828D02*
X121088986Y-62510244D01*
X121088986Y-62510244D02*
X121062570Y-62563076D01*
X121062570Y-62563076D02*
X121062570Y-62695156D01*
X121062570Y-62695156D02*
X121088986Y-62747988D01*
X121088986Y-62747988D02*
X121115402Y-62774404D01*
X121115402Y-62774404D02*
X121168234Y-62800820D01*
X121168234Y-62800820D02*
X121300314Y-62800820D01*
X121300314Y-62800820D02*
X121353146Y-62774404D01*
X121353146Y-62774404D02*
X121379562Y-62747988D01*
D12*
X133164834Y-58109495D02*
X133164834Y-57621815D01*
X133164834Y-57621815D02*
X133002274Y-57970158D01*
X133002274Y-57970158D02*
X132839714Y-57621815D01*
X132839714Y-57621815D02*
X132839714Y-58109495D01*
X132607485Y-58109495D02*
X132607485Y-57621815D01*
X132096582Y-58063050D02*
X132119805Y-58086273D01*
X132119805Y-58086273D02*
X132189473Y-58109495D01*
X132189473Y-58109495D02*
X132235919Y-58109495D01*
X132235919Y-58109495D02*
X132305588Y-58086273D01*
X132305588Y-58086273D02*
X132352033Y-58039827D01*
X132352033Y-58039827D02*
X132375256Y-57993381D01*
X132375256Y-57993381D02*
X132398479Y-57900490D01*
X132398479Y-57900490D02*
X132398479Y-57830821D01*
X132398479Y-57830821D02*
X132375256Y-57737930D01*
X132375256Y-57737930D02*
X132352033Y-57691484D01*
X132352033Y-57691484D02*
X132305588Y-57645038D01*
X132305588Y-57645038D02*
X132235919Y-57621815D01*
X132235919Y-57621815D02*
X132189473Y-57621815D01*
X132189473Y-57621815D02*
X132119805Y-57645038D01*
X132119805Y-57645038D02*
X132096582Y-57668261D01*
X131632125Y-58109495D02*
X131910799Y-58109495D01*
X131771462Y-58109495D02*
X131771462Y-57621815D01*
X131771462Y-57621815D02*
X131817908Y-57691484D01*
X131817908Y-57691484D02*
X131864353Y-57737930D01*
X131864353Y-57737930D02*
X131910799Y-57761153D01*
D10*
X119700909Y-64009065D02*
X119727325Y-64088313D01*
X119727325Y-64088313D02*
X119727325Y-64220393D01*
X119727325Y-64220393D02*
X119700909Y-64273225D01*
X119700909Y-64273225D02*
X119674493Y-64299641D01*
X119674493Y-64299641D02*
X119621661Y-64326057D01*
X119621661Y-64326057D02*
X119568829Y-64326057D01*
X119568829Y-64326057D02*
X119515997Y-64299641D01*
X119515997Y-64299641D02*
X119489581Y-64273225D01*
X119489581Y-64273225D02*
X119463165Y-64220393D01*
X119463165Y-64220393D02*
X119436749Y-64114729D01*
X119436749Y-64114729D02*
X119410333Y-64061897D01*
X119410333Y-64061897D02*
X119383917Y-64035481D01*
X119383917Y-64035481D02*
X119331085Y-64009065D01*
X119331085Y-64009065D02*
X119278253Y-64009065D01*
X119278253Y-64009065D02*
X119225421Y-64035481D01*
X119225421Y-64035481D02*
X119199005Y-64061897D01*
X119199005Y-64061897D02*
X119172589Y-64114729D01*
X119172589Y-64114729D02*
X119172589Y-64246809D01*
X119172589Y-64246809D02*
X119199005Y-64326057D01*
X119172589Y-64510969D02*
X119727325Y-64643049D01*
X119727325Y-64643049D02*
X119331085Y-64748713D01*
X119331085Y-64748713D02*
X119727325Y-64854377D01*
X119727325Y-64854377D02*
X119172589Y-64986457D01*
X119780157Y-65065705D02*
X119780157Y-65488361D01*
X119172589Y-65567609D02*
X119172589Y-65937433D01*
X119172589Y-65937433D02*
X119727325Y-65699689D01*
X137110824Y-98645899D02*
X137295736Y-98381739D01*
X137427816Y-98645899D02*
X137427816Y-98091163D01*
X137427816Y-98091163D02*
X137216488Y-98091163D01*
X137216488Y-98091163D02*
X137163656Y-98117579D01*
X137163656Y-98117579D02*
X137137240Y-98143995D01*
X137137240Y-98143995D02*
X137110824Y-98196827D01*
X137110824Y-98196827D02*
X137110824Y-98276075D01*
X137110824Y-98276075D02*
X137137240Y-98328907D01*
X137137240Y-98328907D02*
X137163656Y-98355323D01*
X137163656Y-98355323D02*
X137216488Y-98381739D01*
X137216488Y-98381739D02*
X137427816Y-98381739D01*
X136899496Y-98143995D02*
X136873080Y-98117579D01*
X136873080Y-98117579D02*
X136820248Y-98091163D01*
X136820248Y-98091163D02*
X136688168Y-98091163D01*
X136688168Y-98091163D02*
X136635336Y-98117579D01*
X136635336Y-98117579D02*
X136608920Y-98143995D01*
X136608920Y-98143995D02*
X136582504Y-98196827D01*
X136582504Y-98196827D02*
X136582504Y-98249659D01*
X136582504Y-98249659D02*
X136608920Y-98328907D01*
X136608920Y-98328907D02*
X136925912Y-98645899D01*
X136925912Y-98645899D02*
X136582504Y-98645899D01*
X120977604Y-104681043D02*
X120713444Y-104496131D01*
X120977604Y-104364051D02*
X120422868Y-104364051D01*
X120422868Y-104364051D02*
X120422868Y-104575379D01*
X120422868Y-104575379D02*
X120449284Y-104628211D01*
X120449284Y-104628211D02*
X120475700Y-104654627D01*
X120475700Y-104654627D02*
X120528532Y-104681043D01*
X120528532Y-104681043D02*
X120607780Y-104681043D01*
X120607780Y-104681043D02*
X120660612Y-104654627D01*
X120660612Y-104654627D02*
X120687028Y-104628211D01*
X120687028Y-104628211D02*
X120713444Y-104575379D01*
X120713444Y-104575379D02*
X120713444Y-104364051D01*
X120977604Y-105209363D02*
X120977604Y-104892371D01*
X120977604Y-105050867D02*
X120422868Y-105050867D01*
X120422868Y-105050867D02*
X120502116Y-104998035D01*
X120502116Y-104998035D02*
X120554948Y-104945203D01*
X120554948Y-104945203D02*
X120581364Y-104892371D01*
X120977604Y-105737683D02*
X120977604Y-105420691D01*
X120977604Y-105579187D02*
X120422868Y-105579187D01*
X120422868Y-105579187D02*
X120502116Y-105526355D01*
X120502116Y-105526355D02*
X120554948Y-105473523D01*
X120554948Y-105473523D02*
X120581364Y-105420691D01*
X144963258Y-108397522D02*
X144699098Y-108212610D01*
X144963258Y-108080530D02*
X144408522Y-108080530D01*
X144408522Y-108080530D02*
X144408522Y-108291858D01*
X144408522Y-108291858D02*
X144434938Y-108344690D01*
X144434938Y-108344690D02*
X144461354Y-108371106D01*
X144461354Y-108371106D02*
X144514186Y-108397522D01*
X144514186Y-108397522D02*
X144593434Y-108397522D01*
X144593434Y-108397522D02*
X144646266Y-108371106D01*
X144646266Y-108371106D02*
X144672682Y-108344690D01*
X144672682Y-108344690D02*
X144699098Y-108291858D01*
X144699098Y-108291858D02*
X144699098Y-108080530D01*
X144646266Y-108714514D02*
X144619850Y-108661682D01*
X144619850Y-108661682D02*
X144593434Y-108635266D01*
X144593434Y-108635266D02*
X144540602Y-108608850D01*
X144540602Y-108608850D02*
X144514186Y-108608850D01*
X144514186Y-108608850D02*
X144461354Y-108635266D01*
X144461354Y-108635266D02*
X144434938Y-108661682D01*
X144434938Y-108661682D02*
X144408522Y-108714514D01*
X144408522Y-108714514D02*
X144408522Y-108820178D01*
X144408522Y-108820178D02*
X144434938Y-108873010D01*
X144434938Y-108873010D02*
X144461354Y-108899426D01*
X144461354Y-108899426D02*
X144514186Y-108925842D01*
X144514186Y-108925842D02*
X144540602Y-108925842D01*
X144540602Y-108925842D02*
X144593434Y-108899426D01*
X144593434Y-108899426D02*
X144619850Y-108873010D01*
X144619850Y-108873010D02*
X144646266Y-108820178D01*
X144646266Y-108820178D02*
X144646266Y-108714514D01*
X144646266Y-108714514D02*
X144672682Y-108661682D01*
X144672682Y-108661682D02*
X144699098Y-108635266D01*
X144699098Y-108635266D02*
X144751930Y-108608850D01*
X144751930Y-108608850D02*
X144857594Y-108608850D01*
X144857594Y-108608850D02*
X144910426Y-108635266D01*
X144910426Y-108635266D02*
X144936842Y-108661682D01*
X144936842Y-108661682D02*
X144963258Y-108714514D01*
X144963258Y-108714514D02*
X144963258Y-108820178D01*
X144963258Y-108820178D02*
X144936842Y-108873010D01*
X144936842Y-108873010D02*
X144910426Y-108899426D01*
X144910426Y-108899426D02*
X144857594Y-108925842D01*
X144857594Y-108925842D02*
X144751930Y-108925842D01*
X144751930Y-108925842D02*
X144699098Y-108899426D01*
X144699098Y-108899426D02*
X144672682Y-108873010D01*
X144672682Y-108873010D02*
X144646266Y-108820178D01*
X123015322Y-57288004D02*
X122936074Y-57314420D01*
X122936074Y-57314420D02*
X122803994Y-57314420D01*
X122803994Y-57314420D02*
X122751162Y-57288004D01*
X122751162Y-57288004D02*
X122724746Y-57261588D01*
X122724746Y-57261588D02*
X122698330Y-57208756D01*
X122698330Y-57208756D02*
X122698330Y-57155924D01*
X122698330Y-57155924D02*
X122724746Y-57103092D01*
X122724746Y-57103092D02*
X122751162Y-57076676D01*
X122751162Y-57076676D02*
X122803994Y-57050260D01*
X122803994Y-57050260D02*
X122909658Y-57023844D01*
X122909658Y-57023844D02*
X122962490Y-56997428D01*
X122962490Y-56997428D02*
X122988906Y-56971012D01*
X122988906Y-56971012D02*
X123015322Y-56918180D01*
X123015322Y-56918180D02*
X123015322Y-56865348D01*
X123015322Y-56865348D02*
X122988906Y-56812516D01*
X122988906Y-56812516D02*
X122962490Y-56786100D01*
X122962490Y-56786100D02*
X122909658Y-56759684D01*
X122909658Y-56759684D02*
X122777578Y-56759684D01*
X122777578Y-56759684D02*
X122698330Y-56786100D01*
X122513418Y-56759684D02*
X122381338Y-57314420D01*
X122381338Y-57314420D02*
X122275674Y-56918180D01*
X122275674Y-56918180D02*
X122170010Y-57314420D01*
X122170010Y-57314420D02*
X122037930Y-56759684D01*
X121958682Y-57367252D02*
X121536026Y-57367252D01*
X121377530Y-57314420D02*
X121271866Y-57314420D01*
X121271866Y-57314420D02*
X121219034Y-57288004D01*
X121219034Y-57288004D02*
X121192618Y-57261588D01*
X121192618Y-57261588D02*
X121139786Y-57182340D01*
X121139786Y-57182340D02*
X121113370Y-57076676D01*
X121113370Y-57076676D02*
X121113370Y-56865348D01*
X121113370Y-56865348D02*
X121139786Y-56812516D01*
X121139786Y-56812516D02*
X121166202Y-56786100D01*
X121166202Y-56786100D02*
X121219034Y-56759684D01*
X121219034Y-56759684D02*
X121324698Y-56759684D01*
X121324698Y-56759684D02*
X121377530Y-56786100D01*
X121377530Y-56786100D02*
X121403946Y-56812516D01*
X121403946Y-56812516D02*
X121430362Y-56865348D01*
X121430362Y-56865348D02*
X121430362Y-56997428D01*
X121430362Y-56997428D02*
X121403946Y-57050260D01*
X121403946Y-57050260D02*
X121377530Y-57076676D01*
X121377530Y-57076676D02*
X121324698Y-57103092D01*
X121324698Y-57103092D02*
X121219034Y-57103092D01*
X121219034Y-57103092D02*
X121166202Y-57076676D01*
X121166202Y-57076676D02*
X121139786Y-57050260D01*
X121139786Y-57050260D02*
X121113370Y-56997428D01*
X135544078Y-96906458D02*
X135728990Y-96642298D01*
X135861070Y-96906458D02*
X135861070Y-96351722D01*
X135861070Y-96351722D02*
X135649742Y-96351722D01*
X135649742Y-96351722D02*
X135596910Y-96378138D01*
X135596910Y-96378138D02*
X135570494Y-96404554D01*
X135570494Y-96404554D02*
X135544078Y-96457386D01*
X135544078Y-96457386D02*
X135544078Y-96536634D01*
X135544078Y-96536634D02*
X135570494Y-96589466D01*
X135570494Y-96589466D02*
X135596910Y-96615882D01*
X135596910Y-96615882D02*
X135649742Y-96642298D01*
X135649742Y-96642298D02*
X135861070Y-96642298D01*
X135359166Y-96351722D02*
X134989342Y-96351722D01*
X134989342Y-96351722D02*
X135227086Y-96906458D01*
X134134834Y-98684458D02*
X134319746Y-98420298D01*
X134451826Y-98684458D02*
X134451826Y-98129722D01*
X134451826Y-98129722D02*
X134240498Y-98129722D01*
X134240498Y-98129722D02*
X134187666Y-98156138D01*
X134187666Y-98156138D02*
X134161250Y-98182554D01*
X134161250Y-98182554D02*
X134134834Y-98235386D01*
X134134834Y-98235386D02*
X134134834Y-98314634D01*
X134134834Y-98314634D02*
X134161250Y-98367466D01*
X134161250Y-98367466D02*
X134187666Y-98393882D01*
X134187666Y-98393882D02*
X134240498Y-98420298D01*
X134240498Y-98420298D02*
X134451826Y-98420298D01*
X133606514Y-98684458D02*
X133923506Y-98684458D01*
X133765010Y-98684458D02*
X133765010Y-98129722D01*
X133765010Y-98129722D02*
X133817842Y-98208970D01*
X133817842Y-98208970D02*
X133870674Y-98261802D01*
X133870674Y-98261802D02*
X133923506Y-98288218D01*
X133395186Y-98182554D02*
X133368770Y-98156138D01*
X133368770Y-98156138D02*
X133315938Y-98129722D01*
X133315938Y-98129722D02*
X133183858Y-98129722D01*
X133183858Y-98129722D02*
X133131026Y-98156138D01*
X133131026Y-98156138D02*
X133104610Y-98182554D01*
X133104610Y-98182554D02*
X133078194Y-98235386D01*
X133078194Y-98235386D02*
X133078194Y-98288218D01*
X133078194Y-98288218D02*
X133104610Y-98367466D01*
X133104610Y-98367466D02*
X133421602Y-98684458D01*
X133421602Y-98684458D02*
X133078194Y-98684458D01*
X135688424Y-91838699D02*
X135873336Y-91574539D01*
X136005416Y-91838699D02*
X136005416Y-91283963D01*
X136005416Y-91283963D02*
X135794088Y-91283963D01*
X135794088Y-91283963D02*
X135741256Y-91310379D01*
X135741256Y-91310379D02*
X135714840Y-91336795D01*
X135714840Y-91336795D02*
X135688424Y-91389627D01*
X135688424Y-91389627D02*
X135688424Y-91468875D01*
X135688424Y-91468875D02*
X135714840Y-91521707D01*
X135714840Y-91521707D02*
X135741256Y-91548123D01*
X135741256Y-91548123D02*
X135794088Y-91574539D01*
X135794088Y-91574539D02*
X136005416Y-91574539D01*
X135424264Y-91838699D02*
X135318600Y-91838699D01*
X135318600Y-91838699D02*
X135265768Y-91812283D01*
X135265768Y-91812283D02*
X135239352Y-91785867D01*
X135239352Y-91785867D02*
X135186520Y-91706619D01*
X135186520Y-91706619D02*
X135160104Y-91600955D01*
X135160104Y-91600955D02*
X135160104Y-91389627D01*
X135160104Y-91389627D02*
X135186520Y-91336795D01*
X135186520Y-91336795D02*
X135212936Y-91310379D01*
X135212936Y-91310379D02*
X135265768Y-91283963D01*
X135265768Y-91283963D02*
X135371432Y-91283963D01*
X135371432Y-91283963D02*
X135424264Y-91310379D01*
X135424264Y-91310379D02*
X135450680Y-91336795D01*
X135450680Y-91336795D02*
X135477096Y-91389627D01*
X135477096Y-91389627D02*
X135477096Y-91521707D01*
X135477096Y-91521707D02*
X135450680Y-91574539D01*
X135450680Y-91574539D02*
X135424264Y-91600955D01*
X135424264Y-91600955D02*
X135371432Y-91627371D01*
X135371432Y-91627371D02*
X135265768Y-91627371D01*
X135265768Y-91627371D02*
X135212936Y-91600955D01*
X135212936Y-91600955D02*
X135186520Y-91574539D01*
X135186520Y-91574539D02*
X135160104Y-91521707D01*
X135605972Y-65971443D02*
X135632388Y-65945027D01*
X135632388Y-65945027D02*
X135658804Y-65865779D01*
X135658804Y-65865779D02*
X135658804Y-65812947D01*
X135658804Y-65812947D02*
X135632388Y-65733699D01*
X135632388Y-65733699D02*
X135579556Y-65680867D01*
X135579556Y-65680867D02*
X135526724Y-65654451D01*
X135526724Y-65654451D02*
X135421060Y-65628035D01*
X135421060Y-65628035D02*
X135341812Y-65628035D01*
X135341812Y-65628035D02*
X135236148Y-65654451D01*
X135236148Y-65654451D02*
X135183316Y-65680867D01*
X135183316Y-65680867D02*
X135130484Y-65733699D01*
X135130484Y-65733699D02*
X135104068Y-65812947D01*
X135104068Y-65812947D02*
X135104068Y-65865779D01*
X135104068Y-65865779D02*
X135130484Y-65945027D01*
X135130484Y-65945027D02*
X135156900Y-65971443D01*
X135156900Y-66182771D02*
X135130484Y-66209187D01*
X135130484Y-66209187D02*
X135104068Y-66262019D01*
X135104068Y-66262019D02*
X135104068Y-66394099D01*
X135104068Y-66394099D02*
X135130484Y-66446931D01*
X135130484Y-66446931D02*
X135156900Y-66473347D01*
X135156900Y-66473347D02*
X135209732Y-66499763D01*
X135209732Y-66499763D02*
X135262564Y-66499763D01*
X135262564Y-66499763D02*
X135341812Y-66473347D01*
X135341812Y-66473347D02*
X135658804Y-66156355D01*
X135658804Y-66156355D02*
X135658804Y-66499763D01*
X135104068Y-66843171D02*
X135104068Y-66896003D01*
X135104068Y-66896003D02*
X135130484Y-66948835D01*
X135130484Y-66948835D02*
X135156900Y-66975251D01*
X135156900Y-66975251D02*
X135209732Y-67001667D01*
X135209732Y-67001667D02*
X135315396Y-67028083D01*
X135315396Y-67028083D02*
X135447476Y-67028083D01*
X135447476Y-67028083D02*
X135553140Y-67001667D01*
X135553140Y-67001667D02*
X135605972Y-66975251D01*
X135605972Y-66975251D02*
X135632388Y-66948835D01*
X135632388Y-66948835D02*
X135658804Y-66896003D01*
X135658804Y-66896003D02*
X135658804Y-66843171D01*
X135658804Y-66843171D02*
X135632388Y-66790339D01*
X135632388Y-66790339D02*
X135605972Y-66763923D01*
X135605972Y-66763923D02*
X135553140Y-66737507D01*
X135553140Y-66737507D02*
X135447476Y-66711091D01*
X135447476Y-66711091D02*
X135315396Y-66711091D01*
X135315396Y-66711091D02*
X135209732Y-66737507D01*
X135209732Y-66737507D02*
X135156900Y-66763923D01*
X135156900Y-66763923D02*
X135130484Y-66790339D01*
X135130484Y-66790339D02*
X135104068Y-66843171D01*
X119700909Y-52934665D02*
X119727325Y-53013913D01*
X119727325Y-53013913D02*
X119727325Y-53145993D01*
X119727325Y-53145993D02*
X119700909Y-53198825D01*
X119700909Y-53198825D02*
X119674493Y-53225241D01*
X119674493Y-53225241D02*
X119621661Y-53251657D01*
X119621661Y-53251657D02*
X119568829Y-53251657D01*
X119568829Y-53251657D02*
X119515997Y-53225241D01*
X119515997Y-53225241D02*
X119489581Y-53198825D01*
X119489581Y-53198825D02*
X119463165Y-53145993D01*
X119463165Y-53145993D02*
X119436749Y-53040329D01*
X119436749Y-53040329D02*
X119410333Y-52987497D01*
X119410333Y-52987497D02*
X119383917Y-52961081D01*
X119383917Y-52961081D02*
X119331085Y-52934665D01*
X119331085Y-52934665D02*
X119278253Y-52934665D01*
X119278253Y-52934665D02*
X119225421Y-52961081D01*
X119225421Y-52961081D02*
X119199005Y-52987497D01*
X119199005Y-52987497D02*
X119172589Y-53040329D01*
X119172589Y-53040329D02*
X119172589Y-53172409D01*
X119172589Y-53172409D02*
X119199005Y-53251657D01*
X119172589Y-53436569D02*
X119727325Y-53568649D01*
X119727325Y-53568649D02*
X119331085Y-53674313D01*
X119331085Y-53674313D02*
X119727325Y-53779977D01*
X119727325Y-53779977D02*
X119172589Y-53912057D01*
X119780157Y-53991305D02*
X119780157Y-54413961D01*
X119172589Y-54493209D02*
X119172589Y-54836617D01*
X119172589Y-54836617D02*
X119383917Y-54651705D01*
X119383917Y-54651705D02*
X119383917Y-54730953D01*
X119383917Y-54730953D02*
X119410333Y-54783785D01*
X119410333Y-54783785D02*
X119436749Y-54810201D01*
X119436749Y-54810201D02*
X119489581Y-54836617D01*
X119489581Y-54836617D02*
X119621661Y-54836617D01*
X119621661Y-54836617D02*
X119674493Y-54810201D01*
X119674493Y-54810201D02*
X119700909Y-54783785D01*
X119700909Y-54783785D02*
X119727325Y-54730953D01*
X119727325Y-54730953D02*
X119727325Y-54572457D01*
X119727325Y-54572457D02*
X119700909Y-54519625D01*
X119700909Y-54519625D02*
X119674493Y-54493209D01*
X139384632Y-94839963D02*
X139384632Y-95289035D01*
X139384632Y-95289035D02*
X139358216Y-95341867D01*
X139358216Y-95341867D02*
X139331800Y-95368283D01*
X139331800Y-95368283D02*
X139278968Y-95394699D01*
X139278968Y-95394699D02*
X139173304Y-95394699D01*
X139173304Y-95394699D02*
X139120472Y-95368283D01*
X139120472Y-95368283D02*
X139094056Y-95341867D01*
X139094056Y-95341867D02*
X139067640Y-95289035D01*
X139067640Y-95289035D02*
X139067640Y-94839963D01*
X138512904Y-95394699D02*
X138829896Y-95394699D01*
X138671400Y-95394699D02*
X138671400Y-94839963D01*
X138671400Y-94839963D02*
X138724232Y-94919211D01*
X138724232Y-94919211D02*
X138777064Y-94972043D01*
X138777064Y-94972043D02*
X138829896Y-94998459D01*
X124026194Y-112341022D02*
X124026194Y-112737262D01*
X124026194Y-112737262D02*
X124052610Y-112816510D01*
X124052610Y-112816510D02*
X124105442Y-112869342D01*
X124105442Y-112869342D02*
X124184690Y-112895758D01*
X124184690Y-112895758D02*
X124237522Y-112895758D01*
X123497874Y-112341022D02*
X123762034Y-112341022D01*
X123762034Y-112341022D02*
X123788450Y-112605182D01*
X123788450Y-112605182D02*
X123762034Y-112578766D01*
X123762034Y-112578766D02*
X123709202Y-112552350D01*
X123709202Y-112552350D02*
X123577122Y-112552350D01*
X123577122Y-112552350D02*
X123524290Y-112578766D01*
X123524290Y-112578766D02*
X123497874Y-112605182D01*
X123497874Y-112605182D02*
X123471458Y-112658014D01*
X123471458Y-112658014D02*
X123471458Y-112790094D01*
X123471458Y-112790094D02*
X123497874Y-112842926D01*
X123497874Y-112842926D02*
X123524290Y-112869342D01*
X123524290Y-112869342D02*
X123577122Y-112895758D01*
X123577122Y-112895758D02*
X123709202Y-112895758D01*
X123709202Y-112895758D02*
X123762034Y-112869342D01*
X123762034Y-112869342D02*
X123788450Y-112842926D01*
X121950481Y-92787010D02*
X121976897Y-92813426D01*
X121976897Y-92813426D02*
X122056145Y-92839842D01*
X122056145Y-92839842D02*
X122108977Y-92839842D01*
X122108977Y-92839842D02*
X122188225Y-92813426D01*
X122188225Y-92813426D02*
X122241057Y-92760594D01*
X122241057Y-92760594D02*
X122267473Y-92707762D01*
X122267473Y-92707762D02*
X122293889Y-92602098D01*
X122293889Y-92602098D02*
X122293889Y-92522850D01*
X122293889Y-92522850D02*
X122267473Y-92417186D01*
X122267473Y-92417186D02*
X122241057Y-92364354D01*
X122241057Y-92364354D02*
X122188225Y-92311522D01*
X122188225Y-92311522D02*
X122108977Y-92285106D01*
X122108977Y-92285106D02*
X122056145Y-92285106D01*
X122056145Y-92285106D02*
X121976897Y-92311522D01*
X121976897Y-92311522D02*
X121950481Y-92337938D01*
X121765569Y-92285106D02*
X121422161Y-92285106D01*
X121422161Y-92285106D02*
X121607073Y-92496434D01*
X121607073Y-92496434D02*
X121527825Y-92496434D01*
X121527825Y-92496434D02*
X121474993Y-92522850D01*
X121474993Y-92522850D02*
X121448577Y-92549266D01*
X121448577Y-92549266D02*
X121422161Y-92602098D01*
X121422161Y-92602098D02*
X121422161Y-92734178D01*
X121422161Y-92734178D02*
X121448577Y-92787010D01*
X121448577Y-92787010D02*
X121474993Y-92813426D01*
X121474993Y-92813426D02*
X121527825Y-92839842D01*
X121527825Y-92839842D02*
X121686321Y-92839842D01*
X121686321Y-92839842D02*
X121739153Y-92813426D01*
X121739153Y-92813426D02*
X121765569Y-92787010D01*
X137283544Y-64099867D02*
X137309960Y-64126283D01*
X137309960Y-64126283D02*
X137389208Y-64152699D01*
X137389208Y-64152699D02*
X137442040Y-64152699D01*
X137442040Y-64152699D02*
X137521288Y-64126283D01*
X137521288Y-64126283D02*
X137574120Y-64073451D01*
X137574120Y-64073451D02*
X137600536Y-64020619D01*
X137600536Y-64020619D02*
X137626952Y-63914955D01*
X137626952Y-63914955D02*
X137626952Y-63835707D01*
X137626952Y-63835707D02*
X137600536Y-63730043D01*
X137600536Y-63730043D02*
X137574120Y-63677211D01*
X137574120Y-63677211D02*
X137521288Y-63624379D01*
X137521288Y-63624379D02*
X137442040Y-63597963D01*
X137442040Y-63597963D02*
X137389208Y-63597963D01*
X137389208Y-63597963D02*
X137309960Y-63624379D01*
X137309960Y-63624379D02*
X137283544Y-63650795D01*
X136755224Y-64152699D02*
X137072216Y-64152699D01*
X136913720Y-64152699D02*
X136913720Y-63597963D01*
X136913720Y-63597963D02*
X136966552Y-63677211D01*
X136966552Y-63677211D02*
X137019384Y-63730043D01*
X137019384Y-63730043D02*
X137072216Y-63756459D01*
X136253320Y-63597963D02*
X136517480Y-63597963D01*
X136517480Y-63597963D02*
X136543896Y-63862123D01*
X136543896Y-63862123D02*
X136517480Y-63835707D01*
X136517480Y-63835707D02*
X136464648Y-63809291D01*
X136464648Y-63809291D02*
X136332568Y-63809291D01*
X136332568Y-63809291D02*
X136279736Y-63835707D01*
X136279736Y-63835707D02*
X136253320Y-63862123D01*
X136253320Y-63862123D02*
X136226904Y-63914955D01*
X136226904Y-63914955D02*
X136226904Y-64047035D01*
X136226904Y-64047035D02*
X136253320Y-64099867D01*
X136253320Y-64099867D02*
X136279736Y-64126283D01*
X136279736Y-64126283D02*
X136332568Y-64152699D01*
X136332568Y-64152699D02*
X136464648Y-64152699D01*
X136464648Y-64152699D02*
X136517480Y-64126283D01*
X136517480Y-64126283D02*
X136543896Y-64099867D01*
X134888780Y-110228299D02*
X135073692Y-109964139D01*
X135205772Y-110228299D02*
X135205772Y-109673563D01*
X135205772Y-109673563D02*
X134994444Y-109673563D01*
X134994444Y-109673563D02*
X134941612Y-109699979D01*
X134941612Y-109699979D02*
X134915196Y-109726395D01*
X134915196Y-109726395D02*
X134888780Y-109779227D01*
X134888780Y-109779227D02*
X134888780Y-109858475D01*
X134888780Y-109858475D02*
X134915196Y-109911307D01*
X134915196Y-109911307D02*
X134941612Y-109937723D01*
X134941612Y-109937723D02*
X134994444Y-109964139D01*
X134994444Y-109964139D02*
X135205772Y-109964139D01*
X134413292Y-109673563D02*
X134518956Y-109673563D01*
X134518956Y-109673563D02*
X134571788Y-109699979D01*
X134571788Y-109699979D02*
X134598204Y-109726395D01*
X134598204Y-109726395D02*
X134651036Y-109805643D01*
X134651036Y-109805643D02*
X134677452Y-109911307D01*
X134677452Y-109911307D02*
X134677452Y-110122635D01*
X134677452Y-110122635D02*
X134651036Y-110175467D01*
X134651036Y-110175467D02*
X134624620Y-110201883D01*
X134624620Y-110201883D02*
X134571788Y-110228299D01*
X134571788Y-110228299D02*
X134466124Y-110228299D01*
X134466124Y-110228299D02*
X134413292Y-110201883D01*
X134413292Y-110201883D02*
X134386876Y-110175467D01*
X134386876Y-110175467D02*
X134360460Y-110122635D01*
X134360460Y-110122635D02*
X134360460Y-109990555D01*
X134360460Y-109990555D02*
X134386876Y-109937723D01*
X134386876Y-109937723D02*
X134413292Y-109911307D01*
X134413292Y-109911307D02*
X134466124Y-109884891D01*
X134466124Y-109884891D02*
X134571788Y-109884891D01*
X134571788Y-109884891D02*
X134624620Y-109911307D01*
X134624620Y-109911307D02*
X134651036Y-109937723D01*
X134651036Y-109937723D02*
X134677452Y-109990555D01*
X111572909Y-58624265D02*
X111599325Y-58703513D01*
X111599325Y-58703513D02*
X111599325Y-58835593D01*
X111599325Y-58835593D02*
X111572909Y-58888425D01*
X111572909Y-58888425D02*
X111546493Y-58914841D01*
X111546493Y-58914841D02*
X111493661Y-58941257D01*
X111493661Y-58941257D02*
X111440829Y-58941257D01*
X111440829Y-58941257D02*
X111387997Y-58914841D01*
X111387997Y-58914841D02*
X111361581Y-58888425D01*
X111361581Y-58888425D02*
X111335165Y-58835593D01*
X111335165Y-58835593D02*
X111308749Y-58729929D01*
X111308749Y-58729929D02*
X111282333Y-58677097D01*
X111282333Y-58677097D02*
X111255917Y-58650681D01*
X111255917Y-58650681D02*
X111203085Y-58624265D01*
X111203085Y-58624265D02*
X111150253Y-58624265D01*
X111150253Y-58624265D02*
X111097421Y-58650681D01*
X111097421Y-58650681D02*
X111071005Y-58677097D01*
X111071005Y-58677097D02*
X111044589Y-58729929D01*
X111044589Y-58729929D02*
X111044589Y-58862009D01*
X111044589Y-58862009D02*
X111071005Y-58941257D01*
X111044589Y-59126169D02*
X111599325Y-59258249D01*
X111599325Y-59258249D02*
X111203085Y-59363913D01*
X111203085Y-59363913D02*
X111599325Y-59469577D01*
X111599325Y-59469577D02*
X111044589Y-59601657D01*
X111652157Y-59680905D02*
X111652157Y-60103561D01*
X111097421Y-60209225D02*
X111071005Y-60235641D01*
X111071005Y-60235641D02*
X111044589Y-60288473D01*
X111044589Y-60288473D02*
X111044589Y-60420553D01*
X111044589Y-60420553D02*
X111071005Y-60473385D01*
X111071005Y-60473385D02*
X111097421Y-60499801D01*
X111097421Y-60499801D02*
X111150253Y-60526217D01*
X111150253Y-60526217D02*
X111203085Y-60526217D01*
X111203085Y-60526217D02*
X111282333Y-60499801D01*
X111282333Y-60499801D02*
X111599325Y-60182809D01*
X111599325Y-60182809D02*
X111599325Y-60526217D01*
X111572909Y-64085265D02*
X111599325Y-64164513D01*
X111599325Y-64164513D02*
X111599325Y-64296593D01*
X111599325Y-64296593D02*
X111572909Y-64349425D01*
X111572909Y-64349425D02*
X111546493Y-64375841D01*
X111546493Y-64375841D02*
X111493661Y-64402257D01*
X111493661Y-64402257D02*
X111440829Y-64402257D01*
X111440829Y-64402257D02*
X111387997Y-64375841D01*
X111387997Y-64375841D02*
X111361581Y-64349425D01*
X111361581Y-64349425D02*
X111335165Y-64296593D01*
X111335165Y-64296593D02*
X111308749Y-64190929D01*
X111308749Y-64190929D02*
X111282333Y-64138097D01*
X111282333Y-64138097D02*
X111255917Y-64111681D01*
X111255917Y-64111681D02*
X111203085Y-64085265D01*
X111203085Y-64085265D02*
X111150253Y-64085265D01*
X111150253Y-64085265D02*
X111097421Y-64111681D01*
X111097421Y-64111681D02*
X111071005Y-64138097D01*
X111071005Y-64138097D02*
X111044589Y-64190929D01*
X111044589Y-64190929D02*
X111044589Y-64323009D01*
X111044589Y-64323009D02*
X111071005Y-64402257D01*
X111044589Y-64587169D02*
X111599325Y-64719249D01*
X111599325Y-64719249D02*
X111203085Y-64824913D01*
X111203085Y-64824913D02*
X111599325Y-64930577D01*
X111599325Y-64930577D02*
X111044589Y-65062657D01*
X111652157Y-65141905D02*
X111652157Y-65564561D01*
X111044589Y-65934385D02*
X111044589Y-65828721D01*
X111044589Y-65828721D02*
X111071005Y-65775889D01*
X111071005Y-65775889D02*
X111097421Y-65749473D01*
X111097421Y-65749473D02*
X111176669Y-65696641D01*
X111176669Y-65696641D02*
X111282333Y-65670225D01*
X111282333Y-65670225D02*
X111493661Y-65670225D01*
X111493661Y-65670225D02*
X111546493Y-65696641D01*
X111546493Y-65696641D02*
X111572909Y-65723057D01*
X111572909Y-65723057D02*
X111599325Y-65775889D01*
X111599325Y-65775889D02*
X111599325Y-65881553D01*
X111599325Y-65881553D02*
X111572909Y-65934385D01*
X111572909Y-65934385D02*
X111546493Y-65960801D01*
X111546493Y-65960801D02*
X111493661Y-65987217D01*
X111493661Y-65987217D02*
X111361581Y-65987217D01*
X111361581Y-65987217D02*
X111308749Y-65960801D01*
X111308749Y-65960801D02*
X111282333Y-65934385D01*
X111282333Y-65934385D02*
X111255917Y-65881553D01*
X111255917Y-65881553D02*
X111255917Y-65775889D01*
X111255917Y-65775889D02*
X111282333Y-65723057D01*
X111282333Y-65723057D02*
X111308749Y-65696641D01*
X111308749Y-65696641D02*
X111361581Y-65670225D01*
X87357712Y-68431443D02*
X87357712Y-68827683D01*
X87357712Y-68827683D02*
X87384128Y-68906931D01*
X87384128Y-68906931D02*
X87436960Y-68959763D01*
X87436960Y-68959763D02*
X87516208Y-68986179D01*
X87516208Y-68986179D02*
X87569040Y-68986179D01*
X86855808Y-68431443D02*
X86961472Y-68431443D01*
X86961472Y-68431443D02*
X87014304Y-68457859D01*
X87014304Y-68457859D02*
X87040720Y-68484275D01*
X87040720Y-68484275D02*
X87093552Y-68563523D01*
X87093552Y-68563523D02*
X87119968Y-68669187D01*
X87119968Y-68669187D02*
X87119968Y-68880515D01*
X87119968Y-68880515D02*
X87093552Y-68933347D01*
X87093552Y-68933347D02*
X87067136Y-68959763D01*
X87067136Y-68959763D02*
X87014304Y-68986179D01*
X87014304Y-68986179D02*
X86908640Y-68986179D01*
X86908640Y-68986179D02*
X86855808Y-68959763D01*
X86855808Y-68959763D02*
X86829392Y-68933347D01*
X86829392Y-68933347D02*
X86802976Y-68880515D01*
X86802976Y-68880515D02*
X86802976Y-68748435D01*
X86802976Y-68748435D02*
X86829392Y-68695603D01*
X86829392Y-68695603D02*
X86855808Y-68669187D01*
X86855808Y-68669187D02*
X86908640Y-68642771D01*
X86908640Y-68642771D02*
X87014304Y-68642771D01*
X87014304Y-68642771D02*
X87067136Y-68669187D01*
X87067136Y-68669187D02*
X87093552Y-68695603D01*
X87093552Y-68695603D02*
X87119968Y-68748435D01*
X129409544Y-94277099D02*
X129594456Y-94012939D01*
X129726536Y-94277099D02*
X129726536Y-93722363D01*
X129726536Y-93722363D02*
X129515208Y-93722363D01*
X129515208Y-93722363D02*
X129462376Y-93748779D01*
X129462376Y-93748779D02*
X129435960Y-93775195D01*
X129435960Y-93775195D02*
X129409544Y-93828027D01*
X129409544Y-93828027D02*
X129409544Y-93907275D01*
X129409544Y-93907275D02*
X129435960Y-93960107D01*
X129435960Y-93960107D02*
X129462376Y-93986523D01*
X129462376Y-93986523D02*
X129515208Y-94012939D01*
X129515208Y-94012939D02*
X129726536Y-94012939D01*
X128881224Y-94277099D02*
X129198216Y-94277099D01*
X129039720Y-94277099D02*
X129039720Y-93722363D01*
X129039720Y-93722363D02*
X129092552Y-93801611D01*
X129092552Y-93801611D02*
X129145384Y-93854443D01*
X129145384Y-93854443D02*
X129198216Y-93880859D01*
X128564232Y-93960107D02*
X128617064Y-93933691D01*
X128617064Y-93933691D02*
X128643480Y-93907275D01*
X128643480Y-93907275D02*
X128669896Y-93854443D01*
X128669896Y-93854443D02*
X128669896Y-93828027D01*
X128669896Y-93828027D02*
X128643480Y-93775195D01*
X128643480Y-93775195D02*
X128617064Y-93748779D01*
X128617064Y-93748779D02*
X128564232Y-93722363D01*
X128564232Y-93722363D02*
X128458568Y-93722363D01*
X128458568Y-93722363D02*
X128405736Y-93748779D01*
X128405736Y-93748779D02*
X128379320Y-93775195D01*
X128379320Y-93775195D02*
X128352904Y-93828027D01*
X128352904Y-93828027D02*
X128352904Y-93854443D01*
X128352904Y-93854443D02*
X128379320Y-93907275D01*
X128379320Y-93907275D02*
X128405736Y-93933691D01*
X128405736Y-93933691D02*
X128458568Y-93960107D01*
X128458568Y-93960107D02*
X128564232Y-93960107D01*
X128564232Y-93960107D02*
X128617064Y-93986523D01*
X128617064Y-93986523D02*
X128643480Y-94012939D01*
X128643480Y-94012939D02*
X128669896Y-94065771D01*
X128669896Y-94065771D02*
X128669896Y-94171435D01*
X128669896Y-94171435D02*
X128643480Y-94224267D01*
X128643480Y-94224267D02*
X128617064Y-94250683D01*
X128617064Y-94250683D02*
X128564232Y-94277099D01*
X128564232Y-94277099D02*
X128458568Y-94277099D01*
X128458568Y-94277099D02*
X128405736Y-94250683D01*
X128405736Y-94250683D02*
X128379320Y-94224267D01*
X128379320Y-94224267D02*
X128352904Y-94171435D01*
X128352904Y-94171435D02*
X128352904Y-94065771D01*
X128352904Y-94065771D02*
X128379320Y-94012939D01*
X128379320Y-94012939D02*
X128405736Y-93986523D01*
X128405736Y-93986523D02*
X128458568Y-93960107D01*
X114212216Y-109466299D02*
X114212216Y-108911563D01*
X114212216Y-108911563D02*
X114080136Y-108911563D01*
X114080136Y-108911563D02*
X114000888Y-108937979D01*
X114000888Y-108937979D02*
X113948056Y-108990811D01*
X113948056Y-108990811D02*
X113921640Y-109043643D01*
X113921640Y-109043643D02*
X113895224Y-109149307D01*
X113895224Y-109149307D02*
X113895224Y-109228555D01*
X113895224Y-109228555D02*
X113921640Y-109334219D01*
X113921640Y-109334219D02*
X113948056Y-109387051D01*
X113948056Y-109387051D02*
X114000888Y-109439883D01*
X114000888Y-109439883D02*
X114080136Y-109466299D01*
X114080136Y-109466299D02*
X114212216Y-109466299D01*
X113578232Y-109149307D02*
X113631064Y-109122891D01*
X113631064Y-109122891D02*
X113657480Y-109096475D01*
X113657480Y-109096475D02*
X113683896Y-109043643D01*
X113683896Y-109043643D02*
X113683896Y-109017227D01*
X113683896Y-109017227D02*
X113657480Y-108964395D01*
X113657480Y-108964395D02*
X113631064Y-108937979D01*
X113631064Y-108937979D02*
X113578232Y-108911563D01*
X113578232Y-108911563D02*
X113472568Y-108911563D01*
X113472568Y-108911563D02*
X113419736Y-108937979D01*
X113419736Y-108937979D02*
X113393320Y-108964395D01*
X113393320Y-108964395D02*
X113366904Y-109017227D01*
X113366904Y-109017227D02*
X113366904Y-109043643D01*
X113366904Y-109043643D02*
X113393320Y-109096475D01*
X113393320Y-109096475D02*
X113419736Y-109122891D01*
X113419736Y-109122891D02*
X113472568Y-109149307D01*
X113472568Y-109149307D02*
X113578232Y-109149307D01*
X113578232Y-109149307D02*
X113631064Y-109175723D01*
X113631064Y-109175723D02*
X113657480Y-109202139D01*
X113657480Y-109202139D02*
X113683896Y-109254971D01*
X113683896Y-109254971D02*
X113683896Y-109360635D01*
X113683896Y-109360635D02*
X113657480Y-109413467D01*
X113657480Y-109413467D02*
X113631064Y-109439883D01*
X113631064Y-109439883D02*
X113578232Y-109466299D01*
X113578232Y-109466299D02*
X113472568Y-109466299D01*
X113472568Y-109466299D02*
X113419736Y-109439883D01*
X113419736Y-109439883D02*
X113393320Y-109413467D01*
X113393320Y-109413467D02*
X113366904Y-109360635D01*
X113366904Y-109360635D02*
X113366904Y-109254971D01*
X113366904Y-109254971D02*
X113393320Y-109202139D01*
X113393320Y-109202139D02*
X113419736Y-109175723D01*
X113419736Y-109175723D02*
X113472568Y-109149307D01*
X123160389Y-84614561D02*
X123556629Y-84614561D01*
X123556629Y-84614561D02*
X123635877Y-84588145D01*
X123635877Y-84588145D02*
X123688709Y-84535313D01*
X123688709Y-84535313D02*
X123715125Y-84456065D01*
X123715125Y-84456065D02*
X123715125Y-84403233D01*
X123715125Y-84878721D02*
X123160389Y-84878721D01*
X123160389Y-84878721D02*
X123160389Y-85090049D01*
X123160389Y-85090049D02*
X123186805Y-85142881D01*
X123186805Y-85142881D02*
X123213221Y-85169297D01*
X123213221Y-85169297D02*
X123266053Y-85195713D01*
X123266053Y-85195713D02*
X123345301Y-85195713D01*
X123345301Y-85195713D02*
X123398133Y-85169297D01*
X123398133Y-85169297D02*
X123424549Y-85142881D01*
X123424549Y-85142881D02*
X123450965Y-85090049D01*
X123450965Y-85090049D02*
X123450965Y-84878721D01*
X123160389Y-85380625D02*
X123160389Y-85724033D01*
X123160389Y-85724033D02*
X123371717Y-85539121D01*
X123371717Y-85539121D02*
X123371717Y-85618369D01*
X123371717Y-85618369D02*
X123398133Y-85671201D01*
X123398133Y-85671201D02*
X123424549Y-85697617D01*
X123424549Y-85697617D02*
X123477381Y-85724033D01*
X123477381Y-85724033D02*
X123609461Y-85724033D01*
X123609461Y-85724033D02*
X123662293Y-85697617D01*
X123662293Y-85697617D02*
X123688709Y-85671201D01*
X123688709Y-85671201D02*
X123715125Y-85618369D01*
X123715125Y-85618369D02*
X123715125Y-85459873D01*
X123715125Y-85459873D02*
X123688709Y-85407041D01*
X123688709Y-85407041D02*
X123662293Y-85380625D01*
X87459312Y-57712643D02*
X87459312Y-58108883D01*
X87459312Y-58108883D02*
X87485728Y-58188131D01*
X87485728Y-58188131D02*
X87538560Y-58240963D01*
X87538560Y-58240963D02*
X87617808Y-58267379D01*
X87617808Y-58267379D02*
X87670640Y-58267379D01*
X87247984Y-57712643D02*
X86904576Y-57712643D01*
X86904576Y-57712643D02*
X87089488Y-57923971D01*
X87089488Y-57923971D02*
X87010240Y-57923971D01*
X87010240Y-57923971D02*
X86957408Y-57950387D01*
X86957408Y-57950387D02*
X86930992Y-57976803D01*
X86930992Y-57976803D02*
X86904576Y-58029635D01*
X86904576Y-58029635D02*
X86904576Y-58161715D01*
X86904576Y-58161715D02*
X86930992Y-58214547D01*
X86930992Y-58214547D02*
X86957408Y-58240963D01*
X86957408Y-58240963D02*
X87010240Y-58267379D01*
X87010240Y-58267379D02*
X87168736Y-58267379D01*
X87168736Y-58267379D02*
X87221568Y-58240963D01*
X87221568Y-58240963D02*
X87247984Y-58214547D01*
X128519372Y-66149243D02*
X128545788Y-66122827D01*
X128545788Y-66122827D02*
X128572204Y-66043579D01*
X128572204Y-66043579D02*
X128572204Y-65990747D01*
X128572204Y-65990747D02*
X128545788Y-65911499D01*
X128545788Y-65911499D02*
X128492956Y-65858667D01*
X128492956Y-65858667D02*
X128440124Y-65832251D01*
X128440124Y-65832251D02*
X128334460Y-65805835D01*
X128334460Y-65805835D02*
X128255212Y-65805835D01*
X128255212Y-65805835D02*
X128149548Y-65832251D01*
X128149548Y-65832251D02*
X128096716Y-65858667D01*
X128096716Y-65858667D02*
X128043884Y-65911499D01*
X128043884Y-65911499D02*
X128017468Y-65990747D01*
X128017468Y-65990747D02*
X128017468Y-66043579D01*
X128017468Y-66043579D02*
X128043884Y-66122827D01*
X128043884Y-66122827D02*
X128070300Y-66149243D01*
X128572204Y-66677563D02*
X128572204Y-66360571D01*
X128572204Y-66519067D02*
X128017468Y-66519067D01*
X128017468Y-66519067D02*
X128096716Y-66466235D01*
X128096716Y-66466235D02*
X128149548Y-66413403D01*
X128149548Y-66413403D02*
X128175964Y-66360571D01*
X128572204Y-66941723D02*
X128572204Y-67047387D01*
X128572204Y-67047387D02*
X128545788Y-67100219D01*
X128545788Y-67100219D02*
X128519372Y-67126635D01*
X128519372Y-67126635D02*
X128440124Y-67179467D01*
X128440124Y-67179467D02*
X128334460Y-67205883D01*
X128334460Y-67205883D02*
X128123132Y-67205883D01*
X128123132Y-67205883D02*
X128070300Y-67179467D01*
X128070300Y-67179467D02*
X128043884Y-67153051D01*
X128043884Y-67153051D02*
X128017468Y-67100219D01*
X128017468Y-67100219D02*
X128017468Y-66994555D01*
X128017468Y-66994555D02*
X128043884Y-66941723D01*
X128043884Y-66941723D02*
X128070300Y-66915307D01*
X128070300Y-66915307D02*
X128123132Y-66888891D01*
X128123132Y-66888891D02*
X128255212Y-66888891D01*
X128255212Y-66888891D02*
X128308044Y-66915307D01*
X128308044Y-66915307D02*
X128334460Y-66941723D01*
X128334460Y-66941723D02*
X128360876Y-66994555D01*
X128360876Y-66994555D02*
X128360876Y-67100219D01*
X128360876Y-67100219D02*
X128334460Y-67153051D01*
X128334460Y-67153051D02*
X128308044Y-67179467D01*
X128308044Y-67179467D02*
X128255212Y-67205883D01*
X141615299Y-69374659D02*
X141430387Y-69929395D01*
X141430387Y-69929395D02*
X141245475Y-69374659D01*
X140743571Y-69929395D02*
X140928483Y-69665235D01*
X141060563Y-69929395D02*
X141060563Y-69374659D01*
X141060563Y-69374659D02*
X140849235Y-69374659D01*
X140849235Y-69374659D02*
X140796403Y-69401075D01*
X140796403Y-69401075D02*
X140769987Y-69427491D01*
X140769987Y-69427491D02*
X140743571Y-69480323D01*
X140743571Y-69480323D02*
X140743571Y-69559571D01*
X140743571Y-69559571D02*
X140769987Y-69612403D01*
X140769987Y-69612403D02*
X140796403Y-69638819D01*
X140796403Y-69638819D02*
X140849235Y-69665235D01*
X140849235Y-69665235D02*
X141060563Y-69665235D01*
X140215251Y-69929395D02*
X140532243Y-69929395D01*
X140373747Y-69929395D02*
X140373747Y-69374659D01*
X140373747Y-69374659D02*
X140426579Y-69453907D01*
X140426579Y-69453907D02*
X140479411Y-69506739D01*
X140479411Y-69506739D02*
X140532243Y-69533155D01*
X141621256Y-108356179D02*
X141885416Y-108356179D01*
X141885416Y-108356179D02*
X141885416Y-107801443D01*
X141145768Y-108356179D02*
X141462760Y-108356179D01*
X141304264Y-108356179D02*
X141304264Y-107801443D01*
X141304264Y-107801443D02*
X141357096Y-107880691D01*
X141357096Y-107880691D02*
X141409928Y-107933523D01*
X141409928Y-107933523D02*
X141462760Y-107959939D01*
X136104645Y-58968207D02*
X135840485Y-58783295D01*
X136104645Y-58651215D02*
X135549909Y-58651215D01*
X135549909Y-58651215D02*
X135549909Y-58862543D01*
X135549909Y-58862543D02*
X135576325Y-58915375D01*
X135576325Y-58915375D02*
X135602741Y-58941791D01*
X135602741Y-58941791D02*
X135655573Y-58968207D01*
X135655573Y-58968207D02*
X135734821Y-58968207D01*
X135734821Y-58968207D02*
X135787653Y-58941791D01*
X135787653Y-58941791D02*
X135814069Y-58915375D01*
X135814069Y-58915375D02*
X135840485Y-58862543D01*
X135840485Y-58862543D02*
X135840485Y-58651215D01*
X135734821Y-59443695D02*
X136104645Y-59443695D01*
X135523493Y-59311615D02*
X135919733Y-59179535D01*
X135919733Y-59179535D02*
X135919733Y-59522943D01*
X135602741Y-59707855D02*
X135576325Y-59734271D01*
X135576325Y-59734271D02*
X135549909Y-59787103D01*
X135549909Y-59787103D02*
X135549909Y-59919183D01*
X135549909Y-59919183D02*
X135576325Y-59972015D01*
X135576325Y-59972015D02*
X135602741Y-59998431D01*
X135602741Y-59998431D02*
X135655573Y-60024847D01*
X135655573Y-60024847D02*
X135708405Y-60024847D01*
X135708405Y-60024847D02*
X135787653Y-59998431D01*
X135787653Y-59998431D02*
X136104645Y-59681439D01*
X136104645Y-59681439D02*
X136104645Y-60024847D01*
X111572909Y-52909265D02*
X111599325Y-52988513D01*
X111599325Y-52988513D02*
X111599325Y-53120593D01*
X111599325Y-53120593D02*
X111572909Y-53173425D01*
X111572909Y-53173425D02*
X111546493Y-53199841D01*
X111546493Y-53199841D02*
X111493661Y-53226257D01*
X111493661Y-53226257D02*
X111440829Y-53226257D01*
X111440829Y-53226257D02*
X111387997Y-53199841D01*
X111387997Y-53199841D02*
X111361581Y-53173425D01*
X111361581Y-53173425D02*
X111335165Y-53120593D01*
X111335165Y-53120593D02*
X111308749Y-53014929D01*
X111308749Y-53014929D02*
X111282333Y-52962097D01*
X111282333Y-52962097D02*
X111255917Y-52935681D01*
X111255917Y-52935681D02*
X111203085Y-52909265D01*
X111203085Y-52909265D02*
X111150253Y-52909265D01*
X111150253Y-52909265D02*
X111097421Y-52935681D01*
X111097421Y-52935681D02*
X111071005Y-52962097D01*
X111071005Y-52962097D02*
X111044589Y-53014929D01*
X111044589Y-53014929D02*
X111044589Y-53147009D01*
X111044589Y-53147009D02*
X111071005Y-53226257D01*
X111044589Y-53411169D02*
X111599325Y-53543249D01*
X111599325Y-53543249D02*
X111203085Y-53648913D01*
X111203085Y-53648913D02*
X111599325Y-53754577D01*
X111599325Y-53754577D02*
X111044589Y-53886657D01*
X111652157Y-53965905D02*
X111652157Y-54388561D01*
X111599325Y-54811217D02*
X111599325Y-54494225D01*
X111599325Y-54652721D02*
X111044589Y-54652721D01*
X111044589Y-54652721D02*
X111123837Y-54599889D01*
X111123837Y-54599889D02*
X111176669Y-54547057D01*
X111176669Y-54547057D02*
X111203085Y-54494225D01*
X140713404Y-89689963D02*
X140449244Y-89505051D01*
X140713404Y-89372971D02*
X140158668Y-89372971D01*
X140158668Y-89372971D02*
X140158668Y-89584299D01*
X140158668Y-89584299D02*
X140185084Y-89637131D01*
X140185084Y-89637131D02*
X140211500Y-89663547D01*
X140211500Y-89663547D02*
X140264332Y-89689963D01*
X140264332Y-89689963D02*
X140343580Y-89689963D01*
X140343580Y-89689963D02*
X140396412Y-89663547D01*
X140396412Y-89663547D02*
X140422828Y-89637131D01*
X140422828Y-89637131D02*
X140449244Y-89584299D01*
X140449244Y-89584299D02*
X140449244Y-89372971D01*
X140343580Y-90165451D02*
X140713404Y-90165451D01*
X140132252Y-90033371D02*
X140528492Y-89901291D01*
X140528492Y-89901291D02*
X140528492Y-90244699D01*
X133923580Y-107840699D02*
X134108492Y-107576539D01*
X134240572Y-107840699D02*
X134240572Y-107285963D01*
X134240572Y-107285963D02*
X134029244Y-107285963D01*
X134029244Y-107285963D02*
X133976412Y-107312379D01*
X133976412Y-107312379D02*
X133949996Y-107338795D01*
X133949996Y-107338795D02*
X133923580Y-107391627D01*
X133923580Y-107391627D02*
X133923580Y-107470875D01*
X133923580Y-107470875D02*
X133949996Y-107523707D01*
X133949996Y-107523707D02*
X133976412Y-107550123D01*
X133976412Y-107550123D02*
X134029244Y-107576539D01*
X134029244Y-107576539D02*
X134240572Y-107576539D01*
X133738668Y-107285963D02*
X133395260Y-107285963D01*
X133395260Y-107285963D02*
X133580172Y-107497291D01*
X133580172Y-107497291D02*
X133500924Y-107497291D01*
X133500924Y-107497291D02*
X133448092Y-107523707D01*
X133448092Y-107523707D02*
X133421676Y-107550123D01*
X133421676Y-107550123D02*
X133395260Y-107602955D01*
X133395260Y-107602955D02*
X133395260Y-107735035D01*
X133395260Y-107735035D02*
X133421676Y-107787867D01*
X133421676Y-107787867D02*
X133448092Y-107814283D01*
X133448092Y-107814283D02*
X133500924Y-107840699D01*
X133500924Y-107840699D02*
X133659420Y-107840699D01*
X133659420Y-107840699D02*
X133712252Y-107814283D01*
X133712252Y-107814283D02*
X133738668Y-107787867D01*
X121130763Y-97792514D02*
X121579835Y-97792514D01*
X121579835Y-97792514D02*
X121632667Y-97818930D01*
X121632667Y-97818930D02*
X121659083Y-97845346D01*
X121659083Y-97845346D02*
X121685499Y-97898178D01*
X121685499Y-97898178D02*
X121685499Y-98003842D01*
X121685499Y-98003842D02*
X121659083Y-98056674D01*
X121659083Y-98056674D02*
X121632667Y-98083090D01*
X121632667Y-98083090D02*
X121579835Y-98109506D01*
X121579835Y-98109506D02*
X121130763Y-98109506D01*
X121183595Y-98347250D02*
X121157179Y-98373666D01*
X121157179Y-98373666D02*
X121130763Y-98426498D01*
X121130763Y-98426498D02*
X121130763Y-98558578D01*
X121130763Y-98558578D02*
X121157179Y-98611410D01*
X121157179Y-98611410D02*
X121183595Y-98637826D01*
X121183595Y-98637826D02*
X121236427Y-98664242D01*
X121236427Y-98664242D02*
X121289259Y-98664242D01*
X121289259Y-98664242D02*
X121368507Y-98637826D01*
X121368507Y-98637826D02*
X121685499Y-98320834D01*
X121685499Y-98320834D02*
X121685499Y-98664242D01*
X142762780Y-68621067D02*
X142789196Y-68647483D01*
X142789196Y-68647483D02*
X142868444Y-68673899D01*
X142868444Y-68673899D02*
X142921276Y-68673899D01*
X142921276Y-68673899D02*
X143000524Y-68647483D01*
X143000524Y-68647483D02*
X143053356Y-68594651D01*
X143053356Y-68594651D02*
X143079772Y-68541819D01*
X143079772Y-68541819D02*
X143106188Y-68436155D01*
X143106188Y-68436155D02*
X143106188Y-68356907D01*
X143106188Y-68356907D02*
X143079772Y-68251243D01*
X143079772Y-68251243D02*
X143053356Y-68198411D01*
X143053356Y-68198411D02*
X143000524Y-68145579D01*
X143000524Y-68145579D02*
X142921276Y-68119163D01*
X142921276Y-68119163D02*
X142868444Y-68119163D01*
X142868444Y-68119163D02*
X142789196Y-68145579D01*
X142789196Y-68145579D02*
X142762780Y-68171995D01*
X142234460Y-68673899D02*
X142551452Y-68673899D01*
X142392956Y-68673899D02*
X142392956Y-68119163D01*
X142392956Y-68119163D02*
X142445788Y-68198411D01*
X142445788Y-68198411D02*
X142498620Y-68251243D01*
X142498620Y-68251243D02*
X142551452Y-68277659D01*
X141758972Y-68304075D02*
X141758972Y-68673899D01*
X141891052Y-68092747D02*
X142023132Y-68488987D01*
X142023132Y-68488987D02*
X141679724Y-68488987D01*
X87408512Y-110900243D02*
X87408512Y-111296483D01*
X87408512Y-111296483D02*
X87434928Y-111375731D01*
X87434928Y-111375731D02*
X87487760Y-111428563D01*
X87487760Y-111428563D02*
X87567008Y-111454979D01*
X87567008Y-111454979D02*
X87619840Y-111454979D01*
X87197184Y-110900243D02*
X86827360Y-110900243D01*
X86827360Y-110900243D02*
X87065104Y-111454979D01*
X120977604Y-102649043D02*
X120713444Y-102464131D01*
X120977604Y-102332051D02*
X120422868Y-102332051D01*
X120422868Y-102332051D02*
X120422868Y-102543379D01*
X120422868Y-102543379D02*
X120449284Y-102596211D01*
X120449284Y-102596211D02*
X120475700Y-102622627D01*
X120475700Y-102622627D02*
X120528532Y-102649043D01*
X120528532Y-102649043D02*
X120607780Y-102649043D01*
X120607780Y-102649043D02*
X120660612Y-102622627D01*
X120660612Y-102622627D02*
X120687028Y-102596211D01*
X120687028Y-102596211D02*
X120713444Y-102543379D01*
X120713444Y-102543379D02*
X120713444Y-102332051D01*
X120977604Y-103177363D02*
X120977604Y-102860371D01*
X120977604Y-103018867D02*
X120422868Y-103018867D01*
X120422868Y-103018867D02*
X120502116Y-102966035D01*
X120502116Y-102966035D02*
X120554948Y-102913203D01*
X120554948Y-102913203D02*
X120581364Y-102860371D01*
X120422868Y-103520771D02*
X120422868Y-103573603D01*
X120422868Y-103573603D02*
X120449284Y-103626435D01*
X120449284Y-103626435D02*
X120475700Y-103652851D01*
X120475700Y-103652851D02*
X120528532Y-103679267D01*
X120528532Y-103679267D02*
X120634196Y-103705683D01*
X120634196Y-103705683D02*
X120766276Y-103705683D01*
X120766276Y-103705683D02*
X120871940Y-103679267D01*
X120871940Y-103679267D02*
X120924772Y-103652851D01*
X120924772Y-103652851D02*
X120951188Y-103626435D01*
X120951188Y-103626435D02*
X120977604Y-103573603D01*
X120977604Y-103573603D02*
X120977604Y-103520771D01*
X120977604Y-103520771D02*
X120951188Y-103467939D01*
X120951188Y-103467939D02*
X120924772Y-103441523D01*
X120924772Y-103441523D02*
X120871940Y-103415107D01*
X120871940Y-103415107D02*
X120766276Y-103388691D01*
X120766276Y-103388691D02*
X120634196Y-103388691D01*
X120634196Y-103388691D02*
X120528532Y-103415107D01*
X120528532Y-103415107D02*
X120475700Y-103441523D01*
X120475700Y-103441523D02*
X120449284Y-103467939D01*
X120449284Y-103467939D02*
X120422868Y-103520771D01*
X122487014Y-111469028D02*
X121932278Y-111469028D01*
X121932278Y-111469028D02*
X121932278Y-111601108D01*
X121932278Y-111601108D02*
X121958694Y-111680356D01*
X121958694Y-111680356D02*
X122011526Y-111733188D01*
X122011526Y-111733188D02*
X122064358Y-111759604D01*
X122064358Y-111759604D02*
X122170022Y-111786020D01*
X122170022Y-111786020D02*
X122249270Y-111786020D01*
X122249270Y-111786020D02*
X122354934Y-111759604D01*
X122354934Y-111759604D02*
X122407766Y-111733188D01*
X122407766Y-111733188D02*
X122460598Y-111680356D01*
X122460598Y-111680356D02*
X122487014Y-111601108D01*
X122487014Y-111601108D02*
X122487014Y-111469028D01*
X122487014Y-112314340D02*
X122487014Y-111997348D01*
X122487014Y-112155844D02*
X121932278Y-112155844D01*
X121932278Y-112155844D02*
X122011526Y-112103012D01*
X122011526Y-112103012D02*
X122064358Y-112050180D01*
X122064358Y-112050180D02*
X122090774Y-111997348D01*
X121932278Y-112657748D02*
X121932278Y-112710580D01*
X121932278Y-112710580D02*
X121958694Y-112763412D01*
X121958694Y-112763412D02*
X121985110Y-112789828D01*
X121985110Y-112789828D02*
X122037942Y-112816244D01*
X122037942Y-112816244D02*
X122143606Y-112842660D01*
X122143606Y-112842660D02*
X122275686Y-112842660D01*
X122275686Y-112842660D02*
X122381350Y-112816244D01*
X122381350Y-112816244D02*
X122434182Y-112789828D01*
X122434182Y-112789828D02*
X122460598Y-112763412D01*
X122460598Y-112763412D02*
X122487014Y-112710580D01*
X122487014Y-112710580D02*
X122487014Y-112657748D01*
X122487014Y-112657748D02*
X122460598Y-112604916D01*
X122460598Y-112604916D02*
X122434182Y-112578500D01*
X122434182Y-112578500D02*
X122381350Y-112552084D01*
X122381350Y-112552084D02*
X122275686Y-112525668D01*
X122275686Y-112525668D02*
X122143606Y-112525668D01*
X122143606Y-112525668D02*
X122037942Y-112552084D01*
X122037942Y-112552084D02*
X121985110Y-112578500D01*
X121985110Y-112578500D02*
X121958694Y-112604916D01*
X121958694Y-112604916D02*
X121932278Y-112657748D01*
X143919448Y-109726763D02*
X143840200Y-109753179D01*
X143840200Y-109753179D02*
X143708120Y-109753179D01*
X143708120Y-109753179D02*
X143655288Y-109726763D01*
X143655288Y-109726763D02*
X143628872Y-109700347D01*
X143628872Y-109700347D02*
X143602456Y-109647515D01*
X143602456Y-109647515D02*
X143602456Y-109594683D01*
X143602456Y-109594683D02*
X143628872Y-109541851D01*
X143628872Y-109541851D02*
X143655288Y-109515435D01*
X143655288Y-109515435D02*
X143708120Y-109489019D01*
X143708120Y-109489019D02*
X143813784Y-109462603D01*
X143813784Y-109462603D02*
X143866616Y-109436187D01*
X143866616Y-109436187D02*
X143893032Y-109409771D01*
X143893032Y-109409771D02*
X143919448Y-109356939D01*
X143919448Y-109356939D02*
X143919448Y-109304107D01*
X143919448Y-109304107D02*
X143893032Y-109251275D01*
X143893032Y-109251275D02*
X143866616Y-109224859D01*
X143866616Y-109224859D02*
X143813784Y-109198443D01*
X143813784Y-109198443D02*
X143681704Y-109198443D01*
X143681704Y-109198443D02*
X143602456Y-109224859D01*
X143417544Y-109198443D02*
X143285464Y-109753179D01*
X143285464Y-109753179D02*
X143179800Y-109356939D01*
X143179800Y-109356939D02*
X143074136Y-109753179D01*
X143074136Y-109753179D02*
X142942056Y-109198443D01*
X142440152Y-109753179D02*
X142757144Y-109753179D01*
X142598648Y-109753179D02*
X142598648Y-109198443D01*
X142598648Y-109198443D02*
X142651480Y-109277691D01*
X142651480Y-109277691D02*
X142704312Y-109330523D01*
X142704312Y-109330523D02*
X142757144Y-109356939D01*
X137741604Y-90870607D02*
X137477444Y-90685695D01*
X137741604Y-90553615D02*
X137186868Y-90553615D01*
X137186868Y-90553615D02*
X137186868Y-90764943D01*
X137186868Y-90764943D02*
X137213284Y-90817775D01*
X137213284Y-90817775D02*
X137239700Y-90844191D01*
X137239700Y-90844191D02*
X137292532Y-90870607D01*
X137292532Y-90870607D02*
X137371780Y-90870607D01*
X137371780Y-90870607D02*
X137424612Y-90844191D01*
X137424612Y-90844191D02*
X137451028Y-90817775D01*
X137451028Y-90817775D02*
X137477444Y-90764943D01*
X137477444Y-90764943D02*
X137477444Y-90553615D01*
X137186868Y-91372511D02*
X137186868Y-91108351D01*
X137186868Y-91108351D02*
X137451028Y-91081935D01*
X137451028Y-91081935D02*
X137424612Y-91108351D01*
X137424612Y-91108351D02*
X137398196Y-91161183D01*
X137398196Y-91161183D02*
X137398196Y-91293263D01*
X137398196Y-91293263D02*
X137424612Y-91346095D01*
X137424612Y-91346095D02*
X137451028Y-91372511D01*
X137451028Y-91372511D02*
X137503860Y-91398927D01*
X137503860Y-91398927D02*
X137635940Y-91398927D01*
X137635940Y-91398927D02*
X137688772Y-91372511D01*
X137688772Y-91372511D02*
X137715188Y-91346095D01*
X137715188Y-91346095D02*
X137741604Y-91293263D01*
X137741604Y-91293263D02*
X137741604Y-91161183D01*
X137741604Y-91161183D02*
X137715188Y-91108351D01*
X137715188Y-91108351D02*
X137688772Y-91081935D01*
X134900972Y-113225499D02*
X134900972Y-112670763D01*
X134900972Y-112670763D02*
X134768892Y-112670763D01*
X134768892Y-112670763D02*
X134689644Y-112697179D01*
X134689644Y-112697179D02*
X134636812Y-112750011D01*
X134636812Y-112750011D02*
X134610396Y-112802843D01*
X134610396Y-112802843D02*
X134583980Y-112908507D01*
X134583980Y-112908507D02*
X134583980Y-112987755D01*
X134583980Y-112987755D02*
X134610396Y-113093419D01*
X134610396Y-113093419D02*
X134636812Y-113146251D01*
X134636812Y-113146251D02*
X134689644Y-113199083D01*
X134689644Y-113199083D02*
X134768892Y-113225499D01*
X134768892Y-113225499D02*
X134900972Y-113225499D01*
X134055660Y-113225499D02*
X134372652Y-113225499D01*
X134214156Y-113225499D02*
X134214156Y-112670763D01*
X134214156Y-112670763D02*
X134266988Y-112750011D01*
X134266988Y-112750011D02*
X134319820Y-112802843D01*
X134319820Y-112802843D02*
X134372652Y-112829259D01*
D13*
%TO.C,U4*%
X90747850Y-84937600D02*
X90747850Y-85166200D01*
X90747850Y-74599800D02*
X90747850Y-74828400D01*
X98469450Y-74599800D02*
X90747850Y-74599800D01*
X90747850Y-85166200D02*
X98469450Y-85166200D01*
X98469450Y-85166200D02*
X98469450Y-84937600D01*
X98469450Y-74828400D02*
X98469450Y-74599800D01*
D14*
G36*
X100844350Y-76911200D02*
G01*
X100564950Y-76911200D01*
X100564950Y-76504800D01*
X100844350Y-76504800D01*
X100844350Y-76911200D01*
G37*
D15*
%TO.C,EN_1*%
X104280000Y-93750000D02*
X106830000Y-93750000D01*
X104280000Y-97050000D02*
X104280000Y-93750000D01*
X104280000Y-103850000D02*
X104280000Y-107150000D01*
X104280000Y-107150000D02*
X106830000Y-107150000D01*
X114230000Y-93750000D02*
X116780000Y-93750000D01*
X114230000Y-107150000D02*
X116780000Y-107150000D01*
X116780000Y-93750000D02*
X116780000Y-97050000D01*
X116780000Y-107150000D02*
X116780000Y-103850000D01*
D16*
X106430000Y-108050000D02*
G75*
G02*
X106230000Y-108050000I-100000J0D01*
G01*
X106230000Y-108050000D02*
G75*
G02*
X106430000Y-108050000I100000J0D01*
G01*
D13*
%TO.C,SW_4*%
X114628118Y-58292442D02*
X114808289Y-58292442D01*
X117175569Y-58292442D02*
X117355740Y-58292442D01*
X117355740Y-61340442D02*
X114628118Y-61340442D01*
D17*
%TO.C,C4*%
X146431000Y-101473000D02*
X145415000Y-101473000D01*
%TO.C,C16*%
X145388000Y-60716000D02*
X144372000Y-60716000D01*
D13*
%TO.C,U3*%
X103473250Y-77063600D02*
X109112050Y-77063600D01*
X103473250Y-77393800D02*
X103473250Y-77063600D01*
X103473250Y-82702400D02*
X103473250Y-82372200D01*
X109112050Y-77063600D02*
X109112050Y-77393800D01*
X109112050Y-82372200D02*
X109112050Y-82702400D01*
X109112050Y-82702400D02*
X103473250Y-82702400D01*
D18*
%TO.C,J4*%
X126365000Y-111379000D02*
X127000000Y-110744000D01*
X126365000Y-112649000D02*
X126365000Y-111379000D01*
X127000000Y-110744000D02*
X128270000Y-110744000D01*
X127000000Y-113284000D02*
X126365000Y-112649000D01*
X128270000Y-110744000D02*
X128905000Y-111379000D01*
X128270000Y-113284000D02*
X127000000Y-113284000D01*
X128905000Y-111379000D02*
X128905000Y-112649000D01*
X128905000Y-112649000D02*
X128270000Y-113284000D01*
D19*
%TO.C,U6*%
X121646424Y-82004014D02*
G75*
G02*
X121396424Y-82004014I-125000J0D01*
G01*
X121396424Y-82004014D02*
G75*
G02*
X121646424Y-82004014I125000J0D01*
G01*
D13*
%TO.C,SW_8*%
X122719586Y-52856833D02*
X122899757Y-52856833D01*
X125267037Y-52856833D02*
X125447208Y-52856833D01*
X125447208Y-55904833D02*
X122719586Y-55904833D01*
D14*
%TO.C,D4*%
G36*
X146177000Y-111667000D02*
G01*
X145643600Y-110955800D01*
X146710400Y-110955800D01*
X146177000Y-111667000D01*
G37*
G36*
X146621500Y-111617000D02*
G01*
X145732500Y-111617000D01*
X145732500Y-111426500D01*
X146621500Y-111426500D01*
X146621500Y-111617000D01*
G37*
D18*
%TO.C,J14*%
X137542500Y-52100000D02*
X137542500Y-55850000D01*
X140667500Y-51162500D02*
X141917600Y-51162500D01*
X141917600Y-51162500D02*
X141917600Y-52725000D01*
X141917600Y-55225000D02*
X141917600Y-56787500D01*
X141917600Y-56787500D02*
X140667500Y-56787500D01*
D14*
G36*
X141622476Y-55680000D02*
G01*
X141063500Y-56052651D01*
X141063500Y-55307349D01*
X141622476Y-55680000D01*
G37*
D17*
%TO.C,C1*%
X135255000Y-105156000D02*
X135255000Y-106172000D01*
D14*
%TO.C,D9*%
G36*
X116629546Y-112254841D02*
G01*
X116096146Y-111543641D01*
X117162946Y-111543641D01*
X116629546Y-112254841D01*
G37*
G36*
X117074046Y-112204841D02*
G01*
X116185046Y-112204841D01*
X116185046Y-112014341D01*
X117074046Y-112014341D01*
X117074046Y-112204841D01*
G37*
D17*
%TO.C,C2*%
X130937000Y-105918000D02*
X130937000Y-104902000D01*
D18*
%TO.C,U7*%
X140827000Y-62102000D02*
X140827000Y-59102000D01*
X143827000Y-59102000D02*
X143827000Y-62102000D01*
D20*
X143407000Y-61502000D02*
G75*
G02*
X143107000Y-61502000I-150000J0D01*
G01*
X143107000Y-61502000D02*
G75*
G02*
X143407000Y-61502000I150000J0D01*
G01*
D14*
%TO.C,D6*%
G36*
X105427346Y-112254841D02*
G01*
X104893946Y-111543641D01*
X105960746Y-111543641D01*
X105427346Y-112254841D01*
G37*
G36*
X105871846Y-112204841D02*
G01*
X104982846Y-112204841D01*
X104982846Y-112014341D01*
X105871846Y-112014341D01*
X105871846Y-112204841D01*
G37*
%TO.C,R41*%
G36*
X142087600Y-65341500D02*
G01*
X141437600Y-65341500D01*
X141437600Y-63941500D01*
X142087600Y-63941500D01*
X142087600Y-65341500D01*
G37*
G36*
X143560800Y-65341500D02*
G01*
X142910800Y-65341500D01*
X142910800Y-63941500D01*
X143560800Y-63941500D01*
X143560800Y-65341500D01*
G37*
%TO.C,R30*%
G36*
X108432600Y-76009500D02*
G01*
X107782600Y-76009500D01*
X107782600Y-74609500D01*
X108432600Y-74609500D01*
X108432600Y-76009500D01*
G37*
G36*
X109905800Y-76009500D02*
G01*
X109255800Y-76009500D01*
X109255800Y-74609500D01*
X109905800Y-74609500D01*
X109905800Y-76009500D01*
G37*
%TO.C,D5*%
G36*
X101693546Y-112254841D02*
G01*
X101160146Y-111543641D01*
X102226946Y-111543641D01*
X101693546Y-112254841D01*
G37*
G36*
X102138046Y-112204841D02*
G01*
X101249046Y-112204841D01*
X101249046Y-112014341D01*
X102138046Y-112014341D01*
X102138046Y-112204841D01*
G37*
D15*
%TO.C,J15*%
X135647000Y-75779000D02*
X135647000Y-83479000D01*
X135647000Y-83479000D02*
X144647000Y-83479000D01*
X143967000Y-75779000D02*
X135647000Y-75779000D01*
X147447000Y-75779000D02*
X146727000Y-75779000D01*
X147447000Y-75779000D02*
X147447000Y-83479000D01*
X147447000Y-83479000D02*
X146127000Y-83479000D01*
D16*
X133547000Y-77129000D02*
G75*
G02*
X133347000Y-77129000I-100000J0D01*
G01*
X133347000Y-77129000D02*
G75*
G02*
X133547000Y-77129000I100000J0D01*
G01*
D14*
%TO.C,D7*%
G36*
X109161311Y-112254825D02*
G01*
X108627911Y-111543625D01*
X109694711Y-111543625D01*
X109161311Y-112254825D01*
G37*
G36*
X109605811Y-112204825D02*
G01*
X108716811Y-112204825D01*
X108716811Y-112014325D01*
X109605811Y-112014325D01*
X109605811Y-112204825D01*
G37*
D15*
%TO.C,J11*%
X86273000Y-99568000D02*
X86273000Y-91068000D01*
X86273000Y-99568000D02*
X97823000Y-99568000D01*
X97823000Y-91068000D02*
X86273000Y-91068000D01*
X97823000Y-91284000D02*
X97823000Y-91068000D01*
X97823000Y-99568000D02*
X97823000Y-99162000D01*
D16*
X100673000Y-91918000D02*
G75*
G02*
X100473000Y-91918000I-100000J0D01*
G01*
X100473000Y-91918000D02*
G75*
G02*
X100673000Y-91918000I100000J0D01*
G01*
D21*
%TO.C,C13*%
X122760212Y-73223007D02*
X122490212Y-73223007D01*
X122760212Y-74583007D02*
X122490212Y-74583007D01*
D14*
%TO.C,R38*%
G36*
X133416500Y-83159600D02*
G01*
X132016500Y-83159600D01*
X132016500Y-82509600D01*
X133416500Y-82509600D01*
X133416500Y-83159600D01*
G37*
G36*
X133416500Y-84632800D02*
G01*
X132016500Y-84632800D01*
X132016500Y-83982800D01*
X133416500Y-83982800D01*
X133416500Y-84632800D01*
G37*
D22*
%TO.C,C6*%
X123855000Y-108331000D02*
X123855000Y-109347000D01*
D13*
%TO.C,SW_5*%
X122720925Y-63728035D02*
X122901096Y-63728035D01*
X125268376Y-63728035D02*
X125448547Y-63728035D01*
X125448547Y-66776035D02*
X122720925Y-66776035D01*
D18*
%TO.C,MIC1*%
X129870200Y-59131200D02*
X130505200Y-58496200D01*
X129870200Y-60401200D02*
X129870200Y-59131200D01*
X130505200Y-61036200D02*
X129870200Y-60401200D01*
X130505200Y-61036200D02*
X131775200Y-61036200D01*
X131775200Y-58496200D02*
X130505200Y-58496200D01*
X131775200Y-61036200D02*
X132410200Y-60401200D01*
X132410200Y-59131200D02*
X131775200Y-58496200D01*
X132410200Y-60401200D02*
X133045200Y-61036200D01*
X133045200Y-58496200D02*
X132410200Y-59131200D01*
X133045200Y-61036200D02*
X134315200Y-61036200D01*
X134315200Y-58496200D02*
X133045200Y-58496200D01*
X134315200Y-61036200D02*
X134950200Y-60401200D01*
X134950200Y-59131200D02*
X134315200Y-58496200D01*
X134950200Y-60401200D02*
X134950200Y-59131200D01*
D13*
%TO.C,SW_7*%
X114627726Y-63727987D02*
X114807897Y-63727987D01*
X117175177Y-63727987D02*
X117355348Y-63727987D01*
X117355348Y-66775987D02*
X114627726Y-66775987D01*
%TO.C,SW_9*%
X122719924Y-58292433D02*
X122900095Y-58292433D01*
X125267375Y-58292433D02*
X125447546Y-58292433D01*
X125447546Y-61340433D02*
X122719924Y-61340433D01*
D17*
%TO.C,C20*%
X132588000Y-66548000D02*
X132588000Y-67564000D01*
D13*
%TO.C,SW_3*%
X114627070Y-52856861D02*
X114807241Y-52856861D01*
X117174521Y-52856861D02*
X117354692Y-52856861D01*
X117354692Y-55904861D02*
X114627070Y-55904861D01*
D15*
%TO.C,U1*%
X139818000Y-95395000D02*
X139818000Y-96095000D01*
X139818000Y-98895000D02*
X139818000Y-99595000D01*
X139818000Y-99595000D02*
X140518000Y-99595000D01*
X140518000Y-95395000D02*
X139818000Y-95395000D01*
X143318000Y-95395000D02*
X144018000Y-95395000D01*
X144018000Y-95395000D02*
X144018000Y-96095000D01*
X144018000Y-98895000D02*
X144018000Y-99595000D01*
X144018000Y-99595000D02*
X143318000Y-99595000D01*
D23*
X144818000Y-95695000D02*
G75*
G02*
X144418000Y-95695000I-200000J0D01*
G01*
X144418000Y-95695000D02*
G75*
G02*
X144818000Y-95695000I200000J0D01*
G01*
D18*
%TO.C,J5*%
X123012200Y-111379000D02*
X123647200Y-110744000D01*
X123012200Y-112649000D02*
X123012200Y-111379000D01*
X123647200Y-110744000D02*
X124917200Y-110744000D01*
X123647200Y-113284000D02*
X123012200Y-112649000D01*
X124917200Y-110744000D02*
X125552200Y-111379000D01*
X124917200Y-113284000D02*
X123647200Y-113284000D01*
X125552200Y-111379000D02*
X125552200Y-112649000D01*
X125552200Y-112649000D02*
X124917200Y-113284000D01*
D17*
%TO.C,C3*%
X121793000Y-94488000D02*
X121793000Y-93472000D01*
%TO.C,C15*%
X138573000Y-62611000D02*
X138573000Y-61595000D01*
D13*
%TO.C,SW_2*%
X106534526Y-58292433D02*
X106714697Y-58292433D01*
X109081977Y-58292433D02*
X109262148Y-58292433D01*
X109262148Y-61340433D02*
X106534526Y-61340433D01*
%TO.C,SW_6*%
X106534526Y-63728033D02*
X106714697Y-63728033D01*
X109081977Y-63728033D02*
X109262148Y-63728033D01*
X109262148Y-66776033D02*
X106534526Y-66776033D01*
D15*
%TO.C,J6*%
X86273000Y-68072000D02*
X86273000Y-59572000D01*
X86273000Y-68072000D02*
X97823000Y-68072000D01*
X97823000Y-59572000D02*
X86273000Y-59572000D01*
X97823000Y-59788000D02*
X97823000Y-59572000D01*
X97823000Y-68072000D02*
X97823000Y-67666000D01*
D16*
X100673000Y-60422000D02*
G75*
G02*
X100473000Y-60422000I-100000J0D01*
G01*
X100473000Y-60422000D02*
G75*
G02*
X100673000Y-60422000I100000J0D01*
G01*
D22*
%TO.C,R18*%
X125730000Y-94488000D02*
X125730000Y-93472000D01*
D14*
%TO.C,D8*%
G36*
X112895146Y-112254841D02*
G01*
X112361746Y-111543641D01*
X113428546Y-111543641D01*
X112895146Y-112254841D01*
G37*
G36*
X113339646Y-112204841D02*
G01*
X112450646Y-112204841D01*
X112450646Y-112014341D01*
X113339646Y-112014341D01*
X113339646Y-112204841D01*
G37*
D21*
%TO.C,JP3*%
X119750212Y-83063007D02*
X119750212Y-85063007D01*
X119750212Y-85063007D02*
X122550212Y-85063007D01*
X122550212Y-83063007D02*
X119750212Y-83063007D01*
X122550212Y-85063007D02*
X122550212Y-83063007D01*
D15*
%TO.C,J3*%
X86258500Y-57257750D02*
X86258500Y-48757750D01*
X86258500Y-57257750D02*
X97808500Y-57257750D01*
X97808500Y-48757750D02*
X86258500Y-48757750D01*
X97808500Y-48973750D02*
X97808500Y-48757750D01*
X97808500Y-57257750D02*
X97808500Y-56851750D01*
D16*
X100658500Y-49607750D02*
G75*
G02*
X100458500Y-49607750I-100000J0D01*
G01*
X100458500Y-49607750D02*
G75*
G02*
X100658500Y-49607750I100000J0D01*
G01*
D17*
%TO.C,C19*%
X130429000Y-66548000D02*
X129413000Y-66548000D01*
D24*
%TO.C,VR1*%
X136217228Y-66947709D02*
X139727228Y-66947709D01*
X136217228Y-70047709D02*
X136217228Y-66947709D01*
X136232730Y-70042290D02*
X139742730Y-70042290D01*
X139742730Y-70042290D02*
X139742730Y-66942290D01*
D25*
%TO.C,L1*%
X139268000Y-101386000D02*
X144308000Y-101386000D01*
X139268000Y-106386000D02*
X144268000Y-106386000D01*
D14*
%TO.C,R42*%
G36*
X138156200Y-60391500D02*
G01*
X137506200Y-60391500D01*
X137506200Y-58991500D01*
X138156200Y-58991500D01*
X138156200Y-60391500D01*
G37*
G36*
X139629400Y-60391500D02*
G01*
X138979400Y-60391500D01*
X138979400Y-58991500D01*
X139629400Y-58991500D01*
X139629400Y-60391500D01*
G37*
D13*
%TO.C,SW_1*%
X106534526Y-52856833D02*
X106714697Y-52856833D01*
X109081977Y-52856833D02*
X109262148Y-52856833D01*
X109262148Y-55904833D02*
X106534526Y-55904833D01*
D22*
%TO.C,U2*%
X123730000Y-96425000D02*
X123730000Y-96925000D01*
X123730000Y-100425000D02*
X123730000Y-99925000D01*
X124230000Y-96425000D02*
X123730000Y-96425000D01*
X124230000Y-100425000D02*
X123730000Y-100425000D01*
X127230000Y-96425000D02*
X127730000Y-96425000D01*
X127230000Y-100425000D02*
X127730000Y-100425000D01*
X127730000Y-96425000D02*
X127730000Y-96925000D01*
X127730000Y-100425000D02*
X127730000Y-99925000D01*
X123355000Y-100175000D02*
G75*
G02*
X123105000Y-100175000I-125000J0D01*
G01*
X123105000Y-100175000D02*
G75*
G02*
X123355000Y-100175000I125000J0D01*
G01*
D17*
%TO.C,C14*%
X142397000Y-66294000D02*
X142397000Y-67310000D01*
D15*
%TO.C,J7*%
X86273000Y-110470750D02*
X86273000Y-101970750D01*
X86273000Y-110470750D02*
X97823000Y-110470750D01*
X97823000Y-101970750D02*
X86273000Y-101970750D01*
X97823000Y-102186750D02*
X97823000Y-101970750D01*
X97823000Y-110470750D02*
X97823000Y-110064750D01*
D16*
X100673000Y-102820750D02*
G75*
G02*
X100473000Y-102820750I-100000J0D01*
G01*
X100473000Y-102820750D02*
G75*
G02*
X100673000Y-102820750I100000J0D01*
G01*
D14*
%TO.C,D10*%
G36*
X120363546Y-112254841D02*
G01*
X119830146Y-111543641D01*
X120896946Y-111543641D01*
X120363546Y-112254841D01*
G37*
G36*
X120808046Y-112204841D02*
G01*
X119919046Y-112204841D01*
X119919046Y-112014341D01*
X120808046Y-112014341D01*
X120808046Y-112204841D01*
G37*
%TO.C,D1*%
G36*
X132344200Y-113436400D02*
G01*
X131633000Y-112903000D01*
X132344200Y-112369600D01*
X132344200Y-113436400D01*
G37*
G36*
X131873500Y-113347500D02*
G01*
X131683000Y-113347500D01*
X131683000Y-112458500D01*
X131873500Y-112458500D01*
X131873500Y-113347500D01*
G37*
%TD*%
%LPC*%
%TO.C,C13*%
G36*
X122100094Y-73211153D02*
G01*
X122139058Y-73220435D01*
X122175991Y-73235739D01*
X122210060Y-73256650D01*
X122240559Y-73282660D01*
X122266569Y-73313159D01*
X122287480Y-73347228D01*
X122302784Y-73384161D01*
X122312066Y-73423125D01*
X122315213Y-73462818D01*
X122312110Y-74382703D01*
X122302784Y-74421853D01*
X122287480Y-74458786D01*
X122266569Y-74492855D01*
X122240559Y-74523354D01*
X122210060Y-74549364D01*
X122175991Y-74570275D01*
X122139058Y-74585579D01*
X122100094Y-74594861D01*
X122060410Y-74598007D01*
X121510014Y-74598007D01*
X121470330Y-74594861D01*
X121431366Y-74585579D01*
X121394433Y-74570275D01*
X121360364Y-74549364D01*
X121329865Y-74523354D01*
X121303855Y-74492855D01*
X121282944Y-74458786D01*
X121267640Y-74421853D01*
X121258358Y-74382889D01*
X121255211Y-74343196D01*
X121258314Y-73423311D01*
X121267640Y-73384161D01*
X121282944Y-73347228D01*
X121303855Y-73313159D01*
X121329865Y-73282660D01*
X121360364Y-73256650D01*
X121394433Y-73235739D01*
X121431366Y-73220435D01*
X121470330Y-73211153D01*
X121510014Y-73208007D01*
X122060410Y-73208007D01*
X122100094Y-73211153D01*
G37*
G36*
X123780094Y-73211153D02*
G01*
X123819058Y-73220435D01*
X123855991Y-73235739D01*
X123890060Y-73256650D01*
X123920559Y-73282660D01*
X123946569Y-73313159D01*
X123967480Y-73347228D01*
X123982784Y-73384161D01*
X123992066Y-73423125D01*
X123995213Y-73462818D01*
X123992110Y-74382703D01*
X123982784Y-74421853D01*
X123967480Y-74458786D01*
X123946569Y-74492855D01*
X123920559Y-74523354D01*
X123890060Y-74549364D01*
X123855991Y-74570275D01*
X123819058Y-74585579D01*
X123780094Y-74594861D01*
X123740410Y-74598007D01*
X123190014Y-74598007D01*
X123150330Y-74594861D01*
X123111366Y-74585579D01*
X123074433Y-74570275D01*
X123040364Y-74549364D01*
X123009865Y-74523354D01*
X122983855Y-74492855D01*
X122962944Y-74458786D01*
X122947640Y-74421853D01*
X122938358Y-74382889D01*
X122935211Y-74343196D01*
X122938314Y-73423311D01*
X122947640Y-73384161D01*
X122962944Y-73347228D01*
X122983855Y-73313159D01*
X123009865Y-73282660D01*
X123040364Y-73256650D01*
X123074433Y-73235739D01*
X123111366Y-73220435D01*
X123150330Y-73211153D01*
X123190014Y-73208007D01*
X123740410Y-73208007D01*
X123780094Y-73211153D01*
G37*
%TO.C,U2*%
G36*
X124230000Y-97625000D02*
G01*
X123330000Y-97625000D01*
X123330000Y-97225000D01*
X124230000Y-97225000D01*
X124230000Y-97625000D01*
G37*
G36*
X124230000Y-98125000D02*
G01*
X123330000Y-98125000D01*
X123330000Y-97725000D01*
X124230000Y-97725000D01*
X124230000Y-98125000D01*
G37*
G36*
X124230000Y-98625000D02*
G01*
X123330000Y-98625000D01*
X123330000Y-98225000D01*
X124230000Y-98225000D01*
X124230000Y-98625000D01*
G37*
G36*
X124230000Y-99125000D02*
G01*
X123330000Y-99125000D01*
X123330000Y-98725000D01*
X124230000Y-98725000D01*
X124230000Y-99125000D01*
G37*
G36*
X124230000Y-99625000D02*
G01*
X123330000Y-99625000D01*
X123330000Y-99225000D01*
X124230000Y-99225000D01*
X124230000Y-99625000D01*
G37*
G36*
X124930000Y-100825000D02*
G01*
X124530000Y-100825000D01*
X124530000Y-99925000D01*
X124930000Y-99925000D01*
X124930000Y-100825000D01*
G37*
G36*
X124930000Y-96925000D02*
G01*
X124530000Y-96925000D01*
X124530000Y-96025000D01*
X124930000Y-96025000D01*
X124930000Y-96925000D01*
G37*
G36*
X125430000Y-100825000D02*
G01*
X125030000Y-100825000D01*
X125030000Y-99925000D01*
X125430000Y-99925000D01*
X125430000Y-100825000D01*
G37*
G36*
X125430000Y-96925000D02*
G01*
X125030000Y-96925000D01*
X125030000Y-96025000D01*
X125430000Y-96025000D01*
X125430000Y-96925000D01*
G37*
G36*
X125930000Y-100825000D02*
G01*
X125530000Y-100825000D01*
X125530000Y-99925000D01*
X125930000Y-99925000D01*
X125930000Y-100825000D01*
G37*
G36*
X125930000Y-96925000D02*
G01*
X125530000Y-96925000D01*
X125530000Y-96025000D01*
X125930000Y-96025000D01*
X125930000Y-96925000D01*
G37*
G36*
X126430000Y-100825000D02*
G01*
X126030000Y-100825000D01*
X126030000Y-99925000D01*
X126430000Y-99925000D01*
X126430000Y-100825000D01*
G37*
G36*
X126430000Y-96925000D02*
G01*
X126030000Y-96925000D01*
X126030000Y-96025000D01*
X126430000Y-96025000D01*
X126430000Y-96925000D01*
G37*
G36*
X126930000Y-100825000D02*
G01*
X126530000Y-100825000D01*
X126530000Y-99925000D01*
X126930000Y-99925000D01*
X126930000Y-100825000D01*
G37*
G36*
X126930000Y-96925000D02*
G01*
X126530000Y-96925000D01*
X126530000Y-96025000D01*
X126930000Y-96025000D01*
X126930000Y-96925000D01*
G37*
G36*
X128130000Y-97625000D02*
G01*
X127230000Y-97625000D01*
X127230000Y-97225000D01*
X128130000Y-97225000D01*
X128130000Y-97625000D01*
G37*
G36*
X128130000Y-98125000D02*
G01*
X127230000Y-98125000D01*
X127230000Y-97725000D01*
X128130000Y-97725000D01*
X128130000Y-98125000D01*
G37*
G36*
X128130000Y-98625000D02*
G01*
X127230000Y-98625000D01*
X127230000Y-98225000D01*
X128130000Y-98225000D01*
X128130000Y-98625000D01*
G37*
G36*
X128130000Y-99125000D02*
G01*
X127230000Y-99125000D01*
X127230000Y-98725000D01*
X128130000Y-98725000D01*
X128130000Y-99125000D01*
G37*
G36*
X128130000Y-99625000D02*
G01*
X127230000Y-99625000D01*
X127230000Y-99225000D01*
X128130000Y-99225000D01*
X128130000Y-99625000D01*
G37*
%TD*%
D26*
%TO.C,U4*%
X89877900Y-84328000D03*
X89877900Y-83058000D03*
X89877900Y-81788000D03*
X89877900Y-80518000D03*
X89877900Y-79248000D03*
X89877900Y-77978000D03*
X89877900Y-76708000D03*
X89877900Y-75438000D03*
X99339400Y-75438000D03*
X99339400Y-76708000D03*
X99339400Y-77978000D03*
X99339400Y-79248000D03*
X99339400Y-80518000D03*
X99339400Y-81788000D03*
X99339400Y-83058000D03*
X99339400Y-84328000D03*
%TD*%
D27*
%TO.C,H1*%
X132300546Y-53225241D03*
%TD*%
D28*
%TO.C,J2*%
X146014424Y-87214014D03*
X138394424Y-71974014D03*
X135854424Y-71974014D03*
X133314424Y-71974014D03*
X130774424Y-71974014D03*
X128234424Y-71974014D03*
X125694424Y-71974014D03*
X123154424Y-71974014D03*
D29*
X120614424Y-71974014D03*
D28*
X118074424Y-71974014D03*
X115534424Y-71974014D03*
X112994424Y-71974014D03*
X112994424Y-87214014D03*
X115534424Y-87214014D03*
X118074424Y-87214014D03*
X120614424Y-87214014D03*
X123154424Y-87214014D03*
X125694424Y-87214014D03*
X128234424Y-87214014D03*
X130774424Y-87214014D03*
X133314424Y-87214014D03*
X138394424Y-87214014D03*
X107914424Y-71974014D03*
X105374424Y-71974014D03*
X102834424Y-71974014D03*
X100294424Y-71974014D03*
X97754424Y-71974014D03*
X95214424Y-71974014D03*
X92674424Y-71974014D03*
X90134424Y-71974014D03*
X87594424Y-71974014D03*
X87594424Y-87214014D03*
X90134424Y-87214014D03*
X92674424Y-87214014D03*
X95214424Y-87214014D03*
X97754424Y-87214014D03*
X100294424Y-87214014D03*
X102834424Y-87214014D03*
X105374424Y-87214014D03*
X107914424Y-87214014D03*
X143474424Y-84674014D03*
X146014424Y-71974014D03*
X143474424Y-87214014D03*
D30*
X110454424Y-87214014D03*
D28*
X110454424Y-71974014D03*
X140934424Y-87214014D03*
%TD*%
D27*
%TO.C,H2*%
X103852546Y-49161241D03*
%TD*%
D31*
%TO.C,EN_1*%
X108030000Y-107450000D03*
D32*
X113030000Y-107450000D03*
X108030000Y-92950000D03*
X113030000Y-92950000D03*
X110530000Y-92950000D03*
D33*
X104830000Y-100450000D03*
X116230000Y-100450000D03*
%TD*%
D34*
%TO.C,SW_4*%
X113941931Y-59016441D03*
X113941931Y-60616443D03*
X118041927Y-60616443D03*
X118041927Y-59016441D03*
D35*
X115991929Y-58391441D03*
%TD*%
D36*
%TO.C,C4*%
X145923000Y-102423000D03*
X145923000Y-100523000D03*
%TD*%
D37*
%TO.C,C16*%
X144880000Y-62016000D03*
X144880000Y-59416000D03*
%TD*%
D38*
%TO.C,U3*%
X109950250Y-77978000D03*
X109950250Y-79248000D03*
X109950250Y-80518000D03*
X109950250Y-81788000D03*
X102635050Y-81788000D03*
X102635050Y-80518000D03*
X102635050Y-79248000D03*
X102635050Y-77978000D03*
%TD*%
D39*
%TO.C,T1*%
X131883000Y-101920000D03*
X129483000Y-102870000D03*
X131883000Y-103820000D03*
%TD*%
D40*
%TO.C,R43*%
X133665000Y-65024000D03*
X131765000Y-65024000D03*
%TD*%
D41*
%TO.C,J4*%
X127635000Y-112014000D03*
%TD*%
D42*
%TO.C,U6*%
X121946424Y-81254014D03*
X121946424Y-80754014D03*
X121946424Y-80254014D03*
X121946424Y-79754014D03*
X121946424Y-79254014D03*
X121946424Y-78754014D03*
X121946424Y-78254014D03*
X121946424Y-77754014D03*
D43*
X122646424Y-77054014D03*
X123146424Y-77054014D03*
X123646424Y-77054014D03*
X124146424Y-77054014D03*
X124646424Y-77054014D03*
X125146424Y-77054014D03*
X125646424Y-77054014D03*
X126146424Y-77054014D03*
D42*
X126846424Y-77754014D03*
X126846424Y-78254014D03*
X126846424Y-78754014D03*
X126846424Y-79254014D03*
X126846424Y-79754014D03*
X126846424Y-80254014D03*
X126846424Y-80754014D03*
X126846424Y-81254014D03*
D43*
X126146424Y-81954014D03*
X125646424Y-81954014D03*
X125146424Y-81954014D03*
X124646424Y-81954014D03*
X124146424Y-81954014D03*
X123646424Y-81954014D03*
X123146424Y-81954014D03*
X122646424Y-81954014D03*
D44*
X124396424Y-79504014D03*
%TD*%
D34*
%TO.C,SW_8*%
X122033399Y-53580832D03*
X122033399Y-55180834D03*
X126133395Y-55180834D03*
X126133395Y-53580832D03*
D35*
X124083397Y-52955832D03*
%TD*%
D45*
%TO.C,D4*%
X146177000Y-110236000D03*
X146177000Y-112336000D03*
%TD*%
D46*
%TO.C,J14*%
X141605000Y-54600000D03*
X141605000Y-53350000D03*
D47*
X138855000Y-57160000D03*
X138855000Y-50790000D03*
%TD*%
D48*
%TO.C,C1*%
X136555000Y-105664000D03*
X133955000Y-105664000D03*
%TD*%
D49*
%TO.C,R13*%
X129413000Y-96901000D03*
X131313000Y-96901000D03*
%TD*%
D45*
%TO.C,D9*%
X116629546Y-110823841D03*
X116629546Y-112923841D03*
%TD*%
D50*
%TO.C,C2*%
X129887000Y-105410000D03*
X131987000Y-105410000D03*
%TD*%
D51*
%TO.C,U7*%
X143302000Y-62802000D03*
X142652000Y-62802000D03*
X142002000Y-62802000D03*
X141352000Y-62802000D03*
X141352000Y-58402000D03*
X142002000Y-58402000D03*
X142652000Y-58402000D03*
X143302000Y-58402000D03*
%TD*%
D52*
%TO.C,TP7*%
X146177000Y-65532000D03*
%TD*%
D45*
%TO.C,D6*%
X105427346Y-110823841D03*
X105427346Y-112923841D03*
%TD*%
D52*
%TO.C,TP6*%
X137972800Y-65938400D03*
%TD*%
D53*
%TO.C,R41*%
X143494000Y-64643000D03*
X141494000Y-64643000D03*
%TD*%
%TO.C,R30*%
X109839000Y-75311000D03*
X107839000Y-75311000D03*
%TD*%
D52*
%TO.C,TP5*%
X93184546Y-46875241D03*
%TD*%
D45*
%TO.C,D5*%
X101693546Y-110823841D03*
X101693546Y-112923841D03*
%TD*%
D54*
%TO.C,J15*%
X145247000Y-79629000D03*
X139247000Y-79629000D03*
D55*
X134647000Y-77179000D03*
X134647000Y-81079000D03*
X134647000Y-79629000D03*
X134647000Y-82079000D03*
X134647000Y-78179000D03*
D56*
X145347000Y-75879000D03*
D57*
X145347000Y-83379000D03*
%TD*%
D49*
%TO.C,R1*%
X135156000Y-103702000D03*
X137056000Y-103702000D03*
%TD*%
D58*
%TO.C,C5*%
X143764000Y-93682000D03*
X143764000Y-90082000D03*
%TD*%
D45*
%TO.C,D7*%
X109161311Y-110823825D03*
X109161311Y-112923825D03*
%TD*%
D59*
%TO.C,J11*%
X98873000Y-91918000D03*
X98873000Y-94318000D03*
X98873000Y-93118000D03*
X98873000Y-98518000D03*
X98873000Y-96618000D03*
D60*
X88773000Y-97218000D03*
X88773000Y-93218000D03*
%TD*%
D61*
%TO.C,C13*%
X123465212Y-73903007D03*
D62*
X121785212Y-73903007D03*
%TD*%
D63*
%TO.C,R38*%
X132715000Y-84566000D03*
X132715000Y-82566000D03*
%TD*%
D48*
%TO.C,C6*%
X125155000Y-108839000D03*
X122555000Y-108839000D03*
%TD*%
D34*
%TO.C,SW_5*%
X122034738Y-64452034D03*
X122034738Y-66052036D03*
X126134734Y-66052036D03*
X126134734Y-64452034D03*
D35*
X124084736Y-63827034D03*
%TD*%
D41*
%TO.C,MIC1*%
X131240200Y-59766200D03*
X133650200Y-59766200D03*
%TD*%
D34*
%TO.C,SW_7*%
X113941539Y-64451986D03*
X113941539Y-66051988D03*
X118041535Y-66051988D03*
X118041535Y-64451986D03*
D35*
X115991537Y-63826986D03*
%TD*%
D40*
%TO.C,R2*%
X137033000Y-101670000D03*
X135133000Y-101670000D03*
%TD*%
D49*
%TO.C,R11*%
X124846000Y-104394000D03*
X126746000Y-104394000D03*
%TD*%
D64*
%TO.C,R8*%
X146304000Y-106299000D03*
X146304000Y-108199000D03*
%TD*%
D34*
%TO.C,SW_9*%
X122033737Y-59016432D03*
X122033737Y-60616434D03*
X126133733Y-60616434D03*
X126133733Y-59016432D03*
D35*
X124083735Y-58391432D03*
%TD*%
D40*
%TO.C,R7*%
X135443000Y-95123000D03*
X133543000Y-95123000D03*
%TD*%
D49*
%TO.C,R12*%
X129413000Y-98933000D03*
X131313000Y-98933000D03*
%TD*%
D40*
%TO.C,R9*%
X133284000Y-92964000D03*
X131384000Y-92964000D03*
%TD*%
D65*
%TO.C,C20*%
X133538000Y-67056000D03*
X131638000Y-67056000D03*
%TD*%
D34*
%TO.C,SW_3*%
X113940883Y-53580860D03*
X113940883Y-55180862D03*
X118040879Y-55180862D03*
X118040879Y-53580860D03*
D35*
X115990881Y-52955860D03*
%TD*%
D66*
%TO.C,U1*%
X144018000Y-96520000D03*
X144018000Y-97170000D03*
X144018000Y-97820000D03*
X144018000Y-98470000D03*
D67*
X142893000Y-99595000D03*
X142243000Y-99595000D03*
X141593000Y-99595000D03*
X140943000Y-99595000D03*
D68*
X139818000Y-98470000D03*
X139818000Y-97820000D03*
X139818000Y-97170000D03*
X139818000Y-96520000D03*
D69*
X140943000Y-95395000D03*
X141593000Y-95395000D03*
X142243000Y-95395000D03*
X142893000Y-95395000D03*
D70*
X141918000Y-97495000D03*
X142818000Y-96595000D03*
X141018000Y-96595000D03*
X141018000Y-98395000D03*
X142818000Y-98395000D03*
D71*
X141918000Y-97495000D03*
%TD*%
D41*
%TO.C,J5*%
X124282200Y-112014000D03*
%TD*%
D72*
%TO.C,C3*%
X120493000Y-93980000D03*
X123093000Y-93980000D03*
%TD*%
D73*
%TO.C,C15*%
X137273000Y-62103000D03*
X139873000Y-62103000D03*
%TD*%
D49*
%TO.C,R6*%
X131064000Y-111252000D03*
X132964000Y-111252000D03*
%TD*%
D34*
%TO.C,SW_2*%
X105848339Y-59016432D03*
X105848339Y-60616434D03*
X109948335Y-60616434D03*
X109948335Y-59016432D03*
D35*
X107898337Y-58391432D03*
%TD*%
D34*
%TO.C,SW_6*%
X105848339Y-64452032D03*
X105848339Y-66052034D03*
X109948335Y-66052034D03*
X109948335Y-64452032D03*
D35*
X107898337Y-63827032D03*
%TD*%
D59*
%TO.C,J6*%
X98873000Y-60422000D03*
X98873000Y-62822000D03*
X98873000Y-61622000D03*
X98873000Y-67022000D03*
X98873000Y-65122000D03*
D60*
X88773000Y-65722000D03*
X88773000Y-61722000D03*
%TD*%
D74*
%TO.C,R18*%
X124730000Y-93980000D03*
X126730000Y-93980000D03*
%TD*%
D45*
%TO.C,D8*%
X112895146Y-110823841D03*
X112895146Y-112923841D03*
%TD*%
D75*
%TO.C,JP3*%
X120500212Y-84063007D03*
X121800212Y-84063007D03*
%TD*%
D59*
%TO.C,J3*%
X98858500Y-49607750D03*
X98858500Y-52007750D03*
X98858500Y-50807750D03*
X98858500Y-56207750D03*
X98858500Y-54307750D03*
D60*
X88758500Y-54907750D03*
X88758500Y-50907750D03*
%TD*%
D76*
%TO.C,C19*%
X129921000Y-67598000D03*
X129921000Y-65498000D03*
%TD*%
D77*
%TO.C,VR1*%
X136992730Y-69142290D03*
D78*
X138992730Y-68492290D03*
D77*
X136992730Y-67842290D03*
%TD*%
D79*
%TO.C,L1*%
X139718000Y-103886000D03*
X143818000Y-103886000D03*
%TD*%
D80*
%TO.C,R42*%
X137573000Y-59690000D03*
X139573000Y-59690000D03*
%TD*%
D34*
%TO.C,SW_1*%
X105848339Y-53580832D03*
X105848339Y-55180834D03*
X109948335Y-55180834D03*
X109948335Y-53580832D03*
D35*
X107898337Y-52955832D03*
%TD*%
D64*
%TO.C,R4*%
X141224000Y-91567000D03*
X141224000Y-93467000D03*
%TD*%
D49*
%TO.C,R3*%
X131130000Y-109093000D03*
X133030000Y-109093000D03*
%TD*%
D81*
%TO.C,U2*%
X125730000Y-98425000D03*
%TD*%
D82*
%TO.C,C14*%
X143697000Y-66802000D03*
X141097000Y-66802000D03*
%TD*%
D59*
%TO.C,J7*%
X98873000Y-102820750D03*
X98873000Y-105220750D03*
X98873000Y-104020750D03*
X98873000Y-109420750D03*
X98873000Y-107520750D03*
D60*
X88773000Y-108120750D03*
X88773000Y-104120750D03*
%TD*%
D40*
%TO.C,R10*%
X126746000Y-102362000D03*
X124846000Y-102362000D03*
%TD*%
D45*
%TO.C,D10*%
X120363546Y-110823841D03*
X120363546Y-112923841D03*
%TD*%
D83*
%TO.C,SW1*%
X135371000Y-111482000D03*
X142171000Y-111482000D03*
D84*
X136271000Y-112682000D03*
X138771000Y-112682000D03*
X141271000Y-112682000D03*
X136271000Y-110282000D03*
X138771000Y-110182000D03*
X141271000Y-110182000D03*
%TD*%
D85*
%TO.C,R5*%
X139192000Y-93467000D03*
X139192000Y-91567000D03*
%TD*%
D52*
%TO.C,TP4*%
X139141200Y-89204800D03*
%TD*%
D86*
%TO.C,D1*%
X133064000Y-112903000D03*
X130964000Y-112903000D03*
%TD*%
%LPD*%
D87*
X114012546Y-46621241D02*
X114012546Y-49542241D01*
X114012546Y-49542241D02*
X144492546Y-49542241D01*
X144492546Y-46621241D02*
G75*
G02*
X145762546Y-45351246I1269954J41D01*
G01*
X144492546Y-49542241D02*
X144492546Y-46621241D01*
X146143546Y-45351241D02*
G75*
G02*
X147413459Y-46621241I-46J-1269959D01*
G01*
X146143546Y-113931241D02*
X87723546Y-113931241D01*
X147413546Y-112661241D02*
G75*
G02*
X146143546Y-113931246I-1270046J41D01*
G01*
X86453546Y-46621241D02*
G75*
G02*
X87723546Y-45351246I1269954J41D01*
G01*
X147413546Y-46621241D02*
X147413546Y-112661241D01*
X87723546Y-45351241D02*
X112742546Y-45351241D01*
X86451424Y-46621241D02*
X86451424Y-112661241D01*
X87723546Y-113931241D02*
G75*
G02*
X86453459Y-112661241I-46J1270041D01*
G01*
X145762546Y-45351241D02*
X146143546Y-45351241D01*
X112742546Y-45351241D02*
G75*
G02*
X114012459Y-46621241I-46J-1269959D01*
G01*
M02*
