%TF.GenerationSoftware,KiCad,Pcbnew,8.0.1*%
%TF.CreationDate,2025-01-16T17:49:12-07:00*%
%TF.ProjectId,WDM_RevB_v3,57444d5f-5265-4764-925f-76332e6b6963,rev?*%
%TF.SameCoordinates,Original*%
%TF.FileFunction,Paste,Top*%
%TF.FilePolarity,Positive*%
%FSLAX46Y46*%
G04 Gerber Fmt 4.6, Leading zero omitted, Abs format (unit mm)*
G04 Created by KiCad (PCBNEW 8.0.1) date 2025-01-16 17:49:12*
%MOMM*%
%LPD*%
G01*
G04 APERTURE LIST*
%ADD10R,1.400000X1.100000*%
%ADD11R,1.600000X1.300000*%
%ADD12R,0.530000X1.009996*%
%ADD13R,1.100000X1.400000*%
%ADD14R,1.500000X1.300000*%
%ADD15R,1.200000X1.200000*%
%ADD16R,1.399200X0.752400*%
%ADD17R,1.500000X1.200000*%
%ADD18R,1.300000X1.500000*%
%TA.AperFunction,Profile*%
%ADD19C,0.100000*%
%TD*%
G04 APERTURE END LIST*
D10*
%TO.C,R20*%
X123893146Y-66087041D03*
X123893146Y-64087041D03*
%TD*%
%TO.C,R24*%
X115663546Y-66170842D03*
X115663546Y-64170842D03*
%TD*%
%TO.C,R15*%
X107738746Y-55215841D03*
X107738746Y-53215841D03*
%TD*%
D11*
%TO.C,R33*%
X109242765Y-112696284D03*
X109242765Y-110796284D03*
%TD*%
%TO.C,R36*%
X120751600Y-112964000D03*
X120751600Y-111064000D03*
%TD*%
D12*
%TO.C,U5*%
X128917685Y-81205829D03*
X126867685Y-81205829D03*
X127892685Y-82995829D03*
%TD*%
D10*
%TO.C,R25*%
X123967606Y-55147440D03*
X123967606Y-53147440D03*
%TD*%
%TO.C,R26*%
X123943946Y-60753041D03*
X123943946Y-58753041D03*
%TD*%
D11*
%TO.C,R39*%
X125722212Y-89656007D03*
X125722212Y-91556007D03*
%TD*%
D13*
%TO.C,R14*%
X94456000Y-53213000D03*
X92456000Y-53213000D03*
%TD*%
D14*
%TO.C,C7*%
X109211946Y-99580241D03*
X109211946Y-97880241D03*
%TD*%
D11*
%TO.C,R40*%
X128389212Y-89656007D03*
X128389212Y-91556007D03*
%TD*%
%TO.C,R34*%
X113030000Y-112726800D03*
X113030000Y-110826800D03*
%TD*%
D14*
%TO.C,C8*%
X111853546Y-99580241D03*
X111853546Y-97880241D03*
%TD*%
D10*
%TO.C,R27*%
X115548346Y-94128641D03*
X115548346Y-92128641D03*
%TD*%
D11*
%TO.C,R32*%
X105435400Y-112701400D03*
X105435400Y-110801400D03*
%TD*%
D10*
%TO.C,R16*%
X107771548Y-60621041D03*
X107771548Y-58621041D03*
%TD*%
%TO.C,R22*%
X107771548Y-65833041D03*
X107771548Y-63833041D03*
%TD*%
%TO.C,R28*%
X104741546Y-94128641D03*
X104741546Y-92128641D03*
%TD*%
%TO.C,R17*%
X115931293Y-55202008D03*
X115931293Y-53202008D03*
%TD*%
%TO.C,R21*%
X108034146Y-104882241D03*
X108034146Y-102882241D03*
%TD*%
D15*
%TO.C,D2*%
X146177000Y-95944000D03*
X146177000Y-98044000D03*
%TD*%
D11*
%TO.C,R35*%
X116890800Y-112742000D03*
X116890800Y-110842000D03*
%TD*%
%TO.C,R31*%
X101625400Y-112760800D03*
X101625400Y-110860800D03*
%TD*%
D16*
%TO.C,L2*%
X116197212Y-78830407D03*
X116197212Y-77078007D03*
%TD*%
D17*
%TO.C,C11*%
X132588000Y-76293000D03*
X132588000Y-78393000D03*
%TD*%
D14*
%TO.C,C17*%
X116197212Y-80446007D03*
X116197212Y-82346007D03*
%TD*%
D15*
%TO.C,D3*%
X146177000Y-94268000D03*
X146177000Y-92168000D03*
%TD*%
D17*
%TO.C,C18*%
X113919000Y-80380007D03*
X113919000Y-82480007D03*
%TD*%
D13*
%TO.C,R37*%
X94599000Y-95377000D03*
X92599000Y-95377000D03*
%TD*%
%TO.C,R29*%
X94599000Y-106426000D03*
X92599000Y-106426000D03*
%TD*%
D10*
%TO.C,R19*%
X115714346Y-60600641D03*
X115714346Y-58600641D03*
%TD*%
D18*
%TO.C,C12*%
X124518212Y-83809007D03*
X126418212Y-83809007D03*
%TD*%
D13*
%TO.C,R23*%
X94472000Y-64008000D03*
X92472000Y-64008000D03*
%TD*%
D17*
%TO.C,C10*%
X130675212Y-76293000D03*
X130675212Y-78393000D03*
%TD*%
D14*
%TO.C,C9*%
X127881212Y-76520000D03*
X127881212Y-78420000D03*
%TD*%
D19*
X114012546Y-46621241D02*
X114012546Y-49542241D01*
X114012546Y-49542241D02*
X144492546Y-49542241D01*
X144492546Y-46621241D02*
G75*
G02*
X145762546Y-45351246I1269954J41D01*
G01*
X144492546Y-49542241D02*
X144492546Y-46621241D01*
X146143546Y-45351241D02*
G75*
G02*
X147413459Y-46621241I-46J-1269959D01*
G01*
X146143546Y-113931241D02*
X87723546Y-113931241D01*
X147413546Y-112661241D02*
G75*
G02*
X146143546Y-113931246I-1270046J41D01*
G01*
X86453546Y-46621241D02*
G75*
G02*
X87723546Y-45351246I1269954J41D01*
G01*
X147413546Y-46621241D02*
X147413546Y-112661241D01*
X87723546Y-45351241D02*
X112742546Y-45351241D01*
X86451424Y-46621241D02*
X86451424Y-112661241D01*
X87723546Y-113931241D02*
G75*
G02*
X86453459Y-112661241I-46J1270041D01*
G01*
X145762546Y-45351241D02*
X146143546Y-45351241D01*
X112742546Y-45351241D02*
G75*
G02*
X114012459Y-46621241I-46J-1269959D01*
G01*
M02*
