%TF.GenerationSoftware,KiCad,Pcbnew,8.0.1*%
%TF.CreationDate,2025-01-16T17:49:12-07:00*%
%TF.ProjectId,WDM_RevB_v3,57444d5f-5265-4764-925f-76332e6b6963,rev?*%
%TF.SameCoordinates,Original*%
%TF.FileFunction,Copper,L1,Top*%
%TF.FilePolarity,Positive*%
%FSLAX46Y46*%
G04 Gerber Fmt 4.6, Leading zero omitted, Abs format (unit mm)*
G04 Created by KiCad (PCBNEW 8.0.1) date 2025-01-16 17:49:12*
%MOMM*%
%LPD*%
G01*
G04 APERTURE LIST*
G04 Aperture macros list*
%AMRoundRect*
0 Rectangle with rounded corners*
0 $1 Rounding radius*
0 $2 $3 $4 $5 $6 $7 $8 $9 X,Y pos of 4 corners*
0 Add a 4 corners polygon primitive as box body*
4,1,4,$2,$3,$4,$5,$6,$7,$8,$9,$2,$3,0*
0 Add four circle primitives for the rounded corners*
1,1,$1+$1,$2,$3*
1,1,$1+$1,$4,$5*
1,1,$1+$1,$6,$7*
1,1,$1+$1,$8,$9*
0 Add four rect primitives between the rounded corners*
20,1,$1+$1,$2,$3,$4,$5,0*
20,1,$1+$1,$4,$5,$6,$7,0*
20,1,$1+$1,$6,$7,$8,$9,0*
20,1,$1+$1,$8,$9,$2,$3,0*%
G04 Aperture macros list end*
%TA.AperFunction,EtchedComponent*%
%ADD10C,0.000000*%
%TD*%
%TA.AperFunction,SMDPad,CuDef*%
%ADD11R,1.400000X1.100000*%
%TD*%
%TA.AperFunction,ComponentPad*%
%ADD12C,1.600000*%
%TD*%
%TA.AperFunction,ComponentPad*%
%ADD13C,1.650000*%
%TD*%
%TA.AperFunction,SMDPad,CuDef*%
%ADD14R,1.600000X1.300000*%
%TD*%
%TA.AperFunction,SMDPad,CuDef*%
%ADD15R,0.530000X1.009996*%
%TD*%
%TA.AperFunction,SMDPad,CuDef*%
%ADD16R,1.100000X1.400000*%
%TD*%
%TA.AperFunction,SMDPad,CuDef*%
%ADD17R,1.500000X1.300000*%
%TD*%
%TA.AperFunction,SMDPad,CuDef*%
%ADD18RoundRect,0.635000X0.000010X0.000010X-0.000010X0.000010X-0.000010X-0.000010X0.000010X-0.000010X0*%
%TD*%
%TA.AperFunction,SMDPad,CuDef*%
%ADD19R,1.200000X1.200000*%
%TD*%
%TA.AperFunction,SMDPad,CuDef*%
%ADD20R,1.500000X1.000000*%
%TD*%
%TA.AperFunction,SMDPad,CuDef*%
%ADD21R,1.399200X0.752400*%
%TD*%
%TA.AperFunction,SMDPad,CuDef*%
%ADD22R,1.500000X1.200000*%
%TD*%
%TA.AperFunction,SMDPad,CuDef*%
%ADD23R,1.300000X1.500000*%
%TD*%
%TA.AperFunction,ComponentPad*%
%ADD24R,1.650000X1.650000*%
%TD*%
%TA.AperFunction,ComponentPad*%
%ADD25O,3.000000X6.000000*%
%TD*%
%TA.AperFunction,ComponentPad*%
%ADD26C,1.879600*%
%TD*%
%TA.AperFunction,ComponentPad*%
%ADD27O,2.416000X1.208000*%
%TD*%
%TA.AperFunction,ComponentPad*%
%ADD28O,2.000000X1.000000*%
%TD*%
%TA.AperFunction,ComponentPad*%
%ADD29C,0.908000*%
%TD*%
%TA.AperFunction,ViaPad*%
%ADD30C,0.800000*%
%TD*%
%TA.AperFunction,ViaPad*%
%ADD31C,2.406400*%
%TD*%
%TA.AperFunction,ViaPad*%
%ADD32C,1.406400*%
%TD*%
%TA.AperFunction,ViaPad*%
%ADD33C,0.856400*%
%TD*%
%TA.AperFunction,Conductor*%
%ADD34C,0.250000*%
%TD*%
%TA.AperFunction,Conductor*%
%ADD35C,0.609600*%
%TD*%
%TA.AperFunction,Conductor*%
%ADD36C,0.406400*%
%TD*%
%TA.AperFunction,Conductor*%
%ADD37C,0.254000*%
%TD*%
%TA.AperFunction,Conductor*%
%ADD38C,0.508000*%
%TD*%
%TA.AperFunction,Conductor*%
%ADD39C,0.606900*%
%TD*%
%TA.AperFunction,Profile*%
%ADD40C,0.100000*%
%TD*%
G04 APERTURE END LIST*
D10*
%TA.AperFunction,EtchedComponent*%
%TO.C,JP1*%
G36*
X123490000Y-74418000D02*
G01*
X122890000Y-74418000D01*
X122890000Y-73918000D01*
X123490000Y-73918000D01*
X123490000Y-74418000D01*
G37*
%TD.AperFunction*%
%TA.AperFunction,EtchedComponent*%
%TO.C,JP2*%
G36*
X126030000Y-74418000D02*
G01*
X125430000Y-74418000D01*
X125430000Y-73918000D01*
X126030000Y-73918000D01*
X126030000Y-74418000D01*
G37*
%TD.AperFunction*%
%TD*%
D11*
%TO.P,R20,1*%
%TO.N,GND*%
X123893146Y-66087041D03*
%TO.P,R20,2*%
%TO.N,Net-(R20-Pad2)*%
X123893146Y-64087041D03*
%TD*%
%TO.P,R24,1*%
%TO.N,GND*%
X115663546Y-66170842D03*
%TO.P,R24,2*%
%TO.N,Net-(R24-Pad2)*%
X115663546Y-64170842D03*
%TD*%
%TO.P,R15,1*%
%TO.N,GND*%
X107738746Y-55215841D03*
%TO.P,R15,2*%
%TO.N,Net-(R15-Pad2)*%
X107738746Y-53215841D03*
%TD*%
D12*
%TO.P,J2,+5V,VIN*%
%TO.N,+5V*%
X146014424Y-87214014D03*
%TO.P,J2,2,2_OUT2*%
%TO.N,/trackPin_4*%
X138394424Y-71974014D03*
%TO.P,J2,3,3_LRCLK2*%
%TO.N,/trackPin_3*%
X135854424Y-71974014D03*
%TO.P,J2,4,4_BCLK2*%
%TO.N,/trackLEDPin_4*%
X133314424Y-71974014D03*
%TO.P,J2,5,5_IN2*%
%TO.N,/trackLEDPin_3*%
X130774424Y-71974014D03*
%TO.P,J2,6,6_OUT1D*%
%TO.N,/Pin6*%
X128234424Y-71974014D03*
%TO.P,J2,7,7_RX2_OUT1A*%
%TO.N,/Pin7*%
X125694424Y-71974014D03*
%TO.P,J2,8,8_TX2_IN1*%
%TO.N,/Pin8*%
X123154424Y-71974014D03*
%TO.P,J2,9,9_OUT1C*%
%TO.N,unconnected-(J2-9_OUT1C-Pad9)*%
X120614424Y-71974014D03*
%TO.P,J2,10,10_CS_MQSR*%
%TO.N,unconnected-(J2-10_CS_MQSR-Pad10)*%
X118074424Y-71974014D03*
%TO.P,J2,11,11_MOSI_CTX1*%
%TO.N,/Pin11*%
X115534424Y-71974014D03*
%TO.P,J2,12,12_MISO_MQSL*%
%TO.N,/Pin12*%
X112994424Y-71974014D03*
%TO.P,J2,13,13_SCK_LED*%
%TO.N,/Pin13*%
X112994424Y-87214014D03*
%TO.P,J2,14,14_A0_TX3_SPDIF_OUT*%
%TO.N,unconnected-(J2-14_A0_TX3_SPDIF_OUT-Pad14)*%
X115534424Y-87214014D03*
%TO.P,J2,15,15_A1_RX3_SPDIF_IN*%
%TO.N,/trackLEDPin_1*%
X118074424Y-87214014D03*
%TO.P,J2,16,16_A2_RX4_SCL1*%
%TO.N,/pushRotaryPin*%
X120614424Y-87214014D03*
%TO.P,J2,17,17_A3_TX4_SDA1*%
%TO.N,/trackLEDPin_2*%
X123154424Y-87214014D03*
%TO.P,J2,18,18_A4_SDA*%
%TO.N,/SDA*%
X125694424Y-87214014D03*
%TO.P,J2,19,19_A5_SCL*%
%TO.N,/SCL*%
X128234424Y-87214014D03*
%TO.P,J2,20,20_A6_TX5_LRCLK1*%
%TO.N,/Pin20*%
X130774424Y-87214014D03*
%TO.P,J2,21,21_A7_RX5_BCLK1*%
%TO.N,/Pin21*%
X133314424Y-87214014D03*
%TO.P,J2,23,23_A9_CRX1_MCLK1*%
%TO.N,/Pin23*%
X138394424Y-87214014D03*
%TO.P,J2,24,24_A10_TX6_SCL2*%
%TO.N,/ECHOPin*%
X107914424Y-71974014D03*
%TO.P,J2,25,25_A11_RX6_SDA2*%
%TO.N,/startPin*%
X105374424Y-71974014D03*
%TO.P,J2,26,26_A12_MOSI1*%
%TO.N,unconnected-(J2-26_A12_MOSI1-Pad26)*%
X102834424Y-71974014D03*
%TO.P,J2,27,27_A13_SCK1*%
%TO.N,/clockTrigPin*%
X100294424Y-71974014D03*
%TO.P,J2,28,28_RX7*%
%TO.N,/trackPin_1*%
X97754424Y-71974014D03*
%TO.P,J2,29,29_TX7*%
%TO.N,/trackPin_2*%
X95214424Y-71974014D03*
%TO.P,J2,30,30_CRX3*%
%TO.N,unconnected-(J2-30_CRX3-Pad30)*%
X92674424Y-71974014D03*
%TO.P,J2,31,31_CTX3*%
%TO.N,/undoPin*%
X90134424Y-71974014D03*
%TO.P,J2,32,32_OUT1B*%
%TO.N,/RECPin*%
X87594424Y-71974014D03*
%TO.P,J2,33,33_MCLK2*%
%TO.N,/optAPin*%
X87594424Y-87214014D03*
%TO.P,J2,34,34_RX8*%
%TO.N,/optBPin*%
X90134424Y-87214014D03*
%TO.P,J2,35,35_TX8*%
%TO.N,unconnected-(J2-35_TX8-Pad35)*%
X92674424Y-87214014D03*
%TO.P,J2,36,36_CS*%
%TO.N,/\u00A0RECLEDPin*%
X95214424Y-87214014D03*
%TO.P,J2,37,37_CS*%
%TO.N,/PLAYledPin*%
X97754424Y-87214014D03*
%TO.P,J2,38,38_CS1_IN1*%
%TO.N,/ FSRpin_1_A14*%
X100294424Y-87214014D03*
%TO.P,J2,39,39_MISO1_OUT1A*%
%TO.N,/ FSRpin_2_A15*%
X102834424Y-87214014D03*
%TO.P,J2,40,40_A16*%
%TO.N,/ FSRpin_3_A16*%
X105374424Y-87214014D03*
%TO.P,J2,41,41_A17*%
%TO.N,/ FSRpin_4_A17*%
X107914424Y-87214014D03*
%TO.P,J2,49,VUSB*%
%TO.N,VBUS*%
X143474424Y-84674014D03*
%TO.P,J2,GND_0,GND_0*%
%TO.N,GND*%
X146014424Y-71974014D03*
%TO.P,J2,GND_1,GND_1*%
X143474424Y-87214014D03*
D13*
%TO.P,J2,GND_2,GND_2*%
X110454424Y-87214014D03*
D12*
%TO.P,J2,T3.3V,3.3V*%
%TO.N,+3V3*%
X110454424Y-71974014D03*
X140934424Y-87214014D03*
%TD*%
D14*
%TO.P,R33,1*%
%TO.N,Net-(D7-PadC)*%
X109242765Y-112696284D03*
%TO.P,R33,2*%
%TO.N,GND*%
X109242765Y-110796284D03*
%TD*%
%TO.P,R36,1*%
%TO.N,Net-(D10-PadC)*%
X120751600Y-112964000D03*
%TO.P,R36,2*%
%TO.N,GND*%
X120751600Y-111064000D03*
%TD*%
D15*
%TO.P,U5,1,IN*%
%TO.N,+3V3*%
X128917685Y-81205829D03*
%TO.P,U5,2,OUT*%
%TO.N,+1V8*%
X126867685Y-81205829D03*
%TO.P,U5,3,GND*%
%TO.N,GND*%
X127892685Y-82995829D03*
%TD*%
D11*
%TO.P,R25,1*%
%TO.N,GND*%
X123967606Y-55147440D03*
%TO.P,R25,2*%
%TO.N,Net-(R25-Pad2)*%
X123967606Y-53147440D03*
%TD*%
%TO.P,R26,1*%
%TO.N,GND*%
X123943946Y-60753041D03*
%TO.P,R26,2*%
%TO.N,Net-(R26-Pad2)*%
X123943946Y-58753041D03*
%TD*%
D14*
%TO.P,R39,1*%
%TO.N,/SDA*%
X125722212Y-89656007D03*
%TO.P,R39,2*%
%TO.N,+3V3*%
X125722212Y-91556007D03*
%TD*%
D16*
%TO.P,R14,1*%
%TO.N,/ FSRpin_1_A14*%
X94456000Y-53213000D03*
%TO.P,R14,2*%
%TO.N,GND*%
X92456000Y-53213000D03*
%TD*%
D17*
%TO.P,C7,1*%
%TO.N,GND*%
X109211946Y-99580241D03*
%TO.P,C7,2*%
%TO.N,/optAPin*%
X109211946Y-97880241D03*
%TD*%
D14*
%TO.P,R40,1*%
%TO.N,/SCL*%
X128389212Y-89656007D03*
%TO.P,R40,2*%
%TO.N,+3V3*%
X128389212Y-91556007D03*
%TD*%
D18*
%TO.P,TP2,P$1,1*%
%TO.N,/VPCC(TP)*%
X121259600Y-100990400D03*
%TD*%
D14*
%TO.P,R34,1*%
%TO.N,Net-(D8-PadC)*%
X113030000Y-112726800D03*
%TO.P,R34,2*%
%TO.N,GND*%
X113030000Y-110826800D03*
%TD*%
D17*
%TO.P,C8,1*%
%TO.N,GND*%
X111853546Y-99580241D03*
%TO.P,C8,2*%
%TO.N,/optBPin*%
X111853546Y-97880241D03*
%TD*%
D11*
%TO.P,R27,1*%
%TO.N,+3V3*%
X115548346Y-94128641D03*
%TO.P,R27,2*%
%TO.N,/optBPin*%
X115548346Y-92128641D03*
%TD*%
D14*
%TO.P,R32,1*%
%TO.N,Net-(D6-PadC)*%
X105435400Y-112701400D03*
%TO.P,R32,2*%
%TO.N,GND*%
X105435400Y-110801400D03*
%TD*%
D11*
%TO.P,R16,1*%
%TO.N,GND*%
X107771548Y-60621041D03*
%TO.P,R16,2*%
%TO.N,Net-(R16-Pad2)*%
X107771548Y-58621041D03*
%TD*%
%TO.P,R22,1*%
%TO.N,GND*%
X107771548Y-65833041D03*
%TO.P,R22,2*%
%TO.N,Net-(R22-Pad2)*%
X107771548Y-63833041D03*
%TD*%
%TO.P,R28,1*%
%TO.N,+3V3*%
X104741546Y-94128641D03*
%TO.P,R28,2*%
%TO.N,/optAPin*%
X104741546Y-92128641D03*
%TD*%
%TO.P,R17,1*%
%TO.N,GND*%
X115931293Y-55202008D03*
%TO.P,R17,2*%
%TO.N,Net-(R17-Pad2)*%
X115931293Y-53202008D03*
%TD*%
%TO.P,R21,1*%
%TO.N,Net-(EN_1-Pad1)*%
X108034146Y-104882241D03*
%TO.P,R21,2*%
%TO.N,GND*%
X108034146Y-102882241D03*
%TD*%
D19*
%TO.P,D2,A,A*%
%TO.N,VBUS*%
X146177000Y-95944000D03*
%TO.P,D2,C,C*%
%TO.N,Net-(D2-PadC)*%
X146177000Y-98044000D03*
%TD*%
D14*
%TO.P,R35,1*%
%TO.N,Net-(D9-PadC)*%
X116890800Y-112742000D03*
%TO.P,R35,2*%
%TO.N,GND*%
X116890800Y-110842000D03*
%TD*%
%TO.P,R31,1*%
%TO.N,Net-(D5-PadC)*%
X101625400Y-112760800D03*
%TO.P,R31,2*%
%TO.N,GND*%
X101625400Y-110860800D03*
%TD*%
D20*
%TO.P,JP1,1,1*%
%TO.N,/Pin8*%
X123190000Y-73518000D03*
%TO.P,JP1,2,2*%
%TO.N,Net-(U6-I2S_DOUT)*%
X123190000Y-74818000D03*
%TD*%
D21*
%TO.P,L2,1*%
%TO.N,/VDDA*%
X116197212Y-78830407D03*
%TO.P,L2,2*%
%TO.N,+3V3*%
X116197212Y-77078007D03*
%TD*%
D22*
%TO.P,C11,1*%
%TO.N,+3V3*%
X132588000Y-76293000D03*
%TO.P,C11,2*%
%TO.N,GND*%
X132588000Y-78393000D03*
%TD*%
D17*
%TO.P,C17,1*%
%TO.N,/VDDA*%
X116197212Y-80446007D03*
%TO.P,C17,2*%
%TO.N,GND*%
X116197212Y-82346007D03*
%TD*%
D20*
%TO.P,JP2,1,1*%
%TO.N,/Pin7*%
X125730000Y-73518000D03*
%TO.P,JP2,2,2*%
%TO.N,Net-(U6-I2S_DIN)*%
X125730000Y-74818000D03*
%TD*%
D19*
%TO.P,D3,A,A*%
%TO.N,VBUS*%
X146177000Y-94268000D03*
%TO.P,D3,C,C*%
%TO.N,Net-(D3-PadC)*%
X146177000Y-92168000D03*
%TD*%
D22*
%TO.P,C18,1*%
%TO.N,/VDDA*%
X113919000Y-80380007D03*
%TO.P,C18,2*%
%TO.N,GND*%
X113919000Y-82480007D03*
%TD*%
D16*
%TO.P,R37,1*%
%TO.N,/ FSRpin_3_A16*%
X94599000Y-95377000D03*
%TO.P,R37,2*%
%TO.N,GND*%
X92599000Y-95377000D03*
%TD*%
%TO.P,R29,1*%
%TO.N,/ FSRpin_4_A17*%
X94599000Y-106426000D03*
%TO.P,R29,2*%
%TO.N,GND*%
X92599000Y-106426000D03*
%TD*%
D11*
%TO.P,R19,1*%
%TO.N,GND*%
X115714346Y-60600641D03*
%TO.P,R19,2*%
%TO.N,Net-(R19-Pad2)*%
X115714346Y-58600641D03*
%TD*%
D23*
%TO.P,C12,1*%
%TO.N,+1V8*%
X124518212Y-83809007D03*
%TO.P,C12,2*%
%TO.N,GND*%
X126418212Y-83809007D03*
%TD*%
D16*
%TO.P,R23,1*%
%TO.N,/ FSRpin_2_A15*%
X94472000Y-64008000D03*
%TO.P,R23,2*%
%TO.N,GND*%
X92472000Y-64008000D03*
%TD*%
D22*
%TO.P,C10,1*%
%TO.N,+3V3*%
X130675212Y-76293000D03*
%TO.P,C10,2*%
%TO.N,GND*%
X130675212Y-78393000D03*
%TD*%
D17*
%TO.P,C9,1*%
%TO.N,+3V3*%
X127881212Y-76520000D03*
%TO.P,C9,2*%
%TO.N,GND*%
X127881212Y-78420000D03*
%TD*%
D24*
%TO.P,EN_1,1,1*%
%TO.N,Net-(EN_1-Pad1)*%
X108030000Y-107450000D03*
D13*
%TO.P,EN_1,2,2*%
%TO.N,/pushRotaryPin*%
X113030000Y-107450000D03*
%TO.P,EN_1,A,A*%
%TO.N,/optAPin*%
X108030000Y-92950000D03*
%TO.P,EN_1,B,B*%
%TO.N,/optBPin*%
X113030000Y-92950000D03*
%TO.P,EN_1,C,C*%
%TO.N,GND*%
X110530000Y-92950000D03*
D25*
%TO.P,EN_1,S1*%
%TO.N,N/C*%
X104830000Y-100450000D03*
%TO.P,EN_1,S2*%
X116230000Y-100450000D03*
%TD*%
D26*
%TO.P,J4,1,1*%
%TO.N,VLIPO*%
X127635000Y-112014000D03*
%TD*%
D27*
%TO.P,J15,S1,SHIELD*%
%TO.N,unconnected-(J15-SHIELD-PadS1)*%
X145347000Y-75879000D03*
%TD*%
D28*
%TO.P,J11,1*%
%TO.N,GND*%
X98873000Y-91918000D03*
%TO.P,J11,2*%
%TO.N,/ FSRpin_3_A16*%
X98873000Y-94318000D03*
%TO.P,J11,3*%
%TO.N,+3V3*%
X98873000Y-93118000D03*
%TO.P,J11,4*%
%TO.N,GND*%
X98873000Y-98518000D03*
%TO.P,J11,5*%
%TO.N,/ FSRpin_3_A16*%
X98873000Y-96618000D03*
%TO.P,J11,S1,SHIELD*%
%TO.N,unconnected-(J11-SHIELD-PadS1)*%
X88773000Y-97218000D03*
%TO.P,J11,S2,SHIELD__1*%
%TO.N,unconnected-(J11-SHIELD__1-PadS2)*%
X88773000Y-93218000D03*
%TD*%
D26*
%TO.P,MIC1,1,1*%
%TO.N,Net-(C19-Pad2)*%
X131240200Y-59766200D03*
%TO.P,MIC1,2,2*%
%TO.N,GND*%
X133650200Y-59766200D03*
%TD*%
D29*
%TO.P,U1,P$18,PAD*%
%TO.N,GND*%
X141918000Y-97495000D03*
%TO.P,U1,P$19,PAD*%
X142818000Y-96595000D03*
%TO.P,U1,P$20,PAD*%
X141018000Y-96595000D03*
%TO.P,U1,P$21,PAD*%
X141018000Y-98395000D03*
%TO.P,U1,P$22,PAD*%
X142818000Y-98395000D03*
%TD*%
D26*
%TO.P,J5,1,1*%
%TO.N,GND*%
X124282200Y-112014000D03*
%TD*%
D28*
%TO.P,J6,1*%
%TO.N,GND*%
X98873000Y-60422000D03*
%TO.P,J6,2*%
%TO.N,/ FSRpin_2_A15*%
X98873000Y-62822000D03*
%TO.P,J6,3*%
%TO.N,+3V3*%
X98873000Y-61622000D03*
%TO.P,J6,4*%
%TO.N,GND*%
X98873000Y-67022000D03*
%TO.P,J6,5*%
%TO.N,/ FSRpin_2_A15*%
X98873000Y-65122000D03*
%TO.P,J6,S1,SHIELD*%
%TO.N,unconnected-(J6-SHIELD-PadS1)*%
X88773000Y-65722000D03*
%TO.P,J6,S2,SHIELD__1*%
%TO.N,unconnected-(J6-SHIELD__1-PadS2)*%
X88773000Y-61722000D03*
%TD*%
%TO.P,J3,1*%
%TO.N,GND*%
X98858500Y-49607750D03*
%TO.P,J3,2*%
%TO.N,/ FSRpin_1_A14*%
X98858500Y-52007750D03*
%TO.P,J3,3*%
%TO.N,+3V3*%
X98858500Y-50807750D03*
%TO.P,J3,4*%
%TO.N,GND*%
X98858500Y-56207750D03*
%TO.P,J3,5*%
%TO.N,/ FSRpin_1_A14*%
X98858500Y-54307750D03*
%TO.P,J3,S1,SHIELD*%
%TO.N,unconnected-(J3-SHIELD-PadS1)*%
X88758500Y-54907750D03*
%TO.P,J3,S2,SHIELD__1*%
%TO.N,unconnected-(J3-SHIELD__1-PadS2)*%
X88758500Y-50907750D03*
%TD*%
%TO.P,J7,1*%
%TO.N,GND*%
X98873000Y-102820750D03*
%TO.P,J7,2*%
%TO.N,/ FSRpin_4_A17*%
X98873000Y-105220750D03*
%TO.P,J7,3*%
%TO.N,+3V3*%
X98873000Y-104020750D03*
%TO.P,J7,4*%
%TO.N,GND*%
X98873000Y-109420750D03*
%TO.P,J7,5*%
%TO.N,/ FSRpin_4_A17*%
X98873000Y-107520750D03*
%TO.P,J7,S1,SHIELD*%
%TO.N,unconnected-(J7-SHIELD-PadS1)*%
X88773000Y-108120750D03*
%TO.P,J7,S2,SHIELD__1*%
%TO.N,unconnected-(J7-SHIELD__1-PadS2)*%
X88773000Y-104120750D03*
%TD*%
D30*
%TO.N,V_Batt*%
X128143000Y-105918000D03*
X133350000Y-102743000D03*
%TO.N,VBUS*%
X122424608Y-96139000D03*
X129159000Y-100711000D03*
X127762000Y-96139000D03*
%TO.N,VLIPO*%
X126873000Y-109855000D03*
X127695000Y-100330000D03*
%TO.N,/optAPin*%
X107484746Y-97446641D03*
%TO.N,/optBPin*%
X113631546Y-97497441D03*
%TO.N,/VDDA*%
X117983000Y-79502000D03*
%TO.N,/pushRotaryPin*%
X118795800Y-89509600D03*
%TO.N,/trackPin_3*%
X127762000Y-61239400D03*
%TO.N,/trackPin_4*%
X128160346Y-55181041D03*
%TO.N,/Pin6*%
X95250000Y-78867000D03*
X109855000Y-76835000D03*
%TO.N,/Pin11*%
X105664000Y-81788000D03*
%TO.N,/Pin12*%
X95885000Y-77597000D03*
%TO.N,/trackLEDPin_2*%
X111243946Y-108927441D03*
%TO.N,/trackLEDPin_1*%
X107383146Y-110045041D03*
%TO.N,/Pin20*%
X130802212Y-83301007D03*
%TO.N,/Pin23*%
X134366000Y-85344000D03*
%TO.N,/clockTrigPin*%
X104978200Y-69037200D03*
X112717146Y-67220641D03*
%TO.N,/trackPin_2*%
X102412800Y-66497200D03*
X111955146Y-55841441D03*
%TO.N,/trackPin_1*%
X112412346Y-61683441D03*
X103454200Y-68707000D03*
%TO.N,/undoPin*%
X93624400Y-57962800D03*
X104487546Y-55181041D03*
%TO.N,/RECPin*%
X104233546Y-59448241D03*
X91363800Y-58699400D03*
%TO.N,/\u00A0RECLEDPin*%
X91427919Y-112284268D03*
%TO.N,/PLAYledPin*%
X93108346Y-111823041D03*
%TO.N,/ FSRpin_1_A14*%
X96266000Y-53213000D03*
%TO.N,/ FSRpin_2_A15*%
X96266000Y-64008000D03*
%TO.N,/ FSRpin_3_A16*%
X96139000Y-95504000D03*
%TO.N,/ FSRpin_4_A17*%
X96139000Y-106426000D03*
%TO.N,GND*%
X132588000Y-97282000D03*
X142760700Y-112890300D03*
D31*
X124325212Y-79491007D03*
D30*
X115714346Y-61886641D03*
X143176024Y-60303976D03*
X132715000Y-106934000D03*
X118872000Y-110236000D03*
X144907000Y-112268000D03*
X131638000Y-68387000D03*
X137668000Y-92329000D03*
X92599000Y-96631000D03*
X117390746Y-107098641D03*
X116197212Y-83555007D03*
X92583000Y-105156000D03*
X92456000Y-54483000D03*
X120650000Y-95504000D03*
X138219919Y-67398082D03*
X115663546Y-67373041D03*
X135763000Y-68732400D03*
X103623946Y-107301841D03*
X135102600Y-100253800D03*
X111125000Y-111455200D03*
X109516746Y-102933041D03*
X121277212Y-73268007D03*
X107738746Y-56603441D03*
X121150212Y-81904007D03*
X103471546Y-110502241D03*
X107789546Y-61937441D03*
X130675212Y-79502000D03*
X96105546Y-46875241D03*
X121823000Y-107950000D03*
X138303000Y-69723000D03*
X92456000Y-62738000D03*
X138573000Y-60960000D03*
X145542000Y-99314000D03*
X97409000Y-84074000D03*
X117289146Y-92569841D03*
X123943946Y-62039041D03*
X128389212Y-84190007D03*
X127881212Y-78420000D03*
X87376000Y-74295000D03*
X141478000Y-89662000D03*
X120896212Y-78094007D03*
X97663000Y-76708000D03*
X123994746Y-56400241D03*
X138573000Y-63373000D03*
X121785212Y-82539007D03*
X90187346Y-46875241D03*
X132461000Y-98933000D03*
X142328900Y-100672900D03*
X113919000Y-83682007D03*
X127563712Y-84444007D03*
X87520346Y-83171841D03*
X127635000Y-93980000D03*
X118922800Y-111531400D03*
X115917546Y-56501841D03*
X125958600Y-110744000D03*
X109211946Y-100914641D03*
D32*
X125730000Y-98425000D03*
D30*
X111379000Y-81788000D03*
X103251000Y-83058000D03*
X120594712Y-80438500D03*
X103471546Y-111772241D03*
X127889000Y-104394000D03*
X120887445Y-85233881D03*
X111802746Y-100965441D03*
X131064000Y-106680000D03*
X107771548Y-66915841D03*
X125958600Y-113334800D03*
X102963546Y-92519041D03*
X129794000Y-112903000D03*
X111099600Y-110261400D03*
X132588000Y-79502000D03*
X123893146Y-67423841D03*
%TO.N,Net-(U6-HP_VGND)*%
X131445000Y-81407000D03*
X130683000Y-89154000D03*
%TO.N,Net-(U6-HP_R)*%
X132842000Y-80645000D03*
X129540000Y-85852000D03*
%TO.N,Net-(U6-HP_L)*%
X133858000Y-74930000D03*
X117856000Y-75692000D03*
%TO.N,Net-(U6-I2S_DOUT)*%
X126865212Y-85206007D03*
X120269000Y-73533000D03*
X118864212Y-77724000D03*
%TO.N,Net-(U6-I2S_DIN)*%
X119888000Y-74803000D03*
X119880212Y-77713007D03*
X125595212Y-85206007D03*
%TO.N,/ENABLE*%
X138303000Y-97155000D03*
X137287000Y-108204000D03*
%TO.N,Net-(R6-Pad1)*%
X129032000Y-108966000D03*
X130302000Y-101600000D03*
%TO.N,Net-(D2-PadC)*%
X137160000Y-95123000D03*
%TO.N,Net-(D3-PadC)*%
X135255000Y-92837000D03*
%TO.N,/VPCC(TP)*%
X123317000Y-103759000D03*
X122682000Y-99060000D03*
%TO.N,Net-(R15-Pad2)*%
X109923146Y-51523441D03*
%TO.N,Net-(R16-Pad2)*%
X109923146Y-57060641D03*
%TO.N,Net-(R17-Pad2)*%
X118000346Y-51574241D03*
%TO.N,Net-(R19-Pad2)*%
X118051146Y-57162241D03*
%TO.N,Net-(R20-Pad2)*%
X126077546Y-62547041D03*
%TO.N,Net-(R22-Pad2)*%
X109923146Y-62648641D03*
%TO.N,Net-(R24-Pad2)*%
X118000346Y-62547041D03*
%TO.N,Net-(R25-Pad2)*%
X126128346Y-51574241D03*
%TO.N,Net-(R26-Pad2)*%
X126128346Y-57162241D03*
%TO.N,Net-(D5-PadC)*%
X99872800Y-112979200D03*
%TO.N,+3V3*%
X102362000Y-95885000D03*
D32*
X141478000Y-71882000D03*
D33*
X113530212Y-77078007D03*
D30*
X101193600Y-60096400D03*
D33*
X129278212Y-79237007D03*
D30*
%TO.N,+1V8*%
X123055212Y-83612830D03*
%TO.N,Net-(D6-PadC)*%
X103581200Y-113106200D03*
%TO.N,Net-(D7-PadC)*%
X107365800Y-113004600D03*
%TO.N,Net-(D8-PadC)*%
X111150400Y-113030000D03*
%TO.N,Net-(D9-PadC)*%
X114960400Y-113004600D03*
%TO.N,Net-(D10-PadC)*%
X118922800Y-113055400D03*
%TO.N,Net-(U6-MIC)*%
X130302000Y-69088000D03*
X129565400Y-73939400D03*
%TO.N,Net-(U6-MIC_BIAS)*%
X131241800Y-74015600D03*
X132842000Y-68707000D03*
%TD*%
D34*
%TO.N,V_Batt*%
X133350000Y-102743000D02*
X133223000Y-102743000D01*
D35*
X132461000Y-103505000D02*
X133350000Y-102743000D01*
X130683000Y-103505000D02*
X132461000Y-103505000D01*
X128270000Y-105918000D02*
X130683000Y-103505000D01*
D34*
X128143000Y-105918000D02*
X128270000Y-105918000D01*
D35*
%TO.N,VBUS*%
X129159000Y-100711000D02*
X129159000Y-97536000D01*
D34*
X146177000Y-95944000D02*
X145982000Y-95944000D01*
X144306000Y-94268000D02*
X131284000Y-94268000D01*
X145982000Y-95944000D02*
X144306000Y-94268000D01*
D35*
X122424608Y-96139000D02*
X127762000Y-96139000D01*
X127762000Y-96139000D02*
X128587500Y-96964500D01*
D34*
X144306000Y-94268000D02*
X146177000Y-94268000D01*
X131284000Y-94268000D02*
X128587500Y-96964500D01*
D35*
X129159000Y-97536000D02*
X128587500Y-96964500D01*
D36*
%TO.N,VLIPO*%
X125349000Y-102676000D02*
X127635000Y-100390000D01*
X126873000Y-109855000D02*
X126873000Y-107569000D01*
D34*
X127635000Y-100390000D02*
X127695000Y-100330000D01*
D36*
X127695000Y-111954000D02*
X127635000Y-112014000D01*
X126873000Y-107569000D02*
X125349000Y-106045000D01*
X125349000Y-106045000D02*
X125349000Y-102676000D01*
D34*
%TO.N,/optAPin*%
X108094346Y-98056241D02*
X109035946Y-98056241D01*
X108030000Y-92950000D02*
X106613705Y-92950000D01*
X109035946Y-98056241D02*
X109211946Y-97880241D01*
X106613705Y-92950000D02*
X105792346Y-92128641D01*
X107484746Y-97446641D02*
X108094346Y-98056241D01*
X109133946Y-97802241D02*
X109211946Y-97880241D01*
X105792346Y-92128641D02*
X104741546Y-92128641D01*
%TO.N,/optBPin*%
X113030000Y-92950000D02*
X113403787Y-92950000D01*
X111880746Y-97853041D02*
X111853546Y-97880241D01*
X113072746Y-98056241D02*
X112029546Y-98056241D01*
X112029546Y-98056241D02*
X111853546Y-97880241D01*
X113403787Y-92950000D02*
X114225146Y-92128641D01*
X114225146Y-92128641D02*
X115548346Y-92128641D01*
X113631546Y-97497441D02*
X113072746Y-98056241D01*
D35*
%TO.N,/VDDA*%
X117983000Y-79502000D02*
X117348000Y-78867000D01*
D34*
X113985000Y-80446007D02*
X113919000Y-80380007D01*
D35*
X117311407Y-78830407D02*
X116197212Y-78830407D01*
X117348000Y-78867000D02*
X117311407Y-78830407D01*
X116197212Y-80446007D02*
X113985000Y-80446007D01*
X116197212Y-78830407D02*
X116197212Y-80446007D01*
D34*
%TO.N,Net-(EN_1-Pad1)*%
X108034146Y-107445854D02*
X108030000Y-107450000D01*
X108034146Y-104882241D02*
X108034146Y-107445854D01*
%TO.N,/pushRotaryPin*%
X120614424Y-87690976D02*
X120614424Y-87214014D01*
X118795800Y-89509600D02*
X120614424Y-87690976D01*
%TO.N,/trackPin_3*%
X135854424Y-71974014D02*
X135854424Y-71795624D01*
X134442200Y-67919600D02*
X127762000Y-61239400D01*
X134442200Y-70383400D02*
X134442200Y-67919600D01*
X127762000Y-61239400D02*
X127736600Y-61214000D01*
X135854424Y-71795624D02*
X134442200Y-70383400D01*
%TO.N,/trackPin_4*%
X128160346Y-55181041D02*
X129367305Y-56388000D01*
X137058400Y-58699400D02*
X137058400Y-70332600D01*
X134747000Y-56388000D02*
X137058400Y-58699400D01*
X138394424Y-71668624D02*
X138394424Y-71974014D01*
X129367305Y-56388000D02*
X134747000Y-56388000D01*
X128160139Y-55180834D02*
X128160346Y-55181041D01*
X137058400Y-70332600D02*
X138394424Y-71668624D01*
D37*
%TO.N,/Pin6*%
X95250000Y-78867000D02*
X95377000Y-78740000D01*
X107950000Y-78740000D02*
X109855000Y-76835000D01*
X95377000Y-78740000D02*
X107950000Y-78740000D01*
D34*
%TO.N,/Pin7*%
X125694424Y-73225219D02*
X125722212Y-73253007D01*
X125694424Y-71974014D02*
X125694424Y-73225219D01*
%TO.N,/Pin8*%
X123154424Y-73240219D02*
X123182212Y-73268007D01*
X123154424Y-71974014D02*
X123154424Y-73240219D01*
D37*
%TO.N,/Pin11*%
X114173000Y-73335438D02*
X115534424Y-71974014D01*
X106851808Y-81788000D02*
X114173000Y-74466808D01*
X114173000Y-74466808D02*
X114173000Y-73335438D01*
X105664000Y-81788000D02*
X106851808Y-81788000D01*
%TO.N,/Pin12*%
X95885000Y-77597000D02*
X107315000Y-77597000D01*
X107371438Y-77597000D02*
X112994424Y-71974014D01*
D34*
X107315000Y-77597000D02*
X107371438Y-77597000D01*
%TO.N,/trackLEDPin_2*%
X106222800Y-108932400D02*
X111238987Y-108932400D01*
X111243946Y-108927441D02*
X111248905Y-108932400D01*
X111238987Y-108932400D02*
X111243946Y-108927441D01*
X123154424Y-87214014D02*
X119614238Y-90754200D01*
X101396800Y-91262200D02*
X101396800Y-108140546D01*
X119614238Y-90754200D02*
X101904800Y-90754200D01*
X101530127Y-108273873D02*
X105564273Y-108273873D01*
X101904800Y-90754200D02*
X101396800Y-91262200D01*
X105564273Y-108273873D02*
X106222800Y-108932400D01*
X101396800Y-108140546D02*
X101530127Y-108273873D01*
%TO.N,/trackLEDPin_1*%
X107383146Y-110045041D02*
X107383146Y-110146641D01*
X116103400Y-90271600D02*
X101549200Y-90271600D01*
X116840000Y-88448438D02*
X116840000Y-89535000D01*
X101396800Y-108762800D02*
X105181400Y-108762800D01*
X107281546Y-110045041D02*
X107383146Y-110045041D01*
X118074424Y-87214014D02*
X116840000Y-88448438D01*
X100838000Y-108204000D02*
X101396800Y-108762800D01*
X107383146Y-110146641D02*
X107281546Y-110045041D01*
X116840000Y-89535000D02*
X116103400Y-90271600D01*
X106608905Y-109372400D02*
X107281546Y-110045041D01*
X100838000Y-90982800D02*
X100838000Y-108204000D01*
X105181400Y-108762800D02*
X105791000Y-109372400D01*
X105791000Y-109372400D02*
X106608905Y-109372400D01*
X101549200Y-90271600D02*
X100838000Y-90982800D01*
D37*
%TO.N,/SDA*%
X125694424Y-87214014D02*
X125694424Y-89628219D01*
D34*
X125694424Y-89628219D02*
X125722212Y-89656007D01*
D37*
%TO.N,/SCL*%
X128234424Y-87214014D02*
X128234424Y-89501219D01*
D34*
X128234424Y-89501219D02*
X128389212Y-89656007D01*
D37*
%TO.N,/Pin20*%
X130802212Y-83301007D02*
X130774424Y-83400219D01*
X130774424Y-83400219D02*
X130774424Y-83428007D01*
X130774424Y-87214014D02*
X130774424Y-83455795D01*
X130774424Y-83455795D02*
X130802212Y-83301007D01*
%TO.N,/Pin23*%
X134366000Y-85344000D02*
X134865946Y-85843946D01*
X134865946Y-86677041D02*
X135402919Y-87214014D01*
X134865946Y-85843946D02*
X134865946Y-86677041D01*
X135402919Y-87214014D02*
X138394424Y-87214014D01*
D34*
%TO.N,/clockTrigPin*%
X110016887Y-69158900D02*
X111265067Y-67910720D01*
X111265067Y-67910720D02*
X111853546Y-67322241D01*
X111955146Y-67322241D02*
X112717146Y-67322241D01*
X105099900Y-69158900D02*
X110016887Y-69158900D01*
X104978200Y-69037200D02*
X105099900Y-69158900D01*
X104845900Y-69037200D02*
X104795100Y-68986400D01*
X112717146Y-67220641D02*
X112818746Y-67220641D01*
X112717146Y-67322241D02*
X112717146Y-67322241D01*
X104978200Y-69037200D02*
X104845900Y-69037200D01*
X112717146Y-67322241D02*
X112717146Y-67220641D01*
X111853546Y-67322241D02*
X111955146Y-67322241D01*
%TO.N,/trackPin_2*%
X102438200Y-66497200D02*
X102412800Y-66497200D01*
X111976359Y-55841441D02*
X111955146Y-55841441D01*
X109905800Y-67741800D02*
X103682800Y-67741800D01*
X111201200Y-56616600D02*
X111201200Y-66446400D01*
X111955146Y-55862654D02*
X111201200Y-56616600D01*
X111955146Y-55841441D02*
X111955146Y-55862654D01*
X102412800Y-66471800D02*
X102489000Y-66548000D01*
X103682800Y-67741800D02*
X102438200Y-66497200D01*
X102412800Y-66497200D02*
X102412800Y-66471800D01*
X111201200Y-66446400D02*
X109905800Y-67741800D01*
%TO.N,/trackPin_1*%
X112412346Y-61729552D02*
X112412346Y-61683441D01*
X111810800Y-62331098D02*
X112412346Y-61729552D01*
X103454200Y-68707000D02*
X103979400Y-68181800D01*
X111810800Y-66459054D02*
X111810800Y-62331098D01*
X112412346Y-61683441D02*
X112458457Y-61683441D01*
X110088054Y-68181800D02*
X111810800Y-66459054D01*
X103979400Y-68181800D02*
X110088054Y-68181800D01*
%TO.N,/undoPin*%
X103772366Y-55180834D02*
X104487339Y-55180834D01*
X93624400Y-57962800D02*
X100990400Y-57962800D01*
X104487546Y-55181041D02*
X104487753Y-55180834D01*
X100990400Y-57962800D02*
X103772366Y-55180834D01*
X104487339Y-55180834D02*
X104487546Y-55181041D01*
%TO.N,/RECPin*%
X92557600Y-58699400D02*
X92862400Y-59004200D01*
X91363800Y-58699400D02*
X92557600Y-58699400D01*
X103437915Y-58597800D02*
X104233546Y-59393431D01*
X104233546Y-59448241D02*
X104288356Y-59448241D01*
X92862400Y-59004200D02*
X94894400Y-59004200D01*
X104233546Y-59393431D02*
X104233546Y-59448241D01*
X94894400Y-59004200D02*
X95300800Y-58597800D01*
X95300800Y-58597800D02*
X103437915Y-58597800D01*
%TO.N,/\u00A0RECLEDPin*%
X91427919Y-112284268D02*
X90525600Y-111381949D01*
X90525600Y-111381949D02*
X90525600Y-91902838D01*
X90525600Y-91902838D02*
X95214424Y-87214014D01*
%TO.N,/PLAYledPin*%
X90965600Y-109680295D02*
X93108346Y-111823041D01*
X90965600Y-94002838D02*
X90965600Y-109680295D01*
X97754424Y-87214014D02*
X90965600Y-94002838D01*
%TO.N,/ FSRpin_1_A14*%
X91821000Y-56007000D02*
X90424000Y-57404000D01*
X96266000Y-53213000D02*
X94456000Y-53213000D01*
X100294424Y-84673424D02*
X100294424Y-87214014D01*
X98044000Y-82423000D02*
X100294424Y-84673424D01*
X88859149Y-76667149D02*
X94615000Y-82423000D01*
X96266000Y-53213000D02*
X96266000Y-54610000D01*
X88859149Y-68239851D02*
X88859149Y-76667149D01*
X94869000Y-56007000D02*
X91821000Y-56007000D01*
X90424000Y-57404000D02*
X90424000Y-66675000D01*
X96266000Y-54610000D02*
X94869000Y-56007000D01*
X90424000Y-66675000D02*
X88859149Y-68239851D01*
X94615000Y-82423000D02*
X98044000Y-82423000D01*
%TO.N,/ FSRpin_2_A15*%
X98171000Y-80264000D02*
X102834424Y-84927424D01*
X96266000Y-64008000D02*
X96266000Y-65786000D01*
X96266000Y-65786000D02*
X94742000Y-67310000D01*
X94742000Y-67310000D02*
X92583000Y-67310000D01*
X91418162Y-68474838D02*
X91418162Y-77067162D01*
X102834424Y-84927424D02*
X102834424Y-87214014D01*
X94615000Y-80264000D02*
X98171000Y-80264000D01*
X91418162Y-77067162D02*
X94615000Y-80264000D01*
X92583000Y-67310000D02*
X91418162Y-68474838D01*
X96266000Y-64008000D02*
X94472000Y-64008000D01*
%TO.N,/ FSRpin_3_A16*%
X98171000Y-88874600D02*
X104902000Y-88874600D01*
X94726000Y-95504000D02*
X94599000Y-95377000D01*
X96139000Y-95504000D02*
X94726000Y-95504000D01*
X105374424Y-88402176D02*
X105374424Y-87214014D01*
X104902000Y-88874600D02*
X105374424Y-88402176D01*
X96139000Y-90906600D02*
X98171000Y-88874600D01*
X96139000Y-95504000D02*
X96139000Y-90906600D01*
%TO.N,/ FSRpin_4_A17*%
X96139000Y-106426000D02*
X94599000Y-106426000D01*
X97206592Y-99135408D02*
X97206592Y-91261408D01*
X107914424Y-88656176D02*
X107914424Y-87214014D01*
X96139000Y-100203000D02*
X97206592Y-99135408D01*
X107010200Y-89560400D02*
X107914424Y-88656176D01*
X96139000Y-106426000D02*
X96139000Y-100203000D01*
X98907600Y-89560400D02*
X107010200Y-89560400D01*
X97206592Y-91261408D02*
X98907600Y-89560400D01*
%TO.N,GND*%
X92599000Y-105172000D02*
X92583000Y-105156000D01*
X109770746Y-99136641D02*
X109706346Y-99072241D01*
X132588000Y-78393000D02*
X132588000Y-79502000D01*
X116890800Y-110842000D02*
X117496800Y-110236000D01*
X111753400Y-110826800D02*
X113030000Y-110826800D01*
X115866746Y-56501841D02*
X115917546Y-56451041D01*
X92456000Y-53213000D02*
X92456000Y-54483000D01*
X117496800Y-110236000D02*
X118455330Y-110236000D01*
X92472000Y-64008000D02*
X92472000Y-62754000D01*
X103852546Y-111772241D02*
X104823387Y-110801400D01*
X92599000Y-106426000D02*
X92599000Y-105172000D01*
X115931293Y-55202008D02*
X115931293Y-56437294D01*
X127563712Y-84444007D02*
X127627212Y-84444007D01*
X123967606Y-55147440D02*
X123967606Y-56271501D01*
X113919000Y-83682007D02*
X113919000Y-83555007D01*
X123994746Y-56400241D02*
X124096346Y-56400241D01*
X115663546Y-66170842D02*
X115663546Y-67373041D01*
X123893146Y-67423841D02*
X123893146Y-66087041D01*
X103471546Y-111772241D02*
X103852546Y-111772241D01*
X123967606Y-56271501D02*
X123994746Y-56298641D01*
X120751600Y-111064000D02*
X120284200Y-111531400D01*
X115917546Y-56451041D02*
X115917546Y-56501841D01*
D37*
X113919000Y-82480007D02*
X113919000Y-83682007D01*
D34*
X123943946Y-62039041D02*
X123943946Y-60753041D01*
D37*
X130675212Y-79502000D02*
X130675212Y-78393000D01*
D34*
X111802746Y-100965441D02*
X111802746Y-100762241D01*
X103112987Y-110860800D02*
X101625400Y-110860800D01*
X109211946Y-100914641D02*
X109211946Y-100863841D01*
D37*
X127754212Y-84571007D02*
X127373212Y-84190007D01*
D34*
X115931293Y-56437294D02*
X115917546Y-56451041D01*
X107738746Y-56603441D02*
X107738746Y-56501841D01*
X108034146Y-102882241D02*
X109516746Y-102933041D01*
X120284200Y-111531400D02*
X118922800Y-111531400D01*
X92472000Y-62754000D02*
X92456000Y-62738000D01*
X109777649Y-110261400D02*
X110708330Y-110261400D01*
X104823387Y-110801400D02*
X105435400Y-110801400D01*
X109516746Y-102933041D02*
X109465946Y-102882241D01*
X115663546Y-67373041D02*
X115663546Y-67169841D01*
X109242765Y-110796284D02*
X109777649Y-110261400D01*
X115917546Y-56501841D02*
X115866746Y-56501841D01*
X111853546Y-99580241D02*
X111853546Y-100711441D01*
X107738746Y-55215841D02*
X107738746Y-56603441D01*
X107771548Y-60621041D02*
X107789546Y-61937441D01*
X103471546Y-110502241D02*
X103112987Y-110860800D01*
X123994746Y-56298641D02*
X123994746Y-56400241D01*
X107771548Y-66915841D02*
X107771548Y-66056641D01*
X92599000Y-96631000D02*
X92599000Y-95377000D01*
D37*
X116197212Y-82346007D02*
X116197212Y-83555007D01*
X127892685Y-82995829D02*
X127892685Y-83693480D01*
X127373212Y-84190007D02*
X126418212Y-84190007D01*
D34*
X115714346Y-61886641D02*
X115714346Y-61835841D01*
X127627212Y-84444007D02*
X127754212Y-84571007D01*
X109211946Y-99580241D02*
X109211946Y-100914641D01*
X107789546Y-61937441D02*
X107771548Y-61817843D01*
X124096346Y-56400241D02*
X123994746Y-56298641D01*
D37*
X127892685Y-83693480D02*
X128262212Y-84063007D01*
D34*
X111125000Y-111455200D02*
X111753400Y-110826800D01*
X111853546Y-100711441D02*
X111802746Y-100965441D01*
X115714346Y-60600641D02*
X115714346Y-61886641D01*
%TO.N,Net-(U6-HP_VGND)*%
X130683000Y-89154000D02*
X132027174Y-87809826D01*
X131445000Y-82528652D02*
X131445000Y-81407000D01*
X132027174Y-83110826D02*
X131445000Y-82528652D01*
X132027174Y-87809826D02*
X132027174Y-83110826D01*
%TO.N,Net-(U6-HP_R)*%
X132719837Y-80645000D02*
X132211837Y-80137000D01*
X131318000Y-80137000D02*
X129794000Y-81661000D01*
X132211837Y-80137000D02*
X131318000Y-80137000D01*
X132842000Y-80645000D02*
X132719837Y-80645000D01*
X129794000Y-85598000D02*
X129540000Y-85852000D01*
X129794000Y-81661000D02*
X129794000Y-85598000D01*
%TO.N,Net-(U6-HP_L)*%
X132902000Y-75378000D02*
X126871531Y-75378000D01*
X126248524Y-76001007D02*
X118165007Y-76001007D01*
X133350000Y-74930000D02*
X132902000Y-75378000D01*
X126871531Y-75378000D02*
X126248524Y-76001007D01*
X133858000Y-74930000D02*
X133350000Y-74930000D01*
X118165007Y-76001007D02*
X117856000Y-75692000D01*
%TO.N,Net-(U6-I2S_DOUT)*%
X124579212Y-85714007D02*
X124833212Y-85968007D01*
X118864212Y-81904007D02*
X122674212Y-85714007D01*
X124833212Y-85968007D02*
X126103212Y-85968007D01*
X122674212Y-85714007D02*
X124579212Y-85714007D01*
X118864212Y-77724000D02*
X118864212Y-81904007D01*
X120562212Y-73533000D02*
X120562212Y-73564170D01*
X120269000Y-73533000D02*
X120562212Y-73533000D01*
X121693049Y-74695007D02*
X123182212Y-74695007D01*
X126103212Y-85968007D02*
X126865212Y-85206007D01*
X120562212Y-73564170D02*
X121693049Y-74695007D01*
%TO.N,Net-(U6-I2S_DIN)*%
X119312957Y-74233341D02*
X119312957Y-71314043D01*
X119499424Y-74414424D02*
X119494040Y-74414424D01*
X120015000Y-70612000D02*
X123952000Y-70612000D01*
X124460000Y-74421500D02*
X124856500Y-74818000D01*
X119888000Y-74803000D02*
X119499424Y-74414424D01*
X119494040Y-74414424D02*
X119312957Y-74233341D01*
X119880212Y-82158007D02*
X119880212Y-77713007D01*
X123690212Y-85206007D02*
X122928212Y-85206007D01*
X123952000Y-70612000D02*
X124460000Y-71120000D01*
X124856500Y-74818000D02*
X125730000Y-74818000D01*
X122928212Y-85206007D02*
X119880212Y-82158007D01*
X119312957Y-71314043D02*
X120015000Y-70612000D01*
X124460000Y-71120000D02*
X124460000Y-74421500D01*
X125595212Y-85206007D02*
X123690212Y-85206007D01*
%TO.N,/ENABLE*%
X137287000Y-98171000D02*
X137287000Y-108204000D01*
X138303000Y-97155000D02*
X137287000Y-98171000D01*
%TO.N,Net-(R6-Pad1)*%
X129032000Y-108331000D02*
X129032000Y-108966000D01*
X126619000Y-105664000D02*
X126619000Y-105918000D01*
X126619000Y-103124000D02*
X126619000Y-105664000D01*
X126619000Y-105918000D02*
X129032000Y-108331000D01*
X130302000Y-101600000D02*
X129286000Y-102616000D01*
X129286000Y-102616000D02*
X127127000Y-102616000D01*
X127127000Y-102616000D02*
X126619000Y-103124000D01*
%TO.N,Net-(D2-PadC)*%
X144399000Y-96012000D02*
X144399000Y-97409000D01*
X145034000Y-98044000D02*
X146177000Y-98044000D01*
X137160000Y-95123000D02*
X143510000Y-95123000D01*
X143510000Y-95123000D02*
X144399000Y-96012000D01*
X144399000Y-97409000D02*
X145034000Y-98044000D01*
%TO.N,Net-(D3-PadC)*%
X145127000Y-93218000D02*
X146177000Y-92168000D01*
X135255000Y-92837000D02*
X135636000Y-93218000D01*
X135636000Y-93218000D02*
X145127000Y-93218000D01*
%TO.N,/VPCC(TP)*%
X122555000Y-99314000D02*
X122555000Y-99187000D01*
X123317000Y-103759000D02*
X122555000Y-102997000D01*
X122555000Y-102870000D02*
X122555000Y-101066600D01*
X122682000Y-99060000D02*
X122809000Y-98933000D01*
X122555000Y-101066600D02*
X122555000Y-99314000D01*
X121234200Y-101015800D02*
X121259600Y-100990400D01*
X122478800Y-100990400D02*
X122555000Y-101066600D01*
X122555000Y-99187000D02*
X122682000Y-99060000D01*
X122555000Y-102997000D02*
X122555000Y-102870000D01*
X122478800Y-100990400D02*
X121259600Y-100990400D01*
%TO.N,Net-(R15-Pad2)*%
X108195946Y-51523441D02*
X107738746Y-51980641D01*
X107738746Y-51980641D02*
X107738746Y-53215841D01*
X109923146Y-51523441D02*
X108195946Y-51523441D01*
%TO.N,Net-(R16-Pad2)*%
X107771548Y-57942239D02*
X107771548Y-58621041D01*
X109923146Y-57060641D02*
X108653146Y-57060641D01*
X108653146Y-57060641D02*
X107771548Y-57942239D01*
%TO.N,Net-(R17-Pad2)*%
X117559060Y-51574241D02*
X115931293Y-53202008D01*
X118000346Y-51574241D02*
X117559060Y-51574241D01*
%TO.N,Net-(R19-Pad2)*%
X117152746Y-57162241D02*
X115714346Y-58600641D01*
X118051146Y-57162241D02*
X117152746Y-57162241D01*
%TO.N,Net-(R20-Pad2)*%
X126077546Y-62547041D02*
X125433146Y-62547041D01*
X125433146Y-62547041D02*
X123893146Y-64087041D01*
%TO.N,Net-(R22-Pad2)*%
X107771548Y-63631839D02*
X107771548Y-63934641D01*
X108754746Y-62648641D02*
X107771548Y-63631839D01*
X109923146Y-62648641D02*
X108754746Y-62648641D01*
%TO.N,Net-(R24-Pad2)*%
X117287347Y-62547041D02*
X115663546Y-64170842D01*
X118000346Y-62547041D02*
X117287347Y-62547041D01*
%TO.N,Net-(R25-Pad2)*%
X126128346Y-51574241D02*
X125540805Y-51574241D01*
X125540805Y-51574241D02*
X123967606Y-53147440D01*
%TO.N,Net-(R26-Pad2)*%
X126128346Y-57162241D02*
X125534746Y-57162241D01*
X125534746Y-57162241D02*
X123943946Y-58753041D01*
%TO.N,Net-(D5-PadC)*%
X101625400Y-112760800D02*
X100091200Y-112760800D01*
X99872800Y-113055400D02*
X100025200Y-113207800D01*
X100091200Y-112760800D02*
X99872800Y-112979200D01*
X99872800Y-112979200D02*
X99872800Y-113055400D01*
D38*
%TO.N,+3V3*%
X126484212Y-76570007D02*
X118483212Y-76570007D01*
D35*
X103149400Y-70053200D02*
X109768624Y-70053200D01*
X133985000Y-80260795D02*
X135628212Y-81904007D01*
X130709212Y-76062007D02*
X133339007Y-76062007D01*
X136662993Y-91556007D02*
X125722212Y-91556007D01*
X117593946Y-95414641D02*
X118127346Y-94881241D01*
X129278212Y-80845302D02*
X128917685Y-81205829D01*
D34*
X104741546Y-94128641D02*
X103792346Y-94128641D01*
D35*
X118127346Y-94881241D02*
X121452580Y-91556007D01*
X101168200Y-68072000D02*
X103149400Y-70053200D01*
X141478000Y-71882000D02*
X141478000Y-86670438D01*
X140934424Y-87214014D02*
X140934424Y-87284576D01*
D34*
X103471546Y-94449441D02*
X103471546Y-95783400D01*
D38*
X127881212Y-76194007D02*
X126860212Y-76194007D01*
D35*
X138070424Y-84350014D02*
X138070424Y-84363014D01*
X101193600Y-60096400D02*
X101168200Y-60121800D01*
D34*
X103471546Y-95783400D02*
X103573146Y-95885000D01*
D35*
X140934424Y-87284576D02*
X136662993Y-91556007D01*
X129278212Y-79237007D02*
X129278212Y-76155007D01*
X128695993Y-76028007D02*
X130675212Y-76028007D01*
D38*
X126860212Y-76194007D02*
X126484212Y-76570007D01*
D35*
X109768624Y-70053200D02*
X110454424Y-70739000D01*
D34*
X115548346Y-94128641D02*
X117374746Y-94128641D01*
D35*
X133339007Y-76062007D02*
X133985000Y-76708000D01*
X135628212Y-81907802D02*
X138070424Y-84350014D01*
D34*
X103792346Y-94128641D02*
X103471546Y-94449441D01*
X135628212Y-81904007D02*
X135628212Y-81907802D01*
D35*
X102362000Y-95885000D02*
X103573146Y-95885000D01*
D34*
X127881212Y-76520000D02*
X127881212Y-76448007D01*
D35*
X141478000Y-86670438D02*
X140934424Y-87214014D01*
X101168200Y-60121800D02*
X101168200Y-68072000D01*
X133985000Y-76708000D02*
X133985000Y-80260795D01*
D38*
X117975212Y-77078007D02*
X116197212Y-77078007D01*
D34*
X117374746Y-94128641D02*
X118127346Y-94881241D01*
X102362000Y-95885000D02*
X102362000Y-95609787D01*
D35*
X117123587Y-95885000D02*
X117593946Y-95414641D01*
X128204000Y-76520000D02*
X128695993Y-76028007D01*
X116197212Y-77078007D02*
X113530212Y-77078007D01*
X127881212Y-76520000D02*
X128204000Y-76520000D01*
D34*
X127881212Y-76448007D02*
X128135212Y-76194007D01*
D35*
X103573146Y-95885000D02*
X117123587Y-95885000D01*
X110454424Y-70739000D02*
X110454424Y-71974014D01*
D34*
X130709212Y-76062007D02*
X130675212Y-76028007D01*
D35*
X129278212Y-79237007D02*
X129278212Y-80845302D01*
X138070424Y-84363014D02*
X138083424Y-84363014D01*
X121452580Y-91556007D02*
X125722212Y-91556007D01*
D38*
X118483212Y-76570007D02*
X117975212Y-77078007D01*
D35*
X138083424Y-84363014D02*
X140934424Y-87214014D01*
D37*
%TO.N,+1V8*%
X123055212Y-83612830D02*
X123124389Y-83682007D01*
D35*
X126867685Y-81205829D02*
X124518212Y-83555302D01*
D37*
X123124389Y-83682007D02*
X124645212Y-83682007D01*
D35*
X124518212Y-83555302D02*
X124518212Y-84190007D01*
D34*
%TO.N,Net-(D6-PadC)*%
X103581200Y-113157000D02*
X103581200Y-113106200D01*
X103530400Y-113106200D02*
X103581200Y-113157000D01*
X103986000Y-112701400D02*
X103581200Y-113106200D01*
X105435400Y-112701400D02*
X103986000Y-112701400D01*
X103581200Y-113106200D02*
X103530400Y-113106200D01*
%TO.N,Net-(D7-PadC)*%
X109242765Y-112696284D02*
X107674116Y-112696284D01*
X107674116Y-112696284D02*
X107365800Y-113004600D01*
X109217365Y-113050284D02*
X109199716Y-113050284D01*
X109208643Y-113050284D02*
X109217365Y-113050284D01*
X107365800Y-113004600D02*
X107391200Y-113131600D01*
%TO.N,Net-(D8-PadC)*%
X112638730Y-112726800D02*
X111453600Y-112726800D01*
X111150400Y-113030000D02*
X111226600Y-113055400D01*
X111453600Y-112726800D02*
X111150400Y-113030000D01*
X111277400Y-113055400D02*
X111150400Y-113030000D01*
X111226600Y-113055400D02*
X111252000Y-113055400D01*
X111277400Y-113055400D02*
X111277400Y-113055400D01*
%TO.N,Net-(D9-PadC)*%
X114960400Y-113030000D02*
X114960400Y-113004600D01*
X116890800Y-112742000D02*
X115223000Y-112742000D01*
X115223000Y-112742000D02*
X114960400Y-113004600D01*
%TO.N,Net-(D10-PadC)*%
X118846600Y-113055400D02*
X118922800Y-113131600D01*
X119014200Y-112964000D02*
X118922800Y-113055400D01*
X118922800Y-113055400D02*
X118846600Y-113055400D01*
X118922800Y-113131600D02*
X118922800Y-113055400D01*
X120360330Y-112964000D02*
X119014200Y-112964000D01*
D39*
%TO.N,+5V*%
X146050000Y-87178438D02*
X146014424Y-87214014D01*
D37*
%TO.N,Net-(U6-MIC)*%
X129565400Y-73939400D02*
X129463800Y-73837800D01*
D34*
X129463800Y-69926200D02*
X129463800Y-70256400D01*
X130302000Y-69088000D02*
X129463800Y-69926200D01*
D37*
X129463800Y-73837800D02*
X129463800Y-70001858D01*
D34*
%TO.N,Net-(U6-MIC_BIAS)*%
X132029200Y-73228200D02*
X132029200Y-69519800D01*
X131241800Y-74015600D02*
X132029200Y-73228200D01*
X132029200Y-69519800D02*
X132842000Y-68707000D01*
X132842000Y-68707000D02*
X132654000Y-68895000D01*
%TD*%
D40*
X114012546Y-46621241D02*
X114012546Y-49542241D01*
X114012546Y-49542241D02*
X144492546Y-49542241D01*
X144492546Y-46621241D02*
G75*
G02*
X145762546Y-45351246I1269954J41D01*
G01*
X144492546Y-49542241D02*
X144492546Y-46621241D01*
X146143546Y-45351241D02*
G75*
G02*
X147413459Y-46621241I-46J-1269959D01*
G01*
X146143546Y-113931241D02*
X87723546Y-113931241D01*
X147413546Y-112661241D02*
G75*
G02*
X146143546Y-113931246I-1270046J41D01*
G01*
X86453546Y-46621241D02*
G75*
G02*
X87723546Y-45351246I1269954J41D01*
G01*
X147413546Y-46621241D02*
X147413546Y-112661241D01*
X87723546Y-45351241D02*
X112742546Y-45351241D01*
X86451424Y-46621241D02*
X86451424Y-112661241D01*
X87723546Y-113931241D02*
G75*
G02*
X86453459Y-112661241I-46J1270041D01*
G01*
X145762546Y-45351241D02*
X146143546Y-45351241D01*
X112742546Y-45351241D02*
G75*
G02*
X114012459Y-46621241I-46J-1269959D01*
G01*
M02*
