%TF.GenerationSoftware,KiCad,Pcbnew,8.0.1*%
%TF.CreationDate,2025-01-16T17:49:12-07:00*%
%TF.ProjectId,WDM_RevB_v3,57444d5f-5265-4764-925f-76332e6b6963,rev?*%
%TF.SameCoordinates,Original*%
%TF.FileFunction,AssemblyDrawing,Bot*%
%FSLAX46Y46*%
G04 Gerber Fmt 4.6, Leading zero omitted, Abs format (unit mm)*
G04 Created by KiCad (PCBNEW 8.0.1) date 2025-01-16 17:49:12*
%MOMM*%
%LPD*%
G01*
G04 APERTURE LIST*
%ADD10C,0.076200*%
%ADD11C,0.054864*%
%ADD12C,0.152400*%
%ADD13C,0.127000*%
%ADD14C,0.200000*%
%ADD15C,0.025400*%
%ADD16C,0.508000*%
%ADD17C,0.101600*%
%ADD18C,0.000000*%
%ADD19C,0.100000*%
%ADD20C,0.050800*%
%ADD21C,0.203200*%
%ADD22C,0.120000*%
%ADD23C,0.025000*%
%TA.AperFunction,Profile*%
%ADD24C,0.100000*%
%TD*%
G04 APERTURE END LIST*
D10*
X90166738Y-82349138D02*
X90166738Y-82633376D01*
X90450976Y-82519681D02*
X90166738Y-82633376D01*
X90166738Y-82633376D02*
X89882499Y-82519681D01*
X90337280Y-82860767D02*
X90166738Y-82633376D01*
X90166738Y-82633376D02*
X89996195Y-82860767D01*
D11*
X108940828Y-77911322D02*
X108940828Y-78043402D01*
X109072908Y-77990570D02*
X108940828Y-78043402D01*
X108940828Y-78043402D02*
X108808748Y-77990570D01*
X109020076Y-78149066D02*
X108940828Y-78043402D01*
X108940828Y-78043402D02*
X108861580Y-78149066D01*
X124819080Y-79203057D02*
X124819080Y-79652129D01*
X124819080Y-79652129D02*
X124792664Y-79704961D01*
X124792664Y-79704961D02*
X124766248Y-79731377D01*
X124766248Y-79731377D02*
X124713416Y-79757793D01*
X124713416Y-79757793D02*
X124607752Y-79757793D01*
X124607752Y-79757793D02*
X124554920Y-79731377D01*
X124554920Y-79731377D02*
X124528504Y-79704961D01*
X124528504Y-79704961D02*
X124502088Y-79652129D01*
X124502088Y-79652129D02*
X124502088Y-79203057D01*
X124000184Y-79203057D02*
X124105848Y-79203057D01*
X124105848Y-79203057D02*
X124158680Y-79229473D01*
X124158680Y-79229473D02*
X124185096Y-79255889D01*
X124185096Y-79255889D02*
X124237928Y-79335137D01*
X124237928Y-79335137D02*
X124264344Y-79440801D01*
X124264344Y-79440801D02*
X124264344Y-79652129D01*
X124264344Y-79652129D02*
X124237928Y-79704961D01*
X124237928Y-79704961D02*
X124211512Y-79731377D01*
X124211512Y-79731377D02*
X124158680Y-79757793D01*
X124158680Y-79757793D02*
X124053016Y-79757793D01*
X124053016Y-79757793D02*
X124000184Y-79731377D01*
X124000184Y-79731377D02*
X123973768Y-79704961D01*
X123973768Y-79704961D02*
X123947352Y-79652129D01*
X123947352Y-79652129D02*
X123947352Y-79520049D01*
X123947352Y-79520049D02*
X123973768Y-79467217D01*
X123973768Y-79467217D02*
X124000184Y-79440801D01*
X124000184Y-79440801D02*
X124053016Y-79414385D01*
X124053016Y-79414385D02*
X124158680Y-79414385D01*
X124158680Y-79414385D02*
X124211512Y-79440801D01*
X124211512Y-79440801D02*
X124237928Y-79467217D01*
X124237928Y-79467217D02*
X124264344Y-79520049D01*
X146482918Y-109656762D02*
X146218758Y-109656762D01*
X146535750Y-109815258D02*
X146350838Y-109260522D01*
X146350838Y-109260522D02*
X146165926Y-109815258D01*
X146218758Y-112362426D02*
X146245174Y-112388842D01*
X146245174Y-112388842D02*
X146324422Y-112415258D01*
X146324422Y-112415258D02*
X146377254Y-112415258D01*
X146377254Y-112415258D02*
X146456502Y-112388842D01*
X146456502Y-112388842D02*
X146509334Y-112336010D01*
X146509334Y-112336010D02*
X146535750Y-112283178D01*
X146535750Y-112283178D02*
X146562166Y-112177514D01*
X146562166Y-112177514D02*
X146562166Y-112098266D01*
X146562166Y-112098266D02*
X146535750Y-111992602D01*
X146535750Y-111992602D02*
X146509334Y-111939770D01*
X146509334Y-111939770D02*
X146456502Y-111886938D01*
X146456502Y-111886938D02*
X146377254Y-111860522D01*
X146377254Y-111860522D02*
X146324422Y-111860522D01*
X146324422Y-111860522D02*
X146245174Y-111886938D01*
X146245174Y-111886938D02*
X146218758Y-111913354D01*
X139396758Y-57190050D02*
X139396758Y-56873058D01*
X139396758Y-57031554D02*
X138842022Y-57031554D01*
X138842022Y-57031554D02*
X138921270Y-56978722D01*
X138921270Y-56978722D02*
X138974102Y-56925890D01*
X138974102Y-56925890D02*
X139000518Y-56873058D01*
X116671304Y-112950267D02*
X116697720Y-112976683D01*
X116697720Y-112976683D02*
X116776968Y-113003099D01*
X116776968Y-113003099D02*
X116829800Y-113003099D01*
X116829800Y-113003099D02*
X116909048Y-112976683D01*
X116909048Y-112976683D02*
X116961880Y-112923851D01*
X116961880Y-112923851D02*
X116988296Y-112871019D01*
X116988296Y-112871019D02*
X117014712Y-112765355D01*
X117014712Y-112765355D02*
X117014712Y-112686107D01*
X117014712Y-112686107D02*
X116988296Y-112580443D01*
X116988296Y-112580443D02*
X116961880Y-112527611D01*
X116961880Y-112527611D02*
X116909048Y-112474779D01*
X116909048Y-112474779D02*
X116829800Y-112448363D01*
X116829800Y-112448363D02*
X116776968Y-112448363D01*
X116776968Y-112448363D02*
X116697720Y-112474779D01*
X116697720Y-112474779D02*
X116671304Y-112501195D01*
X116935464Y-110244603D02*
X116671304Y-110244603D01*
X116988296Y-110403099D02*
X116803384Y-109848363D01*
X116803384Y-109848363D02*
X116618472Y-110403099D01*
X105733264Y-110244603D02*
X105469104Y-110244603D01*
X105786096Y-110403099D02*
X105601184Y-109848363D01*
X105601184Y-109848363D02*
X105416272Y-110403099D01*
X105469104Y-112950267D02*
X105495520Y-112976683D01*
X105495520Y-112976683D02*
X105574768Y-113003099D01*
X105574768Y-113003099D02*
X105627600Y-113003099D01*
X105627600Y-113003099D02*
X105706848Y-112976683D01*
X105706848Y-112976683D02*
X105759680Y-112923851D01*
X105759680Y-112923851D02*
X105786096Y-112871019D01*
X105786096Y-112871019D02*
X105812512Y-112765355D01*
X105812512Y-112765355D02*
X105812512Y-112686107D01*
X105812512Y-112686107D02*
X105786096Y-112580443D01*
X105786096Y-112580443D02*
X105759680Y-112527611D01*
X105759680Y-112527611D02*
X105706848Y-112474779D01*
X105706848Y-112474779D02*
X105627600Y-112448363D01*
X105627600Y-112448363D02*
X105574768Y-112448363D01*
X105574768Y-112448363D02*
X105495520Y-112474779D01*
X105495520Y-112474779D02*
X105469104Y-112501195D01*
X101735304Y-112950267D02*
X101761720Y-112976683D01*
X101761720Y-112976683D02*
X101840968Y-113003099D01*
X101840968Y-113003099D02*
X101893800Y-113003099D01*
X101893800Y-113003099D02*
X101973048Y-112976683D01*
X101973048Y-112976683D02*
X102025880Y-112923851D01*
X102025880Y-112923851D02*
X102052296Y-112871019D01*
X102052296Y-112871019D02*
X102078712Y-112765355D01*
X102078712Y-112765355D02*
X102078712Y-112686107D01*
X102078712Y-112686107D02*
X102052296Y-112580443D01*
X102052296Y-112580443D02*
X102025880Y-112527611D01*
X102025880Y-112527611D02*
X101973048Y-112474779D01*
X101973048Y-112474779D02*
X101893800Y-112448363D01*
X101893800Y-112448363D02*
X101840968Y-112448363D01*
X101840968Y-112448363D02*
X101761720Y-112474779D01*
X101761720Y-112474779D02*
X101735304Y-112501195D01*
X101749464Y-110719603D02*
X101485304Y-110719603D01*
X101802296Y-110878099D02*
X101617384Y-110323363D01*
X101617384Y-110323363D02*
X101432472Y-110878099D01*
X109203069Y-112950251D02*
X109229485Y-112976667D01*
X109229485Y-112976667D02*
X109308733Y-113003083D01*
X109308733Y-113003083D02*
X109361565Y-113003083D01*
X109361565Y-113003083D02*
X109440813Y-112976667D01*
X109440813Y-112976667D02*
X109493645Y-112923835D01*
X109493645Y-112923835D02*
X109520061Y-112871003D01*
X109520061Y-112871003D02*
X109546477Y-112765339D01*
X109546477Y-112765339D02*
X109546477Y-112686091D01*
X109546477Y-112686091D02*
X109520061Y-112580427D01*
X109520061Y-112580427D02*
X109493645Y-112527595D01*
X109493645Y-112527595D02*
X109440813Y-112474763D01*
X109440813Y-112474763D02*
X109361565Y-112448347D01*
X109361565Y-112448347D02*
X109308733Y-112448347D01*
X109308733Y-112448347D02*
X109229485Y-112474763D01*
X109229485Y-112474763D02*
X109203069Y-112501179D01*
X109467229Y-110244587D02*
X109203069Y-110244587D01*
X109520061Y-110403083D02*
X109335149Y-109848347D01*
X109335149Y-109848347D02*
X109150237Y-110403083D01*
X112951064Y-110719603D02*
X112686904Y-110719603D01*
X113003896Y-110878099D02*
X112818984Y-110323363D01*
X112818984Y-110323363D02*
X112634072Y-110878099D01*
X112936904Y-112950267D02*
X112963320Y-112976683D01*
X112963320Y-112976683D02*
X113042568Y-113003099D01*
X113042568Y-113003099D02*
X113095400Y-113003099D01*
X113095400Y-113003099D02*
X113174648Y-112976683D01*
X113174648Y-112976683D02*
X113227480Y-112923851D01*
X113227480Y-112923851D02*
X113253896Y-112871019D01*
X113253896Y-112871019D02*
X113280312Y-112765355D01*
X113280312Y-112765355D02*
X113280312Y-112686107D01*
X113280312Y-112686107D02*
X113253896Y-112580443D01*
X113253896Y-112580443D02*
X113227480Y-112527611D01*
X113227480Y-112527611D02*
X113174648Y-112474779D01*
X113174648Y-112474779D02*
X113095400Y-112448363D01*
X113095400Y-112448363D02*
X113042568Y-112448363D01*
X113042568Y-112448363D02*
X112963320Y-112474779D01*
X112963320Y-112474779D02*
X112936904Y-112501195D01*
X141621256Y-108356179D02*
X141885416Y-108356179D01*
X141885416Y-108356179D02*
X141885416Y-107801443D01*
X141145768Y-108356179D02*
X141462760Y-108356179D01*
X141304264Y-108356179D02*
X141304264Y-107801443D01*
X141304264Y-107801443D02*
X141357096Y-107880691D01*
X141357096Y-107880691D02*
X141409928Y-107933523D01*
X141409928Y-107933523D02*
X141462760Y-107959939D01*
X120405304Y-112950267D02*
X120431720Y-112976683D01*
X120431720Y-112976683D02*
X120510968Y-113003099D01*
X120510968Y-113003099D02*
X120563800Y-113003099D01*
X120563800Y-113003099D02*
X120643048Y-112976683D01*
X120643048Y-112976683D02*
X120695880Y-112923851D01*
X120695880Y-112923851D02*
X120722296Y-112871019D01*
X120722296Y-112871019D02*
X120748712Y-112765355D01*
X120748712Y-112765355D02*
X120748712Y-112686107D01*
X120748712Y-112686107D02*
X120722296Y-112580443D01*
X120722296Y-112580443D02*
X120695880Y-112527611D01*
X120695880Y-112527611D02*
X120643048Y-112474779D01*
X120643048Y-112474779D02*
X120563800Y-112448363D01*
X120563800Y-112448363D02*
X120510968Y-112448363D01*
X120510968Y-112448363D02*
X120431720Y-112474779D01*
X120431720Y-112474779D02*
X120405304Y-112501195D01*
X120669464Y-110244603D02*
X120405304Y-110244603D01*
X120722296Y-110403099D02*
X120537384Y-109848363D01*
X120537384Y-109848363D02*
X120352472Y-110403099D01*
X133184762Y-112944758D02*
X133184762Y-113208918D01*
X133343258Y-112891926D02*
X132788522Y-113076838D01*
X132788522Y-113076838D02*
X133343258Y-113261750D01*
X130690426Y-113288166D02*
X130716842Y-113261750D01*
X130716842Y-113261750D02*
X130743258Y-113182502D01*
X130743258Y-113182502D02*
X130743258Y-113129670D01*
X130743258Y-113129670D02*
X130716842Y-113050422D01*
X130716842Y-113050422D02*
X130664010Y-112997590D01*
X130664010Y-112997590D02*
X130611178Y-112971174D01*
X130611178Y-112971174D02*
X130505514Y-112944758D01*
X130505514Y-112944758D02*
X130426266Y-112944758D01*
X130426266Y-112944758D02*
X130320602Y-112971174D01*
X130320602Y-112971174D02*
X130267770Y-112997590D01*
X130267770Y-112997590D02*
X130214938Y-113050422D01*
X130214938Y-113050422D02*
X130188522Y-113129670D01*
X130188522Y-113129670D02*
X130188522Y-113182502D01*
X130188522Y-113182502D02*
X130214938Y-113261750D01*
X130214938Y-113261750D02*
X130241354Y-113288166D01*
D12*
%TO.C,U4*%
X89452450Y-84074000D02*
X89452450Y-84582000D01*
X90874850Y-84074000D02*
X89452450Y-84074000D01*
X89452450Y-82804000D02*
X89452450Y-83312000D01*
X90874850Y-82804000D02*
X89452450Y-82804000D01*
X89452450Y-81534000D02*
X89452450Y-82042000D01*
X90874850Y-81534000D02*
X89452450Y-81534000D01*
X89452450Y-80264000D02*
X89452450Y-80772000D01*
X90874850Y-80264000D02*
X89452450Y-80264000D01*
X89452450Y-78994000D02*
X89452450Y-79502000D01*
X90874850Y-78994000D02*
X89452450Y-78994000D01*
X89452450Y-77724000D02*
X89452450Y-78232000D01*
X90874850Y-77724000D02*
X89452450Y-77724000D01*
X89452450Y-76454000D02*
X89452450Y-76962000D01*
X90874850Y-76454000D02*
X89452450Y-76454000D01*
X89452450Y-75184000D02*
X89452450Y-75692000D01*
X90874850Y-75184000D02*
X89452450Y-75184000D01*
X90849450Y-74726800D02*
X90849450Y-85039200D01*
X89452450Y-84582000D02*
X90849450Y-84582000D01*
X89452450Y-83312000D02*
X90849450Y-83312000D01*
X89452450Y-82042000D02*
X90849450Y-82042000D01*
X98367850Y-74726800D02*
X90849450Y-74726800D01*
X90849450Y-84582000D02*
X90874850Y-84074000D01*
X90849450Y-83312000D02*
X90874850Y-82804000D01*
X90849450Y-82042000D02*
X90874850Y-81534000D01*
X89452450Y-80772000D02*
X90874850Y-80772000D01*
X90874850Y-80772000D02*
X90874850Y-80264000D01*
X89452450Y-79502000D02*
X90874850Y-79502000D01*
X90874850Y-79502000D02*
X90874850Y-78994000D01*
X89452450Y-78232000D02*
X90874850Y-78232000D01*
X90874850Y-78232000D02*
X90874850Y-77724000D01*
X89452450Y-76962000D02*
X90874850Y-76962000D01*
X90874850Y-76962000D02*
X90874850Y-76454000D01*
X89452450Y-75692000D02*
X90874850Y-75692000D01*
X90874850Y-75692000D02*
X90874850Y-75184000D01*
X90849450Y-85039200D02*
X94303850Y-85039200D01*
X94303850Y-85039200D02*
X94913450Y-85039200D01*
X98342450Y-84074000D02*
X98342450Y-84582000D01*
X99764850Y-84074000D02*
X98342450Y-84074000D01*
X98342450Y-82804000D02*
X98342450Y-83312000D01*
X99764850Y-82804000D02*
X98342450Y-82804000D01*
X98342450Y-81534000D02*
X98342450Y-82042000D01*
X99764850Y-81534000D02*
X98342450Y-81534000D01*
X98342450Y-80264000D02*
X98342450Y-80772000D01*
X99764850Y-80264000D02*
X98342450Y-80264000D01*
X98342450Y-78994000D02*
X98342450Y-79502000D01*
X99764850Y-78994000D02*
X98342450Y-78994000D01*
X98367850Y-77724000D02*
X98342450Y-78232000D01*
X98367850Y-76454000D02*
X98342450Y-76962000D01*
X98367850Y-75184000D02*
X98342450Y-75692000D01*
X94913450Y-85039200D02*
X98367850Y-85039200D01*
X99764850Y-77724000D02*
X98367850Y-77724000D01*
X99764850Y-76454000D02*
X98367850Y-76454000D01*
X99764850Y-75184000D02*
X98367850Y-75184000D01*
X98367850Y-85039200D02*
X98367850Y-74726800D01*
X98342450Y-84582000D02*
X99764850Y-84582000D01*
X99764850Y-84582000D02*
X99764850Y-84074000D01*
X98342450Y-83312000D02*
X99764850Y-83312000D01*
X99764850Y-83312000D02*
X99764850Y-82804000D01*
X98342450Y-82042000D02*
X99764850Y-82042000D01*
X99764850Y-82042000D02*
X99764850Y-81534000D01*
X98342450Y-80772000D02*
X99764850Y-80772000D01*
X99764850Y-80772000D02*
X99764850Y-80264000D01*
X98342450Y-79502000D02*
X99764850Y-79502000D01*
X99764850Y-79502000D02*
X99764850Y-78994000D01*
X98342450Y-78232000D02*
X99764850Y-78232000D01*
X99764850Y-78232000D02*
X99764850Y-77724000D01*
X98342450Y-76962000D02*
X99764850Y-76962000D01*
X99764850Y-76962000D02*
X99764850Y-76454000D01*
X98342450Y-75692000D02*
X99764850Y-75692000D01*
X99764850Y-75692000D02*
X99764850Y-75184000D01*
X94303850Y-85039200D02*
G75*
G02*
X94913450Y-85039200I304800J0D01*
G01*
D13*
%TO.C,EN_1*%
X104280000Y-93750000D02*
X104280000Y-107150000D01*
X104280000Y-107150000D02*
X116780000Y-107150000D01*
X116780000Y-93750000D02*
X104280000Y-93750000D01*
X116780000Y-107150000D02*
X116780000Y-93750000D01*
D14*
X106430000Y-108050000D02*
G75*
G02*
X106230000Y-108050000I-100000J0D01*
G01*
X106230000Y-108050000D02*
G75*
G02*
X106430000Y-108050000I100000J0D01*
G01*
D13*
X113530000Y-100450000D02*
G75*
G02*
X107530000Y-100450000I-3000000J0D01*
G01*
X107530000Y-100450000D02*
G75*
G02*
X113530000Y-100450000I3000000J0D01*
G01*
D15*
%TO.C,SW_4*%
X113693229Y-58419442D02*
X118290629Y-58419442D01*
X113693229Y-61213442D02*
X113693229Y-58419442D01*
X118290629Y-58419442D02*
X118290629Y-61213442D01*
X118290629Y-61213442D02*
X113693229Y-61213442D01*
D16*
X112728962Y-57968478D02*
G75*
G02*
X112698706Y-57968478I-15128J0D01*
G01*
X112698706Y-57968478D02*
G75*
G02*
X112728962Y-57968478I15128J0D01*
G01*
D17*
%TO.C,C4*%
X145263000Y-101829000D02*
X145263000Y-101092000D01*
X146583000Y-101854000D02*
X146583000Y-101092000D01*
D18*
G36*
X146649200Y-101117400D02*
G01*
X145199100Y-101117400D01*
X145199100Y-100367300D01*
X146649200Y-100367300D01*
X146649200Y-101117400D01*
G37*
G36*
X146649200Y-102565200D02*
G01*
X145199100Y-102565200D01*
X145199100Y-101815100D01*
X146649200Y-101815100D01*
X146649200Y-102565200D01*
G37*
D17*
%TO.C,C16*%
X144220000Y-61072000D02*
X144220000Y-60335000D01*
X145540000Y-61097000D02*
X145540000Y-60335000D01*
D18*
G36*
X145606200Y-60360400D02*
G01*
X144156100Y-60360400D01*
X144156100Y-59610300D01*
X145606200Y-59610300D01*
X145606200Y-60360400D01*
G37*
G36*
X145606200Y-61808200D02*
G01*
X144156100Y-61808200D01*
X144156100Y-61058100D01*
X145606200Y-61058100D01*
X145606200Y-61808200D01*
G37*
D12*
%TO.C,U3*%
X102228650Y-77724000D02*
X103600250Y-77749400D01*
X102228650Y-78206600D02*
X102228650Y-77724000D01*
X102228650Y-78994000D02*
X103600250Y-79019400D01*
X102228650Y-79476600D02*
X102228650Y-78994000D01*
X102228650Y-80264000D02*
X103600250Y-80289400D01*
X102228650Y-80746600D02*
X102228650Y-80264000D01*
X102228650Y-81534000D02*
X103600250Y-81559400D01*
X102228650Y-82016600D02*
X102228650Y-81534000D01*
X103600250Y-77190600D02*
X105987850Y-77190600D01*
X103600250Y-77749400D02*
X103600250Y-78206600D01*
X103600250Y-78206600D02*
X102228650Y-78206600D01*
X103600250Y-79019400D02*
X103600250Y-79476600D01*
X103600250Y-79476600D02*
X102228650Y-79476600D01*
X103600250Y-80289400D02*
X103600250Y-80746600D01*
X103600250Y-80746600D02*
X102228650Y-80746600D01*
X103600250Y-81559400D02*
X103600250Y-82016600D01*
X103600250Y-82016600D02*
X102228650Y-82016600D01*
X103600250Y-82575400D02*
X103600250Y-77190600D01*
X105987850Y-77190600D02*
X106597450Y-77190600D01*
X106597450Y-77190600D02*
X108985050Y-77190600D01*
X108985050Y-77190600D02*
X108985050Y-82575400D01*
X108985050Y-77749400D02*
X110356650Y-77749400D01*
X108985050Y-78206600D02*
X108985050Y-77749400D01*
X108985050Y-79019400D02*
X110356650Y-79019400D01*
X108985050Y-79476600D02*
X108985050Y-79019400D01*
X108985050Y-80289400D02*
X110356650Y-80289400D01*
X108985050Y-80746600D02*
X108985050Y-80289400D01*
X108985050Y-81559400D02*
X110356650Y-81559400D01*
X108985050Y-82016600D02*
X108985050Y-81559400D01*
X108985050Y-82575400D02*
X103600250Y-82575400D01*
X110356650Y-77749400D02*
X110356650Y-78232000D01*
X110356650Y-78232000D02*
X108985050Y-78206600D01*
X110356650Y-79019400D02*
X110356650Y-79502000D01*
X110356650Y-79502000D02*
X108985050Y-79476600D01*
X110356650Y-80289400D02*
X110356650Y-80772000D01*
X110356650Y-80772000D02*
X108985050Y-80746600D01*
X110356650Y-81559400D02*
X110356650Y-82042000D01*
X110356650Y-82042000D02*
X108985050Y-82016600D01*
X106597450Y-77190600D02*
G75*
G02*
X105987850Y-77190600I-304800J0D01*
G01*
D13*
%TO.C,T1*%
X129822600Y-101447600D02*
X129822600Y-104292400D01*
X129822600Y-104292400D02*
X131543400Y-104292400D01*
X131543400Y-101447600D02*
X129822600Y-101447600D01*
X131543400Y-104292400D02*
X131543400Y-101447600D01*
D18*
G36*
X129771800Y-103098600D02*
G01*
X129187600Y-103098600D01*
X129187600Y-102641400D01*
X129771800Y-102641400D01*
X129771800Y-103098600D01*
G37*
G36*
X132178400Y-102158800D02*
G01*
X131594200Y-102158800D01*
X131594200Y-101701600D01*
X132178400Y-101701600D01*
X132178400Y-102158800D01*
G37*
G36*
X132178400Y-104038400D02*
G01*
X131594200Y-104038400D01*
X131594200Y-103581200D01*
X132178400Y-103581200D01*
X132178400Y-104038400D01*
G37*
D12*
%TO.C,R43*%
X132003800Y-64389000D02*
X133426200Y-64389000D01*
X132003800Y-65659000D02*
X133426200Y-65659000D01*
D18*
G36*
X132029200Y-65735200D02*
G01*
X131673600Y-65735200D01*
X131673600Y-64312800D01*
X132029200Y-64312800D01*
X132029200Y-65735200D01*
G37*
G36*
X133756400Y-65735200D02*
G01*
X133400800Y-65735200D01*
X133400800Y-64312800D01*
X133756400Y-64312800D01*
X133756400Y-65735200D01*
G37*
%TO.C,J4*%
G36*
X127889000Y-112268000D02*
G01*
X127381000Y-112268000D01*
X127381000Y-111760000D01*
X127889000Y-111760000D01*
X127889000Y-112268000D01*
G37*
D19*
%TO.C,U6*%
X121896424Y-77004014D02*
X121896424Y-82004014D01*
X121896424Y-81504014D02*
X122396424Y-82004014D01*
X121896424Y-82004014D02*
X126896424Y-82004014D01*
X126896424Y-77004014D02*
X121896424Y-77004014D01*
X126896424Y-82004014D02*
X126896424Y-77004014D01*
D15*
%TO.C,SW_8*%
X121784697Y-52983833D02*
X126382097Y-52983833D01*
X121784697Y-55777833D02*
X121784697Y-52983833D01*
X126382097Y-52983833D02*
X126382097Y-55777833D01*
X126382097Y-55777833D02*
X121784697Y-55777833D01*
D16*
X120820430Y-52532869D02*
G75*
G02*
X120790174Y-52532869I-15128J0D01*
G01*
X120790174Y-52532869D02*
G75*
G02*
X120820430Y-52532869I15128J0D01*
G01*
D17*
%TO.C,D4*%
X145602000Y-110786000D02*
X145602000Y-112211000D01*
X146752000Y-111811000D02*
X146752000Y-110761000D01*
X145827001Y-112211000D02*
G75*
G02*
X146526999Y-112210998I349999J-54199D01*
G01*
X146526999Y-110361002D02*
G75*
G02*
X145827001Y-110361000I-349999J54201D01*
G01*
D10*
X145830000Y-112136000D02*
G75*
G02*
X145624000Y-112136000I-103000J0D01*
G01*
X145624000Y-112136000D02*
G75*
G02*
X145830000Y-112136000I103000J0D01*
G01*
D18*
G36*
X145877000Y-110786000D02*
G01*
X145552000Y-110786000D01*
X145552000Y-110286000D01*
X145877000Y-110286000D01*
X145877000Y-110786000D01*
G37*
G36*
X145877000Y-112286000D02*
G01*
X145552000Y-112286000D01*
X145552000Y-112211000D01*
X145877000Y-112211000D01*
X145877000Y-112286000D01*
G37*
G36*
X145877000Y-112048000D02*
G01*
X145577000Y-112048000D01*
X145577000Y-111786000D01*
X145877000Y-111786000D01*
X145877000Y-112048000D01*
G37*
G36*
X146002000Y-110786000D02*
G01*
X145852000Y-110786000D01*
X145852000Y-110536000D01*
X146002000Y-110536000D01*
X146002000Y-110786000D01*
G37*
G36*
X146002000Y-112036000D02*
G01*
X145852000Y-112036000D01*
X145852000Y-111786000D01*
X146002000Y-111786000D01*
X146002000Y-112036000D01*
G37*
G36*
X146377000Y-110786000D02*
G01*
X145977000Y-110786000D01*
X145977000Y-110611000D01*
X146377000Y-110611000D01*
X146377000Y-110786000D01*
G37*
G36*
X146377000Y-111961000D02*
G01*
X145977000Y-111961000D01*
X145977000Y-111786000D01*
X146377000Y-111786000D01*
X146377000Y-111961000D01*
G37*
G36*
X146502000Y-110786000D02*
G01*
X146352000Y-110786000D01*
X146352000Y-110536000D01*
X146502000Y-110536000D01*
X146502000Y-110786000D01*
G37*
G36*
X146502000Y-112036000D02*
G01*
X146352000Y-112036000D01*
X146352000Y-111786000D01*
X146502000Y-111786000D01*
X146502000Y-112036000D01*
G37*
G36*
X146802000Y-110786000D02*
G01*
X146477000Y-110786000D01*
X146477000Y-110286000D01*
X146802000Y-110286000D01*
X146802000Y-110786000D01*
G37*
G36*
X146802000Y-112286000D02*
G01*
X146477000Y-112286000D01*
X146477000Y-111786000D01*
X146802000Y-111786000D01*
X146802000Y-112286000D01*
G37*
D20*
%TO.C,J14*%
X137855000Y-50225000D02*
X140355000Y-50225000D01*
X137855000Y-53818700D02*
X137855000Y-50225000D01*
X137855000Y-53818700D02*
X138167500Y-53818700D01*
X137855000Y-54131200D02*
X137855000Y-53818700D01*
X137855000Y-54131200D02*
X138167500Y-54131200D01*
X137855000Y-55068800D02*
X137855000Y-54131200D01*
X137855000Y-55068800D02*
X137855000Y-55381300D01*
X137855000Y-55381300D02*
X138011200Y-55381300D01*
X137855000Y-57725000D02*
X137855000Y-55381300D01*
X138011200Y-51787500D02*
X138011200Y-53818700D01*
X138011200Y-54131200D02*
X138011200Y-55068800D01*
X138011200Y-55068800D02*
X137855000Y-55068800D01*
X138011200Y-55068800D02*
X138167500Y-55068800D01*
X138011200Y-55381300D02*
X138011200Y-56162500D01*
X138011200Y-55381300D02*
X138167500Y-55381300D01*
X138011200Y-56162500D02*
X138011200Y-56162600D01*
X138011200Y-56162600D02*
X138792500Y-56162600D01*
X138167500Y-52099900D02*
X138167500Y-52100000D01*
X138167500Y-52099900D02*
X138792500Y-52099900D01*
X138167500Y-52100000D02*
X138011200Y-51787500D01*
X138167500Y-52100000D02*
X138167500Y-53818700D01*
X138167500Y-53818700D02*
X138167500Y-54131200D01*
X138167500Y-54131200D02*
X138167500Y-55068800D01*
X138167500Y-55068800D02*
X138167500Y-55381300D01*
X138167500Y-55381300D02*
X138167500Y-55850000D01*
X138167500Y-55850000D02*
X138011200Y-56162500D01*
X138167500Y-55850000D02*
X138167500Y-55850100D01*
X138167500Y-55850100D02*
X138792400Y-55850100D01*
X138217500Y-56418800D02*
X138217500Y-57512600D01*
X138217500Y-57512600D02*
X139936300Y-57512600D01*
X138792500Y-51787500D02*
X138011200Y-51787500D01*
X138792500Y-52099900D02*
X138792500Y-51787500D01*
X138792500Y-55850100D02*
X138792500Y-56162600D01*
X138792500Y-56162600D02*
X139730000Y-56162500D01*
X139730000Y-51787600D02*
X138792500Y-51787500D01*
X139730000Y-51787600D02*
X139730000Y-52099900D01*
X139730000Y-52099900D02*
X140355000Y-52099900D01*
X139730000Y-55850100D02*
X140355000Y-55850100D01*
X139730000Y-56162500D02*
X139730000Y-55850100D01*
X139730000Y-56162500D02*
X140355000Y-56162500D01*
X139936300Y-56418800D02*
X138217500Y-56418800D01*
X139936300Y-57512600D02*
X139936300Y-56418800D01*
X140355000Y-50225000D02*
X140355000Y-51475000D01*
X140355000Y-51475000D02*
X140980000Y-51475000D01*
X140355000Y-51787500D02*
X139730000Y-51787600D01*
X140355000Y-51787500D02*
X140355000Y-51475000D01*
X140355000Y-52099900D02*
X140355000Y-51787500D01*
X140355000Y-52100000D02*
X140355000Y-52099900D01*
X140355000Y-52100000D02*
X140511200Y-52100000D01*
X140355000Y-52256200D02*
X140355000Y-52100000D01*
X140355000Y-52256200D02*
X140511200Y-52256200D01*
X140355000Y-55693800D02*
X140511200Y-55693800D01*
X140355000Y-55850000D02*
X140355000Y-55693800D01*
X140355000Y-55850000D02*
X140511200Y-55850000D01*
X140355000Y-55850100D02*
X140355000Y-55850000D01*
X140355000Y-56162500D02*
X140355000Y-55850100D01*
X140355000Y-56162500D02*
X140355000Y-56475000D01*
X140355000Y-56475000D02*
X140355000Y-57725000D01*
X140355000Y-57725000D02*
X137855000Y-57725000D01*
X140511200Y-52100000D02*
X140511200Y-52256200D01*
X140511200Y-52256200D02*
X140980000Y-52256200D01*
X140511200Y-55693800D02*
X140980000Y-55693800D01*
X140511200Y-55850000D02*
X140511200Y-55693800D01*
X140980000Y-51475000D02*
X141605000Y-51475000D01*
X140980000Y-52256200D02*
X140980000Y-51475000D01*
X140980000Y-55693800D02*
X140980000Y-56475000D01*
X140980000Y-56475000D02*
X140355000Y-56475000D01*
X141605000Y-51475000D02*
X141605000Y-56475000D01*
X141605000Y-56475000D02*
X140980000Y-56475000D01*
D18*
G36*
X139417500Y-53506200D02*
G01*
X138636200Y-53506200D01*
X138636200Y-53193700D01*
X139417500Y-53193700D01*
X139417500Y-53506200D01*
G37*
G36*
X139417500Y-54756300D02*
G01*
X138636200Y-54756300D01*
X138636200Y-54443800D01*
X139417500Y-54443800D01*
X139417500Y-54756300D01*
G37*
D17*
%TO.C,C1*%
X135611000Y-106324000D02*
X134874000Y-106324000D01*
X135636000Y-105004000D02*
X134874000Y-105004000D01*
D18*
G36*
X134899400Y-106387900D02*
G01*
X134149300Y-106387900D01*
X134149300Y-104937800D01*
X134899400Y-104937800D01*
X134899400Y-106387900D01*
G37*
G36*
X136347200Y-106387900D02*
G01*
X135597100Y-106387900D01*
X135597100Y-104937800D01*
X136347200Y-104937800D01*
X136347200Y-106387900D01*
G37*
D12*
%TO.C,R13*%
X131074200Y-96266000D02*
X129651800Y-96266000D01*
X131074200Y-97536000D02*
X129651800Y-97536000D01*
D18*
G36*
X129677200Y-97612200D02*
G01*
X129321600Y-97612200D01*
X129321600Y-96189800D01*
X129677200Y-96189800D01*
X129677200Y-97612200D01*
G37*
G36*
X131404400Y-97612200D02*
G01*
X131048800Y-97612200D01*
X131048800Y-96189800D01*
X131404400Y-96189800D01*
X131404400Y-97612200D01*
G37*
D17*
%TO.C,D9*%
X116054546Y-111373841D02*
X116054546Y-112798841D01*
X117204546Y-112398841D02*
X117204546Y-111348841D01*
X116279547Y-112798841D02*
G75*
G02*
X116979545Y-112798839I349999J-54199D01*
G01*
X116979545Y-110948843D02*
G75*
G02*
X116279547Y-110948841I-349999J54201D01*
G01*
D10*
X116282546Y-112723841D02*
G75*
G02*
X116076546Y-112723841I-103000J0D01*
G01*
X116076546Y-112723841D02*
G75*
G02*
X116282546Y-112723841I103000J0D01*
G01*
D18*
G36*
X116329546Y-111373841D02*
G01*
X116004546Y-111373841D01*
X116004546Y-110873841D01*
X116329546Y-110873841D01*
X116329546Y-111373841D01*
G37*
G36*
X116329546Y-112873841D02*
G01*
X116004546Y-112873841D01*
X116004546Y-112798841D01*
X116329546Y-112798841D01*
X116329546Y-112873841D01*
G37*
G36*
X116329546Y-112635841D02*
G01*
X116029546Y-112635841D01*
X116029546Y-112373841D01*
X116329546Y-112373841D01*
X116329546Y-112635841D01*
G37*
G36*
X116454546Y-111373841D02*
G01*
X116304546Y-111373841D01*
X116304546Y-111123841D01*
X116454546Y-111123841D01*
X116454546Y-111373841D01*
G37*
G36*
X116454546Y-112623841D02*
G01*
X116304546Y-112623841D01*
X116304546Y-112373841D01*
X116454546Y-112373841D01*
X116454546Y-112623841D01*
G37*
G36*
X116829546Y-111373841D02*
G01*
X116429546Y-111373841D01*
X116429546Y-111198841D01*
X116829546Y-111198841D01*
X116829546Y-111373841D01*
G37*
G36*
X116829546Y-112548841D02*
G01*
X116429546Y-112548841D01*
X116429546Y-112373841D01*
X116829546Y-112373841D01*
X116829546Y-112548841D01*
G37*
G36*
X116954546Y-111373841D02*
G01*
X116804546Y-111373841D01*
X116804546Y-111123841D01*
X116954546Y-111123841D01*
X116954546Y-111373841D01*
G37*
G36*
X116954546Y-112623841D02*
G01*
X116804546Y-112623841D01*
X116804546Y-112373841D01*
X116954546Y-112373841D01*
X116954546Y-112623841D01*
G37*
G36*
X117254546Y-111373841D02*
G01*
X116929546Y-111373841D01*
X116929546Y-110873841D01*
X117254546Y-110873841D01*
X117254546Y-111373841D01*
G37*
G36*
X117254546Y-112873841D02*
G01*
X116929546Y-112873841D01*
X116929546Y-112373841D01*
X117254546Y-112373841D01*
X117254546Y-112873841D01*
G37*
D17*
%TO.C,C2*%
X130556000Y-106070000D02*
X131318000Y-106070000D01*
X130581000Y-104750000D02*
X131318000Y-104750000D01*
D18*
G36*
X130594900Y-106136200D02*
G01*
X129844800Y-106136200D01*
X129844800Y-104686100D01*
X130594900Y-104686100D01*
X130594900Y-106136200D01*
G37*
G36*
X132042700Y-106136200D02*
G01*
X131292600Y-106136200D01*
X131292600Y-104686100D01*
X132042700Y-104686100D01*
X132042700Y-106136200D01*
G37*
D21*
%TO.C,U7*%
X140827000Y-59102000D02*
X143827000Y-59102000D01*
D13*
X140827000Y-62102000D02*
X140827000Y-59102000D01*
X143827000Y-59102000D02*
X143827000Y-62102000D01*
D21*
X143827000Y-62102000D02*
X140827000Y-62102000D01*
D17*
%TO.C,D6*%
X104852346Y-111373841D02*
X104852346Y-112798841D01*
X106002346Y-112398841D02*
X106002346Y-111348841D01*
X105077347Y-112798841D02*
G75*
G02*
X105777345Y-112798839I349999J-54199D01*
G01*
X105777345Y-110948843D02*
G75*
G02*
X105077347Y-110948841I-349999J54201D01*
G01*
D10*
X105080346Y-112723841D02*
G75*
G02*
X104874346Y-112723841I-103000J0D01*
G01*
X104874346Y-112723841D02*
G75*
G02*
X105080346Y-112723841I103000J0D01*
G01*
D18*
G36*
X105127346Y-111373841D02*
G01*
X104802346Y-111373841D01*
X104802346Y-110873841D01*
X105127346Y-110873841D01*
X105127346Y-111373841D01*
G37*
G36*
X105127346Y-112873841D02*
G01*
X104802346Y-112873841D01*
X104802346Y-112798841D01*
X105127346Y-112798841D01*
X105127346Y-112873841D01*
G37*
G36*
X105127346Y-112635841D02*
G01*
X104827346Y-112635841D01*
X104827346Y-112373841D01*
X105127346Y-112373841D01*
X105127346Y-112635841D01*
G37*
G36*
X105252346Y-111373841D02*
G01*
X105102346Y-111373841D01*
X105102346Y-111123841D01*
X105252346Y-111123841D01*
X105252346Y-111373841D01*
G37*
G36*
X105252346Y-112623841D02*
G01*
X105102346Y-112623841D01*
X105102346Y-112373841D01*
X105252346Y-112373841D01*
X105252346Y-112623841D01*
G37*
G36*
X105627346Y-111373841D02*
G01*
X105227346Y-111373841D01*
X105227346Y-111198841D01*
X105627346Y-111198841D01*
X105627346Y-111373841D01*
G37*
G36*
X105627346Y-112548841D02*
G01*
X105227346Y-112548841D01*
X105227346Y-112373841D01*
X105627346Y-112373841D01*
X105627346Y-112548841D01*
G37*
G36*
X105752346Y-111373841D02*
G01*
X105602346Y-111373841D01*
X105602346Y-111123841D01*
X105752346Y-111123841D01*
X105752346Y-111373841D01*
G37*
G36*
X105752346Y-112623841D02*
G01*
X105602346Y-112623841D01*
X105602346Y-112373841D01*
X105752346Y-112373841D01*
X105752346Y-112623841D01*
G37*
G36*
X106052346Y-111373841D02*
G01*
X105727346Y-111373841D01*
X105727346Y-110873841D01*
X106052346Y-110873841D01*
X106052346Y-111373841D01*
G37*
G36*
X106052346Y-112873841D02*
G01*
X105727346Y-112873841D01*
X105727346Y-112373841D01*
X106052346Y-112373841D01*
X106052346Y-112873841D01*
G37*
D12*
%TO.C,R41*%
X142904000Y-64008000D02*
X142084000Y-64008000D01*
X142904000Y-65278000D02*
X142084000Y-65278000D01*
%TO.C,R30*%
X109249000Y-74676000D02*
X108429000Y-74676000D01*
X109249000Y-75946000D02*
X108429000Y-75946000D01*
D17*
%TO.C,D5*%
X101118546Y-111373841D02*
X101118546Y-112798841D01*
X102268546Y-112398841D02*
X102268546Y-111348841D01*
X101343547Y-112798841D02*
G75*
G02*
X102043545Y-112798839I349999J-54199D01*
G01*
X102043545Y-110948843D02*
G75*
G02*
X101343547Y-110948841I-349999J54201D01*
G01*
D10*
X101346546Y-112723841D02*
G75*
G02*
X101140546Y-112723841I-103000J0D01*
G01*
X101140546Y-112723841D02*
G75*
G02*
X101346546Y-112723841I103000J0D01*
G01*
D18*
G36*
X101393546Y-111373841D02*
G01*
X101068546Y-111373841D01*
X101068546Y-110873841D01*
X101393546Y-110873841D01*
X101393546Y-111373841D01*
G37*
G36*
X101393546Y-112873841D02*
G01*
X101068546Y-112873841D01*
X101068546Y-112798841D01*
X101393546Y-112798841D01*
X101393546Y-112873841D01*
G37*
G36*
X101393546Y-112635841D02*
G01*
X101093546Y-112635841D01*
X101093546Y-112373841D01*
X101393546Y-112373841D01*
X101393546Y-112635841D01*
G37*
G36*
X101518546Y-111373841D02*
G01*
X101368546Y-111373841D01*
X101368546Y-111123841D01*
X101518546Y-111123841D01*
X101518546Y-111373841D01*
G37*
G36*
X101518546Y-112623841D02*
G01*
X101368546Y-112623841D01*
X101368546Y-112373841D01*
X101518546Y-112373841D01*
X101518546Y-112623841D01*
G37*
G36*
X101893546Y-111373841D02*
G01*
X101493546Y-111373841D01*
X101493546Y-111198841D01*
X101893546Y-111198841D01*
X101893546Y-111373841D01*
G37*
G36*
X101893546Y-112548841D02*
G01*
X101493546Y-112548841D01*
X101493546Y-112373841D01*
X101893546Y-112373841D01*
X101893546Y-112548841D01*
G37*
G36*
X102018546Y-111373841D02*
G01*
X101868546Y-111373841D01*
X101868546Y-111123841D01*
X102018546Y-111123841D01*
X102018546Y-111373841D01*
G37*
G36*
X102018546Y-112623841D02*
G01*
X101868546Y-112623841D01*
X101868546Y-112373841D01*
X102018546Y-112373841D01*
X102018546Y-112623841D01*
G37*
G36*
X102318546Y-111373841D02*
G01*
X101993546Y-111373841D01*
X101993546Y-110873841D01*
X102318546Y-110873841D01*
X102318546Y-111373841D01*
G37*
G36*
X102318546Y-112873841D02*
G01*
X101993546Y-112873841D01*
X101993546Y-112373841D01*
X102318546Y-112373841D01*
X102318546Y-112873841D01*
G37*
D13*
%TO.C,J15*%
X135647000Y-75779000D02*
X135647000Y-83479000D01*
X135647000Y-83479000D02*
X147447000Y-83479000D01*
X147447000Y-75229000D02*
X147447000Y-72729000D01*
X147447000Y-75229000D02*
X147447000Y-75779000D01*
X147447000Y-75779000D02*
X135647000Y-75779000D01*
X147447000Y-83479000D02*
X147447000Y-75779000D01*
X147447000Y-83979000D02*
X147447000Y-83479000D01*
X147447000Y-83979000D02*
X148247000Y-83979000D01*
X148247000Y-75229000D02*
X147447000Y-75229000D01*
X148247000Y-76629000D02*
X148247000Y-75229000D01*
X148247000Y-82629000D02*
X151147000Y-82629000D01*
X148247000Y-83979000D02*
X148247000Y-82629000D01*
X151147000Y-76629000D02*
X148247000Y-76629000D01*
X151147000Y-82629000D02*
X151147000Y-76629000D01*
D14*
X133547000Y-77129000D02*
G75*
G02*
X133347000Y-77129000I-100000J0D01*
G01*
X133347000Y-77129000D02*
G75*
G02*
X133547000Y-77129000I100000J0D01*
G01*
D12*
%TO.C,R1*%
X136817200Y-103067000D02*
X135394800Y-103067000D01*
X136817200Y-104337000D02*
X135394800Y-104337000D01*
D18*
G36*
X135420200Y-104413200D02*
G01*
X135064600Y-104413200D01*
X135064600Y-102990800D01*
X135420200Y-102990800D01*
X135420200Y-104413200D01*
G37*
G36*
X137147400Y-104413200D02*
G01*
X136791800Y-104413200D01*
X136791800Y-102990800D01*
X137147400Y-102990800D01*
X137147400Y-104413200D01*
G37*
D17*
%TO.C,C5*%
X142519400Y-92847200D02*
X142519400Y-90916800D01*
X145008600Y-92847200D02*
X145008600Y-90916800D01*
D18*
G36*
X145059400Y-90930300D02*
G01*
X142459500Y-90930300D01*
X142459500Y-90180200D01*
X145059400Y-90180200D01*
X145059400Y-90930300D01*
G37*
G36*
X145068500Y-93583800D02*
G01*
X142468600Y-93583800D01*
X142468600Y-92833700D01*
X145068500Y-92833700D01*
X145068500Y-93583800D01*
G37*
D17*
%TO.C,D7*%
X108586311Y-111373825D02*
X108586311Y-112798825D01*
X109736311Y-112398825D02*
X109736311Y-111348825D01*
X108811312Y-112798825D02*
G75*
G02*
X109511310Y-112798823I349999J-54199D01*
G01*
X109511310Y-110948827D02*
G75*
G02*
X108811312Y-110948825I-349999J54201D01*
G01*
D10*
X108814311Y-112723825D02*
G75*
G02*
X108608311Y-112723825I-103000J0D01*
G01*
X108608311Y-112723825D02*
G75*
G02*
X108814311Y-112723825I103000J0D01*
G01*
D18*
G36*
X108861311Y-111373825D02*
G01*
X108536311Y-111373825D01*
X108536311Y-110873825D01*
X108861311Y-110873825D01*
X108861311Y-111373825D01*
G37*
G36*
X108861311Y-112873825D02*
G01*
X108536311Y-112873825D01*
X108536311Y-112798825D01*
X108861311Y-112798825D01*
X108861311Y-112873825D01*
G37*
G36*
X108861311Y-112635825D02*
G01*
X108561311Y-112635825D01*
X108561311Y-112373825D01*
X108861311Y-112373825D01*
X108861311Y-112635825D01*
G37*
G36*
X108986311Y-111373825D02*
G01*
X108836311Y-111373825D01*
X108836311Y-111123825D01*
X108986311Y-111123825D01*
X108986311Y-111373825D01*
G37*
G36*
X108986311Y-112623825D02*
G01*
X108836311Y-112623825D01*
X108836311Y-112373825D01*
X108986311Y-112373825D01*
X108986311Y-112623825D01*
G37*
G36*
X109361311Y-111373825D02*
G01*
X108961311Y-111373825D01*
X108961311Y-111198825D01*
X109361311Y-111198825D01*
X109361311Y-111373825D01*
G37*
G36*
X109361311Y-112548825D02*
G01*
X108961311Y-112548825D01*
X108961311Y-112373825D01*
X109361311Y-112373825D01*
X109361311Y-112548825D01*
G37*
G36*
X109486311Y-111373825D02*
G01*
X109336311Y-111373825D01*
X109336311Y-111123825D01*
X109486311Y-111123825D01*
X109486311Y-111373825D01*
G37*
G36*
X109486311Y-112623825D02*
G01*
X109336311Y-112623825D01*
X109336311Y-112373825D01*
X109486311Y-112373825D01*
X109486311Y-112623825D01*
G37*
G36*
X109786311Y-111373825D02*
G01*
X109461311Y-111373825D01*
X109461311Y-110873825D01*
X109786311Y-110873825D01*
X109786311Y-111373825D01*
G37*
G36*
X109786311Y-112873825D02*
G01*
X109461311Y-112873825D01*
X109461311Y-112373825D01*
X109786311Y-112373825D01*
X109786311Y-112873825D01*
G37*
D13*
%TO.C,J11*%
X83173000Y-91968000D02*
X83173000Y-98668000D01*
X83173000Y-98668000D02*
X85273000Y-98668000D01*
X85273000Y-90718000D02*
X85973000Y-90718000D01*
X85273000Y-91968000D02*
X83173000Y-91968000D01*
X85273000Y-91968000D02*
X85273000Y-90718000D01*
X85273000Y-98668000D02*
X85273000Y-91968000D01*
X85273000Y-99918000D02*
X85273000Y-98668000D01*
X85973000Y-90718000D02*
X85973000Y-91068000D01*
X85973000Y-99568000D02*
X85973000Y-99918000D01*
X85973000Y-99568000D02*
X90093000Y-99568000D01*
X85973000Y-99918000D02*
X85273000Y-99918000D01*
X86273000Y-90818000D02*
X86273000Y-102318000D01*
X90093000Y-99568000D02*
X93593000Y-99568000D01*
X91163000Y-100768000D02*
X91173000Y-100768000D01*
X91173000Y-100768000D02*
X92453000Y-100768000D01*
X92483000Y-100218000D02*
X91193000Y-100218000D01*
X93593000Y-99568000D02*
X97823000Y-99568000D01*
X97823000Y-91068000D02*
X85973000Y-91068000D01*
X97823000Y-99568000D02*
X97823000Y-91068000D01*
X91173000Y-100768000D02*
G75*
G02*
X91193001Y-100217993I20000J274640D01*
G01*
X92483000Y-100218000D02*
G75*
G02*
X92453001Y-100767996I-30000J-274180D01*
G01*
D14*
X100673000Y-91918000D02*
G75*
G02*
X100473000Y-91918000I-100000J0D01*
G01*
X100473000Y-91918000D02*
G75*
G02*
X100673000Y-91918000I100000J0D01*
G01*
D22*
%TO.C,C13*%
X121575212Y-73223007D02*
X121575212Y-74583007D01*
X121575212Y-74583007D02*
X123675212Y-74583007D01*
D23*
X121625212Y-73278007D02*
X121625212Y-74528007D01*
X121625212Y-73278007D02*
X121625212Y-74528007D01*
X121625212Y-74528007D02*
X122125212Y-74528007D01*
X121625212Y-74528007D02*
X123625212Y-74528007D01*
X122125212Y-73278007D02*
X121625212Y-73278007D01*
X122125212Y-74528007D02*
X122125212Y-73278007D01*
X123125212Y-73278007D02*
X123125212Y-74528007D01*
X123125212Y-74528007D02*
X123625212Y-74528007D01*
X123625212Y-73278007D02*
X121625212Y-73278007D01*
X123625212Y-73278007D02*
X123125212Y-73278007D01*
X123625212Y-74528007D02*
X123625212Y-73278007D01*
X123625212Y-74528007D02*
X123625212Y-73278007D01*
D22*
X123675212Y-73223007D02*
X121575212Y-73223007D01*
X123675212Y-74583007D02*
X123675212Y-73223007D01*
D12*
%TO.C,R38*%
X132080000Y-83976000D02*
X132080000Y-83156000D01*
X133350000Y-83976000D02*
X133350000Y-83156000D01*
D17*
%TO.C,C6*%
X124211000Y-109499000D02*
X123474000Y-109499000D01*
X124236000Y-108179000D02*
X123474000Y-108179000D01*
D18*
G36*
X123499400Y-109562900D02*
G01*
X122749300Y-109562900D01*
X122749300Y-108112800D01*
X123499400Y-108112800D01*
X123499400Y-109562900D01*
G37*
G36*
X124947200Y-109562900D02*
G01*
X124197100Y-109562900D01*
X124197100Y-108112800D01*
X124947200Y-108112800D01*
X124947200Y-109562900D01*
G37*
D15*
%TO.C,SW_5*%
X121786036Y-63855035D02*
X126383436Y-63855035D01*
X121786036Y-66649035D02*
X121786036Y-63855035D01*
X126383436Y-63855035D02*
X126383436Y-66649035D01*
X126383436Y-66649035D02*
X121786036Y-66649035D01*
D16*
X120821769Y-63404071D02*
G75*
G02*
X120791513Y-63404071I-15128J0D01*
G01*
X120791513Y-63404071D02*
G75*
G02*
X120821769Y-63404071I15128J0D01*
G01*
D18*
%TO.C,MIC1*%
G36*
X131394200Y-60020200D02*
G01*
X130886200Y-60020200D01*
X130886200Y-59512200D01*
X131394200Y-59512200D01*
X131394200Y-60020200D01*
G37*
G36*
X133934200Y-60020200D02*
G01*
X133426200Y-60020200D01*
X133426200Y-59512200D01*
X133934200Y-59512200D01*
X133934200Y-60020200D01*
G37*
D15*
%TO.C,SW_7*%
X113692837Y-63854987D02*
X118290237Y-63854987D01*
X113692837Y-66648987D02*
X113692837Y-63854987D01*
X118290237Y-63854987D02*
X118290237Y-66648987D01*
X118290237Y-66648987D02*
X113692837Y-66648987D01*
D16*
X112728570Y-63404023D02*
G75*
G02*
X112698314Y-63404023I-15128J0D01*
G01*
X112698314Y-63404023D02*
G75*
G02*
X112728570Y-63404023I15128J0D01*
G01*
D12*
%TO.C,R2*%
X135371800Y-101035000D02*
X136794200Y-101035000D01*
X135371800Y-102305000D02*
X136794200Y-102305000D01*
D18*
G36*
X135397200Y-102381200D02*
G01*
X135041600Y-102381200D01*
X135041600Y-100958800D01*
X135397200Y-100958800D01*
X135397200Y-102381200D01*
G37*
G36*
X137124400Y-102381200D02*
G01*
X136768800Y-102381200D01*
X136768800Y-100958800D01*
X137124400Y-100958800D01*
X137124400Y-102381200D01*
G37*
D12*
%TO.C,R11*%
X126507200Y-103759000D02*
X125084800Y-103759000D01*
X126507200Y-105029000D02*
X125084800Y-105029000D01*
D18*
G36*
X125110200Y-105105200D02*
G01*
X124754600Y-105105200D01*
X124754600Y-103682800D01*
X125110200Y-103682800D01*
X125110200Y-105105200D01*
G37*
G36*
X126837400Y-105105200D02*
G01*
X126481800Y-105105200D01*
X126481800Y-103682800D01*
X126837400Y-103682800D01*
X126837400Y-105105200D01*
G37*
D12*
%TO.C,R8*%
X145669000Y-107960200D02*
X145669000Y-106537800D01*
X146939000Y-107960200D02*
X146939000Y-106537800D01*
D18*
G36*
X147015200Y-106563200D02*
G01*
X145592800Y-106563200D01*
X145592800Y-106207600D01*
X147015200Y-106207600D01*
X147015200Y-106563200D01*
G37*
G36*
X147015200Y-108290400D02*
G01*
X145592800Y-108290400D01*
X145592800Y-107934800D01*
X147015200Y-107934800D01*
X147015200Y-108290400D01*
G37*
D15*
%TO.C,SW_9*%
X121785035Y-58419433D02*
X126382435Y-58419433D01*
X121785035Y-61213433D02*
X121785035Y-58419433D01*
X126382435Y-58419433D02*
X126382435Y-61213433D01*
X126382435Y-61213433D02*
X121785035Y-61213433D01*
D16*
X120820768Y-57968469D02*
G75*
G02*
X120790512Y-57968469I-15128J0D01*
G01*
X120790512Y-57968469D02*
G75*
G02*
X120820768Y-57968469I15128J0D01*
G01*
D12*
%TO.C,R7*%
X133781800Y-94488000D02*
X135204200Y-94488000D01*
X133781800Y-95758000D02*
X135204200Y-95758000D01*
D18*
G36*
X133807200Y-95834200D02*
G01*
X133451600Y-95834200D01*
X133451600Y-94411800D01*
X133807200Y-94411800D01*
X133807200Y-95834200D01*
G37*
G36*
X135534400Y-95834200D02*
G01*
X135178800Y-95834200D01*
X135178800Y-94411800D01*
X135534400Y-94411800D01*
X135534400Y-95834200D01*
G37*
D12*
%TO.C,R12*%
X131074200Y-98298000D02*
X129651800Y-98298000D01*
X131074200Y-99568000D02*
X129651800Y-99568000D01*
D18*
G36*
X129677200Y-99644200D02*
G01*
X129321600Y-99644200D01*
X129321600Y-98221800D01*
X129677200Y-98221800D01*
X129677200Y-99644200D01*
G37*
G36*
X131404400Y-99644200D02*
G01*
X131048800Y-99644200D01*
X131048800Y-98221800D01*
X131404400Y-98221800D01*
X131404400Y-99644200D01*
G37*
D12*
%TO.C,R9*%
X131622800Y-92329000D02*
X133045200Y-92329000D01*
X131622800Y-93599000D02*
X133045200Y-93599000D01*
D18*
G36*
X131648200Y-93675200D02*
G01*
X131292600Y-93675200D01*
X131292600Y-92252800D01*
X131648200Y-92252800D01*
X131648200Y-93675200D01*
G37*
G36*
X133375400Y-93675200D02*
G01*
X133019800Y-93675200D01*
X133019800Y-92252800D01*
X133375400Y-92252800D01*
X133375400Y-93675200D01*
G37*
D17*
%TO.C,C20*%
X132944000Y-67716000D02*
X132207000Y-67716000D01*
X132969000Y-66396000D02*
X132207000Y-66396000D01*
D18*
G36*
X132232400Y-67779900D02*
G01*
X131482300Y-67779900D01*
X131482300Y-66329800D01*
X132232400Y-66329800D01*
X132232400Y-67779900D01*
G37*
G36*
X133680200Y-67779900D02*
G01*
X132930100Y-67779900D01*
X132930100Y-66329800D01*
X133680200Y-66329800D01*
X133680200Y-67779900D01*
G37*
D15*
%TO.C,SW_3*%
X113692181Y-52983861D02*
X118289581Y-52983861D01*
X113692181Y-55777861D02*
X113692181Y-52983861D01*
X118289581Y-52983861D02*
X118289581Y-55777861D01*
X118289581Y-55777861D02*
X113692181Y-55777861D01*
D16*
X112727914Y-52532897D02*
G75*
G02*
X112697658Y-52532897I-15128J0D01*
G01*
X112697658Y-52532897D02*
G75*
G02*
X112727914Y-52532897I15128J0D01*
G01*
D13*
%TO.C,U1*%
X139868000Y-95445000D02*
X139868000Y-99545000D01*
X139868000Y-99545000D02*
X143968000Y-99545000D01*
X143968000Y-95445000D02*
X139868000Y-95445000D01*
X143968000Y-99545000D02*
X143968000Y-95445000D01*
D18*
%TO.C,J5*%
G36*
X124536200Y-112268000D02*
G01*
X124028200Y-112268000D01*
X124028200Y-111760000D01*
X124536200Y-111760000D01*
X124536200Y-112268000D01*
G37*
D17*
%TO.C,C3*%
X121412000Y-94640000D02*
X122174000Y-94640000D01*
X121437000Y-93320000D02*
X122174000Y-93320000D01*
D18*
G36*
X121450900Y-94706200D02*
G01*
X120700800Y-94706200D01*
X120700800Y-93256100D01*
X121450900Y-93256100D01*
X121450900Y-94706200D01*
G37*
G36*
X122898700Y-94706200D02*
G01*
X122148600Y-94706200D01*
X122148600Y-93256100D01*
X122898700Y-93256100D01*
X122898700Y-94706200D01*
G37*
D17*
%TO.C,C15*%
X138192000Y-62763000D02*
X138954000Y-62763000D01*
X138217000Y-61443000D02*
X138954000Y-61443000D01*
D18*
G36*
X138230900Y-62829200D02*
G01*
X137480800Y-62829200D01*
X137480800Y-61379100D01*
X138230900Y-61379100D01*
X138230900Y-62829200D01*
G37*
G36*
X139678700Y-62829200D02*
G01*
X138928600Y-62829200D01*
X138928600Y-61379100D01*
X139678700Y-61379100D01*
X139678700Y-62829200D01*
G37*
D12*
%TO.C,R6*%
X132725200Y-110617000D02*
X131302800Y-110617000D01*
X132725200Y-111887000D02*
X131302800Y-111887000D01*
D18*
G36*
X131328200Y-111963200D02*
G01*
X130972600Y-111963200D01*
X130972600Y-110540800D01*
X131328200Y-110540800D01*
X131328200Y-111963200D01*
G37*
G36*
X133055400Y-111963200D02*
G01*
X132699800Y-111963200D01*
X132699800Y-110540800D01*
X133055400Y-110540800D01*
X133055400Y-111963200D01*
G37*
D15*
%TO.C,SW_2*%
X105599637Y-58419433D02*
X110197037Y-58419433D01*
X105599637Y-61213433D02*
X105599637Y-58419433D01*
X110197037Y-58419433D02*
X110197037Y-61213433D01*
X110197037Y-61213433D02*
X105599637Y-61213433D01*
D16*
X104635370Y-57968469D02*
G75*
G02*
X104605114Y-57968469I-15128J0D01*
G01*
X104605114Y-57968469D02*
G75*
G02*
X104635370Y-57968469I15128J0D01*
G01*
D15*
%TO.C,SW_6*%
X105599637Y-63855033D02*
X110197037Y-63855033D01*
X105599637Y-66649033D02*
X105599637Y-63855033D01*
X110197037Y-63855033D02*
X110197037Y-66649033D01*
X110197037Y-66649033D02*
X105599637Y-66649033D01*
D16*
X104635370Y-63404069D02*
G75*
G02*
X104605114Y-63404069I-15128J0D01*
G01*
X104605114Y-63404069D02*
G75*
G02*
X104635370Y-63404069I15128J0D01*
G01*
D13*
%TO.C,J6*%
X83173000Y-60472000D02*
X83173000Y-67172000D01*
X83173000Y-67172000D02*
X85273000Y-67172000D01*
X85273000Y-59222000D02*
X85973000Y-59222000D01*
X85273000Y-60472000D02*
X83173000Y-60472000D01*
X85273000Y-60472000D02*
X85273000Y-59222000D01*
X85273000Y-67172000D02*
X85273000Y-60472000D01*
X85273000Y-68422000D02*
X85273000Y-67172000D01*
X85973000Y-59222000D02*
X85973000Y-59572000D01*
X85973000Y-68072000D02*
X85973000Y-68422000D01*
X85973000Y-68072000D02*
X90093000Y-68072000D01*
X85973000Y-68422000D02*
X85273000Y-68422000D01*
X86273000Y-59322000D02*
X86273000Y-70822000D01*
X90093000Y-68072000D02*
X93593000Y-68072000D01*
X91163000Y-69272000D02*
X91173000Y-69272000D01*
X91173000Y-69272000D02*
X92453000Y-69272000D01*
X92483000Y-68722000D02*
X91193000Y-68722000D01*
X93593000Y-68072000D02*
X97823000Y-68072000D01*
X97823000Y-59572000D02*
X85973000Y-59572000D01*
X97823000Y-68072000D02*
X97823000Y-59572000D01*
X91173000Y-69272000D02*
G75*
G02*
X91193001Y-68721993I20000J274640D01*
G01*
X92483000Y-68722000D02*
G75*
G02*
X92453001Y-69271996I-30000J-274180D01*
G01*
D14*
X100673000Y-60422000D02*
G75*
G02*
X100473000Y-60422000I-100000J0D01*
G01*
X100473000Y-60422000D02*
G75*
G02*
X100673000Y-60422000I100000J0D01*
G01*
D17*
%TO.C,R18*%
X125349000Y-94640000D02*
X126111000Y-94640000D01*
X125374000Y-93320000D02*
X126111000Y-93320000D01*
D18*
G36*
X125387900Y-94706200D02*
G01*
X124637800Y-94706200D01*
X124637800Y-93256100D01*
X125387900Y-93256100D01*
X125387900Y-94706200D01*
G37*
G36*
X126835700Y-94706200D02*
G01*
X126085600Y-94706200D01*
X126085600Y-93256100D01*
X126835700Y-93256100D01*
X126835700Y-94706200D01*
G37*
D17*
%TO.C,D8*%
X112320146Y-111373841D02*
X112320146Y-112798841D01*
X113470146Y-112398841D02*
X113470146Y-111348841D01*
X112545147Y-112798841D02*
G75*
G02*
X113245145Y-112798839I349999J-54199D01*
G01*
X113245145Y-110948843D02*
G75*
G02*
X112545147Y-110948841I-349999J54201D01*
G01*
D10*
X112548146Y-112723841D02*
G75*
G02*
X112342146Y-112723841I-103000J0D01*
G01*
X112342146Y-112723841D02*
G75*
G02*
X112548146Y-112723841I103000J0D01*
G01*
D18*
G36*
X112595146Y-111373841D02*
G01*
X112270146Y-111373841D01*
X112270146Y-110873841D01*
X112595146Y-110873841D01*
X112595146Y-111373841D01*
G37*
G36*
X112595146Y-112873841D02*
G01*
X112270146Y-112873841D01*
X112270146Y-112798841D01*
X112595146Y-112798841D01*
X112595146Y-112873841D01*
G37*
G36*
X112595146Y-112635841D02*
G01*
X112295146Y-112635841D01*
X112295146Y-112373841D01*
X112595146Y-112373841D01*
X112595146Y-112635841D01*
G37*
G36*
X112720146Y-111373841D02*
G01*
X112570146Y-111373841D01*
X112570146Y-111123841D01*
X112720146Y-111123841D01*
X112720146Y-111373841D01*
G37*
G36*
X112720146Y-112623841D02*
G01*
X112570146Y-112623841D01*
X112570146Y-112373841D01*
X112720146Y-112373841D01*
X112720146Y-112623841D01*
G37*
G36*
X113095146Y-111373841D02*
G01*
X112695146Y-111373841D01*
X112695146Y-111198841D01*
X113095146Y-111198841D01*
X113095146Y-111373841D01*
G37*
G36*
X113095146Y-112548841D02*
G01*
X112695146Y-112548841D01*
X112695146Y-112373841D01*
X113095146Y-112373841D01*
X113095146Y-112548841D01*
G37*
G36*
X113220146Y-111373841D02*
G01*
X113070146Y-111373841D01*
X113070146Y-111123841D01*
X113220146Y-111123841D01*
X113220146Y-111373841D01*
G37*
G36*
X113220146Y-112623841D02*
G01*
X113070146Y-112623841D01*
X113070146Y-112373841D01*
X113220146Y-112373841D01*
X113220146Y-112623841D01*
G37*
G36*
X113520146Y-111373841D02*
G01*
X113195146Y-111373841D01*
X113195146Y-110873841D01*
X113520146Y-110873841D01*
X113520146Y-111373841D01*
G37*
G36*
X113520146Y-112873841D02*
G01*
X113195146Y-112873841D01*
X113195146Y-112373841D01*
X113520146Y-112373841D01*
X113520146Y-112873841D01*
G37*
D13*
%TO.C,J3*%
X83158500Y-49657750D02*
X83158500Y-56357750D01*
X83158500Y-56357750D02*
X85258500Y-56357750D01*
X85258500Y-48407750D02*
X85958500Y-48407750D01*
X85258500Y-49657750D02*
X83158500Y-49657750D01*
X85258500Y-49657750D02*
X85258500Y-48407750D01*
X85258500Y-56357750D02*
X85258500Y-49657750D01*
X85258500Y-57607750D02*
X85258500Y-56357750D01*
X85958500Y-48407750D02*
X85958500Y-48757750D01*
X85958500Y-57257750D02*
X85958500Y-57607750D01*
X85958500Y-57257750D02*
X90078500Y-57257750D01*
X85958500Y-57607750D02*
X85258500Y-57607750D01*
X86258500Y-48507750D02*
X86258500Y-60007750D01*
X90078500Y-57257750D02*
X93578500Y-57257750D01*
X91148500Y-58457750D02*
X91158500Y-58457750D01*
X91158500Y-58457750D02*
X92438500Y-58457750D01*
X92468500Y-57907750D02*
X91178500Y-57907750D01*
X93578500Y-57257750D02*
X97808500Y-57257750D01*
X97808500Y-48757750D02*
X85958500Y-48757750D01*
X97808500Y-57257750D02*
X97808500Y-48757750D01*
X91158500Y-58457750D02*
G75*
G02*
X91178501Y-57907743I20000J274640D01*
G01*
X92468500Y-57907750D02*
G75*
G02*
X92438501Y-58457746I-30000J-274180D01*
G01*
D14*
X100658500Y-49607750D02*
G75*
G02*
X100458500Y-49607750I-100000J0D01*
G01*
X100458500Y-49607750D02*
G75*
G02*
X100658500Y-49607750I100000J0D01*
G01*
D17*
%TO.C,C19*%
X129261000Y-66904000D02*
X129261000Y-66167000D01*
X130581000Y-66929000D02*
X130581000Y-66167000D01*
D18*
G36*
X130647200Y-66192400D02*
G01*
X129197100Y-66192400D01*
X129197100Y-65442300D01*
X130647200Y-65442300D01*
X130647200Y-66192400D01*
G37*
G36*
X130647200Y-67640200D02*
G01*
X129197100Y-67640200D01*
X129197100Y-66890100D01*
X130647200Y-66890100D01*
X130647200Y-67640200D01*
G37*
D13*
%TO.C,VR1*%
X136600698Y-67392206D02*
X136600698Y-69592374D01*
X136600698Y-67392206D02*
X139403115Y-67392206D01*
X136600698Y-69592374D02*
X139403115Y-69592374D01*
D17*
X137042730Y-68292290D02*
X137842730Y-68292290D01*
X137042730Y-68642290D02*
X137042730Y-68292290D01*
X137842730Y-68642290D02*
X137042730Y-68642290D01*
X138042730Y-67342290D02*
X138042730Y-68092290D01*
X138042730Y-68092290D02*
X138392730Y-68092290D01*
X138042730Y-69642290D02*
X138392730Y-69642290D01*
X138043242Y-68890120D02*
X138042730Y-69642290D01*
X138392730Y-67342290D02*
X138042730Y-67342290D01*
X138392730Y-68092290D02*
X138392730Y-67342290D01*
X138392730Y-68892290D02*
X138043242Y-68890120D01*
X138392730Y-69642290D02*
X138392730Y-68892290D01*
D21*
X138592730Y-68292290D02*
X138592730Y-68642290D01*
X138592730Y-68642290D02*
X139342730Y-68642290D01*
X139342730Y-68292290D02*
X138592730Y-68292290D01*
X139342730Y-68642290D02*
X139342730Y-68292290D01*
D13*
X139403115Y-69592374D02*
X139403115Y-67392206D01*
D17*
X138982113Y-68492290D02*
G75*
G02*
X137403347Y-68492290I-789383J0D01*
G01*
X137403347Y-68492290D02*
G75*
G02*
X138982113Y-68492290I789383J0D01*
G01*
X138583230Y-68492290D02*
G75*
G02*
X137802230Y-68492290I-390500J0D01*
G01*
X137802230Y-68492290D02*
G75*
G02*
X138583230Y-68492290I390500J0D01*
G01*
D14*
%TO.C,L1*%
X139268000Y-101386000D02*
X139268000Y-106386000D01*
X139268000Y-106386000D02*
X144268000Y-106386000D01*
X144268000Y-101386000D02*
X139268000Y-101386000D01*
X144268000Y-106386000D02*
X144268000Y-101386000D01*
D12*
%TO.C,R42*%
X138163000Y-59055000D02*
X138983000Y-59055000D01*
X138163000Y-60325000D02*
X138983000Y-60325000D01*
D15*
%TO.C,SW_1*%
X105599637Y-52983833D02*
X110197037Y-52983833D01*
X105599637Y-55777833D02*
X105599637Y-52983833D01*
X110197037Y-52983833D02*
X110197037Y-55777833D01*
X110197037Y-55777833D02*
X105599637Y-55777833D01*
D16*
X104635370Y-52532869D02*
G75*
G02*
X104605114Y-52532869I-15128J0D01*
G01*
X104605114Y-52532869D02*
G75*
G02*
X104635370Y-52532869I15128J0D01*
G01*
D12*
%TO.C,R4*%
X140589000Y-93228200D02*
X140589000Y-91805800D01*
X141859000Y-93228200D02*
X141859000Y-91805800D01*
D18*
G36*
X141935200Y-91831200D02*
G01*
X140512800Y-91831200D01*
X140512800Y-91475600D01*
X141935200Y-91475600D01*
X141935200Y-91831200D01*
G37*
G36*
X141935200Y-93558400D02*
G01*
X140512800Y-93558400D01*
X140512800Y-93202800D01*
X141935200Y-93202800D01*
X141935200Y-93558400D01*
G37*
D12*
%TO.C,R3*%
X132791200Y-108458000D02*
X131368800Y-108458000D01*
X132791200Y-109728000D02*
X131368800Y-109728000D01*
D18*
G36*
X131394200Y-109804200D02*
G01*
X131038600Y-109804200D01*
X131038600Y-108381800D01*
X131394200Y-108381800D01*
X131394200Y-109804200D01*
G37*
G36*
X133121400Y-109804200D02*
G01*
X132765800Y-109804200D01*
X132765800Y-108381800D01*
X133121400Y-108381800D01*
X133121400Y-109804200D01*
G37*
D21*
%TO.C,U2*%
X123730000Y-96425000D02*
X123730000Y-100425000D01*
X123730000Y-100425000D02*
X127730000Y-100425000D01*
X127730000Y-96425000D02*
X123730000Y-96425000D01*
X127730000Y-100425000D02*
X127730000Y-96425000D01*
D17*
%TO.C,C14*%
X142753000Y-67462000D02*
X142016000Y-67462000D01*
X142778000Y-66142000D02*
X142016000Y-66142000D01*
D18*
G36*
X142041400Y-67525900D02*
G01*
X141291300Y-67525900D01*
X141291300Y-66075800D01*
X142041400Y-66075800D01*
X142041400Y-67525900D01*
G37*
G36*
X143489200Y-67525900D02*
G01*
X142739100Y-67525900D01*
X142739100Y-66075800D01*
X143489200Y-66075800D01*
X143489200Y-67525900D01*
G37*
D13*
%TO.C,J7*%
X83173000Y-102870750D02*
X83173000Y-109570750D01*
X83173000Y-109570750D02*
X85273000Y-109570750D01*
X85273000Y-101620750D02*
X85973000Y-101620750D01*
X85273000Y-102870750D02*
X83173000Y-102870750D01*
X85273000Y-102870750D02*
X85273000Y-101620750D01*
X85273000Y-109570750D02*
X85273000Y-102870750D01*
X85273000Y-110820750D02*
X85273000Y-109570750D01*
X85973000Y-101620750D02*
X85973000Y-101970750D01*
X85973000Y-110470750D02*
X85973000Y-110820750D01*
X85973000Y-110470750D02*
X90093000Y-110470750D01*
X85973000Y-110820750D02*
X85273000Y-110820750D01*
X86273000Y-101720750D02*
X86273000Y-113220750D01*
X90093000Y-110470750D02*
X93593000Y-110470750D01*
X91163000Y-111670750D02*
X91173000Y-111670750D01*
X91173000Y-111670750D02*
X92453000Y-111670750D01*
X92483000Y-111120750D02*
X91193000Y-111120750D01*
X93593000Y-110470750D02*
X97823000Y-110470750D01*
X97823000Y-101970750D02*
X85973000Y-101970750D01*
X97823000Y-110470750D02*
X97823000Y-101970750D01*
X91173000Y-111670750D02*
G75*
G02*
X91193001Y-111120743I20000J274640D01*
G01*
X92483000Y-111120750D02*
G75*
G02*
X92453001Y-111670746I-30000J-274180D01*
G01*
D14*
X100673000Y-102820750D02*
G75*
G02*
X100473000Y-102820750I-100000J0D01*
G01*
X100473000Y-102820750D02*
G75*
G02*
X100673000Y-102820750I100000J0D01*
G01*
D12*
%TO.C,R10*%
X125084800Y-101727000D02*
X126507200Y-101727000D01*
X125084800Y-102997000D02*
X126507200Y-102997000D01*
D18*
G36*
X125110200Y-103073200D02*
G01*
X124754600Y-103073200D01*
X124754600Y-101650800D01*
X125110200Y-101650800D01*
X125110200Y-103073200D01*
G37*
G36*
X126837400Y-103073200D02*
G01*
X126481800Y-103073200D01*
X126481800Y-101650800D01*
X126837400Y-101650800D01*
X126837400Y-103073200D01*
G37*
D17*
%TO.C,D10*%
X119788546Y-111373841D02*
X119788546Y-112798841D01*
X120938546Y-112398841D02*
X120938546Y-111348841D01*
X120013547Y-112798841D02*
G75*
G02*
X120713545Y-112798839I349999J-54199D01*
G01*
X120713545Y-110948843D02*
G75*
G02*
X120013547Y-110948841I-349999J54201D01*
G01*
D10*
X120016546Y-112723841D02*
G75*
G02*
X119810546Y-112723841I-103000J0D01*
G01*
X119810546Y-112723841D02*
G75*
G02*
X120016546Y-112723841I103000J0D01*
G01*
D18*
G36*
X120063546Y-111373841D02*
G01*
X119738546Y-111373841D01*
X119738546Y-110873841D01*
X120063546Y-110873841D01*
X120063546Y-111373841D01*
G37*
G36*
X120063546Y-112873841D02*
G01*
X119738546Y-112873841D01*
X119738546Y-112798841D01*
X120063546Y-112798841D01*
X120063546Y-112873841D01*
G37*
G36*
X120063546Y-112635841D02*
G01*
X119763546Y-112635841D01*
X119763546Y-112373841D01*
X120063546Y-112373841D01*
X120063546Y-112635841D01*
G37*
G36*
X120188546Y-111373841D02*
G01*
X120038546Y-111373841D01*
X120038546Y-111123841D01*
X120188546Y-111123841D01*
X120188546Y-111373841D01*
G37*
G36*
X120188546Y-112623841D02*
G01*
X120038546Y-112623841D01*
X120038546Y-112373841D01*
X120188546Y-112373841D01*
X120188546Y-112623841D01*
G37*
G36*
X120563546Y-111373841D02*
G01*
X120163546Y-111373841D01*
X120163546Y-111198841D01*
X120563546Y-111198841D01*
X120563546Y-111373841D01*
G37*
G36*
X120563546Y-112548841D02*
G01*
X120163546Y-112548841D01*
X120163546Y-112373841D01*
X120563546Y-112373841D01*
X120563546Y-112548841D01*
G37*
G36*
X120688546Y-111373841D02*
G01*
X120538546Y-111373841D01*
X120538546Y-111123841D01*
X120688546Y-111123841D01*
X120688546Y-111373841D01*
G37*
G36*
X120688546Y-112623841D02*
G01*
X120538546Y-112623841D01*
X120538546Y-112373841D01*
X120688546Y-112373841D01*
X120688546Y-112623841D01*
G37*
G36*
X120988546Y-111373841D02*
G01*
X120663546Y-111373841D01*
X120663546Y-110873841D01*
X120988546Y-110873841D01*
X120988546Y-111373841D01*
G37*
G36*
X120988546Y-112873841D02*
G01*
X120663546Y-112873841D01*
X120663546Y-112373841D01*
X120988546Y-112373841D01*
X120988546Y-112873841D01*
G37*
D12*
%TO.C,R5*%
X138557000Y-91805800D02*
X138557000Y-93228200D01*
X139827000Y-91805800D02*
X139827000Y-93228200D01*
D18*
G36*
X139903200Y-91831200D02*
G01*
X138480800Y-91831200D01*
X138480800Y-91475600D01*
X139903200Y-91475600D01*
X139903200Y-91831200D01*
G37*
G36*
X139903200Y-93558400D02*
G01*
X138480800Y-93558400D01*
X138480800Y-93202800D01*
X139903200Y-93202800D01*
X139903200Y-93558400D01*
G37*
D17*
%TO.C,D1*%
X131489000Y-113478000D02*
X132539000Y-113478000D01*
X132514000Y-112328000D02*
X131089000Y-112328000D01*
X131089000Y-112553001D02*
G75*
G02*
X131089002Y-113252999I-54199J-349999D01*
G01*
X132938998Y-113252999D02*
G75*
G02*
X132939000Y-112553001I54201J349999D01*
G01*
D10*
X131267000Y-112453000D02*
G75*
G02*
X131061000Y-112453000I-103000J0D01*
G01*
X131061000Y-112453000D02*
G75*
G02*
X131267000Y-112453000I103000J0D01*
G01*
D18*
G36*
X131089000Y-112603000D02*
G01*
X131014000Y-112603000D01*
X131014000Y-112278000D01*
X131089000Y-112278000D01*
X131089000Y-112603000D01*
G37*
G36*
X131514000Y-112603000D02*
G01*
X131252000Y-112603000D01*
X131252000Y-112303000D01*
X131514000Y-112303000D01*
X131514000Y-112603000D01*
G37*
G36*
X131514000Y-112728000D02*
G01*
X131264000Y-112728000D01*
X131264000Y-112578000D01*
X131514000Y-112578000D01*
X131514000Y-112728000D01*
G37*
G36*
X131514000Y-113103000D02*
G01*
X131339000Y-113103000D01*
X131339000Y-112703000D01*
X131514000Y-112703000D01*
X131514000Y-113103000D01*
G37*
G36*
X131514000Y-113228000D02*
G01*
X131264000Y-113228000D01*
X131264000Y-113078000D01*
X131514000Y-113078000D01*
X131514000Y-113228000D01*
G37*
G36*
X131514000Y-113528000D02*
G01*
X131014000Y-113528000D01*
X131014000Y-113203000D01*
X131514000Y-113203000D01*
X131514000Y-113528000D01*
G37*
G36*
X132689000Y-113103000D02*
G01*
X132514000Y-113103000D01*
X132514000Y-112703000D01*
X132689000Y-112703000D01*
X132689000Y-113103000D01*
G37*
G36*
X132764000Y-112728000D02*
G01*
X132514000Y-112728000D01*
X132514000Y-112578000D01*
X132764000Y-112578000D01*
X132764000Y-112728000D01*
G37*
G36*
X132764000Y-113228000D02*
G01*
X132514000Y-113228000D01*
X132514000Y-113078000D01*
X132764000Y-113078000D01*
X132764000Y-113228000D01*
G37*
G36*
X133014000Y-112603000D02*
G01*
X132514000Y-112603000D01*
X132514000Y-112278000D01*
X133014000Y-112278000D01*
X133014000Y-112603000D01*
G37*
G36*
X133014000Y-113528000D02*
G01*
X132514000Y-113528000D01*
X132514000Y-113203000D01*
X133014000Y-113203000D01*
X133014000Y-113528000D01*
G37*
%TD*%
D24*
X114012546Y-46621241D02*
X114012546Y-49542241D01*
X114012546Y-49542241D02*
X144492546Y-49542241D01*
X144492546Y-46621241D02*
G75*
G02*
X145762546Y-45351246I1269954J41D01*
G01*
X144492546Y-49542241D02*
X144492546Y-46621241D01*
X146143546Y-45351241D02*
G75*
G02*
X147413459Y-46621241I-46J-1269959D01*
G01*
X146143546Y-113931241D02*
X87723546Y-113931241D01*
X147413546Y-112661241D02*
G75*
G02*
X146143546Y-113931246I-1270046J41D01*
G01*
X86453546Y-46621241D02*
G75*
G02*
X87723546Y-45351246I1269954J41D01*
G01*
X147413546Y-46621241D02*
X147413546Y-112661241D01*
X87723546Y-45351241D02*
X112742546Y-45351241D01*
X86451424Y-46621241D02*
X86451424Y-112661241D01*
X87723546Y-113931241D02*
G75*
G02*
X86453459Y-112661241I-46J1270041D01*
G01*
X145762546Y-45351241D02*
X146143546Y-45351241D01*
X112742546Y-45351241D02*
G75*
G02*
X114012459Y-46621241I-46J-1269959D01*
G01*
M02*
